<?xml version="1.0" encoding="utf-8" standalone="no"?>
<!DOCTYPE svg PUBLIC "-//W3C//DTD SVG 1.1//EN"
  "http://www.w3.org/Graphics/SVG/1.1/DTD/svg11.dtd">
<svg height="302.4pt" version="1.1" viewBox="0 0 324 302.4" width="324pt" xmlns="http://www.w3.org/2000/svg" xmlns:xlink="http://www.w3.org/1999/xlink">
 <metadata>
  <rdf:RDF xmlns:cc="http://creativecommons.org/ns#" xmlns:dc="http://purl.org/dc/elements/1.1/" xmlns:rdf="http://www.w3.org/1999/02/22-rdf-syntax-ns#">
   <cc:Work>
    <dc:type rdf:resource="http://purl.org/dc/dcmitype/StillImage"/>
    <dc:date>2021-08-08T11:02:06.882506</dc:date>
    <dc:format>image/svg+xml</dc:format>
    <dc:creator>
     <cc:Agent>
      <dc:title>Matplotlib v3.4.0rc1, https://matplotlib.org/</dc:title>
     </cc:Agent>
    </dc:creator>
   </cc:Work>
  </rdf:RDF>
 </metadata>
 <defs>
  <style type="text/css">*{stroke-linecap:butt;stroke-linejoin:round;}</style>
 </defs>
 <g id="figure_1">
  <g id="patch_1">
   <path d="M 0 302.4 
L 324 302.4 
L 324 0 
L 0 0 
z
" style="fill:none;"/>
  </g>
  <g id="axes_1">
   <g id="patch_2">
    <path d="M 56.585 251.94 
L 311.04 251.94 
L 311.04 17.96 
L 56.585 17.96 
z
" style="fill:#ffffff;"/>
   </g>
   <g id="PolyCollection_1">
    <path clip-path="url(#p8a6e977b1e)" d="M 68.151136 47.2075 
L 68.151136 47.2075 
L 73.934205 47.340031 
L 79.717273 47.765283 
L 85.500341 48.415331 
L 91.283409 49.244516 
L 97.066477 50.245759 
L 102.849545 51.394719 
L 108.632614 52.697509 
L 114.415682 54.104346 
L 120.19875 55.631308 
L 125.981818 57.324762 
L 131.764886 59.090756 
L 137.547955 61.06653 
L 143.331023 63.018735 
L 149.114091 64.925222 
L 154.897159 66.685889 
L 160.680227 68.348725 
L 166.463295 69.791839 
L 172.246364 71.201151 
L 178.029432 72.70785 
L 183.8125 74.10941 
L 189.595568 75.38743 
L 195.378636 76.203025 
L 201.161705 76.969639 
L 206.944773 78.040382 
L 212.727841 78.71253 
L 218.510909 79.142923 
L 224.293977 79.880966 
L 230.077045 79.867266 
L 235.860114 79.840993 
L 241.643182 80.032926 
L 247.42625 79.594629 
L 253.209318 79.574342 
L 258.992386 79.645723 
L 264.775455 79.640417 
L 270.558523 79.738339 
L 276.341591 79.404179 
L 282.124659 78.896962 
L 287.907727 78.811592 
L 293.690795 79.241688 
L 299.473864 79.553222 
L 299.473864 60.95315 
L 299.473864 60.95315 
L 293.690795 60.671186 
L 287.907727 60.427951 
L 282.124659 60.123016 
L 276.341591 59.810742 
L 270.558523 59.618202 
L 264.775455 59.372949 
L 258.992386 59.278571 
L 253.209318 59.122315 
L 247.42625 58.979845 
L 241.643182 58.750029 
L 235.860114 58.560062 
L 230.077045 58.270106 
L 224.293977 57.965112 
L 218.510909 57.606138 
L 212.727841 57.284455 
L 206.944773 56.940894 
L 201.161705 56.573939 
L 195.378636 56.240185 
L 189.595568 55.836153 
L 183.8125 55.477222 
L 178.029432 55.137516 
L 172.246364 54.785975 
L 166.463295 54.410235 
L 160.680227 54.014256 
L 154.897159 53.60487 
L 149.114091 53.16606 
L 143.331023 52.708927 
L 137.547955 52.162352 
L 131.764886 51.578493 
L 125.981818 51.016724 
L 120.19875 50.481291 
L 114.415682 49.968301 
L 108.632614 49.480327 
L 102.849545 49.02037 
L 97.066477 48.586791 
L 91.283409 48.183321 
L 85.500341 47.819846 
L 79.717273 47.505967 
L 73.934205 47.282929 
L 68.151136 47.2075 
z
" style="fill:#dc143c;fill-opacity:0.2;"/>
   </g>
   <g id="PolyCollection_2">
    <path clip-path="url(#p8a6e977b1e)" d="M 68.151136 47.2075 
L 68.151136 47.2075 
L 73.934205 47.330678 
L 79.717273 47.720831 
L 85.500341 48.316497 
L 91.283409 49.079634 
L 97.066477 49.995403 
L 102.849545 51.033219 
L 108.632614 52.192589 
L 114.415682 53.499245 
L 120.19875 54.905259 
L 125.981818 56.408911 
L 131.764886 57.994956 
L 137.547955 59.766214 
L 143.331023 61.530874 
L 149.114091 63.077842 
L 154.897159 64.625888 
L 160.680227 65.935144 
L 166.463295 67.25093 
L 172.246364 68.37087 
L 178.029432 69.484167 
L 183.8125 70.693446 
L 189.595568 71.727909 
L 195.378636 72.587878 
L 201.161705 73.372098 
L 206.944773 74.029199 
L 212.727841 74.859326 
L 218.510909 75.270424 
L 224.293977 75.384773 
L 230.077045 75.640677 
L 235.860114 75.472361 
L 241.643182 75.572813 
L 247.42625 75.304257 
L 253.209318 75.300558 
L 258.992386 75.336443 
L 264.775455 75.544023 
L 270.558523 75.883678 
L 276.341591 75.719405 
L 282.124659 75.8563 
L 287.907727 75.900368 
L 293.690795 76.291034 
L 299.473864 76.525652 
L 299.473864 62.666834 
L 299.473864 62.666834 
L 293.690795 62.355189 
L 287.907727 62.086228 
L 282.124659 61.769777 
L 276.341591 61.458196 
L 270.558523 61.183084 
L 264.775455 60.962512 
L 258.992386 60.695047 
L 253.209318 60.472067 
L 247.42625 60.241595 
L 241.643182 59.945401 
L 235.860114 59.55908 
L 230.077045 59.214328 
L 224.293977 58.892788 
L 218.510909 58.539477 
L 212.727841 58.205416 
L 206.944773 57.838874 
L 201.161705 57.479874 
L 195.378636 57.129454 
L 189.595568 56.725375 
L 183.8125 56.325153 
L 178.029432 55.95767 
L 172.246364 55.581569 
L 166.463295 55.154522 
L 160.680227 54.767144 
L 154.897159 54.313934 
L 149.114091 53.870782 
L 143.331023 53.335333 
L 137.547955 52.709506 
L 131.764886 52.08352 
L 125.981818 51.449573 
L 120.19875 50.856263 
L 114.415682 50.285648 
L 108.632614 49.73844 
L 102.849545 49.213449 
L 97.066477 48.719827 
L 91.283409 48.266416 
L 85.500341 47.862605 
L 79.717273 47.525139 
L 73.934205 47.286721 
L 68.151136 47.2075 
z
" style="fill:#1f77b4;fill-opacity:0.2;"/>
   </g>
   <g id="PolyCollection_3">
    <path clip-path="url(#p8a6e977b1e)" d="M 68.151136 47.2075 
L 68.151136 47.2075 
L 73.934205 47.324918 
L 79.717273 47.697165 
L 85.500341 48.256796 
L 91.283409 48.966566 
L 97.066477 49.8083 
L 102.849545 50.769748 
L 108.632614 51.843284 
L 114.415682 53.023164 
L 120.19875 54.290667 
L 125.981818 55.65477 
L 131.764886 57.062204 
L 137.547955 58.577334 
L 143.331023 60.15634 
L 149.114091 61.571023 
L 154.897159 62.811654 
L 160.680227 63.949673 
L 166.463295 65.120302 
L 172.246364 66.131775 
L 178.029432 67.090379 
L 183.8125 68.021978 
L 189.595568 68.904731 
L 195.378636 69.611129 
L 201.161705 70.372361 
L 206.944773 71.030277 
L 212.727841 71.375567 
L 218.510909 71.714493 
L 224.293977 71.925963 
L 230.077045 72.07946 
L 235.860114 72.196424 
L 241.643182 72.21693 
L 247.42625 72.485794 
L 253.209318 72.615416 
L 258.992386 72.678963 
L 264.775455 72.849422 
L 270.558523 73.110609 
L 276.341591 73.390884 
L 282.124659 73.675724 
L 287.907727 73.860771 
L 293.690795 74.09563 
L 299.473864 74.474968 
L 299.473864 63.925973 
L 299.473864 63.925973 
L 293.690795 63.667682 
L 287.907727 63.372613 
L 282.124659 63.113186 
L 276.341591 62.821781 
L 270.558523 62.53173 
L 264.775455 62.214378 
L 258.992386 61.866407 
L 253.209318 61.558582 
L 247.42625 61.276578 
L 241.643182 60.995163 
L 235.860114 60.688618 
L 230.077045 60.333276 
L 224.293977 59.99525 
L 218.510909 59.603435 
L 212.727841 59.225564 
L 206.944773 58.85549 
L 201.161705 58.492389 
L 195.378636 58.063071 
L 189.595568 57.648995 
L 183.8125 57.254441 
L 178.029432 56.878983 
L 172.246364 56.457528 
L 166.463295 56.035285 
L 160.680227 55.603265 
L 154.897159 55.145542 
L 149.114091 54.648598 
L 143.331023 54.08818 
L 137.547955 53.386638 
L 131.764886 52.656167 
L 125.981818 51.937149 
L 120.19875 51.266631 
L 114.415682 50.618641 
L 108.632614 49.992094 
L 102.849545 49.405128 
L 97.066477 48.855273 
L 91.283409 48.353087 
L 85.500341 47.909331 
L 79.717273 47.545158 
L 73.934205 47.291011 
L 68.151136 47.2075 
z
" style="fill:#ff7f0e;fill-opacity:0.2;"/>
   </g>
   <g id="PolyCollection_4">
    <path clip-path="url(#p8a6e977b1e)" d="M 68.151136 47.2075 
L 68.151136 47.2075 
L 73.934205 47.315602 
L 79.717273 47.65373 
L 85.500341 48.156953 
L 91.283409 48.793119 
L 97.066477 49.533989 
L 102.849545 50.36839 
L 108.632614 51.302831 
L 114.415682 52.310393 
L 120.19875 53.387558 
L 125.981818 54.523643 
L 131.764886 55.744076 
L 137.547955 57.015123 
L 143.331023 58.232108 
L 149.114091 59.288595 
L 154.897159 60.301232 
L 160.680227 61.254476 
L 166.463295 62.141367 
L 172.246364 62.894141 
L 178.029432 63.601498 
L 183.8125 64.272 
L 189.595568 64.869645 
L 195.378636 65.439837 
L 201.161705 66.014445 
L 206.944773 66.512007 
L 212.727841 66.972152 
L 218.510909 67.334883 
L 224.293977 67.703548 
L 230.077045 68.069246 
L 235.860114 68.348174 
L 241.643182 68.619894 
L 247.42625 68.90434 
L 253.209318 69.190394 
L 258.992386 69.446994 
L 264.775455 69.757501 
L 270.558523 70.012622 
L 276.341591 70.326062 
L 282.124659 70.625162 
L 287.907727 70.976569 
L 293.690795 71.256913 
L 299.473864 71.598115 
L 299.473864 66.190411 
L 299.473864 66.190411 
L 293.690795 65.845836 
L 287.907727 65.475406 
L 282.124659 65.157214 
L 276.341591 64.817922 
L 270.558523 64.473731 
L 264.775455 64.173457 
L 258.992386 63.82558 
L 253.209318 63.544898 
L 247.42625 63.229811 
L 241.643182 62.884977 
L 235.860114 62.542629 
L 230.077045 62.249856 
L 224.293977 61.914306 
L 218.510909 61.556503 
L 212.727841 61.176886 
L 206.944773 60.804641 
L 201.161705 60.401132 
L 195.378636 60.000324 
L 189.595568 59.561929 
L 183.8125 59.104336 
L 178.029432 58.667759 
L 172.246364 58.222957 
L 166.463295 57.693104 
L 160.680227 57.145356 
L 154.897159 56.558145 
L 149.114091 55.922546 
L 143.331023 55.211309 
L 137.547955 54.368294 
L 131.764886 53.488534 
L 125.981818 52.648708 
L 120.19875 51.838511 
L 114.415682 51.069526 
L 108.632614 50.34256 
L 102.849545 49.658782 
L 97.066477 49.034484 
L 91.283409 48.46933 
L 85.500341 47.974455 
L 79.717273 47.574369 
L 73.934205 47.29772 
L 68.151136 47.2075 
z
" style="fill:#2ca02c;fill-opacity:0.2;"/>
   </g>
   <g id="PolyCollection_5">
    <path clip-path="url(#p8a6e977b1e)" d="M 68.151136 47.2075 
L 68.151136 47.2075 
L 73.934205 47.393092 
L 79.717273 47.729494 
L 85.500341 48.304385 
L 91.283409 49.039588 
L 97.066477 49.922327 
L 102.849545 51.046012 
L 108.632614 52.081863 
L 114.415682 53.460087 
L 120.19875 54.834047 
L 125.981818 56.377532 
L 131.764886 58.019267 
L 137.547955 59.771269 
L 143.331023 61.552444 
L 149.114091 63.236931 
L 154.897159 65.086641 
L 160.680227 66.791206 
L 166.463295 68.474827 
L 172.246364 70.120509 
L 178.029432 71.551707 
L 183.8125 72.617299 
L 189.595568 74.054736 
L 195.378636 74.912804 
L 201.161705 76.00127 
L 206.944773 77.396899 
L 212.727841 78.464236 
L 218.510909 79.485868 
L 224.293977 80.486282 
L 230.077045 81.656533 
L 235.860114 82.716904 
L 241.643182 84.041051 
L 247.42625 85.253708 
L 253.209318 86.501432 
L 258.992386 87.241357 
L 264.775455 88.150818 
L 270.558523 89.145463 
L 276.341591 90.355362 
L 282.124659 91.657203 
L 287.907727 92.919818 
L 293.690795 93.812954 
L 299.473864 94.842589 
L 299.473864 61.776457 
L 299.473864 61.776457 
L 293.690795 61.508961 
L 287.907727 61.142446 
L 282.124659 60.762187 
L 276.341591 60.453391 
L 270.558523 60.12678 
L 264.775455 59.681616 
L 258.992386 59.354954 
L 253.209318 58.948965 
L 247.42625 58.688901 
L 241.643182 58.362506 
L 235.860114 57.489398 
L 230.077045 57.082932 
L 224.293977 56.598911 
L 218.510909 56.19841 
L 212.727841 55.826185 
L 206.944773 55.502443 
L 201.161705 54.953521 
L 195.378636 54.853791 
L 189.595568 54.520162 
L 183.8125 53.779136 
L 178.029432 52.971446 
L 172.246364 52.623583 
L 166.463295 51.777987 
L 160.680227 51.888122 
L 154.897159 51.714555 
L 149.114091 51.101877 
L 143.331023 50.949899 
L 137.547955 50.534721 
L 131.764886 49.952987 
L 125.981818 49.854844 
L 120.19875 49.492479 
L 114.415682 48.964025 
L 108.632614 48.650285 
L 102.849545 48.240062 
L 97.066477 47.790822 
L 91.283409 47.440073 
L 85.500341 47.277763 
L 79.717273 47.190226 
L 73.934205 47.14639 
L 68.151136 47.2075 
z
" style="fill:#1e90ff;fill-opacity:0.2;"/>
   </g>
   <g id="PolyCollection_6">
    <path clip-path="url(#p8a6e977b1e)" d="M 68.151136 47.2075 
L 68.151136 47.2075 
L 73.934205 47.290264 
L 79.717273 47.575361 
L 85.500341 48.04178 
L 91.283409 48.66773 
L 97.066477 49.438264 
L 102.849545 50.344718 
L 108.632614 51.364579 
L 114.415682 52.505419 
L 120.19875 53.733305 
L 125.981818 55.077459 
L 131.764886 56.495155 
L 137.547955 58.03499 
L 143.331023 59.559689 
L 149.114091 60.987121 
L 154.897159 62.323731 
L 160.680227 63.649456 
L 166.463295 64.93066 
L 172.246364 66.164192 
L 178.029432 67.401487 
L 183.8125 68.558504 
L 189.595568 69.635178 
L 195.378636 70.696645 
L 201.161705 71.75439 
L 206.944773 72.710526 
L 212.727841 73.674509 
L 218.510909 74.570384 
L 224.293977 75.392516 
L 230.077045 76.341831 
L 235.860114 77.280842 
L 241.643182 78.167292 
L 247.42625 79.042397 
L 253.209318 79.814509 
L 258.992386 80.667316 
L 264.775455 81.571098 
L 270.558523 82.487828 
L 276.341591 83.459348 
L 282.124659 84.43269 
L 287.907727 85.326025 
L 293.690795 86.26371 
L 299.473864 87.176543 
L 299.473864 64.14077 
L 299.473864 64.14077 
L 293.690795 63.773654 
L 287.907727 63.342318 
L 282.124659 62.916225 
L 276.341591 62.52812 
L 270.558523 62.104745 
L 264.775455 61.69492 
L 258.992386 61.297547 
L 253.209318 60.911952 
L 247.42625 60.494716 
L 241.643182 60.077486 
L 235.860114 59.686613 
L 230.077045 59.329219 
L 224.293977 58.968034 
L 218.510909 58.519672 
L 212.727841 58.093264 
L 206.944773 57.689024 
L 201.161705 57.266231 
L 195.378636 56.861889 
L 189.595568 56.401785 
L 183.8125 55.964239 
L 178.029432 55.51298 
L 172.246364 55.055864 
L 166.463295 54.57171 
L 160.680227 54.055932 
L 154.897159 53.54017 
L 149.114091 52.978614 
L 143.331023 52.406996 
L 137.547955 51.787854 
L 131.764886 51.179154 
L 125.981818 50.596486 
L 120.19875 50.049535 
L 114.415682 49.539728 
L 108.632614 49.056074 
L 102.849545 48.613803 
L 97.066477 48.217883 
L 91.283409 47.875354 
L 85.500341 47.5922 
L 79.717273 47.379284 
L 73.934205 47.246106 
L 68.151136 47.2075 
z
" style="fill:#d62728;fill-opacity:0.2;"/>
   </g>
   <g id="PolyCollection_7">
    <path clip-path="url(#p8a6e977b1e)" d="M 68.151136 47.2075 
L 68.151136 47.2075 
L 73.934205 47.282522 
L 79.717273 47.541475 
L 85.500341 47.963939 
L 91.283409 48.529516 
L 97.066477 49.225684 
L 102.849545 50.036603 
L 108.632614 50.955135 
L 114.415682 51.958536 
L 120.19875 53.063253 
L 125.981818 54.256996 
L 131.764886 55.504184 
L 137.547955 56.8557 
L 143.331023 58.208518 
L 149.114091 59.490581 
L 154.897159 60.738135 
L 160.680227 61.935539 
L 166.463295 63.064425 
L 172.246364 64.190171 
L 178.029432 65.250576 
L 183.8125 66.266616 
L 189.595568 67.231769 
L 195.378636 68.126207 
L 201.161705 69.086133 
L 206.944773 69.991258 
L 212.727841 70.814155 
L 218.510909 71.658299 
L 224.293977 72.504752 
L 230.077045 73.259901 
L 235.860114 74.022349 
L 241.643182 74.832961 
L 247.42625 75.592116 
L 253.209318 76.36819 
L 258.992386 77.200179 
L 264.775455 78.070314 
L 270.558523 78.904073 
L 276.341591 79.748765 
L 282.124659 80.619962 
L 287.907727 81.564673 
L 293.690795 82.45143 
L 299.473864 83.329215 
L 299.473864 66.3391 
L 299.473864 66.3391 
L 293.690795 65.8551 
L 287.907727 65.343756 
L 282.124659 64.829057 
L 276.341591 64.373774 
L 270.558523 63.910063 
L 264.775455 63.455849 
L 258.992386 62.981326 
L 253.209318 62.533632 
L 247.42625 62.097862 
L 241.643182 61.660703 
L 235.860114 61.206488 
L 230.077045 60.743353 
L 224.293977 60.279116 
L 218.510909 59.807117 
L 212.727841 59.349775 
L 206.944773 58.880781 
L 201.161705 58.412285 
L 195.378636 57.923395 
L 189.595568 57.424497 
L 183.8125 56.918723 
L 178.029432 56.396257 
L 172.246364 55.872341 
L 166.463295 55.337683 
L 160.680227 54.762752 
L 154.897159 54.180858 
L 149.114091 53.571089 
L 143.331023 52.92813 
L 137.547955 52.257593 
L 131.764886 51.579167 
L 125.981818 50.939797 
L 120.19875 50.331064 
L 114.415682 49.768102 
L 108.632614 49.236514 
L 102.849545 48.752596 
L 97.066477 48.319314 
L 91.283409 47.943431 
L 85.500341 47.630454 
L 79.717273 47.395209 
L 73.934205 47.248925 
L 68.151136 47.2075 
z
" style="fill:#9467bd;fill-opacity:0.2;"/>
   </g>
   <g id="PolyCollection_8">
    <path clip-path="url(#p8a6e977b1e)" d="M 68.151136 47.2075 
L 68.151136 47.2075 
L 73.934205 47.273347 
L 79.717273 47.50084 
L 85.500341 47.872885 
L 91.283409 48.369144 
L 97.066477 48.979355 
L 102.849545 49.685554 
L 108.632614 50.484332 
L 114.415682 51.366487 
L 120.19875 52.32042 
L 125.981818 53.339003 
L 131.764886 54.416563 
L 137.547955 55.554555 
L 143.331023 56.70802 
L 149.114091 57.794803 
L 154.897159 58.837026 
L 160.680227 59.828953 
L 166.463295 60.774943 
L 172.246364 61.688219 
L 178.029432 62.568111 
L 183.8125 63.452843 
L 189.595568 64.286479 
L 195.378636 65.100749 
L 201.161705 65.908777 
L 206.944773 66.679021 
L 212.727841 67.458349 
L 218.510909 68.187754 
L 224.293977 68.886364 
L 230.077045 69.601111 
L 235.860114 70.347096 
L 241.643182 71.00273 
L 247.42625 71.690415 
L 253.209318 72.371368 
L 258.992386 73.074425 
L 264.775455 73.78583 
L 270.558523 74.491674 
L 276.341591 75.208053 
L 282.124659 75.986017 
L 287.907727 76.769005 
L 293.690795 77.583187 
L 299.473864 78.320307 
L 299.473864 69.713776 
L 299.473864 69.713776 
L 293.690795 69.137848 
L 287.907727 68.569787 
L 282.124659 67.99952 
L 276.341591 67.426409 
L 270.558523 66.872057 
L 264.775455 66.328534 
L 258.992386 65.778607 
L 253.209318 65.272233 
L 247.42625 64.740355 
L 241.643182 64.219478 
L 235.860114 63.723016 
L 230.077045 63.164709 
L 224.293977 62.650178 
L 218.510909 62.121835 
L 212.727841 61.568618 
L 206.944773 61.006182 
L 201.161705 60.442909 
L 195.378636 59.852032 
L 189.595568 59.262805 
L 183.8125 58.667238 
L 178.029432 58.065162 
L 172.246364 57.448381 
L 166.463295 56.798063 
L 160.680227 56.126729 
L 154.897159 55.425476 
L 149.114091 54.698582 
L 143.331023 53.936365 
L 137.547955 53.129551 
L 131.764886 52.324825 
L 125.981818 51.564563 
L 120.19875 50.850585 
L 114.415682 50.180036 
L 108.632614 49.560592 
L 102.849545 48.995402 
L 97.066477 48.488786 
L 91.283409 48.051748 
L 85.500341 47.692652 
L 79.717273 47.422571 
L 73.934205 47.255951 
L 68.151136 47.2075 
z
" style="fill:#8c564b;fill-opacity:0.2;"/>
   </g>
   <g id="matplotlib.axis_1">
    <g id="xtick_1">
     <g id="line2d_1">
      <defs>
       <path d="M 0 0 
L 0 3.5 
" id="m2496ba8008" style="stroke:#000000;stroke-width:0.8;"/>
      </defs>
      <g>
       <use style="stroke:#000000;stroke-width:0.8;" x="68.151136" xlink:href="#m2496ba8008" y="251.94"/>
      </g>
     </g>
     <g id="text_1">
      <!-- 2021 -->
      <g transform="translate(71.462386 289.48)rotate(-90)scale(0.12 -0.12)">
       <defs>
        <path d="M 1228 531 
L 3431 531 
L 3431 0 
L 469 0 
L 469 531 
Q 828 903 1448 1529 
Q 2069 2156 2228 2338 
Q 2531 2678 2651 2914 
Q 2772 3150 2772 3378 
Q 2772 3750 2511 3984 
Q 2250 4219 1831 4219 
Q 1534 4219 1204 4116 
Q 875 4013 500 3803 
L 500 4441 
Q 881 4594 1212 4672 
Q 1544 4750 1819 4750 
Q 2544 4750 2975 4387 
Q 3406 4025 3406 3419 
Q 3406 3131 3298 2873 
Q 3191 2616 2906 2266 
Q 2828 2175 2409 1742 
Q 1991 1309 1228 531 
z
" id="DejaVuSans-32" transform="scale(0.015625)"/>
        <path d="M 2034 4250 
Q 1547 4250 1301 3770 
Q 1056 3291 1056 2328 
Q 1056 1369 1301 889 
Q 1547 409 2034 409 
Q 2525 409 2770 889 
Q 3016 1369 3016 2328 
Q 3016 3291 2770 3770 
Q 2525 4250 2034 4250 
z
M 2034 4750 
Q 2819 4750 3233 4129 
Q 3647 3509 3647 2328 
Q 3647 1150 3233 529 
Q 2819 -91 2034 -91 
Q 1250 -91 836 529 
Q 422 1150 422 2328 
Q 422 3509 836 4129 
Q 1250 4750 2034 4750 
z
" id="DejaVuSans-30" transform="scale(0.015625)"/>
        <path d="M 794 531 
L 1825 531 
L 1825 4091 
L 703 3866 
L 703 4441 
L 1819 4666 
L 2450 4666 
L 2450 531 
L 3481 531 
L 3481 0 
L 794 0 
L 794 531 
z
" id="DejaVuSans-31" transform="scale(0.015625)"/>
       </defs>
       <use xlink:href="#DejaVuSans-32"/>
       <use x="63.623047" xlink:href="#DejaVuSans-30"/>
       <use x="127.246094" xlink:href="#DejaVuSans-32"/>
       <use x="190.869141" xlink:href="#DejaVuSans-31"/>
      </g>
     </g>
    </g>
    <g id="xtick_2">
     <g id="line2d_2">
      <g>
       <use style="stroke:#000000;stroke-width:0.8;" x="91.283409" xlink:href="#m2496ba8008" y="251.94"/>
      </g>
     </g>
     <g id="text_2">
      <!-- 2022 -->
      <g transform="translate(94.594659 289.48)rotate(-90)scale(0.12 -0.12)">
       <use xlink:href="#DejaVuSans-32"/>
       <use x="63.623047" xlink:href="#DejaVuSans-30"/>
       <use x="127.246094" xlink:href="#DejaVuSans-32"/>
       <use x="190.869141" xlink:href="#DejaVuSans-32"/>
      </g>
     </g>
    </g>
    <g id="xtick_3">
     <g id="line2d_3">
      <g>
       <use style="stroke:#000000;stroke-width:0.8;" x="114.415682" xlink:href="#m2496ba8008" y="251.94"/>
      </g>
     </g>
     <g id="text_3">
      <!-- 2023 -->
      <g transform="translate(117.726932 289.48)rotate(-90)scale(0.12 -0.12)">
       <defs>
        <path d="M 2597 2516 
Q 3050 2419 3304 2112 
Q 3559 1806 3559 1356 
Q 3559 666 3084 287 
Q 2609 -91 1734 -91 
Q 1441 -91 1130 -33 
Q 819 25 488 141 
L 488 750 
Q 750 597 1062 519 
Q 1375 441 1716 441 
Q 2309 441 2620 675 
Q 2931 909 2931 1356 
Q 2931 1769 2642 2001 
Q 2353 2234 1838 2234 
L 1294 2234 
L 1294 2753 
L 1863 2753 
Q 2328 2753 2575 2939 
Q 2822 3125 2822 3475 
Q 2822 3834 2567 4026 
Q 2313 4219 1838 4219 
Q 1578 4219 1281 4162 
Q 984 4106 628 3988 
L 628 4550 
Q 988 4650 1302 4700 
Q 1616 4750 1894 4750 
Q 2613 4750 3031 4423 
Q 3450 4097 3450 3541 
Q 3450 3153 3228 2886 
Q 3006 2619 2597 2516 
z
" id="DejaVuSans-33" transform="scale(0.015625)"/>
       </defs>
       <use xlink:href="#DejaVuSans-32"/>
       <use x="63.623047" xlink:href="#DejaVuSans-30"/>
       <use x="127.246094" xlink:href="#DejaVuSans-32"/>
       <use x="190.869141" xlink:href="#DejaVuSans-33"/>
      </g>
     </g>
    </g>
    <g id="xtick_4">
     <g id="line2d_4">
      <g>
       <use style="stroke:#000000;stroke-width:0.8;" x="137.547955" xlink:href="#m2496ba8008" y="251.94"/>
      </g>
     </g>
     <g id="text_4">
      <!-- 2024 -->
      <g transform="translate(140.859205 289.48)rotate(-90)scale(0.12 -0.12)">
       <defs>
        <path d="M 2419 4116 
L 825 1625 
L 2419 1625 
L 2419 4116 
z
M 2253 4666 
L 3047 4666 
L 3047 1625 
L 3713 1625 
L 3713 1100 
L 3047 1100 
L 3047 0 
L 2419 0 
L 2419 1100 
L 313 1100 
L 313 1709 
L 2253 4666 
z
" id="DejaVuSans-34" transform="scale(0.015625)"/>
       </defs>
       <use xlink:href="#DejaVuSans-32"/>
       <use x="63.623047" xlink:href="#DejaVuSans-30"/>
       <use x="127.246094" xlink:href="#DejaVuSans-32"/>
       <use x="190.869141" xlink:href="#DejaVuSans-34"/>
      </g>
     </g>
    </g>
    <g id="xtick_5">
     <g id="line2d_5">
      <g>
       <use style="stroke:#000000;stroke-width:0.8;" x="160.680227" xlink:href="#m2496ba8008" y="251.94"/>
      </g>
     </g>
     <g id="text_5">
      <!-- 2025 -->
      <g transform="translate(163.991477 289.48)rotate(-90)scale(0.12 -0.12)">
       <defs>
        <path d="M 691 4666 
L 3169 4666 
L 3169 4134 
L 1269 4134 
L 1269 2991 
Q 1406 3038 1543 3061 
Q 1681 3084 1819 3084 
Q 2600 3084 3056 2656 
Q 3513 2228 3513 1497 
Q 3513 744 3044 326 
Q 2575 -91 1722 -91 
Q 1428 -91 1123 -41 
Q 819 9 494 109 
L 494 744 
Q 775 591 1075 516 
Q 1375 441 1709 441 
Q 2250 441 2565 725 
Q 2881 1009 2881 1497 
Q 2881 1984 2565 2268 
Q 2250 2553 1709 2553 
Q 1456 2553 1204 2497 
Q 953 2441 691 2322 
L 691 4666 
z
" id="DejaVuSans-35" transform="scale(0.015625)"/>
       </defs>
       <use xlink:href="#DejaVuSans-32"/>
       <use x="63.623047" xlink:href="#DejaVuSans-30"/>
       <use x="127.246094" xlink:href="#DejaVuSans-32"/>
       <use x="190.869141" xlink:href="#DejaVuSans-35"/>
      </g>
     </g>
    </g>
    <g id="xtick_6">
     <g id="line2d_6">
      <g>
       <use style="stroke:#000000;stroke-width:0.8;" x="183.8125" xlink:href="#m2496ba8008" y="251.94"/>
      </g>
     </g>
     <g id="text_6">
      <!-- 2026 -->
      <g transform="translate(187.12375 289.48)rotate(-90)scale(0.12 -0.12)">
       <defs>
        <path d="M 2113 2584 
Q 1688 2584 1439 2293 
Q 1191 2003 1191 1497 
Q 1191 994 1439 701 
Q 1688 409 2113 409 
Q 2538 409 2786 701 
Q 3034 994 3034 1497 
Q 3034 2003 2786 2293 
Q 2538 2584 2113 2584 
z
M 3366 4563 
L 3366 3988 
Q 3128 4100 2886 4159 
Q 2644 4219 2406 4219 
Q 1781 4219 1451 3797 
Q 1122 3375 1075 2522 
Q 1259 2794 1537 2939 
Q 1816 3084 2150 3084 
Q 2853 3084 3261 2657 
Q 3669 2231 3669 1497 
Q 3669 778 3244 343 
Q 2819 -91 2113 -91 
Q 1303 -91 875 529 
Q 447 1150 447 2328 
Q 447 3434 972 4092 
Q 1497 4750 2381 4750 
Q 2619 4750 2861 4703 
Q 3103 4656 3366 4563 
z
" id="DejaVuSans-36" transform="scale(0.015625)"/>
       </defs>
       <use xlink:href="#DejaVuSans-32"/>
       <use x="63.623047" xlink:href="#DejaVuSans-30"/>
       <use x="127.246094" xlink:href="#DejaVuSans-32"/>
       <use x="190.869141" xlink:href="#DejaVuSans-36"/>
      </g>
     </g>
    </g>
    <g id="xtick_7">
     <g id="line2d_7">
      <g>
       <use style="stroke:#000000;stroke-width:0.8;" x="206.944773" xlink:href="#m2496ba8008" y="251.94"/>
      </g>
     </g>
     <g id="text_7">
      <!-- 2027 -->
      <g transform="translate(210.256023 289.48)rotate(-90)scale(0.12 -0.12)">
       <defs>
        <path d="M 525 4666 
L 3525 4666 
L 3525 4397 
L 1831 0 
L 1172 0 
L 2766 4134 
L 525 4134 
L 525 4666 
z
" id="DejaVuSans-37" transform="scale(0.015625)"/>
       </defs>
       <use xlink:href="#DejaVuSans-32"/>
       <use x="63.623047" xlink:href="#DejaVuSans-30"/>
       <use x="127.246094" xlink:href="#DejaVuSans-32"/>
       <use x="190.869141" xlink:href="#DejaVuSans-37"/>
      </g>
     </g>
    </g>
    <g id="xtick_8">
     <g id="line2d_8">
      <g>
       <use style="stroke:#000000;stroke-width:0.8;" x="230.077045" xlink:href="#m2496ba8008" y="251.94"/>
      </g>
     </g>
     <g id="text_8">
      <!-- 2028 -->
      <g transform="translate(233.388295 289.48)rotate(-90)scale(0.12 -0.12)">
       <defs>
        <path d="M 2034 2216 
Q 1584 2216 1326 1975 
Q 1069 1734 1069 1313 
Q 1069 891 1326 650 
Q 1584 409 2034 409 
Q 2484 409 2743 651 
Q 3003 894 3003 1313 
Q 3003 1734 2745 1975 
Q 2488 2216 2034 2216 
z
M 1403 2484 
Q 997 2584 770 2862 
Q 544 3141 544 3541 
Q 544 4100 942 4425 
Q 1341 4750 2034 4750 
Q 2731 4750 3128 4425 
Q 3525 4100 3525 3541 
Q 3525 3141 3298 2862 
Q 3072 2584 2669 2484 
Q 3125 2378 3379 2068 
Q 3634 1759 3634 1313 
Q 3634 634 3220 271 
Q 2806 -91 2034 -91 
Q 1263 -91 848 271 
Q 434 634 434 1313 
Q 434 1759 690 2068 
Q 947 2378 1403 2484 
z
M 1172 3481 
Q 1172 3119 1398 2916 
Q 1625 2713 2034 2713 
Q 2441 2713 2670 2916 
Q 2900 3119 2900 3481 
Q 2900 3844 2670 4047 
Q 2441 4250 2034 4250 
Q 1625 4250 1398 4047 
Q 1172 3844 1172 3481 
z
" id="DejaVuSans-38" transform="scale(0.015625)"/>
       </defs>
       <use xlink:href="#DejaVuSans-32"/>
       <use x="63.623047" xlink:href="#DejaVuSans-30"/>
       <use x="127.246094" xlink:href="#DejaVuSans-32"/>
       <use x="190.869141" xlink:href="#DejaVuSans-38"/>
      </g>
     </g>
    </g>
    <g id="xtick_9">
     <g id="line2d_9">
      <g>
       <use style="stroke:#000000;stroke-width:0.8;" x="253.209318" xlink:href="#m2496ba8008" y="251.94"/>
      </g>
     </g>
     <g id="text_9">
      <!-- 2029 -->
      <g transform="translate(256.520568 289.48)rotate(-90)scale(0.12 -0.12)">
       <defs>
        <path d="M 703 97 
L 703 672 
Q 941 559 1184 500 
Q 1428 441 1663 441 
Q 2288 441 2617 861 
Q 2947 1281 2994 2138 
Q 2813 1869 2534 1725 
Q 2256 1581 1919 1581 
Q 1219 1581 811 2004 
Q 403 2428 403 3163 
Q 403 3881 828 4315 
Q 1253 4750 1959 4750 
Q 2769 4750 3195 4129 
Q 3622 3509 3622 2328 
Q 3622 1225 3098 567 
Q 2575 -91 1691 -91 
Q 1453 -91 1209 -44 
Q 966 3 703 97 
z
M 1959 2075 
Q 2384 2075 2632 2365 
Q 2881 2656 2881 3163 
Q 2881 3666 2632 3958 
Q 2384 4250 1959 4250 
Q 1534 4250 1286 3958 
Q 1038 3666 1038 3163 
Q 1038 2656 1286 2365 
Q 1534 2075 1959 2075 
z
" id="DejaVuSans-39" transform="scale(0.015625)"/>
       </defs>
       <use xlink:href="#DejaVuSans-32"/>
       <use x="63.623047" xlink:href="#DejaVuSans-30"/>
       <use x="127.246094" xlink:href="#DejaVuSans-32"/>
       <use x="190.869141" xlink:href="#DejaVuSans-39"/>
      </g>
     </g>
    </g>
    <g id="xtick_10">
     <g id="line2d_10">
      <g>
       <use style="stroke:#000000;stroke-width:0.8;" x="276.341591" xlink:href="#m2496ba8008" y="251.94"/>
      </g>
     </g>
     <g id="text_10">
      <!-- 2030 -->
      <g transform="translate(279.652841 289.48)rotate(-90)scale(0.12 -0.12)">
       <use xlink:href="#DejaVuSans-32"/>
       <use x="63.623047" xlink:href="#DejaVuSans-30"/>
       <use x="127.246094" xlink:href="#DejaVuSans-33"/>
       <use x="190.869141" xlink:href="#DejaVuSans-30"/>
      </g>
     </g>
    </g>
    <g id="xtick_11">
     <g id="line2d_11">
      <g>
       <use style="stroke:#000000;stroke-width:0.8;" x="299.473864" xlink:href="#m2496ba8008" y="251.94"/>
      </g>
     </g>
     <g id="text_11">
      <!-- 2031 -->
      <g transform="translate(302.785114 289.48)rotate(-90)scale(0.12 -0.12)">
       <use xlink:href="#DejaVuSans-32"/>
       <use x="63.623047" xlink:href="#DejaVuSans-30"/>
       <use x="127.246094" xlink:href="#DejaVuSans-33"/>
       <use x="190.869141" xlink:href="#DejaVuSans-31"/>
      </g>
     </g>
    </g>
   </g>
   <g id="matplotlib.axis_2">
    <g id="ytick_1">
     <g id="line2d_12">
      <defs>
       <path d="M 0 0 
L -3.5 0 
" id="m4da64df796" style="stroke:#000000;stroke-width:0.8;"/>
      </defs>
      <g>
       <use style="stroke:#000000;stroke-width:0.8;" x="56.585" xlink:href="#m4da64df796" y="251.94"/>
      </g>
     </g>
     <g id="text_12">
      <!-- −14% -->
      <g transform="translate(12.8575 256.499063)scale(0.12 -0.12)">
       <defs>
        <path d="M 678 2272 
L 4684 2272 
L 4684 1741 
L 678 1741 
L 678 2272 
z
" id="DejaVuSans-2212" transform="scale(0.015625)"/>
        <path d="M 4653 2053 
Q 4381 2053 4226 1822 
Q 4072 1591 4072 1178 
Q 4072 772 4226 539 
Q 4381 306 4653 306 
Q 4919 306 5073 539 
Q 5228 772 5228 1178 
Q 5228 1588 5073 1820 
Q 4919 2053 4653 2053 
z
M 4653 2450 
Q 5147 2450 5437 2106 
Q 5728 1763 5728 1178 
Q 5728 594 5436 251 
Q 5144 -91 4653 -91 
Q 4153 -91 3862 251 
Q 3572 594 3572 1178 
Q 3572 1766 3864 2108 
Q 4156 2450 4653 2450 
z
M 1428 4353 
Q 1159 4353 1004 4120 
Q 850 3888 850 3481 
Q 850 3069 1003 2837 
Q 1156 2606 1428 2606 
Q 1700 2606 1854 2837 
Q 2009 3069 2009 3481 
Q 2009 3884 1853 4118 
Q 1697 4353 1428 4353 
z
M 4250 4750 
L 4750 4750 
L 1831 -91 
L 1331 -91 
L 4250 4750 
z
M 1428 4750 
Q 1922 4750 2215 4408 
Q 2509 4066 2509 3481 
Q 2509 2891 2217 2550 
Q 1925 2209 1428 2209 
Q 931 2209 642 2551 
Q 353 2894 353 3481 
Q 353 4063 643 4406 
Q 934 4750 1428 4750 
z
" id="DejaVuSans-25" transform="scale(0.015625)"/>
       </defs>
       <use xlink:href="#DejaVuSans-2212"/>
       <use x="83.789062" xlink:href="#DejaVuSans-31"/>
       <use x="147.412109" xlink:href="#DejaVuSans-34"/>
       <use x="211.035156" xlink:href="#DejaVuSans-25"/>
      </g>
     </g>
    </g>
    <g id="ytick_2">
     <g id="line2d_13">
      <g>
       <use style="stroke:#000000;stroke-width:0.8;" x="56.585" xlink:href="#m4da64df796" y="222.6925"/>
      </g>
     </g>
     <g id="text_13">
      <!-- −12% -->
      <g transform="translate(12.8575 227.251563)scale(0.12 -0.12)">
       <use xlink:href="#DejaVuSans-2212"/>
       <use x="83.789062" xlink:href="#DejaVuSans-31"/>
       <use x="147.412109" xlink:href="#DejaVuSans-32"/>
       <use x="211.035156" xlink:href="#DejaVuSans-25"/>
      </g>
     </g>
    </g>
    <g id="ytick_3">
     <g id="line2d_14">
      <g>
       <use style="stroke:#000000;stroke-width:0.8;" x="56.585" xlink:href="#m4da64df796" y="193.445"/>
      </g>
     </g>
     <g id="text_14">
      <!-- −10% -->
      <g transform="translate(12.8575 198.004063)scale(0.12 -0.12)">
       <use xlink:href="#DejaVuSans-2212"/>
       <use x="83.789062" xlink:href="#DejaVuSans-31"/>
       <use x="147.412109" xlink:href="#DejaVuSans-30"/>
       <use x="211.035156" xlink:href="#DejaVuSans-25"/>
      </g>
     </g>
    </g>
    <g id="ytick_4">
     <g id="line2d_15">
      <g>
       <use style="stroke:#000000;stroke-width:0.8;" x="56.585" xlink:href="#m4da64df796" y="164.1975"/>
      </g>
     </g>
     <g id="text_15">
      <!-- −8% -->
      <g transform="translate(20.4925 168.756563)scale(0.12 -0.12)">
       <use xlink:href="#DejaVuSans-2212"/>
       <use x="83.789062" xlink:href="#DejaVuSans-38"/>
       <use x="147.412109" xlink:href="#DejaVuSans-25"/>
      </g>
     </g>
    </g>
    <g id="ytick_5">
     <g id="line2d_16">
      <g>
       <use style="stroke:#000000;stroke-width:0.8;" x="56.585" xlink:href="#m4da64df796" y="134.95"/>
      </g>
     </g>
     <g id="text_16">
      <!-- −6% -->
      <g transform="translate(20.4925 139.509063)scale(0.12 -0.12)">
       <use xlink:href="#DejaVuSans-2212"/>
       <use x="83.789062" xlink:href="#DejaVuSans-36"/>
       <use x="147.412109" xlink:href="#DejaVuSans-25"/>
      </g>
     </g>
    </g>
    <g id="ytick_6">
     <g id="line2d_17">
      <g>
       <use style="stroke:#000000;stroke-width:0.8;" x="56.585" xlink:href="#m4da64df796" y="105.7025"/>
      </g>
     </g>
     <g id="text_17">
      <!-- −4% -->
      <g transform="translate(20.4925 110.261562)scale(0.12 -0.12)">
       <use xlink:href="#DejaVuSans-2212"/>
       <use x="83.789062" xlink:href="#DejaVuSans-34"/>
       <use x="147.412109" xlink:href="#DejaVuSans-25"/>
      </g>
     </g>
    </g>
    <g id="ytick_7">
     <g id="line2d_18">
      <g>
       <use style="stroke:#000000;stroke-width:0.8;" x="56.585" xlink:href="#m4da64df796" y="76.455"/>
      </g>
     </g>
     <g id="text_18">
      <!-- −2% -->
      <g transform="translate(20.4925 81.014062)scale(0.12 -0.12)">
       <use xlink:href="#DejaVuSans-2212"/>
       <use x="83.789062" xlink:href="#DejaVuSans-32"/>
       <use x="147.412109" xlink:href="#DejaVuSans-25"/>
      </g>
     </g>
    </g>
    <g id="ytick_8">
     <g id="line2d_19">
      <g>
       <use style="stroke:#000000;stroke-width:0.8;" x="56.585" xlink:href="#m4da64df796" y="47.2075"/>
      </g>
     </g>
     <g id="text_19">
      <!-- 0% -->
      <g transform="translate(30.548125 51.766562)scale(0.12 -0.12)">
       <use xlink:href="#DejaVuSans-30"/>
       <use x="63.623047" xlink:href="#DejaVuSans-25"/>
      </g>
     </g>
    </g>
    <g id="ytick_9">
     <g id="line2d_20">
      <g>
       <use style="stroke:#000000;stroke-width:0.8;" x="56.585" xlink:href="#m4da64df796" y="17.96"/>
      </g>
     </g>
     <g id="text_20">
      <!-- 2% -->
      <g transform="translate(30.548125 22.519062)scale(0.12 -0.12)">
       <use xlink:href="#DejaVuSans-32"/>
       <use x="63.623047" xlink:href="#DejaVuSans-25"/>
      </g>
     </g>
    </g>
   </g>
   <g id="line2d_21">
    <path clip-path="url(#p8a6e977b1e)" d="M 68.151136 47.2075 
L 73.934205 47.313622 
L 79.717273 47.653378 
L 85.500341 48.169905 
L 91.283409 48.826804 
L 97.066477 49.605117 
L 102.849545 50.497558 
L 108.632614 51.499396 
L 114.415682 52.603266 
L 120.19875 53.283174 
L 125.981818 53.765338 
L 131.764886 54.495021 
L 137.547955 55.376033 
L 143.331023 56.282365 
L 149.114091 57.087462 
L 154.897159 57.845871 
L 160.680227 58.574585 
L 166.463295 59.288042 
L 172.246364 59.99181 
L 178.029432 60.691574 
L 183.8125 61.386869 
L 189.595568 62.077097 
L 195.378636 62.774772 
L 201.161705 63.46973 
L 206.944773 64.171415 
L 212.727841 64.876235 
L 218.510909 65.587162 
L 224.293977 66.303961 
L 230.077045 67.029786 
L 235.860114 67.760903 
L 241.643182 68.500601 
L 247.42625 69.256032 
L 253.209318 70.015991 
L 258.992386 70.657688 
L 264.775455 69.865073 
L 270.558523 69.180984 
L 276.341591 69.060956 
L 282.124659 69.224631 
L 287.907727 69.543374 
L 293.690795 69.958616 
L 299.473864 70.437019 
" style="fill:none;stroke:#dc143c;stroke-linecap:square;stroke-width:1.5;"/>
   </g>
   <g id="line2d_22">
    <path clip-path="url(#p8a6e977b1e)" d="M 68.151136 47.2075 
L 299.473864 47.2075 
" style="fill:none;stroke:#000000;stroke-dasharray:1,1.65;stroke-dashoffset:0;"/>
   </g>
   <g id="line2d_23">
    <path clip-path="url(#p8a6e977b1e)" d="M 68.151136 47.2075 
L 73.934205 47.27621 
L 79.717273 47.516875 
L 85.500341 47.906276 
L 91.283409 48.433296 
L 97.066477 49.081562 
L 102.849545 49.838246 
L 108.632614 50.699036 
L 114.415682 51.654458 
L 120.19875 52.630867 
L 125.981818 53.631756 
L 131.764886 54.707219 
L 137.547955 55.864948 
L 143.331023 57.040541 
L 149.114091 58.165379 
L 154.897159 59.24129 
L 160.680227 60.281157 
L 166.463295 61.282284 
L 172.246364 62.258667 
L 178.029432 63.219463 
L 183.8125 64.14594 
L 189.595568 65.064748 
L 195.378636 65.968721 
L 201.161705 66.868403 
L 206.944773 67.76274 
L 212.727841 68.644643 
L 218.510909 69.537611 
L 224.293977 70.428767 
L 230.077045 71.323645 
L 235.860114 72.221578 
L 241.643182 73.128592 
L 247.42625 74.050814 
L 253.209318 74.981365 
L 258.992386 75.906021 
L 264.775455 76.62213 
L 270.558523 77.328654 
L 276.341591 78.130481 
L 282.124659 78.967248 
L 287.907727 79.854354 
L 293.690795 80.778733 
L 299.473864 81.718945 
" style="fill:none;stroke:#1e90ff;stroke-dasharray:5.55,2.4;stroke-dashoffset:0;stroke-width:1.5;"/>
   </g>
   <g id="line2d_24">
    <path clip-path="url(#p8a6e977b1e)" d="M 68.151136 47.2075 
L 299.473864 47.2075 
" style="fill:none;stroke:#000000;stroke-dasharray:1,1.65;stroke-dashoffset:0;"/>
   </g>
   <g id="patch_3">
    <path d="M 56.585 251.94 
L 56.585 17.96 
" style="fill:none;stroke:#000000;stroke-linecap:square;stroke-linejoin:miter;stroke-width:0.8;"/>
   </g>
   <g id="patch_4">
    <path d="M 311.04 251.94 
L 311.04 17.96 
" style="fill:none;stroke:#000000;stroke-linecap:square;stroke-linejoin:miter;stroke-width:0.8;"/>
   </g>
   <g id="patch_5">
    <path d="M 56.585 251.94 
L 311.04 251.94 
" style="fill:none;stroke:#000000;stroke-linecap:square;stroke-linejoin:miter;stroke-width:0.8;"/>
   </g>
   <g id="patch_6">
    <path d="M 56.585 17.96 
L 311.04 17.96 
" style="fill:none;stroke:#000000;stroke-linecap:square;stroke-linejoin:miter;stroke-width:0.8;"/>
   </g>
  </g>
 </g>
 <defs>
  <clipPath id="p8a6e977b1e">
   <rect height="233.98" width="254.455" x="56.585" y="17.96"/>
  </clipPath>
 </defs>
</svg>
