<?xml version="1.0" encoding="utf-8" standalone="no"?>
<!DOCTYPE svg PUBLIC "-//W3C//DTD SVG 1.1//EN"
  "http://www.w3.org/Graphics/SVG/1.1/DTD/svg11.dtd">
<svg height="302.4pt" version="1.1" viewBox="0 0 324 302.4" width="324pt" xmlns="http://www.w3.org/2000/svg" xmlns:xlink="http://www.w3.org/1999/xlink">
 <metadata>
  <rdf:RDF xmlns:cc="http://creativecommons.org/ns#" xmlns:dc="http://purl.org/dc/elements/1.1/" xmlns:rdf="http://www.w3.org/1999/02/22-rdf-syntax-ns#">
   <cc:Work>
    <dc:type rdf:resource="http://purl.org/dc/dcmitype/StillImage"/>
    <dc:date>2021-08-08T11:02:05.848994</dc:date>
    <dc:format>image/svg+xml</dc:format>
    <dc:creator>
     <cc:Agent>
      <dc:title>Matplotlib v3.4.0rc1, https://matplotlib.org/</dc:title>
     </cc:Agent>
    </dc:creator>
   </cc:Work>
  </rdf:RDF>
 </metadata>
 <defs>
  <style type="text/css">*{stroke-linecap:butt;stroke-linejoin:round;}</style>
 </defs>
 <g id="figure_1">
  <g id="patch_1">
   <path d="M 0 302.4 
L 324 302.4 
L 324 0 
L 0 0 
z
" style="fill:none;"/>
  </g>
  <g id="axes_1">
   <g id="patch_2">
    <path d="M 56.585 251.94 
L 311.04 251.94 
L 311.04 17.96 
L 56.585 17.96 
z
" style="fill:#ffffff;"/>
   </g>
   <g id="PolyCollection_1">
    <path clip-path="url(#p4df57312c1)" d="M 68.151136 47.2075 
L 68.151136 47.2075 
L 73.934205 49.978274 
L 79.717273 54.057441 
L 85.500341 58.394396 
L 91.283409 63.003517 
L 97.066477 67.938651 
L 102.849545 73.175407 
L 108.632614 78.694156 
L 114.415682 84.670901 
L 120.19875 90.952782 
L 125.981818 97.671461 
L 131.764886 104.389914 
L 137.547955 111.839861 
L 143.331023 115.578907 
L 149.114091 117.537131 
L 154.897159 120.111219 
L 160.680227 122.303271 
L 166.463295 124.575224 
L 172.246364 126.64949 
L 178.029432 128.748571 
L 183.8125 130.403741 
L 189.595568 131.832592 
L 195.378636 133.361937 
L 201.161705 134.274383 
L 206.944773 134.641794 
L 212.727841 134.713272 
L 218.510909 135.445164 
L 224.293977 135.591149 
L 230.077045 135.233415 
L 235.860114 134.943664 
L 241.643182 134.779512 
L 247.42625 133.497675 
L 253.209318 133.364284 
L 258.992386 132.524734 
L 264.775455 131.447458 
L 270.558523 129.133232 
L 276.341591 127.180651 
L 282.124659 125.314222 
L 287.907727 122.47068 
L 293.690795 117.666804 
L 299.473864 110.942285 
L 299.473864 45.293833 
L 299.473864 45.293833 
L 293.690795 45.534833 
L 287.907727 45.757702 
L 282.124659 45.982861 
L 276.341591 46.206253 
L 270.558523 46.459666 
L 264.775455 46.671278 
L 258.992386 46.949982 
L 253.209318 47.204571 
L 247.42625 47.513685 
L 241.643182 47.821047 
L 235.860114 48.192124 
L 230.077045 48.558823 
L 224.293977 49.0525 
L 218.510909 49.690109 
L 212.727841 50.475403 
L 206.944773 51.535171 
L 201.161705 52.540781 
L 195.378636 53.925547 
L 189.595568 55.886629 
L 183.8125 59.00675 
L 178.029432 62.876477 
L 172.246364 66.1389 
L 166.463295 69.739829 
L 160.680227 73.088277 
L 154.897159 75.8482 
L 149.114091 78.211774 
L 143.331023 79.740304 
L 137.547955 80.816871 
L 131.764886 79.927385 
L 125.981818 77.019187 
L 120.19875 73.728699 
L 114.415682 70.452615 
L 108.632614 67.220592 
L 102.849545 64.100205 
L 97.066477 61.042382 
L 91.283409 58.070108 
L 85.500341 55.162613 
L 79.717273 52.268557 
L 73.934205 49.34103 
L 68.151136 47.2075 
z
" style="fill:#dc143c;fill-opacity:0.2;"/>
   </g>
   <g id="PolyCollection_2">
    <path clip-path="url(#p4df57312c1)" d="M 68.151136 47.2075 
L 68.151136 47.2075 
L 73.934205 49.887623 
L 79.717273 53.825939 
L 85.500341 58.032347 
L 91.283409 62.506532 
L 97.066477 67.27285 
L 102.849545 72.337103 
L 108.632614 77.732245 
L 114.415682 83.358296 
L 120.19875 89.37844 
L 125.981818 95.685402 
L 131.764886 102.237623 
L 137.547955 109.094443 
L 143.331023 112.595661 
L 149.114091 114.85873 
L 154.897159 116.963219 
L 160.680227 119.034145 
L 166.463295 121.131421 
L 172.246364 123.029849 
L 178.029432 124.894016 
L 183.8125 126.413132 
L 189.595568 127.976931 
L 195.378636 128.955547 
L 201.161705 130.104735 
L 206.944773 131.12156 
L 212.727841 131.433814 
L 218.510909 131.223019 
L 224.293977 131.455066 
L 230.077045 131.328775 
L 235.860114 130.238862 
L 241.643182 128.972425 
L 247.42625 128.603049 
L 253.209318 127.234996 
L 258.992386 125.109171 
L 264.775455 122.517952 
L 270.558523 117.737567 
L 276.341591 109.532892 
L 282.124659 105.551539 
L 287.907727 103.901232 
L 293.690795 102.787908 
L 299.473864 101.95971 
L 299.473864 45.811909 
L 299.473864 45.811909 
L 293.690795 46.039538 
L 287.907727 46.252979 
L 282.124659 46.471133 
L 276.341591 46.74864 
L 270.558523 47.009472 
L 264.775455 47.269231 
L 258.992386 47.565282 
L 253.209318 47.906062 
L 247.42625 48.270308 
L 241.643182 48.776189 
L 235.860114 49.344863 
L 230.077045 50.009028 
L 224.293977 50.767501 
L 218.510909 51.932669 
L 212.727841 53.611172 
L 206.944773 55.671197 
L 201.161705 58.653965 
L 195.378636 62.315804 
L 189.595568 65.998285 
L 183.8125 69.521102 
L 178.029432 72.58777 
L 172.246364 75.500272 
L 166.463295 78.231044 
L 160.680227 80.418407 
L 154.897159 82.582929 
L 149.114091 83.856427 
L 143.331023 84.352256 
L 137.547955 83.924034 
L 131.764886 81.285278 
L 125.981818 78.072117 
L 120.19875 74.641946 
L 114.415682 71.230734 
L 108.632614 67.870313 
L 102.849545 64.619345 
L 97.066477 61.480283 
L 91.283409 58.414605 
L 85.500341 55.438804 
L 79.717273 52.441718 
L 73.934205 49.407326 
L 68.151136 47.2075 
z
" style="fill:#1f77b4;fill-opacity:0.2;"/>
   </g>
   <g id="PolyCollection_3">
    <path clip-path="url(#p4df57312c1)" d="M 68.151136 47.2075 
L 68.151136 47.2075 
L 73.934205 49.825601 
L 79.717273 53.671666 
L 85.500341 57.775784 
L 91.283409 62.12824 
L 97.066477 66.764641 
L 102.849545 71.672188 
L 108.632614 76.866908 
L 114.415682 82.361539 
L 120.19875 88.142135 
L 125.981818 94.123566 
L 131.764886 100.39523 
L 137.547955 107.003787 
L 143.331023 110.384099 
L 149.114091 112.414577 
L 154.897159 114.513825 
L 160.680227 116.318209 
L 166.463295 118.105874 
L 172.246364 119.726745 
L 178.029432 121.512472 
L 183.8125 123.005718 
L 189.595568 124.190646 
L 195.378636 125.233144 
L 201.161705 125.88874 
L 206.944773 126.518427 
L 212.727841 126.570151 
L 218.510909 126.266476 
L 224.293977 125.926244 
L 230.077045 125.27466 
L 235.860114 124.102058 
L 241.643182 121.145516 
L 247.42625 116.279712 
L 253.209318 110.089989 
L 258.992386 106.39044 
L 264.775455 105.02756 
L 270.558523 103.904601 
L 276.341591 102.982922 
L 282.124659 102.145035 
L 287.907727 101.443812 
L 293.690795 100.39677 
L 299.473864 99.61766 
L 299.473864 46.391639 
L 299.473864 46.391639 
L 293.690795 46.615299 
L 287.907727 46.836981 
L 282.124659 47.132042 
L 276.341591 47.441738 
L 270.558523 47.833149 
L 264.775455 48.273359 
L 258.992386 48.781984 
L 253.209318 49.347156 
L 247.42625 50.079563 
L 241.643182 51.159427 
L 235.860114 52.477902 
L 230.077045 54.338983 
L 224.293977 56.886407 
L 218.510909 60.432577 
L 212.727841 64.153139 
L 206.944773 67.963213 
L 201.161705 71.241736 
L 195.378636 74.500609 
L 189.595568 77.695643 
L 183.8125 80.616645 
L 178.029432 83.209 
L 172.246364 85.267764 
L 166.463295 86.640315 
L 160.680227 86.901647 
L 154.897159 87.097303 
L 149.114091 86.80359 
L 143.331023 86.683858 
L 137.547955 85.785949 
L 131.764886 82.609042 
L 125.981818 79.203622 
L 120.19875 75.642036 
L 114.415682 72.115335 
L 108.632614 68.724871 
L 102.849545 65.360201 
L 97.066477 62.099323 
L 91.283409 58.922365 
L 85.500341 55.783824 
L 79.717273 52.64775 
L 73.934205 49.45804 
L 68.151136 47.2075 
z
" style="fill:#ff7f0e;fill-opacity:0.2;"/>
   </g>
   <g id="PolyCollection_4">
    <path clip-path="url(#p4df57312c1)" d="M 68.151136 47.2075 
L 68.151136 47.2075 
L 73.934205 49.73812 
L 79.717273 53.45432 
L 85.500341 57.406035 
L 91.283409 61.584986 
L 97.066477 66.015852 
L 102.849545 70.704945 
L 108.632614 75.636862 
L 114.415682 80.819623 
L 120.19875 86.243165 
L 125.981818 91.90745 
L 131.764886 97.738572 
L 137.547955 103.73527 
L 143.331023 106.622683 
L 149.114091 108.361834 
L 154.897159 109.885862 
L 160.680227 111.431526 
L 166.463295 112.72734 
L 172.246364 113.953579 
L 178.029432 114.920374 
L 183.8125 115.932552 
L 189.595568 116.403537 
L 195.378636 116.632362 
L 201.161705 116.52032 
L 206.944773 115.715473 
L 212.727841 113.70773 
L 218.510909 109.821238 
L 224.293977 106.260373 
L 230.077045 104.553016 
L 235.860114 103.51592 
L 241.643182 102.61279 
L 247.42625 101.925069 
L 253.209318 101.168042 
L 258.992386 100.3218 
L 264.775455 99.469772 
L 270.558523 98.666809 
L 276.341591 97.845927 
L 282.124659 96.666478 
L 287.907727 95.477823 
L 293.690795 93.675596 
L 299.473864 91.10986 
L 299.473864 47.997626 
L 299.473864 47.997626 
L 293.690795 48.558472 
L 287.907727 49.289001 
L 282.124659 50.266728 
L 276.341591 51.525749 
L 270.558523 53.102849 
L 264.775455 55.623202 
L 258.992386 59.471318 
L 253.209318 63.53272 
L 247.42625 67.435641 
L 241.643182 71.331531 
L 235.860114 75.1947 
L 230.077045 78.907398 
L 224.293977 82.363781 
L 218.510909 85.392666 
L 212.727841 88.098271 
L 206.944773 89.742328 
L 201.161705 90.617984 
L 195.378636 91.203538 
L 189.595568 91.537383 
L 183.8125 91.57772 
L 178.029432 91.607142 
L 172.246364 91.419544 
L 166.463295 91.147631 
L 160.680227 90.735242 
L 154.897159 90.496352 
L 149.114091 90.279837 
L 143.331023 90.098047 
L 137.547955 89.176438 
L 131.764886 85.397081 
L 125.981818 81.703367 
L 120.19875 78.104334 
L 114.415682 74.451193 
L 108.632614 70.936107 
L 102.849545 67.470429 
L 97.066477 63.776024 
L 91.283409 60.02982 
L 85.500341 56.406298 
L 79.717273 52.909966 
L 73.934205 49.541792 
L 68.151136 47.2075 
z
" style="fill:#2ca02c;fill-opacity:0.2;"/>
   </g>
   <g id="PolyCollection_5">
    <path clip-path="url(#p4df57312c1)" d="M 68.151136 47.2075 
L 68.151136 47.2075 
L 73.934205 47.78776 
L 79.717273 48.662125 
L 85.500341 49.663765 
L 91.283409 50.739423 
L 97.066477 51.726437 
L 102.849545 52.784058 
L 108.632614 54.355395 
L 114.415682 55.61242 
L 120.19875 56.478462 
L 125.981818 58.114835 
L 131.764886 59.624791 
L 137.547955 61.374574 
L 143.331023 62.78704 
L 149.114091 63.985872 
L 154.897159 65.009548 
L 160.680227 65.651344 
L 166.463295 66.547985 
L 172.246364 67.370681 
L 178.029432 68.329174 
L 183.8125 69.067051 
L 189.595568 69.272784 
L 195.378636 69.591375 
L 201.161705 69.976219 
L 206.944773 70.423793 
L 212.727841 70.644861 
L 218.510909 70.698134 
L 224.293977 71.032335 
L 230.077045 71.254246 
L 235.860114 71.294108 
L 241.643182 71.227242 
L 247.42625 71.13235 
L 253.209318 70.970452 
L 258.992386 70.414038 
L 264.775455 70.098942 
L 270.558523 69.634212 
L 276.341591 69.293428 
L 282.124659 69.038304 
L 287.907727 68.610832 
L 293.690795 67.685376 
L 299.473864 67.101944 
L 299.473864 41.50718 
L 299.473864 41.50718 
L 293.690795 43.258886 
L 287.907727 43.578121 
L 282.124659 42.841016 
L 276.341591 44.857273 
L 270.558523 45.802114 
L 264.775455 46.1239 
L 258.992386 46.371718 
L 253.209318 46.505241 
L 247.42625 46.670117 
L 241.643182 46.941679 
L 235.860114 47.123978 
L 230.077045 47.310905 
L 224.293977 47.569428 
L 218.510909 47.754301 
L 212.727841 47.957701 
L 206.944773 48.186798 
L 201.161705 48.420389 
L 195.378636 48.821593 
L 189.595568 49.184575 
L 183.8125 49.574384 
L 178.029432 50.029227 
L 172.246364 50.536799 
L 166.463295 51.197974 
L 160.680227 51.87029 
L 154.897159 52.483043 
L 149.114091 52.998597 
L 143.331023 53.166936 
L 137.547955 53.353427 
L 131.764886 53.06522 
L 125.981818 52.797089 
L 120.19875 52.316846 
L 114.415682 51.388624 
L 108.632614 50.706748 
L 102.849545 50.105563 
L 97.066477 49.355654 
L 91.283409 48.662854 
L 85.500341 48.129421 
L 79.717273 47.789705 
L 73.934205 47.397713 
L 68.151136 47.2075 
z
" style="fill:#1e90ff;fill-opacity:0.2;"/>
   </g>
   <g id="PolyCollection_6">
    <path clip-path="url(#p4df57312c1)" d="M 68.151136 47.2075 
L 68.151136 47.2075 
L 73.934205 47.624528 
L 79.717273 48.290704 
L 85.500341 49.051506 
L 91.283409 49.903944 
L 97.066477 50.845085 
L 102.849545 51.885515 
L 108.632614 53.010328 
L 114.415682 54.230481 
L 120.19875 55.547941 
L 125.981818 56.94656 
L 131.764886 58.449299 
L 137.547955 60.008288 
L 143.331023 61.151805 
L 149.114091 62.071551 
L 154.897159 62.932794 
L 160.680227 63.780097 
L 166.463295 64.550667 
L 172.246364 65.314205 
L 178.029432 65.99764 
L 183.8125 66.604613 
L 189.595568 67.185765 
L 195.378636 67.655139 
L 201.161705 68.126154 
L 206.944773 68.44989 
L 212.727841 68.627463 
L 218.510909 68.757092 
L 224.293977 68.801658 
L 230.077045 68.694549 
L 235.860114 68.512884 
L 241.643182 68.343973 
L 247.42625 68.064268 
L 253.209318 67.692918 
L 258.992386 67.344739 
L 264.775455 66.621915 
L 270.558523 65.921039 
L 276.341591 65.235015 
L 282.124659 64.17337 
L 287.907727 63.396489 
L 293.690795 62.641329 
L 299.473864 61.918183 
L 299.473864 46.061399 
L 299.473864 46.061399 
L 293.690795 46.194296 
L 287.907727 46.341053 
L 282.124659 46.514027 
L 276.341591 46.692605 
L 270.558523 46.844949 
L 264.775455 47.023498 
L 258.992386 47.184039 
L 253.209318 47.344356 
L 247.42625 47.557744 
L 241.643182 47.796071 
L 235.860114 48.048288 
L 230.077045 48.318289 
L 224.293977 48.611072 
L 218.510909 48.959778 
L 212.727841 49.343691 
L 206.944773 49.808782 
L 201.161705 50.417872 
L 195.378636 51.047301 
L 189.595568 51.81175 
L 183.8125 52.511617 
L 178.029432 53.133947 
L 172.246364 53.738094 
L 166.463295 54.244136 
L 160.680227 54.675725 
L 154.897159 55.006265 
L 149.114091 55.150522 
L 143.331023 55.165815 
L 137.547955 54.936216 
L 131.764886 54.29968 
L 125.981818 53.570163 
L 120.19875 52.804426 
L 114.415682 52.05266 
L 108.632614 51.322709 
L 102.849545 50.619148 
L 97.066477 49.947306 
L 91.283409 49.307373 
L 85.500341 48.698761 
L 79.717273 48.121696 
L 73.934205 47.573294 
L 68.151136 47.2075 
z
" style="fill:#d62728;fill-opacity:0.2;"/>
   </g>
   <g id="PolyCollection_7">
    <path clip-path="url(#p4df57312c1)" d="M 68.151136 47.2075 
L 68.151136 47.2075 
L 73.934205 47.616725 
L 79.717273 48.269779 
L 85.500341 49.014822 
L 91.283409 49.849184 
L 97.066477 50.770969 
L 102.849545 51.779456 
L 108.632614 52.872882 
L 114.415682 54.052466 
L 120.19875 55.316323 
L 125.981818 56.662144 
L 131.764886 58.083543 
L 137.547955 59.580708 
L 143.331023 60.63764 
L 149.114091 61.483726 
L 154.897159 62.28592 
L 160.680227 63.035595 
L 166.463295 63.728223 
L 172.246364 64.388156 
L 178.029432 65.009237 
L 183.8125 65.518937 
L 189.595568 65.960849 
L 195.378636 66.386916 
L 201.161705 66.719596 
L 206.944773 66.977539 
L 212.727841 67.005227 
L 218.510909 67.021507 
L 224.293977 66.980898 
L 230.077045 66.823267 
L 235.860114 66.619899 
L 241.643182 66.167999 
L 247.42625 65.55168 
L 253.209318 64.91814 
L 258.992386 64.273578 
L 264.775455 63.58086 
L 270.558523 62.885922 
L 276.341591 62.269438 
L 282.124659 61.618297 
L 287.907727 61.062055 
L 293.690795 60.362844 
L 299.473864 59.766097 
L 299.473864 46.418495 
L 299.473864 46.418495 
L 293.690795 46.55301 
L 287.907727 46.695916 
L 282.124659 46.870235 
L 276.341591 47.057281 
L 270.558523 47.226223 
L 264.775455 47.446654 
L 258.992386 47.693584 
L 253.209318 47.978426 
L 247.42625 48.270119 
L 241.643182 48.628488 
L 235.860114 49.076724 
L 230.077045 49.600657 
L 224.293977 50.183993 
L 218.510909 50.904937 
L 212.727841 51.689712 
L 206.944773 52.469056 
L 201.161705 53.262824 
L 195.378636 54.009624 
L 189.595568 54.651407 
L 183.8125 55.187004 
L 178.029432 55.703134 
L 172.246364 55.979349 
L 166.463295 56.085252 
L 160.680227 56.08871 
L 154.897159 56.029884 
L 149.114091 55.893139 
L 143.331023 55.719448 
L 137.547955 55.351503 
L 131.764886 54.582061 
L 125.981818 53.79208 
L 120.19875 52.997552 
L 114.415682 52.222494 
L 108.632614 51.464329 
L 102.849545 50.727945 
L 97.066477 50.029013 
L 91.283409 49.36502 
L 85.500341 48.739738 
L 79.717273 48.14471 
L 73.934205 47.579985 
L 68.151136 47.2075 
z
" style="fill:#9467bd;fill-opacity:0.2;"/>
   </g>
   <g id="PolyCollection_8">
    <path clip-path="url(#p4df57312c1)" d="M 68.151136 47.2075 
L 68.151136 47.2075 
L 73.934205 47.607245 
L 79.717273 48.242748 
L 85.500341 48.96629 
L 91.283409 49.77199 
L 97.066477 50.66082 
L 102.849545 51.627707 
L 108.632614 52.670287 
L 114.415682 53.783278 
L 120.19875 54.972986 
L 125.981818 56.235122 
L 131.764886 57.555865 
L 137.547955 58.931165 
L 143.331023 59.881381 
L 149.114091 60.586124 
L 154.897159 61.25404 
L 160.680227 61.864266 
L 166.463295 62.397294 
L 172.246364 62.836593 
L 178.029432 63.253094 
L 183.8125 63.6152 
L 189.595568 63.878663 
L 195.378636 64.074083 
L 201.161705 64.181843 
L 206.944773 64.121748 
L 212.727841 63.97399 
L 218.510909 63.670108 
L 224.293977 63.342456 
L 230.077045 62.949 
L 235.860114 62.458187 
L 241.643182 61.972747 
L 247.42625 61.470178 
L 253.209318 60.920841 
L 258.992386 60.422006 
L 264.775455 59.945146 
L 270.558523 59.419054 
L 276.341591 58.908224 
L 282.124659 58.386388 
L 287.907727 57.797742 
L 293.690795 57.227774 
L 299.473864 56.614713 
L 299.473864 47.032939 
L 299.473864 47.032939 
L 293.690795 47.302164 
L 287.907727 47.635038 
L 282.124659 47.990486 
L 276.341591 48.460427 
L 270.558523 49.01759 
L 264.775455 49.705068 
L 258.992386 50.508649 
L 253.209318 51.384389 
L 247.42625 52.283849 
L 241.643182 53.147219 
L 235.860114 53.96688 
L 230.077045 54.76767 
L 224.293977 55.439938 
L 218.510909 56.055856 
L 212.727841 56.481476 
L 206.944773 56.779748 
L 201.161705 57.000555 
L 195.378636 57.18685 
L 189.595568 57.33747 
L 183.8125 57.369615 
L 178.029432 57.355303 
L 172.246364 57.330247 
L 166.463295 57.213167 
L 160.680227 57.086934 
L 154.897159 56.894863 
L 149.114091 56.68273 
L 143.331023 56.426903 
L 137.547955 55.949961 
L 131.764886 55.0984 
L 125.981818 54.245036 
L 120.19875 53.42093 
L 114.415682 52.606542 
L 108.632614 51.844086 
L 102.849545 51.095044 
L 97.066477 50.334204 
L 91.283409 49.575589 
L 85.500341 48.847664 
L 79.717273 48.183471 
L 73.934205 47.588241 
L 68.151136 47.2075 
z
" style="fill:#8c564b;fill-opacity:0.2;"/>
   </g>
   <g id="matplotlib.axis_1">
    <g id="xtick_1">
     <g id="line2d_1">
      <defs>
       <path d="M 0 0 
L 0 3.5 
" id="m686ed9ef7c" style="stroke:#000000;stroke-width:0.8;"/>
      </defs>
      <g>
       <use style="stroke:#000000;stroke-width:0.8;" x="68.151136" xlink:href="#m686ed9ef7c" y="251.94"/>
      </g>
     </g>
     <g id="text_1">
      <!-- 2021 -->
      <g transform="translate(71.462386 289.48)rotate(-90)scale(0.12 -0.12)">
       <defs>
        <path d="M 1228 531 
L 3431 531 
L 3431 0 
L 469 0 
L 469 531 
Q 828 903 1448 1529 
Q 2069 2156 2228 2338 
Q 2531 2678 2651 2914 
Q 2772 3150 2772 3378 
Q 2772 3750 2511 3984 
Q 2250 4219 1831 4219 
Q 1534 4219 1204 4116 
Q 875 4013 500 3803 
L 500 4441 
Q 881 4594 1212 4672 
Q 1544 4750 1819 4750 
Q 2544 4750 2975 4387 
Q 3406 4025 3406 3419 
Q 3406 3131 3298 2873 
Q 3191 2616 2906 2266 
Q 2828 2175 2409 1742 
Q 1991 1309 1228 531 
z
" id="DejaVuSans-32" transform="scale(0.015625)"/>
        <path d="M 2034 4250 
Q 1547 4250 1301 3770 
Q 1056 3291 1056 2328 
Q 1056 1369 1301 889 
Q 1547 409 2034 409 
Q 2525 409 2770 889 
Q 3016 1369 3016 2328 
Q 3016 3291 2770 3770 
Q 2525 4250 2034 4250 
z
M 2034 4750 
Q 2819 4750 3233 4129 
Q 3647 3509 3647 2328 
Q 3647 1150 3233 529 
Q 2819 -91 2034 -91 
Q 1250 -91 836 529 
Q 422 1150 422 2328 
Q 422 3509 836 4129 
Q 1250 4750 2034 4750 
z
" id="DejaVuSans-30" transform="scale(0.015625)"/>
        <path d="M 794 531 
L 1825 531 
L 1825 4091 
L 703 3866 
L 703 4441 
L 1819 4666 
L 2450 4666 
L 2450 531 
L 3481 531 
L 3481 0 
L 794 0 
L 794 531 
z
" id="DejaVuSans-31" transform="scale(0.015625)"/>
       </defs>
       <use xlink:href="#DejaVuSans-32"/>
       <use x="63.623047" xlink:href="#DejaVuSans-30"/>
       <use x="127.246094" xlink:href="#DejaVuSans-32"/>
       <use x="190.869141" xlink:href="#DejaVuSans-31"/>
      </g>
     </g>
    </g>
    <g id="xtick_2">
     <g id="line2d_2">
      <g>
       <use style="stroke:#000000;stroke-width:0.8;" x="91.283409" xlink:href="#m686ed9ef7c" y="251.94"/>
      </g>
     </g>
     <g id="text_2">
      <!-- 2022 -->
      <g transform="translate(94.594659 289.48)rotate(-90)scale(0.12 -0.12)">
       <use xlink:href="#DejaVuSans-32"/>
       <use x="63.623047" xlink:href="#DejaVuSans-30"/>
       <use x="127.246094" xlink:href="#DejaVuSans-32"/>
       <use x="190.869141" xlink:href="#DejaVuSans-32"/>
      </g>
     </g>
    </g>
    <g id="xtick_3">
     <g id="line2d_3">
      <g>
       <use style="stroke:#000000;stroke-width:0.8;" x="114.415682" xlink:href="#m686ed9ef7c" y="251.94"/>
      </g>
     </g>
     <g id="text_3">
      <!-- 2023 -->
      <g transform="translate(117.726932 289.48)rotate(-90)scale(0.12 -0.12)">
       <defs>
        <path d="M 2597 2516 
Q 3050 2419 3304 2112 
Q 3559 1806 3559 1356 
Q 3559 666 3084 287 
Q 2609 -91 1734 -91 
Q 1441 -91 1130 -33 
Q 819 25 488 141 
L 488 750 
Q 750 597 1062 519 
Q 1375 441 1716 441 
Q 2309 441 2620 675 
Q 2931 909 2931 1356 
Q 2931 1769 2642 2001 
Q 2353 2234 1838 2234 
L 1294 2234 
L 1294 2753 
L 1863 2753 
Q 2328 2753 2575 2939 
Q 2822 3125 2822 3475 
Q 2822 3834 2567 4026 
Q 2313 4219 1838 4219 
Q 1578 4219 1281 4162 
Q 984 4106 628 3988 
L 628 4550 
Q 988 4650 1302 4700 
Q 1616 4750 1894 4750 
Q 2613 4750 3031 4423 
Q 3450 4097 3450 3541 
Q 3450 3153 3228 2886 
Q 3006 2619 2597 2516 
z
" id="DejaVuSans-33" transform="scale(0.015625)"/>
       </defs>
       <use xlink:href="#DejaVuSans-32"/>
       <use x="63.623047" xlink:href="#DejaVuSans-30"/>
       <use x="127.246094" xlink:href="#DejaVuSans-32"/>
       <use x="190.869141" xlink:href="#DejaVuSans-33"/>
      </g>
     </g>
    </g>
    <g id="xtick_4">
     <g id="line2d_4">
      <g>
       <use style="stroke:#000000;stroke-width:0.8;" x="137.547955" xlink:href="#m686ed9ef7c" y="251.94"/>
      </g>
     </g>
     <g id="text_4">
      <!-- 2024 -->
      <g transform="translate(140.859205 289.48)rotate(-90)scale(0.12 -0.12)">
       <defs>
        <path d="M 2419 4116 
L 825 1625 
L 2419 1625 
L 2419 4116 
z
M 2253 4666 
L 3047 4666 
L 3047 1625 
L 3713 1625 
L 3713 1100 
L 3047 1100 
L 3047 0 
L 2419 0 
L 2419 1100 
L 313 1100 
L 313 1709 
L 2253 4666 
z
" id="DejaVuSans-34" transform="scale(0.015625)"/>
       </defs>
       <use xlink:href="#DejaVuSans-32"/>
       <use x="63.623047" xlink:href="#DejaVuSans-30"/>
       <use x="127.246094" xlink:href="#DejaVuSans-32"/>
       <use x="190.869141" xlink:href="#DejaVuSans-34"/>
      </g>
     </g>
    </g>
    <g id="xtick_5">
     <g id="line2d_5">
      <g>
       <use style="stroke:#000000;stroke-width:0.8;" x="160.680227" xlink:href="#m686ed9ef7c" y="251.94"/>
      </g>
     </g>
     <g id="text_5">
      <!-- 2025 -->
      <g transform="translate(163.991477 289.48)rotate(-90)scale(0.12 -0.12)">
       <defs>
        <path d="M 691 4666 
L 3169 4666 
L 3169 4134 
L 1269 4134 
L 1269 2991 
Q 1406 3038 1543 3061 
Q 1681 3084 1819 3084 
Q 2600 3084 3056 2656 
Q 3513 2228 3513 1497 
Q 3513 744 3044 326 
Q 2575 -91 1722 -91 
Q 1428 -91 1123 -41 
Q 819 9 494 109 
L 494 744 
Q 775 591 1075 516 
Q 1375 441 1709 441 
Q 2250 441 2565 725 
Q 2881 1009 2881 1497 
Q 2881 1984 2565 2268 
Q 2250 2553 1709 2553 
Q 1456 2553 1204 2497 
Q 953 2441 691 2322 
L 691 4666 
z
" id="DejaVuSans-35" transform="scale(0.015625)"/>
       </defs>
       <use xlink:href="#DejaVuSans-32"/>
       <use x="63.623047" xlink:href="#DejaVuSans-30"/>
       <use x="127.246094" xlink:href="#DejaVuSans-32"/>
       <use x="190.869141" xlink:href="#DejaVuSans-35"/>
      </g>
     </g>
    </g>
    <g id="xtick_6">
     <g id="line2d_6">
      <g>
       <use style="stroke:#000000;stroke-width:0.8;" x="183.8125" xlink:href="#m686ed9ef7c" y="251.94"/>
      </g>
     </g>
     <g id="text_6">
      <!-- 2026 -->
      <g transform="translate(187.12375 289.48)rotate(-90)scale(0.12 -0.12)">
       <defs>
        <path d="M 2113 2584 
Q 1688 2584 1439 2293 
Q 1191 2003 1191 1497 
Q 1191 994 1439 701 
Q 1688 409 2113 409 
Q 2538 409 2786 701 
Q 3034 994 3034 1497 
Q 3034 2003 2786 2293 
Q 2538 2584 2113 2584 
z
M 3366 4563 
L 3366 3988 
Q 3128 4100 2886 4159 
Q 2644 4219 2406 4219 
Q 1781 4219 1451 3797 
Q 1122 3375 1075 2522 
Q 1259 2794 1537 2939 
Q 1816 3084 2150 3084 
Q 2853 3084 3261 2657 
Q 3669 2231 3669 1497 
Q 3669 778 3244 343 
Q 2819 -91 2113 -91 
Q 1303 -91 875 529 
Q 447 1150 447 2328 
Q 447 3434 972 4092 
Q 1497 4750 2381 4750 
Q 2619 4750 2861 4703 
Q 3103 4656 3366 4563 
z
" id="DejaVuSans-36" transform="scale(0.015625)"/>
       </defs>
       <use xlink:href="#DejaVuSans-32"/>
       <use x="63.623047" xlink:href="#DejaVuSans-30"/>
       <use x="127.246094" xlink:href="#DejaVuSans-32"/>
       <use x="190.869141" xlink:href="#DejaVuSans-36"/>
      </g>
     </g>
    </g>
    <g id="xtick_7">
     <g id="line2d_7">
      <g>
       <use style="stroke:#000000;stroke-width:0.8;" x="206.944773" xlink:href="#m686ed9ef7c" y="251.94"/>
      </g>
     </g>
     <g id="text_7">
      <!-- 2027 -->
      <g transform="translate(210.256023 289.48)rotate(-90)scale(0.12 -0.12)">
       <defs>
        <path d="M 525 4666 
L 3525 4666 
L 3525 4397 
L 1831 0 
L 1172 0 
L 2766 4134 
L 525 4134 
L 525 4666 
z
" id="DejaVuSans-37" transform="scale(0.015625)"/>
       </defs>
       <use xlink:href="#DejaVuSans-32"/>
       <use x="63.623047" xlink:href="#DejaVuSans-30"/>
       <use x="127.246094" xlink:href="#DejaVuSans-32"/>
       <use x="190.869141" xlink:href="#DejaVuSans-37"/>
      </g>
     </g>
    </g>
    <g id="xtick_8">
     <g id="line2d_8">
      <g>
       <use style="stroke:#000000;stroke-width:0.8;" x="230.077045" xlink:href="#m686ed9ef7c" y="251.94"/>
      </g>
     </g>
     <g id="text_8">
      <!-- 2028 -->
      <g transform="translate(233.388295 289.48)rotate(-90)scale(0.12 -0.12)">
       <defs>
        <path d="M 2034 2216 
Q 1584 2216 1326 1975 
Q 1069 1734 1069 1313 
Q 1069 891 1326 650 
Q 1584 409 2034 409 
Q 2484 409 2743 651 
Q 3003 894 3003 1313 
Q 3003 1734 2745 1975 
Q 2488 2216 2034 2216 
z
M 1403 2484 
Q 997 2584 770 2862 
Q 544 3141 544 3541 
Q 544 4100 942 4425 
Q 1341 4750 2034 4750 
Q 2731 4750 3128 4425 
Q 3525 4100 3525 3541 
Q 3525 3141 3298 2862 
Q 3072 2584 2669 2484 
Q 3125 2378 3379 2068 
Q 3634 1759 3634 1313 
Q 3634 634 3220 271 
Q 2806 -91 2034 -91 
Q 1263 -91 848 271 
Q 434 634 434 1313 
Q 434 1759 690 2068 
Q 947 2378 1403 2484 
z
M 1172 3481 
Q 1172 3119 1398 2916 
Q 1625 2713 2034 2713 
Q 2441 2713 2670 2916 
Q 2900 3119 2900 3481 
Q 2900 3844 2670 4047 
Q 2441 4250 2034 4250 
Q 1625 4250 1398 4047 
Q 1172 3844 1172 3481 
z
" id="DejaVuSans-38" transform="scale(0.015625)"/>
       </defs>
       <use xlink:href="#DejaVuSans-32"/>
       <use x="63.623047" xlink:href="#DejaVuSans-30"/>
       <use x="127.246094" xlink:href="#DejaVuSans-32"/>
       <use x="190.869141" xlink:href="#DejaVuSans-38"/>
      </g>
     </g>
    </g>
    <g id="xtick_9">
     <g id="line2d_9">
      <g>
       <use style="stroke:#000000;stroke-width:0.8;" x="253.209318" xlink:href="#m686ed9ef7c" y="251.94"/>
      </g>
     </g>
     <g id="text_9">
      <!-- 2029 -->
      <g transform="translate(256.520568 289.48)rotate(-90)scale(0.12 -0.12)">
       <defs>
        <path d="M 703 97 
L 703 672 
Q 941 559 1184 500 
Q 1428 441 1663 441 
Q 2288 441 2617 861 
Q 2947 1281 2994 2138 
Q 2813 1869 2534 1725 
Q 2256 1581 1919 1581 
Q 1219 1581 811 2004 
Q 403 2428 403 3163 
Q 403 3881 828 4315 
Q 1253 4750 1959 4750 
Q 2769 4750 3195 4129 
Q 3622 3509 3622 2328 
Q 3622 1225 3098 567 
Q 2575 -91 1691 -91 
Q 1453 -91 1209 -44 
Q 966 3 703 97 
z
M 1959 2075 
Q 2384 2075 2632 2365 
Q 2881 2656 2881 3163 
Q 2881 3666 2632 3958 
Q 2384 4250 1959 4250 
Q 1534 4250 1286 3958 
Q 1038 3666 1038 3163 
Q 1038 2656 1286 2365 
Q 1534 2075 1959 2075 
z
" id="DejaVuSans-39" transform="scale(0.015625)"/>
       </defs>
       <use xlink:href="#DejaVuSans-32"/>
       <use x="63.623047" xlink:href="#DejaVuSans-30"/>
       <use x="127.246094" xlink:href="#DejaVuSans-32"/>
       <use x="190.869141" xlink:href="#DejaVuSans-39"/>
      </g>
     </g>
    </g>
    <g id="xtick_10">
     <g id="line2d_10">
      <g>
       <use style="stroke:#000000;stroke-width:0.8;" x="276.341591" xlink:href="#m686ed9ef7c" y="251.94"/>
      </g>
     </g>
     <g id="text_10">
      <!-- 2030 -->
      <g transform="translate(279.652841 289.48)rotate(-90)scale(0.12 -0.12)">
       <use xlink:href="#DejaVuSans-32"/>
       <use x="63.623047" xlink:href="#DejaVuSans-30"/>
       <use x="127.246094" xlink:href="#DejaVuSans-33"/>
       <use x="190.869141" xlink:href="#DejaVuSans-30"/>
      </g>
     </g>
    </g>
    <g id="xtick_11">
     <g id="line2d_11">
      <g>
       <use style="stroke:#000000;stroke-width:0.8;" x="299.473864" xlink:href="#m686ed9ef7c" y="251.94"/>
      </g>
     </g>
     <g id="text_11">
      <!-- 2031 -->
      <g transform="translate(302.785114 289.48)rotate(-90)scale(0.12 -0.12)">
       <use xlink:href="#DejaVuSans-32"/>
       <use x="63.623047" xlink:href="#DejaVuSans-30"/>
       <use x="127.246094" xlink:href="#DejaVuSans-33"/>
       <use x="190.869141" xlink:href="#DejaVuSans-31"/>
      </g>
     </g>
    </g>
   </g>
   <g id="matplotlib.axis_2">
    <g id="ytick_1">
     <g id="line2d_12">
      <defs>
       <path d="M 0 0 
L -3.5 0 
" id="m27048f101b" style="stroke:#000000;stroke-width:0.8;"/>
      </defs>
      <g>
       <use style="stroke:#000000;stroke-width:0.8;" x="56.585" xlink:href="#m27048f101b" y="251.94"/>
      </g>
     </g>
     <g id="text_12">
      <!-- −14% -->
      <g transform="translate(12.8575 256.499063)scale(0.12 -0.12)">
       <defs>
        <path d="M 678 2272 
L 4684 2272 
L 4684 1741 
L 678 1741 
L 678 2272 
z
" id="DejaVuSans-2212" transform="scale(0.015625)"/>
        <path d="M 4653 2053 
Q 4381 2053 4226 1822 
Q 4072 1591 4072 1178 
Q 4072 772 4226 539 
Q 4381 306 4653 306 
Q 4919 306 5073 539 
Q 5228 772 5228 1178 
Q 5228 1588 5073 1820 
Q 4919 2053 4653 2053 
z
M 4653 2450 
Q 5147 2450 5437 2106 
Q 5728 1763 5728 1178 
Q 5728 594 5436 251 
Q 5144 -91 4653 -91 
Q 4153 -91 3862 251 
Q 3572 594 3572 1178 
Q 3572 1766 3864 2108 
Q 4156 2450 4653 2450 
z
M 1428 4353 
Q 1159 4353 1004 4120 
Q 850 3888 850 3481 
Q 850 3069 1003 2837 
Q 1156 2606 1428 2606 
Q 1700 2606 1854 2837 
Q 2009 3069 2009 3481 
Q 2009 3884 1853 4118 
Q 1697 4353 1428 4353 
z
M 4250 4750 
L 4750 4750 
L 1831 -91 
L 1331 -91 
L 4250 4750 
z
M 1428 4750 
Q 1922 4750 2215 4408 
Q 2509 4066 2509 3481 
Q 2509 2891 2217 2550 
Q 1925 2209 1428 2209 
Q 931 2209 642 2551 
Q 353 2894 353 3481 
Q 353 4063 643 4406 
Q 934 4750 1428 4750 
z
" id="DejaVuSans-25" transform="scale(0.015625)"/>
       </defs>
       <use xlink:href="#DejaVuSans-2212"/>
       <use x="83.789062" xlink:href="#DejaVuSans-31"/>
       <use x="147.412109" xlink:href="#DejaVuSans-34"/>
       <use x="211.035156" xlink:href="#DejaVuSans-25"/>
      </g>
     </g>
    </g>
    <g id="ytick_2">
     <g id="line2d_13">
      <g>
       <use style="stroke:#000000;stroke-width:0.8;" x="56.585" xlink:href="#m27048f101b" y="222.6925"/>
      </g>
     </g>
     <g id="text_13">
      <!-- −12% -->
      <g transform="translate(12.8575 227.251563)scale(0.12 -0.12)">
       <use xlink:href="#DejaVuSans-2212"/>
       <use x="83.789062" xlink:href="#DejaVuSans-31"/>
       <use x="147.412109" xlink:href="#DejaVuSans-32"/>
       <use x="211.035156" xlink:href="#DejaVuSans-25"/>
      </g>
     </g>
    </g>
    <g id="ytick_3">
     <g id="line2d_14">
      <g>
       <use style="stroke:#000000;stroke-width:0.8;" x="56.585" xlink:href="#m27048f101b" y="193.445"/>
      </g>
     </g>
     <g id="text_14">
      <!-- −10% -->
      <g transform="translate(12.8575 198.004063)scale(0.12 -0.12)">
       <use xlink:href="#DejaVuSans-2212"/>
       <use x="83.789062" xlink:href="#DejaVuSans-31"/>
       <use x="147.412109" xlink:href="#DejaVuSans-30"/>
       <use x="211.035156" xlink:href="#DejaVuSans-25"/>
      </g>
     </g>
    </g>
    <g id="ytick_4">
     <g id="line2d_15">
      <g>
       <use style="stroke:#000000;stroke-width:0.8;" x="56.585" xlink:href="#m27048f101b" y="164.1975"/>
      </g>
     </g>
     <g id="text_15">
      <!-- −8% -->
      <g transform="translate(20.4925 168.756563)scale(0.12 -0.12)">
       <use xlink:href="#DejaVuSans-2212"/>
       <use x="83.789062" xlink:href="#DejaVuSans-38"/>
       <use x="147.412109" xlink:href="#DejaVuSans-25"/>
      </g>
     </g>
    </g>
    <g id="ytick_5">
     <g id="line2d_16">
      <g>
       <use style="stroke:#000000;stroke-width:0.8;" x="56.585" xlink:href="#m27048f101b" y="134.95"/>
      </g>
     </g>
     <g id="text_16">
      <!-- −6% -->
      <g transform="translate(20.4925 139.509063)scale(0.12 -0.12)">
       <use xlink:href="#DejaVuSans-2212"/>
       <use x="83.789062" xlink:href="#DejaVuSans-36"/>
       <use x="147.412109" xlink:href="#DejaVuSans-25"/>
      </g>
     </g>
    </g>
    <g id="ytick_6">
     <g id="line2d_17">
      <g>
       <use style="stroke:#000000;stroke-width:0.8;" x="56.585" xlink:href="#m27048f101b" y="105.7025"/>
      </g>
     </g>
     <g id="text_17">
      <!-- −4% -->
      <g transform="translate(20.4925 110.261562)scale(0.12 -0.12)">
       <use xlink:href="#DejaVuSans-2212"/>
       <use x="83.789062" xlink:href="#DejaVuSans-34"/>
       <use x="147.412109" xlink:href="#DejaVuSans-25"/>
      </g>
     </g>
    </g>
    <g id="ytick_7">
     <g id="line2d_18">
      <g>
       <use style="stroke:#000000;stroke-width:0.8;" x="56.585" xlink:href="#m27048f101b" y="76.455"/>
      </g>
     </g>
     <g id="text_18">
      <!-- −2% -->
      <g transform="translate(20.4925 81.014062)scale(0.12 -0.12)">
       <use xlink:href="#DejaVuSans-2212"/>
       <use x="83.789062" xlink:href="#DejaVuSans-32"/>
       <use x="147.412109" xlink:href="#DejaVuSans-25"/>
      </g>
     </g>
    </g>
    <g id="ytick_8">
     <g id="line2d_19">
      <g>
       <use style="stroke:#000000;stroke-width:0.8;" x="56.585" xlink:href="#m27048f101b" y="47.2075"/>
      </g>
     </g>
     <g id="text_19">
      <!-- 0% -->
      <g transform="translate(30.548125 51.766562)scale(0.12 -0.12)">
       <use xlink:href="#DejaVuSans-30"/>
       <use x="63.623047" xlink:href="#DejaVuSans-25"/>
      </g>
     </g>
    </g>
    <g id="ytick_9">
     <g id="line2d_20">
      <g>
       <use style="stroke:#000000;stroke-width:0.8;" x="56.585" xlink:href="#m27048f101b" y="17.96"/>
      </g>
     </g>
     <g id="text_20">
      <!-- 2% -->
      <g transform="translate(30.548125 22.519062)scale(0.12 -0.12)">
       <use xlink:href="#DejaVuSans-32"/>
       <use x="63.623047" xlink:href="#DejaVuSans-25"/>
      </g>
     </g>
    </g>
   </g>
   <g id="line2d_21">
    <path clip-path="url(#p4df57312c1)" d="M 68.151136 47.2075 
L 73.934205 49.73632 
L 79.717273 53.475864 
L 85.500341 57.470528 
L 91.283409 61.725491 
L 97.066477 66.259708 
L 102.849545 71.076013 
L 108.632614 76.190841 
L 114.415682 80.611715 
L 120.19875 81.547899 
L 125.981818 83.448484 
L 131.764886 86.446217 
L 137.547955 90.082066 
L 143.331023 90.854968 
L 149.114091 91.016742 
L 154.897159 91.589029 
L 160.680227 92.366468 
L 166.463295 93.24441 
L 172.246364 94.165979 
L 178.029432 95.109188 
L 183.8125 96.057567 
L 189.595568 97.003361 
L 195.378636 97.806092 
L 201.161705 97.065836 
L 206.944773 95.177475 
L 212.727841 92.589809 
L 218.510909 89.549725 
L 224.293977 86.184483 
L 230.077045 82.578361 
L 235.860114 78.777614 
L 241.643182 74.809123 
L 247.42625 70.71277 
L 253.209318 66.493342 
L 258.992386 62.171391 
L 264.775455 57.768628 
L 270.558523 54.500593 
L 276.341591 52.38499 
L 282.124659 50.908465 
L 287.907727 49.824034 
L 293.690795 48.994473 
L 299.473864 48.341859 
" style="fill:none;stroke:#dc143c;stroke-linecap:square;stroke-width:1.5;"/>
   </g>
   <g id="line2d_22">
    <path clip-path="url(#p4df57312c1)" d="M 68.151136 47.2075 
L 299.473864 47.2075 
" style="fill:none;stroke:#000000;stroke-dasharray:1,1.65;stroke-dashoffset:0;"/>
   </g>
   <g id="line2d_23">
    <path clip-path="url(#p4df57312c1)" d="M 68.151136 47.2075 
L 73.934205 47.611173 
L 79.717273 48.261988 
L 85.500341 49.00309 
L 91.283409 49.834206 
L 97.066477 50.754995 
L 102.849545 51.764989 
L 108.632614 52.858895 
L 114.415682 53.906627 
L 120.19875 54.467814 
L 125.981818 55.078572 
L 131.764886 55.80584 
L 137.547955 56.614004 
L 143.331023 56.988788 
L 149.114091 57.198353 
L 154.897159 57.426883 
L 160.680227 57.658841 
L 166.463295 57.888715 
L 172.246364 58.110664 
L 178.029432 58.329752 
L 183.8125 58.540041 
L 189.595568 58.73508 
L 195.378636 58.914028 
L 201.161705 58.847956 
L 206.944773 58.562809 
L 212.727841 58.117475 
L 218.510909 57.5556 
L 224.293977 56.892019 
L 230.077045 56.148936 
L 235.860114 55.336912 
L 241.643182 54.46065 
L 247.42625 53.538533 
L 253.209318 52.576526 
L 258.992386 51.574069 
L 264.775455 50.544541 
L 270.558523 49.656603 
L 276.341591 48.973714 
L 282.124659 48.396329 
L 287.907727 47.928937 
L 293.690795 47.531717 
L 299.473864 47.185153 
" style="fill:none;stroke:#1e90ff;stroke-dasharray:5.55,2.4;stroke-dashoffset:0;stroke-width:1.5;"/>
   </g>
   <g id="line2d_24">
    <path clip-path="url(#p4df57312c1)" d="M 68.151136 47.2075 
L 299.473864 47.2075 
" style="fill:none;stroke:#000000;stroke-dasharray:1,1.65;stroke-dashoffset:0;"/>
   </g>
   <g id="patch_3">
    <path d="M 56.585 251.94 
L 56.585 17.96 
" style="fill:none;stroke:#000000;stroke-linecap:square;stroke-linejoin:miter;stroke-width:0.8;"/>
   </g>
   <g id="patch_4">
    <path d="M 311.04 251.94 
L 311.04 17.96 
" style="fill:none;stroke:#000000;stroke-linecap:square;stroke-linejoin:miter;stroke-width:0.8;"/>
   </g>
   <g id="patch_5">
    <path d="M 56.585 251.94 
L 311.04 251.94 
" style="fill:none;stroke:#000000;stroke-linecap:square;stroke-linejoin:miter;stroke-width:0.8;"/>
   </g>
   <g id="patch_6">
    <path d="M 56.585 17.96 
L 311.04 17.96 
" style="fill:none;stroke:#000000;stroke-linecap:square;stroke-linejoin:miter;stroke-width:0.8;"/>
   </g>
  </g>
 </g>
 <defs>
  <clipPath id="p4df57312c1">
   <rect height="233.98" width="254.455" x="56.585" y="17.96"/>
  </clipPath>
 </defs>
</svg>
