<?xml version="1.0" encoding="utf-8" standalone="no"?>
<!DOCTYPE svg PUBLIC "-//W3C//DTD SVG 1.1//EN"
  "http://www.w3.org/Graphics/SVG/1.1/DTD/svg11.dtd">
<svg height="302.4pt" version="1.1" viewBox="0 0 324 302.4" width="324pt" xmlns="http://www.w3.org/2000/svg" xmlns:xlink="http://www.w3.org/1999/xlink">
 <metadata>
  <rdf:RDF xmlns:cc="http://creativecommons.org/ns#" xmlns:dc="http://purl.org/dc/elements/1.1/" xmlns:rdf="http://www.w3.org/1999/02/22-rdf-syntax-ns#">
   <cc:Work>
    <dc:type rdf:resource="http://purl.org/dc/dcmitype/StillImage"/>
    <dc:date>2021-08-08T11:02:06.032975</dc:date>
    <dc:format>image/svg+xml</dc:format>
    <dc:creator>
     <cc:Agent>
      <dc:title>Matplotlib v3.4.0rc1, https://matplotlib.org/</dc:title>
     </cc:Agent>
    </dc:creator>
   </cc:Work>
  </rdf:RDF>
 </metadata>
 <defs>
  <style type="text/css">*{stroke-linecap:butt;stroke-linejoin:round;}</style>
 </defs>
 <g id="figure_1">
  <g id="patch_1">
   <path d="M 0 302.4 
L 324 302.4 
L 324 0 
L 0 0 
z
" style="fill:none;"/>
  </g>
  <g id="axes_1">
   <g id="patch_2">
    <path d="M 56.585 251.94 
L 311.04 251.94 
L 311.04 17.96 
L 56.585 17.96 
z
" style="fill:#ffffff;"/>
   </g>
   <g id="PolyCollection_1">
    <path clip-path="url(#peb0ea7e964)" d="M 68.151136 47.2075 
L 68.151136 47.2075 
L 73.934205 52.143682 
L 79.717273 57.228441 
L 85.500341 62.438129 
L 91.283409 67.738878 
L 97.066477 73.067058 
L 102.849545 78.468608 
L 108.632614 83.910001 
L 114.415682 89.339005 
L 120.19875 94.806043 
L 125.981818 100.294383 
L 131.764886 105.736757 
L 137.547955 111.090572 
L 143.331023 111.242312 
L 149.114091 111.17694 
L 154.897159 111.069569 
L 160.680227 111.294854 
L 166.463295 111.195671 
L 172.246364 111.131866 
L 178.029432 110.904546 
L 183.8125 110.864611 
L 189.595568 111.016145 
L 195.378636 110.733903 
L 201.161705 110.565219 
L 206.944773 110.473392 
L 212.727841 110.296553 
L 218.510909 110.077438 
L 224.293977 109.780743 
L 230.077045 109.548287 
L 235.860114 109.268539 
L 241.643182 108.991371 
L 247.42625 108.857043 
L 253.209318 108.61272 
L 258.992386 108.361871 
L 264.775455 108.099406 
L 270.558523 107.858107 
L 276.341591 108.056237 
L 282.124659 107.906931 
L 287.907727 107.653141 
L 293.690795 107.455637 
L 299.473864 107.245174 
L 299.473864 86.817229 
L 299.473864 86.817229 
L 293.690795 86.958079 
L 287.907727 87.121261 
L 282.124659 87.291148 
L 276.341591 87.526919 
L 270.558523 87.646935 
L 264.775455 87.843586 
L 258.992386 87.924639 
L 253.209318 88.071424 
L 247.42625 88.245134 
L 241.643182 88.411594 
L 235.860114 88.689392 
L 230.077045 88.637819 
L 224.293977 88.815872 
L 218.510909 88.951942 
L 212.727841 89.275423 
L 206.944773 89.355759 
L 201.161705 89.618512 
L 195.378636 89.829963 
L 189.595568 89.97416 
L 183.8125 90.255489 
L 178.029432 90.448605 
L 172.246364 90.553208 
L 166.463295 90.648263 
L 160.680227 90.817943 
L 154.897159 90.858982 
L 149.114091 90.893 
L 143.331023 90.910698 
L 137.547955 90.95266 
L 131.764886 87.271826 
L 125.981818 83.38976 
L 120.19875 79.860746 
L 114.415682 76.049305 
L 108.632614 72.284679 
L 102.849545 68.50019 
L 97.066477 64.768987 
L 91.283409 61.105781 
L 85.500341 57.501438 
L 79.717273 53.957355 
L 73.934205 50.522432 
L 68.151136 47.2075 
z
" style="fill:#dc143c;fill-opacity:0.2;"/>
   </g>
   <g id="PolyCollection_2">
    <path clip-path="url(#peb0ea7e964)" d="M 68.151136 47.2075 
L 68.151136 47.2075 
L 73.934205 51.933194 
L 79.717273 56.810553 
L 85.500341 61.828507 
L 91.283409 66.938312 
L 97.066477 72.094926 
L 102.849545 77.296123 
L 108.632614 82.523863 
L 114.415682 87.778541 
L 120.19875 93.062496 
L 125.981818 98.306255 
L 131.764886 103.514206 
L 137.547955 108.673623 
L 143.331023 108.697872 
L 149.114091 108.709501 
L 154.897159 108.662709 
L 160.680227 108.619711 
L 166.463295 108.476614 
L 172.246364 108.350917 
L 178.029432 108.152255 
L 183.8125 108.039789 
L 189.595568 107.946948 
L 195.378636 107.771309 
L 201.161705 107.591606 
L 206.944773 107.415325 
L 212.727841 107.198511 
L 218.510909 107.122272 
L 224.293977 106.919637 
L 230.077045 106.740302 
L 235.860114 106.589474 
L 241.643182 106.340256 
L 247.42625 106.124435 
L 253.209318 105.949651 
L 258.992386 105.751574 
L 264.775455 105.515837 
L 270.558523 105.450542 
L 276.341591 105.289169 
L 282.124659 105.229307 
L 287.907727 105.06332 
L 293.690795 104.920206 
L 299.473864 104.725562 
L 299.473864 89.959339 
L 299.473864 89.959339 
L 293.690795 90.107676 
L 287.907727 90.099354 
L 282.124659 90.219681 
L 276.341591 90.299352 
L 270.558523 90.397683 
L 264.775455 90.552301 
L 258.992386 90.692256 
L 253.209318 90.841878 
L 247.42625 90.90332 
L 241.643182 90.908673 
L 235.860114 91.118942 
L 230.077045 91.385906 
L 224.293977 91.541782 
L 218.510909 91.63832 
L 212.727841 91.886731 
L 206.944773 92.087107 
L 201.161705 92.341167 
L 195.378636 92.556695 
L 189.595568 92.646559 
L 183.8125 92.884018 
L 178.029432 93.05736 
L 172.246364 93.132136 
L 166.463295 93.259612 
L 160.680227 93.339231 
L 154.897159 93.409696 
L 149.114091 93.496743 
L 143.331023 93.544226 
L 137.547955 93.552837 
L 131.764886 89.603371 
L 125.981818 85.631687 
L 120.19875 81.642485 
L 114.415682 77.660912 
L 108.632614 73.667952 
L 102.849545 69.711975 
L 97.066477 65.776653 
L 91.283409 61.896734 
L 85.500341 58.070595 
L 79.717273 54.33636 
L 73.934205 50.708443 
L 68.151136 47.2075 
z
" style="fill:#1f77b4;fill-opacity:0.2;"/>
   </g>
   <g id="PolyCollection_3">
    <path clip-path="url(#peb0ea7e964)" d="M 68.151136 47.2075 
L 68.151136 47.2075 
L 73.934205 51.800999 
L 79.717273 56.537415 
L 85.500341 61.40124 
L 91.283409 66.364949 
L 97.066477 71.371963 
L 102.849545 76.431129 
L 108.632614 81.523389 
L 114.415682 86.642633 
L 120.19875 91.738073 
L 125.981818 96.817203 
L 131.764886 101.874834 
L 137.547955 106.907746 
L 143.331023 106.947824 
L 149.114091 106.973633 
L 154.897159 106.915932 
L 160.680227 106.826339 
L 166.463295 106.713721 
L 172.246364 106.57913 
L 178.029432 106.449379 
L 183.8125 106.314976 
L 189.595568 106.177383 
L 195.378636 106.01823 
L 201.161705 105.802527 
L 206.944773 105.617767 
L 212.727841 105.463529 
L 218.510909 105.284984 
L 224.293977 105.075139 
L 230.077045 104.876611 
L 235.860114 104.745933 
L 241.643182 104.550942 
L 247.42625 104.360045 
L 253.209318 104.166797 
L 258.992386 104.023236 
L 264.775455 103.831924 
L 270.558523 103.670975 
L 276.341591 103.514452 
L 282.124659 103.339194 
L 287.907727 103.177202 
L 293.690795 102.996108 
L 299.473864 102.844831 
L 299.473864 92.11345 
L 299.473864 92.11345 
L 293.690795 92.268422 
L 287.907727 92.398904 
L 282.124659 92.465219 
L 276.341591 92.534443 
L 270.558523 92.647754 
L 264.775455 92.810968 
L 258.992386 93.023711 
L 253.209318 93.201148 
L 247.42625 93.343933 
L 241.643182 93.407785 
L 235.860114 93.502732 
L 230.077045 93.675969 
L 224.293977 93.796429 
L 218.510909 93.947765 
L 212.727841 94.177753 
L 206.944773 94.367458 
L 201.161705 94.555565 
L 195.378636 94.75522 
L 189.595568 94.932043 
L 183.8125 95.138411 
L 178.029432 95.279525 
L 172.246364 95.397153 
L 166.463295 95.508171 
L 160.680227 95.593565 
L 154.897159 95.632858 
L 149.114091 95.676329 
L 143.331023 95.712898 
L 137.547955 95.731367 
L 131.764886 91.583723 
L 125.981818 87.401291 
L 120.19875 83.249519 
L 114.415682 79.063945 
L 108.632614 74.911035 
L 102.849545 70.764443 
L 97.066477 66.649025 
L 91.283409 62.597671 
L 85.500341 58.589953 
L 79.717273 54.678584 
L 73.934205 50.880197 
L 68.151136 47.2075 
z
" style="fill:#ff7f0e;fill-opacity:0.2;"/>
   </g>
   <g id="PolyCollection_4">
    <path clip-path="url(#peb0ea7e964)" d="M 68.151136 47.2075 
L 68.151136 47.2075 
L 73.934205 51.584137 
L 79.717273 56.101223 
L 85.500341 60.744072 
L 91.283409 65.48263 
L 97.066477 70.273138 
L 102.849545 75.112486 
L 108.632614 79.994683 
L 114.415682 84.883782 
L 120.19875 89.759039 
L 125.981818 94.644467 
L 131.764886 99.516637 
L 137.547955 104.328654 
L 143.331023 104.354297 
L 149.114091 104.352094 
L 154.897159 104.302818 
L 160.680227 104.231109 
L 166.463295 104.1559 
L 172.246364 104.021509 
L 178.029432 103.877883 
L 183.8125 103.707439 
L 189.595568 103.522766 
L 195.378636 103.367364 
L 201.161705 103.160704 
L 206.944773 103.02192 
L 212.727841 102.855101 
L 218.510909 102.67074 
L 224.293977 102.472352 
L 230.077045 102.29289 
L 235.860114 102.142097 
L 241.643182 101.986353 
L 247.42625 101.797222 
L 253.209318 101.639799 
L 258.992386 101.458425 
L 264.775455 101.304715 
L 270.558523 101.128199 
L 276.341591 100.944195 
L 282.124659 100.853641 
L 287.907727 100.671626 
L 293.690795 100.520935 
L 299.473864 100.363171 
L 299.473864 94.801853 
L 299.473864 94.801853 
L 293.690795 94.971274 
L 287.907727 95.071064 
L 282.124659 95.211623 
L 276.341591 95.35547 
L 270.558523 95.512887 
L 264.775455 95.645129 
L 258.992386 95.731549 
L 253.209318 95.853712 
L 247.42625 95.97723 
L 241.643182 96.095676 
L 235.860114 96.240649 
L 230.077045 96.427828 
L 224.293977 96.584359 
L 218.510909 96.800976 
L 212.727841 96.995516 
L 206.944773 97.160346 
L 201.161705 97.339383 
L 195.378636 97.546914 
L 189.595568 97.70245 
L 183.8125 97.846048 
L 178.029432 98.028934 
L 172.246364 98.143552 
L 166.463295 98.258909 
L 160.680227 98.364201 
L 154.897159 98.464239 
L 149.114091 98.519787 
L 143.331023 98.561763 
L 137.547955 98.53419 
L 131.764886 94.187976 
L 125.981818 89.788746 
L 120.19875 85.381436 
L 114.415682 80.973915 
L 108.632614 76.56895 
L 102.849545 72.195755 
L 97.066477 67.844396 
L 91.283409 63.541236 
L 85.500341 59.293051 
L 79.717273 55.143342 
L 73.934205 51.109118 
L 68.151136 47.2075 
z
" style="fill:#2ca02c;fill-opacity:0.2;"/>
   </g>
   <g id="PolyCollection_5">
    <path clip-path="url(#peb0ea7e964)" d="M 68.151136 47.2075 
L 68.151136 47.2075 
L 73.934205 47.656902 
L 79.717273 48.105247 
L 85.500341 48.516654 
L 91.283409 48.861119 
L 97.066477 49.273415 
L 102.849545 49.822956 
L 108.632614 50.240002 
L 114.415682 50.635792 
L 120.19875 51.134405 
L 125.981818 51.949078 
L 131.764886 52.648318 
L 137.547955 53.128551 
L 143.331023 53.381835 
L 149.114091 54.163068 
L 154.897159 54.718339 
L 160.680227 55.431937 
L 166.463295 55.588837 
L 172.246364 56.935895 
L 178.029432 58.392283 
L 183.8125 58.0353 
L 189.595568 58.629786 
L 195.378636 59.119387 
L 201.161705 58.826055 
L 206.944773 58.382652 
L 212.727841 58.203323 
L 218.510909 58.44267 
L 224.293977 59.043927 
L 230.077045 59.7181 
L 235.860114 60.960652 
L 241.643182 61.566476 
L 247.42625 61.566659 
L 253.209318 61.381321 
L 258.992386 60.955015 
L 264.775455 61.207231 
L 270.558523 61.012569 
L 276.341591 61.247896 
L 282.124659 60.848738 
L 287.907727 61.028774 
L 293.690795 61.821527 
L 299.473864 61.013717 
L 299.473864 23.65457 
L 299.473864 23.65457 
L 293.690795 24.395623 
L 287.907727 24.747402 
L 282.124659 25.021489 
L 276.341591 24.766213 
L 270.558523 24.913842 
L 264.775455 24.452804 
L 258.992386 24.632411 
L 253.209318 23.973742 
L 247.42625 23.878597 
L 241.643182 24.525726 
L 235.860114 25.54329 
L 230.077045 26.765106 
L 224.293977 27.591738 
L 218.510909 28.38339 
L 212.727841 29.277654 
L 206.944773 29.960296 
L 201.161705 30.081366 
L 195.378636 30.432003 
L 189.595568 30.014398 
L 183.8125 31.127789 
L 178.029432 31.430336 
L 172.246364 32.881057 
L 166.463295 34.643515 
L 160.680227 35.186478 
L 154.897159 36.352717 
L 149.114091 37.321084 
L 143.331023 38.29604 
L 137.547955 38.84173 
L 131.764886 39.98468 
L 125.981818 40.841418 
L 120.19875 41.9985 
L 114.415682 42.454105 
L 108.632614 43.161118 
L 102.849545 43.915083 
L 97.066477 44.706368 
L 91.283409 45.308143 
L 85.500341 45.769793 
L 79.717273 46.254889 
L 73.934205 46.745693 
L 68.151136 47.2075 
z
" style="fill:#1e90ff;fill-opacity:0.2;"/>
   </g>
   <g id="PolyCollection_6">
    <path clip-path="url(#peb0ea7e964)" d="M 68.151136 47.2075 
L 68.151136 47.2075 
L 73.934205 47.203565 
L 79.717273 47.186354 
L 85.500341 47.153759 
L 91.283409 47.108093 
L 97.066477 47.047967 
L 102.849545 46.972899 
L 108.632614 46.882841 
L 114.415682 46.778749 
L 120.19875 46.659772 
L 125.981818 46.528511 
L 131.764886 46.3814 
L 137.547955 46.219857 
L 143.331023 46.052532 
L 149.114091 45.887588 
L 154.897159 45.727757 
L 160.680227 45.564592 
L 166.463295 45.415763 
L 172.246364 45.266259 
L 178.029432 45.119725 
L 183.8125 44.981604 
L 189.595568 44.836401 
L 195.378636 44.70344 
L 201.161705 44.571417 
L 206.944773 44.455754 
L 212.727841 44.335072 
L 218.510909 44.21643 
L 224.293977 44.097777 
L 230.077045 43.990444 
L 235.860114 43.889112 
L 241.643182 43.781182 
L 247.42625 43.689104 
L 253.209318 43.603447 
L 258.992386 43.523486 
L 264.775455 43.443162 
L 270.558523 43.373447 
L 276.341591 43.311612 
L 282.124659 43.254764 
L 287.907727 43.193393 
L 293.690795 43.139006 
L 299.473864 43.082132 
L 299.473864 40.255302 
L 299.473864 40.255302 
L 293.690795 40.392158 
L 287.907727 40.504283 
L 282.124659 40.623357 
L 276.341591 40.762054 
L 270.558523 40.93657 
L 264.775455 41.094643 
L 258.992386 41.268741 
L 253.209318 41.416004 
L 247.42625 41.60276 
L 241.643182 41.797287 
L 235.860114 41.993569 
L 230.077045 42.189169 
L 224.293977 42.408627 
L 218.510909 42.616422 
L 212.727841 42.816062 
L 206.944773 43.027595 
L 201.161705 43.251825 
L 195.378636 43.468309 
L 189.595568 43.700243 
L 183.8125 43.932276 
L 178.029432 44.165278 
L 172.246364 44.402209 
L 166.463295 44.632689 
L 160.680227 44.871863 
L 154.897159 45.108236 
L 149.114091 45.344905 
L 143.331023 45.583071 
L 137.547955 45.823916 
L 131.764886 46.049674 
L 125.981818 46.25843 
L 120.19875 46.44426 
L 114.415682 46.610876 
L 108.632614 46.755508 
L 102.849545 46.879301 
L 97.066477 46.983946 
L 91.283409 47.06728 
L 85.500341 47.131269 
L 79.717273 47.174159 
L 73.934205 47.198766 
L 68.151136 47.2075 
z
" style="fill:#d62728;fill-opacity:0.2;"/>
   </g>
   <g id="PolyCollection_7">
    <path clip-path="url(#peb0ea7e964)" d="M 68.151136 47.2075 
L 68.151136 47.2075 
L 73.934205 47.20349 
L 79.717273 47.183461 
L 85.500341 47.150383 
L 91.283409 47.101446 
L 97.066477 47.037605 
L 102.849545 46.95839 
L 108.632614 46.863549 
L 114.415682 46.752857 
L 120.19875 46.62812 
L 125.981818 46.487066 
L 131.764886 46.331283 
L 137.547955 46.161666 
L 143.331023 45.981102 
L 149.114091 45.807858 
L 154.897159 45.634505 
L 160.680227 45.467157 
L 166.463295 45.30339 
L 172.246364 45.143191 
L 178.029432 44.984938 
L 183.8125 44.836955 
L 189.595568 44.691201 
L 195.378636 44.5468 
L 201.161705 44.404682 
L 206.944773 44.265584 
L 212.727841 44.131746 
L 218.510909 44.002439 
L 224.293977 43.883049 
L 230.077045 43.766049 
L 235.860114 43.655965 
L 241.643182 43.546517 
L 247.42625 43.441872 
L 253.209318 43.34434 
L 258.992386 43.255032 
L 264.775455 43.170528 
L 270.558523 43.091128 
L 276.341591 43.008922 
L 282.124659 42.924815 
L 287.907727 42.85624 
L 293.690795 42.791958 
L 299.473864 42.724958 
L 299.473864 40.746893 
L 299.473864 40.746893 
L 293.690795 40.872628 
L 287.907727 40.980072 
L 282.124659 41.125703 
L 276.341591 41.241364 
L 270.558523 41.373982 
L 264.775455 41.523169 
L 258.992386 41.655596 
L 253.209318 41.801009 
L 247.42625 41.9585 
L 241.643182 42.126273 
L 235.860114 42.293407 
L 230.077045 42.457846 
L 224.293977 42.628905 
L 218.510909 42.820675 
L 212.727841 43.016614 
L 206.944773 43.226523 
L 201.161705 43.436267 
L 195.378636 43.646111 
L 189.595568 43.860132 
L 183.8125 44.076618 
L 178.029432 44.291813 
L 172.246364 44.507228 
L 166.463295 44.735373 
L 160.680227 44.960501 
L 154.897159 45.187811 
L 149.114091 45.415798 
L 143.331023 45.646458 
L 137.547955 45.877213 
L 131.764886 46.095867 
L 125.981818 46.294694 
L 120.19875 46.4745 
L 114.415682 46.633695 
L 108.632614 46.773219 
L 102.849545 46.893274 
L 97.066477 46.992732 
L 91.283409 47.073254 
L 85.500341 47.134359 
L 79.717273 47.17641 
L 73.934205 47.198981 
L 68.151136 47.2075 
z
" style="fill:#9467bd;fill-opacity:0.2;"/>
   </g>
   <g id="PolyCollection_8">
    <path clip-path="url(#peb0ea7e964)" d="M 68.151136 47.2075 
L 68.151136 47.2075 
L 73.934205 47.203383 
L 79.717273 47.182331 
L 85.500341 47.14622 
L 91.283409 47.094378 
L 97.066477 47.026457 
L 102.849545 46.941854 
L 108.632614 46.840676 
L 114.415682 46.723276 
L 120.19875 46.588867 
L 125.981818 46.438379 
L 131.764886 46.271476 
L 137.547955 46.088994 
L 143.331023 45.899299 
L 149.114091 45.711992 
L 154.897159 45.525766 
L 160.680227 45.343479 
L 166.463295 45.162597 
L 172.246364 44.988227 
L 178.029432 44.81734 
L 183.8125 44.647864 
L 189.595568 44.48964 
L 195.378636 44.331444 
L 201.161705 44.178005 
L 206.944773 44.02772 
L 212.727841 43.886439 
L 218.510909 43.74657 
L 224.293977 43.612436 
L 230.077045 43.489752 
L 235.860114 43.367025 
L 241.643182 43.246159 
L 247.42625 43.131965 
L 253.209318 43.021091 
L 258.992386 42.915049 
L 264.775455 42.814948 
L 270.558523 42.717582 
L 276.341591 42.621066 
L 282.124659 42.52862 
L 287.907727 42.437282 
L 293.690795 42.355376 
L 299.473864 42.271914 
L 299.473864 41.315336 
L 299.473864 41.315336 
L 293.690795 41.425018 
L 287.907727 41.541935 
L 282.124659 41.664589 
L 276.341591 41.780238 
L 270.558523 41.897389 
L 264.775455 42.013014 
L 258.992386 42.128864 
L 253.209318 42.261168 
L 247.42625 42.394428 
L 241.643182 42.52371 
L 235.860114 42.669597 
L 230.077045 42.824444 
L 224.293977 42.980733 
L 218.510909 43.146273 
L 212.727841 43.312681 
L 206.944773 43.49056 
L 201.161705 43.674661 
L 195.378636 43.862613 
L 189.595568 44.055262 
L 183.8125 44.257641 
L 178.029432 44.460117 
L 172.246364 44.667516 
L 166.463295 44.874391 
L 160.680227 45.083467 
L 154.897159 45.296198 
L 149.114091 45.509039 
L 143.331023 45.726166 
L 137.547955 45.943373 
L 131.764886 46.15137 
L 125.981818 46.34004 
L 120.19875 46.510559 
L 114.415682 46.662053 
L 108.632614 46.795038 
L 102.849545 46.908894 
L 97.066477 47.003952 
L 91.283409 47.080273 
L 85.500341 47.138214 
L 79.717273 47.178033 
L 73.934205 47.199285 
L 68.151136 47.2075 
z
" style="fill:#8c564b;fill-opacity:0.2;"/>
   </g>
   <g id="matplotlib.axis_1">
    <g id="xtick_1">
     <g id="line2d_1">
      <defs>
       <path d="M 0 0 
L 0 3.5 
" id="me0669fbcdb" style="stroke:#000000;stroke-width:0.8;"/>
      </defs>
      <g>
       <use style="stroke:#000000;stroke-width:0.8;" x="68.151136" xlink:href="#me0669fbcdb" y="251.94"/>
      </g>
     </g>
     <g id="text_1">
      <!-- 2021 -->
      <g transform="translate(71.462386 289.48)rotate(-90)scale(0.12 -0.12)">
       <defs>
        <path d="M 1228 531 
L 3431 531 
L 3431 0 
L 469 0 
L 469 531 
Q 828 903 1448 1529 
Q 2069 2156 2228 2338 
Q 2531 2678 2651 2914 
Q 2772 3150 2772 3378 
Q 2772 3750 2511 3984 
Q 2250 4219 1831 4219 
Q 1534 4219 1204 4116 
Q 875 4013 500 3803 
L 500 4441 
Q 881 4594 1212 4672 
Q 1544 4750 1819 4750 
Q 2544 4750 2975 4387 
Q 3406 4025 3406 3419 
Q 3406 3131 3298 2873 
Q 3191 2616 2906 2266 
Q 2828 2175 2409 1742 
Q 1991 1309 1228 531 
z
" id="DejaVuSans-32" transform="scale(0.015625)"/>
        <path d="M 2034 4250 
Q 1547 4250 1301 3770 
Q 1056 3291 1056 2328 
Q 1056 1369 1301 889 
Q 1547 409 2034 409 
Q 2525 409 2770 889 
Q 3016 1369 3016 2328 
Q 3016 3291 2770 3770 
Q 2525 4250 2034 4250 
z
M 2034 4750 
Q 2819 4750 3233 4129 
Q 3647 3509 3647 2328 
Q 3647 1150 3233 529 
Q 2819 -91 2034 -91 
Q 1250 -91 836 529 
Q 422 1150 422 2328 
Q 422 3509 836 4129 
Q 1250 4750 2034 4750 
z
" id="DejaVuSans-30" transform="scale(0.015625)"/>
        <path d="M 794 531 
L 1825 531 
L 1825 4091 
L 703 3866 
L 703 4441 
L 1819 4666 
L 2450 4666 
L 2450 531 
L 3481 531 
L 3481 0 
L 794 0 
L 794 531 
z
" id="DejaVuSans-31" transform="scale(0.015625)"/>
       </defs>
       <use xlink:href="#DejaVuSans-32"/>
       <use x="63.623047" xlink:href="#DejaVuSans-30"/>
       <use x="127.246094" xlink:href="#DejaVuSans-32"/>
       <use x="190.869141" xlink:href="#DejaVuSans-31"/>
      </g>
     </g>
    </g>
    <g id="xtick_2">
     <g id="line2d_2">
      <g>
       <use style="stroke:#000000;stroke-width:0.8;" x="91.283409" xlink:href="#me0669fbcdb" y="251.94"/>
      </g>
     </g>
     <g id="text_2">
      <!-- 2022 -->
      <g transform="translate(94.594659 289.48)rotate(-90)scale(0.12 -0.12)">
       <use xlink:href="#DejaVuSans-32"/>
       <use x="63.623047" xlink:href="#DejaVuSans-30"/>
       <use x="127.246094" xlink:href="#DejaVuSans-32"/>
       <use x="190.869141" xlink:href="#DejaVuSans-32"/>
      </g>
     </g>
    </g>
    <g id="xtick_3">
     <g id="line2d_3">
      <g>
       <use style="stroke:#000000;stroke-width:0.8;" x="114.415682" xlink:href="#me0669fbcdb" y="251.94"/>
      </g>
     </g>
     <g id="text_3">
      <!-- 2023 -->
      <g transform="translate(117.726932 289.48)rotate(-90)scale(0.12 -0.12)">
       <defs>
        <path d="M 2597 2516 
Q 3050 2419 3304 2112 
Q 3559 1806 3559 1356 
Q 3559 666 3084 287 
Q 2609 -91 1734 -91 
Q 1441 -91 1130 -33 
Q 819 25 488 141 
L 488 750 
Q 750 597 1062 519 
Q 1375 441 1716 441 
Q 2309 441 2620 675 
Q 2931 909 2931 1356 
Q 2931 1769 2642 2001 
Q 2353 2234 1838 2234 
L 1294 2234 
L 1294 2753 
L 1863 2753 
Q 2328 2753 2575 2939 
Q 2822 3125 2822 3475 
Q 2822 3834 2567 4026 
Q 2313 4219 1838 4219 
Q 1578 4219 1281 4162 
Q 984 4106 628 3988 
L 628 4550 
Q 988 4650 1302 4700 
Q 1616 4750 1894 4750 
Q 2613 4750 3031 4423 
Q 3450 4097 3450 3541 
Q 3450 3153 3228 2886 
Q 3006 2619 2597 2516 
z
" id="DejaVuSans-33" transform="scale(0.015625)"/>
       </defs>
       <use xlink:href="#DejaVuSans-32"/>
       <use x="63.623047" xlink:href="#DejaVuSans-30"/>
       <use x="127.246094" xlink:href="#DejaVuSans-32"/>
       <use x="190.869141" xlink:href="#DejaVuSans-33"/>
      </g>
     </g>
    </g>
    <g id="xtick_4">
     <g id="line2d_4">
      <g>
       <use style="stroke:#000000;stroke-width:0.8;" x="137.547955" xlink:href="#me0669fbcdb" y="251.94"/>
      </g>
     </g>
     <g id="text_4">
      <!-- 2024 -->
      <g transform="translate(140.859205 289.48)rotate(-90)scale(0.12 -0.12)">
       <defs>
        <path d="M 2419 4116 
L 825 1625 
L 2419 1625 
L 2419 4116 
z
M 2253 4666 
L 3047 4666 
L 3047 1625 
L 3713 1625 
L 3713 1100 
L 3047 1100 
L 3047 0 
L 2419 0 
L 2419 1100 
L 313 1100 
L 313 1709 
L 2253 4666 
z
" id="DejaVuSans-34" transform="scale(0.015625)"/>
       </defs>
       <use xlink:href="#DejaVuSans-32"/>
       <use x="63.623047" xlink:href="#DejaVuSans-30"/>
       <use x="127.246094" xlink:href="#DejaVuSans-32"/>
       <use x="190.869141" xlink:href="#DejaVuSans-34"/>
      </g>
     </g>
    </g>
    <g id="xtick_5">
     <g id="line2d_5">
      <g>
       <use style="stroke:#000000;stroke-width:0.8;" x="160.680227" xlink:href="#me0669fbcdb" y="251.94"/>
      </g>
     </g>
     <g id="text_5">
      <!-- 2025 -->
      <g transform="translate(163.991477 289.48)rotate(-90)scale(0.12 -0.12)">
       <defs>
        <path d="M 691 4666 
L 3169 4666 
L 3169 4134 
L 1269 4134 
L 1269 2991 
Q 1406 3038 1543 3061 
Q 1681 3084 1819 3084 
Q 2600 3084 3056 2656 
Q 3513 2228 3513 1497 
Q 3513 744 3044 326 
Q 2575 -91 1722 -91 
Q 1428 -91 1123 -41 
Q 819 9 494 109 
L 494 744 
Q 775 591 1075 516 
Q 1375 441 1709 441 
Q 2250 441 2565 725 
Q 2881 1009 2881 1497 
Q 2881 1984 2565 2268 
Q 2250 2553 1709 2553 
Q 1456 2553 1204 2497 
Q 953 2441 691 2322 
L 691 4666 
z
" id="DejaVuSans-35" transform="scale(0.015625)"/>
       </defs>
       <use xlink:href="#DejaVuSans-32"/>
       <use x="63.623047" xlink:href="#DejaVuSans-30"/>
       <use x="127.246094" xlink:href="#DejaVuSans-32"/>
       <use x="190.869141" xlink:href="#DejaVuSans-35"/>
      </g>
     </g>
    </g>
    <g id="xtick_6">
     <g id="line2d_6">
      <g>
       <use style="stroke:#000000;stroke-width:0.8;" x="183.8125" xlink:href="#me0669fbcdb" y="251.94"/>
      </g>
     </g>
     <g id="text_6">
      <!-- 2026 -->
      <g transform="translate(187.12375 289.48)rotate(-90)scale(0.12 -0.12)">
       <defs>
        <path d="M 2113 2584 
Q 1688 2584 1439 2293 
Q 1191 2003 1191 1497 
Q 1191 994 1439 701 
Q 1688 409 2113 409 
Q 2538 409 2786 701 
Q 3034 994 3034 1497 
Q 3034 2003 2786 2293 
Q 2538 2584 2113 2584 
z
M 3366 4563 
L 3366 3988 
Q 3128 4100 2886 4159 
Q 2644 4219 2406 4219 
Q 1781 4219 1451 3797 
Q 1122 3375 1075 2522 
Q 1259 2794 1537 2939 
Q 1816 3084 2150 3084 
Q 2853 3084 3261 2657 
Q 3669 2231 3669 1497 
Q 3669 778 3244 343 
Q 2819 -91 2113 -91 
Q 1303 -91 875 529 
Q 447 1150 447 2328 
Q 447 3434 972 4092 
Q 1497 4750 2381 4750 
Q 2619 4750 2861 4703 
Q 3103 4656 3366 4563 
z
" id="DejaVuSans-36" transform="scale(0.015625)"/>
       </defs>
       <use xlink:href="#DejaVuSans-32"/>
       <use x="63.623047" xlink:href="#DejaVuSans-30"/>
       <use x="127.246094" xlink:href="#DejaVuSans-32"/>
       <use x="190.869141" xlink:href="#DejaVuSans-36"/>
      </g>
     </g>
    </g>
    <g id="xtick_7">
     <g id="line2d_7">
      <g>
       <use style="stroke:#000000;stroke-width:0.8;" x="206.944773" xlink:href="#me0669fbcdb" y="251.94"/>
      </g>
     </g>
     <g id="text_7">
      <!-- 2027 -->
      <g transform="translate(210.256023 289.48)rotate(-90)scale(0.12 -0.12)">
       <defs>
        <path d="M 525 4666 
L 3525 4666 
L 3525 4397 
L 1831 0 
L 1172 0 
L 2766 4134 
L 525 4134 
L 525 4666 
z
" id="DejaVuSans-37" transform="scale(0.015625)"/>
       </defs>
       <use xlink:href="#DejaVuSans-32"/>
       <use x="63.623047" xlink:href="#DejaVuSans-30"/>
       <use x="127.246094" xlink:href="#DejaVuSans-32"/>
       <use x="190.869141" xlink:href="#DejaVuSans-37"/>
      </g>
     </g>
    </g>
    <g id="xtick_8">
     <g id="line2d_8">
      <g>
       <use style="stroke:#000000;stroke-width:0.8;" x="230.077045" xlink:href="#me0669fbcdb" y="251.94"/>
      </g>
     </g>
     <g id="text_8">
      <!-- 2028 -->
      <g transform="translate(233.388295 289.48)rotate(-90)scale(0.12 -0.12)">
       <defs>
        <path d="M 2034 2216 
Q 1584 2216 1326 1975 
Q 1069 1734 1069 1313 
Q 1069 891 1326 650 
Q 1584 409 2034 409 
Q 2484 409 2743 651 
Q 3003 894 3003 1313 
Q 3003 1734 2745 1975 
Q 2488 2216 2034 2216 
z
M 1403 2484 
Q 997 2584 770 2862 
Q 544 3141 544 3541 
Q 544 4100 942 4425 
Q 1341 4750 2034 4750 
Q 2731 4750 3128 4425 
Q 3525 4100 3525 3541 
Q 3525 3141 3298 2862 
Q 3072 2584 2669 2484 
Q 3125 2378 3379 2068 
Q 3634 1759 3634 1313 
Q 3634 634 3220 271 
Q 2806 -91 2034 -91 
Q 1263 -91 848 271 
Q 434 634 434 1313 
Q 434 1759 690 2068 
Q 947 2378 1403 2484 
z
M 1172 3481 
Q 1172 3119 1398 2916 
Q 1625 2713 2034 2713 
Q 2441 2713 2670 2916 
Q 2900 3119 2900 3481 
Q 2900 3844 2670 4047 
Q 2441 4250 2034 4250 
Q 1625 4250 1398 4047 
Q 1172 3844 1172 3481 
z
" id="DejaVuSans-38" transform="scale(0.015625)"/>
       </defs>
       <use xlink:href="#DejaVuSans-32"/>
       <use x="63.623047" xlink:href="#DejaVuSans-30"/>
       <use x="127.246094" xlink:href="#DejaVuSans-32"/>
       <use x="190.869141" xlink:href="#DejaVuSans-38"/>
      </g>
     </g>
    </g>
    <g id="xtick_9">
     <g id="line2d_9">
      <g>
       <use style="stroke:#000000;stroke-width:0.8;" x="253.209318" xlink:href="#me0669fbcdb" y="251.94"/>
      </g>
     </g>
     <g id="text_9">
      <!-- 2029 -->
      <g transform="translate(256.520568 289.48)rotate(-90)scale(0.12 -0.12)">
       <defs>
        <path d="M 703 97 
L 703 672 
Q 941 559 1184 500 
Q 1428 441 1663 441 
Q 2288 441 2617 861 
Q 2947 1281 2994 2138 
Q 2813 1869 2534 1725 
Q 2256 1581 1919 1581 
Q 1219 1581 811 2004 
Q 403 2428 403 3163 
Q 403 3881 828 4315 
Q 1253 4750 1959 4750 
Q 2769 4750 3195 4129 
Q 3622 3509 3622 2328 
Q 3622 1225 3098 567 
Q 2575 -91 1691 -91 
Q 1453 -91 1209 -44 
Q 966 3 703 97 
z
M 1959 2075 
Q 2384 2075 2632 2365 
Q 2881 2656 2881 3163 
Q 2881 3666 2632 3958 
Q 2384 4250 1959 4250 
Q 1534 4250 1286 3958 
Q 1038 3666 1038 3163 
Q 1038 2656 1286 2365 
Q 1534 2075 1959 2075 
z
" id="DejaVuSans-39" transform="scale(0.015625)"/>
       </defs>
       <use xlink:href="#DejaVuSans-32"/>
       <use x="63.623047" xlink:href="#DejaVuSans-30"/>
       <use x="127.246094" xlink:href="#DejaVuSans-32"/>
       <use x="190.869141" xlink:href="#DejaVuSans-39"/>
      </g>
     </g>
    </g>
    <g id="xtick_10">
     <g id="line2d_10">
      <g>
       <use style="stroke:#000000;stroke-width:0.8;" x="276.341591" xlink:href="#me0669fbcdb" y="251.94"/>
      </g>
     </g>
     <g id="text_10">
      <!-- 2030 -->
      <g transform="translate(279.652841 289.48)rotate(-90)scale(0.12 -0.12)">
       <use xlink:href="#DejaVuSans-32"/>
       <use x="63.623047" xlink:href="#DejaVuSans-30"/>
       <use x="127.246094" xlink:href="#DejaVuSans-33"/>
       <use x="190.869141" xlink:href="#DejaVuSans-30"/>
      </g>
     </g>
    </g>
    <g id="xtick_11">
     <g id="line2d_11">
      <g>
       <use style="stroke:#000000;stroke-width:0.8;" x="299.473864" xlink:href="#me0669fbcdb" y="251.94"/>
      </g>
     </g>
     <g id="text_11">
      <!-- 2031 -->
      <g transform="translate(302.785114 289.48)rotate(-90)scale(0.12 -0.12)">
       <use xlink:href="#DejaVuSans-32"/>
       <use x="63.623047" xlink:href="#DejaVuSans-30"/>
       <use x="127.246094" xlink:href="#DejaVuSans-33"/>
       <use x="190.869141" xlink:href="#DejaVuSans-31"/>
      </g>
     </g>
    </g>
   </g>
   <g id="matplotlib.axis_2">
    <g id="ytick_1">
     <g id="line2d_12">
      <defs>
       <path d="M 0 0 
L -3.5 0 
" id="me465000bba" style="stroke:#000000;stroke-width:0.8;"/>
      </defs>
      <g>
       <use style="stroke:#000000;stroke-width:0.8;" x="56.585" xlink:href="#me465000bba" y="251.94"/>
      </g>
     </g>
     <g id="text_12">
      <!-- −14% -->
      <g transform="translate(12.8575 256.499063)scale(0.12 -0.12)">
       <defs>
        <path d="M 678 2272 
L 4684 2272 
L 4684 1741 
L 678 1741 
L 678 2272 
z
" id="DejaVuSans-2212" transform="scale(0.015625)"/>
        <path d="M 4653 2053 
Q 4381 2053 4226 1822 
Q 4072 1591 4072 1178 
Q 4072 772 4226 539 
Q 4381 306 4653 306 
Q 4919 306 5073 539 
Q 5228 772 5228 1178 
Q 5228 1588 5073 1820 
Q 4919 2053 4653 2053 
z
M 4653 2450 
Q 5147 2450 5437 2106 
Q 5728 1763 5728 1178 
Q 5728 594 5436 251 
Q 5144 -91 4653 -91 
Q 4153 -91 3862 251 
Q 3572 594 3572 1178 
Q 3572 1766 3864 2108 
Q 4156 2450 4653 2450 
z
M 1428 4353 
Q 1159 4353 1004 4120 
Q 850 3888 850 3481 
Q 850 3069 1003 2837 
Q 1156 2606 1428 2606 
Q 1700 2606 1854 2837 
Q 2009 3069 2009 3481 
Q 2009 3884 1853 4118 
Q 1697 4353 1428 4353 
z
M 4250 4750 
L 4750 4750 
L 1831 -91 
L 1331 -91 
L 4250 4750 
z
M 1428 4750 
Q 1922 4750 2215 4408 
Q 2509 4066 2509 3481 
Q 2509 2891 2217 2550 
Q 1925 2209 1428 2209 
Q 931 2209 642 2551 
Q 353 2894 353 3481 
Q 353 4063 643 4406 
Q 934 4750 1428 4750 
z
" id="DejaVuSans-25" transform="scale(0.015625)"/>
       </defs>
       <use xlink:href="#DejaVuSans-2212"/>
       <use x="83.789062" xlink:href="#DejaVuSans-31"/>
       <use x="147.412109" xlink:href="#DejaVuSans-34"/>
       <use x="211.035156" xlink:href="#DejaVuSans-25"/>
      </g>
     </g>
    </g>
    <g id="ytick_2">
     <g id="line2d_13">
      <g>
       <use style="stroke:#000000;stroke-width:0.8;" x="56.585" xlink:href="#me465000bba" y="222.6925"/>
      </g>
     </g>
     <g id="text_13">
      <!-- −12% -->
      <g transform="translate(12.8575 227.251563)scale(0.12 -0.12)">
       <use xlink:href="#DejaVuSans-2212"/>
       <use x="83.789062" xlink:href="#DejaVuSans-31"/>
       <use x="147.412109" xlink:href="#DejaVuSans-32"/>
       <use x="211.035156" xlink:href="#DejaVuSans-25"/>
      </g>
     </g>
    </g>
    <g id="ytick_3">
     <g id="line2d_14">
      <g>
       <use style="stroke:#000000;stroke-width:0.8;" x="56.585" xlink:href="#me465000bba" y="193.445"/>
      </g>
     </g>
     <g id="text_14">
      <!-- −10% -->
      <g transform="translate(12.8575 198.004063)scale(0.12 -0.12)">
       <use xlink:href="#DejaVuSans-2212"/>
       <use x="83.789062" xlink:href="#DejaVuSans-31"/>
       <use x="147.412109" xlink:href="#DejaVuSans-30"/>
       <use x="211.035156" xlink:href="#DejaVuSans-25"/>
      </g>
     </g>
    </g>
    <g id="ytick_4">
     <g id="line2d_15">
      <g>
       <use style="stroke:#000000;stroke-width:0.8;" x="56.585" xlink:href="#me465000bba" y="164.1975"/>
      </g>
     </g>
     <g id="text_15">
      <!-- −8% -->
      <g transform="translate(20.4925 168.756563)scale(0.12 -0.12)">
       <use xlink:href="#DejaVuSans-2212"/>
       <use x="83.789062" xlink:href="#DejaVuSans-38"/>
       <use x="147.412109" xlink:href="#DejaVuSans-25"/>
      </g>
     </g>
    </g>
    <g id="ytick_5">
     <g id="line2d_16">
      <g>
       <use style="stroke:#000000;stroke-width:0.8;" x="56.585" xlink:href="#me465000bba" y="134.95"/>
      </g>
     </g>
     <g id="text_16">
      <!-- −6% -->
      <g transform="translate(20.4925 139.509063)scale(0.12 -0.12)">
       <use xlink:href="#DejaVuSans-2212"/>
       <use x="83.789062" xlink:href="#DejaVuSans-36"/>
       <use x="147.412109" xlink:href="#DejaVuSans-25"/>
      </g>
     </g>
    </g>
    <g id="ytick_6">
     <g id="line2d_17">
      <g>
       <use style="stroke:#000000;stroke-width:0.8;" x="56.585" xlink:href="#me465000bba" y="105.7025"/>
      </g>
     </g>
     <g id="text_17">
      <!-- −4% -->
      <g transform="translate(20.4925 110.261562)scale(0.12 -0.12)">
       <use xlink:href="#DejaVuSans-2212"/>
       <use x="83.789062" xlink:href="#DejaVuSans-34"/>
       <use x="147.412109" xlink:href="#DejaVuSans-25"/>
      </g>
     </g>
    </g>
    <g id="ytick_7">
     <g id="line2d_18">
      <g>
       <use style="stroke:#000000;stroke-width:0.8;" x="56.585" xlink:href="#me465000bba" y="76.455"/>
      </g>
     </g>
     <g id="text_18">
      <!-- −2% -->
      <g transform="translate(20.4925 81.014062)scale(0.12 -0.12)">
       <use xlink:href="#DejaVuSans-2212"/>
       <use x="83.789062" xlink:href="#DejaVuSans-32"/>
       <use x="147.412109" xlink:href="#DejaVuSans-25"/>
      </g>
     </g>
    </g>
    <g id="ytick_8">
     <g id="line2d_19">
      <g>
       <use style="stroke:#000000;stroke-width:0.8;" x="56.585" xlink:href="#me465000bba" y="47.2075"/>
      </g>
     </g>
     <g id="text_19">
      <!-- 0% -->
      <g transform="translate(30.548125 51.766562)scale(0.12 -0.12)">
       <use xlink:href="#DejaVuSans-30"/>
       <use x="63.623047" xlink:href="#DejaVuSans-25"/>
      </g>
     </g>
    </g>
    <g id="ytick_9">
     <g id="line2d_20">
      <g>
       <use style="stroke:#000000;stroke-width:0.8;" x="56.585" xlink:href="#me465000bba" y="17.96"/>
      </g>
     </g>
     <g id="text_20">
      <!-- 2% -->
      <g transform="translate(30.548125 22.519062)scale(0.12 -0.12)">
       <use xlink:href="#DejaVuSans-32"/>
       <use x="63.623047" xlink:href="#DejaVuSans-25"/>
      </g>
     </g>
    </g>
   </g>
   <g id="line2d_21">
    <path clip-path="url(#peb0ea7e964)" d="M 68.151136 47.2075 
L 73.934205 51.302273 
L 79.717273 55.530553 
L 85.500341 59.879171 
L 91.283409 64.321687 
L 97.066477 68.812876 
L 102.849545 73.348947 
L 108.632614 77.918034 
L 114.415682 82.495642 
L 120.19875 87.169238 
L 125.981818 91.903666 
L 131.764886 96.595556 
L 137.547955 101.253135 
L 143.331023 101.396478 
L 149.114091 101.494946 
L 154.897159 101.555503 
L 160.680227 101.583272 
L 166.463295 101.576139 
L 172.246364 101.540818 
L 178.029432 101.480818 
L 183.8125 101.39375 
L 189.595568 101.283509 
L 195.378636 101.157518 
L 201.161705 101.010833 
L 206.944773 100.851343 
L 212.727841 100.67451 
L 218.510909 100.489005 
L 224.293977 100.290506 
L 230.077045 100.084826 
L 235.860114 99.867887 
L 241.643182 99.638819 
L 247.42625 99.407901 
L 253.209318 99.17129 
L 258.992386 98.92494 
L 264.775455 98.683305 
L 270.558523 99.103075 
L 276.341591 99.29607 
L 282.124659 99.33411 
L 287.907727 99.290733 
L 293.690795 99.205952 
L 299.473864 99.094072 
" style="fill:none;stroke:#dc143c;stroke-linecap:square;stroke-width:1.5;"/>
   </g>
   <g id="line2d_22">
    <path clip-path="url(#peb0ea7e964)" d="M 68.151136 47.2075 
L 299.473864 47.2075 
" style="fill:none;stroke:#000000;stroke-dasharray:1,1.65;stroke-dashoffset:0;"/>
   </g>
   <g id="line2d_23">
    <path clip-path="url(#peb0ea7e964)" d="M 68.151136 47.2075 
L 73.934205 47.203206 
L 79.717273 47.181356 
L 85.500341 47.14116 
L 91.283409 47.086267 
L 97.066477 47.01599 
L 102.849545 46.924973 
L 108.632614 46.816937 
L 114.415682 46.686297 
L 120.19875 46.556307 
L 125.981818 46.41743 
L 131.764886 46.259375 
L 137.547955 46.086465 
L 143.331023 45.903328 
L 149.114091 45.720172 
L 154.897159 45.537178 
L 160.680227 45.359959 
L 166.463295 45.183459 
L 172.246364 45.002303 
L 178.029432 44.839135 
L 183.8125 44.660409 
L 189.595568 44.488951 
L 195.378636 44.325256 
L 201.161705 44.157809 
L 206.944773 43.998788 
L 212.727841 43.836336 
L 218.510909 43.676751 
L 224.293977 43.526621 
L 230.077045 43.373618 
L 235.860114 43.217764 
L 241.643182 43.07228 
L 247.42625 42.924349 
L 253.209318 42.787544 
L 258.992386 42.648692 
L 264.775455 42.514785 
L 270.558523 42.478197 
L 276.341591 42.435875 
L 282.124659 42.365724 
L 287.907727 42.295897 
L 293.690795 42.218974 
L 299.473864 42.134697 
" style="fill:none;stroke:#1e90ff;stroke-dasharray:5.55,2.4;stroke-dashoffset:0;stroke-width:1.5;"/>
   </g>
   <g id="line2d_24">
    <path clip-path="url(#peb0ea7e964)" d="M 68.151136 47.2075 
L 299.473864 47.2075 
" style="fill:none;stroke:#000000;stroke-dasharray:1,1.65;stroke-dashoffset:0;"/>
   </g>
   <g id="patch_3">
    <path d="M 56.585 251.94 
L 56.585 17.96 
" style="fill:none;stroke:#000000;stroke-linecap:square;stroke-linejoin:miter;stroke-width:0.8;"/>
   </g>
   <g id="patch_4">
    <path d="M 311.04 251.94 
L 311.04 17.96 
" style="fill:none;stroke:#000000;stroke-linecap:square;stroke-linejoin:miter;stroke-width:0.8;"/>
   </g>
   <g id="patch_5">
    <path d="M 56.585 251.94 
L 311.04 251.94 
" style="fill:none;stroke:#000000;stroke-linecap:square;stroke-linejoin:miter;stroke-width:0.8;"/>
   </g>
   <g id="patch_6">
    <path d="M 56.585 17.96 
L 311.04 17.96 
" style="fill:none;stroke:#000000;stroke-linecap:square;stroke-linejoin:miter;stroke-width:0.8;"/>
   </g>
  </g>
 </g>
 <defs>
  <clipPath id="peb0ea7e964">
   <rect height="233.98" width="254.455" x="56.585" y="17.96"/>
  </clipPath>
 </defs>
</svg>
