<?xml version="1.0" encoding="utf-8" standalone="no"?>
<!DOCTYPE svg PUBLIC "-//W3C//DTD SVG 1.1//EN"
  "http://www.w3.org/Graphics/SVG/1.1/DTD/svg11.dtd">
<svg height="302.4pt" version="1.1" viewBox="0 0 324 302.4" width="324pt" xmlns="http://www.w3.org/2000/svg" xmlns:xlink="http://www.w3.org/1999/xlink">
 <metadata>
  <rdf:RDF xmlns:cc="http://creativecommons.org/ns#" xmlns:dc="http://purl.org/dc/elements/1.1/" xmlns:rdf="http://www.w3.org/1999/02/22-rdf-syntax-ns#">
   <cc:Work>
    <dc:type rdf:resource="http://purl.org/dc/dcmitype/StillImage"/>
    <dc:date>2021-08-08T11:02:06.377985</dc:date>
    <dc:format>image/svg+xml</dc:format>
    <dc:creator>
     <cc:Agent>
      <dc:title>Matplotlib v3.4.0rc1, https://matplotlib.org/</dc:title>
     </cc:Agent>
    </dc:creator>
   </cc:Work>
  </rdf:RDF>
 </metadata>
 <defs>
  <style type="text/css">*{stroke-linecap:butt;stroke-linejoin:round;}</style>
 </defs>
 <g id="figure_1">
  <g id="patch_1">
   <path d="M 0 302.4 
L 324 302.4 
L 324 0 
L 0 0 
z
" style="fill:none;"/>
  </g>
  <g id="axes_1">
   <g id="patch_2">
    <path d="M 56.585 251.94 
L 311.04 251.94 
L 311.04 17.96 
L 56.585 17.96 
z
" style="fill:#ffffff;"/>
   </g>
   <g id="PolyCollection_1">
    <path clip-path="url(#pc8a58696e3)" d="M 68.151136 47.2075 
L 68.151136 47.2075 
L 73.934205 47.495771 
L 79.717273 48.535054 
L 85.500341 50.304953 
L 91.283409 52.79233 
L 97.066477 56.04024 
L 102.849545 59.906355 
L 108.632614 64.592874 
L 114.415682 69.885384 
L 120.19875 76.039779 
L 125.981818 82.855997 
L 131.764886 90.218248 
L 137.547955 98.415597 
L 143.331023 107.173307 
L 149.114091 115.631443 
L 154.897159 124.315675 
L 160.680227 132.039419 
L 166.463295 139.7597 
L 172.246364 147.367386 
L 178.029432 154.827267 
L 183.8125 162.161023 
L 189.595568 168.826051 
L 195.378636 175.082923 
L 201.161705 180.265749 
L 206.944773 183.861502 
L 212.727841 187.798891 
L 218.510909 191.212685 
L 224.293977 192.446237 
L 230.077045 194.148361 
L 235.860114 194.214096 
L 241.643182 195.898001 
L 247.42625 194.8125 
L 253.209318 195.298343 
L 258.992386 193.377877 
L 264.775455 193.822369 
L 270.558523 195.053891 
L 276.341591 196.33356 
L 282.124659 196.490093 
L 287.907727 196.516998 
L 293.690795 197.252477 
L 299.473864 197.828508 
L 299.473864 100.632108 
L 299.473864 100.632108 
L 293.690795 100.491856 
L 287.907727 100.477482 
L 282.124659 99.753778 
L 276.341591 99.171076 
L 270.558523 98.424733 
L 264.775455 98.18321 
L 258.992386 97.484556 
L 253.209318 96.882009 
L 247.42625 96.398764 
L 241.643182 96.25116 
L 235.860114 95.816805 
L 230.077045 95.264343 
L 224.293977 94.233115 
L 218.510909 93.100993 
L 212.727841 91.928949 
L 206.944773 90.708656 
L 201.161705 89.050705 
L 195.378636 87.751938 
L 189.595568 86.096084 
L 183.8125 84.591293 
L 178.029432 82.96488 
L 172.246364 81.213443 
L 166.463295 79.361649 
L 160.680227 77.373172 
L 154.897159 75.026752 
L 149.114091 72.540161 
L 143.331023 69.992718 
L 137.547955 67.150911 
L 131.764886 63.994974 
L 125.981818 61.264603 
L 120.19875 58.85616 
L 114.415682 56.57109 
L 108.632614 54.480933 
L 102.849545 52.573299 
L 97.066477 50.962404 
L 91.283409 49.626123 
L 85.500341 48.540836 
L 79.717273 47.780654 
L 73.934205 47.330882 
L 68.151136 47.2075 
z
" style="fill:#dc143c;fill-opacity:0.2;"/>
   </g>
   <g id="PolyCollection_2">
    <path clip-path="url(#pc8a58696e3)" d="M 68.151136 47.2075 
L 68.151136 47.2075 
L 73.934205 47.471973 
L 79.717273 48.431315 
L 85.500341 50.074681 
L 91.283409 52.409402 
L 97.066477 55.385092 
L 102.849545 59.03306 
L 108.632614 63.394678 
L 114.415682 68.419721 
L 120.19875 74.134097 
L 125.981818 80.539921 
L 131.764886 87.684098 
L 137.547955 95.364143 
L 143.331023 103.425649 
L 149.114091 111.342449 
L 154.897159 119.160329 
L 160.680227 126.477609 
L 166.463295 133.390162 
L 172.246364 140.649428 
L 178.029432 147.728202 
L 183.8125 153.84368 
L 189.595568 159.801631 
L 195.378636 164.300025 
L 201.161705 169.258597 
L 206.944773 173.519582 
L 212.727841 175.922618 
L 218.510909 178.172248 
L 224.293977 179.884522 
L 230.077045 180.963642 
L 235.860114 180.476793 
L 241.643182 180.707971 
L 247.42625 180.694654 
L 253.209318 180.605801 
L 258.992386 181.466098 
L 264.775455 182.091363 
L 270.558523 183.295713 
L 276.341591 183.802756 
L 282.124659 185.307514 
L 287.907727 186.512882 
L 293.690795 186.4604 
L 299.473864 187.397887 
L 299.473864 108.946716 
L 299.473864 108.946716 
L 293.690795 108.313173 
L 287.907727 107.915332 
L 282.124659 107.480868 
L 276.341591 107.049372 
L 270.558523 106.567074 
L 264.775455 106.008255 
L 258.992386 105.60115 
L 253.209318 104.9503 
L 247.42625 104.762386 
L 241.643182 104.093912 
L 235.860114 103.116609 
L 230.077045 102.117033 
L 224.293977 101.238674 
L 218.510909 100.197016 
L 212.727841 99.018265 
L 206.944773 97.445349 
L 201.161705 95.853344 
L 195.378636 94.229267 
L 189.595568 92.300172 
L 183.8125 90.518447 
L 178.029432 88.58757 
L 172.246364 86.389952 
L 166.463295 84.187286 
L 160.680227 81.727167 
L 154.897159 79.035495 
L 149.114091 76.135352 
L 143.331023 73.102646 
L 137.547955 69.780959 
L 131.764886 66.453188 
L 125.981818 63.313197 
L 120.19875 60.45291 
L 114.415682 57.786019 
L 108.632614 55.383682 
L 102.849545 53.294584 
L 97.066477 51.481091 
L 91.283409 49.946249 
L 85.500341 48.738242 
L 79.717273 47.868812 
L 73.934205 47.351406 
L 68.151136 47.2075 
z
" style="fill:#1f77b4;fill-opacity:0.2;"/>
   </g>
   <g id="PolyCollection_3">
    <path clip-path="url(#pc8a58696e3)" d="M 68.151136 47.2075 
L 68.151136 47.2075 
L 73.934205 47.455291 
L 79.717273 48.355363 
L 85.500341 49.907563 
L 91.283409 52.10906 
L 97.066477 54.948209 
L 102.849545 58.432135 
L 108.632614 62.582467 
L 114.415682 67.351501 
L 120.19875 72.741655 
L 125.981818 78.765931 
L 131.764886 85.417143 
L 137.547955 92.717449 
L 143.331023 100.198315 
L 149.114091 107.528594 
L 154.897159 114.682275 
L 160.680227 121.614183 
L 166.463295 127.868169 
L 172.246364 134.272079 
L 178.029432 140.404333 
L 183.8125 146.074117 
L 189.595568 150.947701 
L 195.378636 155.285906 
L 201.161705 158.858967 
L 206.944773 161.704019 
L 212.727841 164.893799 
L 218.510909 165.975323 
L 224.293977 166.932857 
L 230.077045 167.067916 
L 235.860114 168.188 
L 241.643182 168.981663 
L 247.42625 169.885526 
L 253.209318 171.314266 
L 258.992386 172.280217 
L 264.775455 173.176139 
L 270.558523 173.955576 
L 276.341591 174.451532 
L 282.124659 175.17741 
L 287.907727 175.980369 
L 293.690795 176.790561 
L 299.473864 177.483888 
L 299.473864 117.990583 
L 299.473864 117.990583 
L 293.690795 117.49123 
L 287.907727 117.071918 
L 282.124659 116.662711 
L 276.341591 116.327263 
L 270.558523 115.531465 
L 264.775455 114.803906 
L 258.992386 113.977222 
L 253.209318 113.07001 
L 247.42625 112.40279 
L 241.643182 111.718434 
L 235.860114 110.67491 
L 230.077045 109.478935 
L 224.293977 108.230484 
L 218.510909 106.929447 
L 212.727841 105.659447 
L 206.944773 104.041242 
L 201.161705 102.266551 
L 195.378636 100.355456 
L 189.595568 98.31643 
L 183.8125 96.287689 
L 178.029432 93.870033 
L 172.246364 91.450268 
L 166.463295 88.728618 
L 160.680227 85.936001 
L 154.897159 83.048841 
L 149.114091 79.786566 
L 143.331023 76.229024 
L 137.547955 72.396051 
L 131.764886 68.658238 
L 125.981818 65.203533 
L 120.19875 62.004523 
L 114.415682 59.054582 
L 108.632614 56.431331 
L 102.849545 54.034158 
L 97.066477 51.986231 
L 91.283409 50.270349 
L 85.500341 48.914438 
L 79.717273 47.944171 
L 73.934205 47.368103 
L 68.151136 47.2075 
z
" style="fill:#ff7f0e;fill-opacity:0.2;"/>
   </g>
   <g id="PolyCollection_4">
    <path clip-path="url(#pc8a58696e3)" d="M 68.151136 47.2075 
L 68.151136 47.2075 
L 73.934205 47.435331 
L 79.717273 48.262175 
L 85.500341 49.676682 
L 91.283409 51.681269 
L 97.066477 54.267208 
L 102.849545 57.439277 
L 108.632614 61.169579 
L 114.415682 65.47719 
L 120.19875 70.321855 
L 125.981818 75.693626 
L 131.764886 81.539264 
L 137.547955 87.846831 
L 143.331023 94.455364 
L 149.114091 100.774199 
L 154.897159 106.584542 
L 160.680227 112.42118 
L 166.463295 117.571172 
L 172.246364 122.122405 
L 178.029432 126.527205 
L 183.8125 130.681899 
L 189.595568 134.281103 
L 195.378636 137.79309 
L 201.161705 140.753719 
L 206.944773 143.470804 
L 212.727841 146.250892 
L 218.510909 148.402639 
L 224.293977 150.146619 
L 230.077045 152.065321 
L 235.860114 153.557704 
L 241.643182 155.186626 
L 247.42625 156.270775 
L 253.209318 157.615248 
L 258.992386 158.865198 
L 264.775455 160.165538 
L 270.558523 161.084857 
L 276.341591 161.803248 
L 282.124659 162.429364 
L 287.907727 162.826701 
L 293.690795 163.429554 
L 299.473864 163.987764 
L 299.473864 133.13588 
L 299.473864 133.13588 
L 293.690795 132.747219 
L 287.907727 132.102452 
L 282.124659 131.657026 
L 276.341591 130.984919 
L 270.558523 130.411442 
L 264.775455 129.683605 
L 258.992386 128.69248 
L 253.209318 127.83282 
L 247.42625 126.498255 
L 241.643182 125.458348 
L 235.860114 124.231243 
L 230.077045 122.86145 
L 224.293977 121.473465 
L 218.510909 119.907592 
L 212.727841 117.944684 
L 206.944773 116.071727 
L 201.161705 113.848452 
L 195.378636 111.610654 
L 189.595568 109.020904 
L 183.8125 106.373301 
L 178.029432 103.678646 
L 172.246364 100.557297 
L 166.463295 97.393566 
L 160.680227 93.880605 
L 154.897159 90.185011 
L 149.114091 86.241555 
L 143.331023 82.055399 
L 137.547955 77.472202 
L 131.764886 72.90803 
L 125.981818 68.640001 
L 120.19875 64.732244 
L 114.415682 61.185307 
L 108.632614 58.012936 
L 102.849545 55.181028 
L 97.066477 52.749463 
L 91.283409 50.748895 
L 85.500341 49.177482 
L 79.717273 48.052029 
L 73.934205 47.390498 
L 68.151136 47.2075 
z
" style="fill:#2ca02c;fill-opacity:0.2;"/>
   </g>
   <g id="PolyCollection_5">
    <path clip-path="url(#pc8a58696e3)" d="M 68.151136 47.2075 
L 68.151136 47.2075 
L 73.934205 47.687945 
L 79.717273 48.536191 
L 85.500341 49.866015 
L 91.283409 51.720257 
L 97.066477 54.126538 
L 102.849545 57.048635 
L 108.632614 60.267578 
L 114.415682 64.119444 
L 120.19875 68.518969 
L 125.981818 73.157917 
L 131.764886 78.255961 
L 137.547955 83.837889 
L 143.331023 89.583543 
L 149.114091 95.09401 
L 154.897159 100.673116 
L 160.680227 106.080602 
L 166.463295 111.176474 
L 172.246364 115.822653 
L 178.029432 120.582744 
L 183.8125 124.91639 
L 189.595568 129.443892 
L 195.378636 133.653629 
L 201.161705 137.683009 
L 206.944773 141.719686 
L 212.727841 145.46041 
L 218.510909 148.641618 
L 224.293977 151.33055 
L 230.077045 153.931282 
L 235.860114 156.629576 
L 241.643182 159.289086 
L 247.42625 161.447094 
L 253.209318 163.861441 
L 258.992386 166.057629 
L 264.775455 167.725507 
L 270.558523 169.498802 
L 276.341591 171.315583 
L 282.124659 173.189871 
L 287.907727 174.678796 
L 293.690795 176.030412 
L 299.473864 176.770269 
L 299.473864 93.988104 
L 299.473864 93.988104 
L 293.690795 93.555019 
L 287.907727 93.136939 
L 282.124659 92.684264 
L 276.341591 92.236479 
L 270.558523 91.771534 
L 264.775455 91.300441 
L 258.992386 90.828271 
L 253.209318 90.37596 
L 247.42625 89.765449 
L 241.643182 88.859034 
L 235.860114 88.061109 
L 230.077045 87.179743 
L 224.293977 86.196654 
L 218.510909 85.161879 
L 212.727841 84.07886 
L 206.944773 82.953118 
L 201.161705 81.76314 
L 195.378636 80.576657 
L 189.595568 79.299566 
L 183.8125 77.976963 
L 178.029432 76.349411 
L 172.246364 74.794862 
L 166.463295 73.116298 
L 160.680227 71.020609 
L 154.897159 68.939952 
L 149.114091 66.892329 
L 143.331023 64.717111 
L 137.547955 62.360957 
L 131.764886 59.861274 
L 125.981818 57.691891 
L 120.19875 55.709867 
L 114.415682 53.948896 
L 108.632614 52.26498 
L 102.849545 50.902981 
L 97.066477 49.702973 
L 91.283409 48.636465 
L 85.500341 47.64471 
L 79.717273 47.190051 
L 73.934205 47.002261 
L 68.151136 47.2075 
z
" style="fill:#1e90ff;fill-opacity:0.2;"/>
   </g>
   <g id="PolyCollection_6">
    <path clip-path="url(#pc8a58696e3)" d="M 68.151136 47.2075 
L 68.151136 47.2075 
L 73.934205 47.406968 
L 79.717273 48.126999 
L 85.500341 49.342942 
L 91.283409 51.052962 
L 97.066477 53.225638 
L 102.849545 55.83609 
L 108.632614 58.943089 
L 114.415682 62.450693 
L 120.19875 66.370949 
L 125.981818 70.687055 
L 131.764886 75.325274 
L 137.547955 80.487411 
L 143.331023 85.844806 
L 149.114091 91.059867 
L 154.897159 96.186032 
L 160.680227 100.89026 
L 166.463295 105.652521 
L 172.246364 110.165597 
L 178.029432 114.671045 
L 183.8125 118.924771 
L 189.595568 122.886717 
L 195.378636 126.728735 
L 201.161705 130.628612 
L 206.944773 134.102095 
L 212.727841 137.172447 
L 218.510909 139.9955 
L 224.293977 142.610769 
L 230.077045 145.059 
L 235.860114 147.431667 
L 241.643182 149.62633 
L 247.42625 151.701677 
L 253.209318 153.836638 
L 258.992386 155.475753 
L 264.775455 157.330439 
L 270.558523 158.952109 
L 276.341591 160.441206 
L 282.124659 161.841423 
L 287.907727 163.040757 
L 293.690795 164.035998 
L 299.473864 165.32554 
L 299.473864 102.743756 
L 299.473864 102.743756 
L 293.690795 102.338545 
L 287.907727 101.613357 
L 282.124659 100.994393 
L 276.341591 100.284082 
L 270.558523 99.566208 
L 264.775455 98.689074 
L 258.992386 97.838487 
L 253.209318 97.189062 
L 247.42625 96.521786 
L 241.643182 95.598846 
L 235.860114 94.477191 
L 230.077045 93.352501 
L 224.293977 92.191329 
L 218.510909 90.941774 
L 212.727841 89.691016 
L 206.944773 88.42978 
L 201.161705 86.934169 
L 195.378636 85.421764 
L 189.595568 83.815894 
L 183.8125 82.169514 
L 178.029432 80.422929 
L 172.246364 78.543637 
L 166.463295 76.607184 
L 160.680227 74.478313 
L 154.897159 72.224009 
L 149.114091 69.840048 
L 143.331023 67.254439 
L 137.547955 64.613442 
L 131.764886 61.870666 
L 125.981818 59.464825 
L 120.19875 57.209944 
L 114.415682 55.180847 
L 108.632614 53.370433 
L 102.849545 51.769154 
L 97.066477 50.368374 
L 91.283409 49.21899 
L 85.500341 48.32507 
L 79.717273 47.690305 
L 73.934205 47.312104 
L 68.151136 47.2075 
z
" style="fill:#d62728;fill-opacity:0.2;"/>
   </g>
   <g id="PolyCollection_7">
    <path clip-path="url(#pc8a58696e3)" d="M 68.151136 47.2075 
L 68.151136 47.2075 
L 73.934205 47.390056 
L 79.717273 48.047 
L 85.500341 49.165043 
L 91.283409 50.727022 
L 97.066477 52.720016 
L 102.849545 55.13889 
L 108.632614 58.003245 
L 114.415682 61.267418 
L 120.19875 64.924132 
L 125.981818 68.95048 
L 131.764886 73.419567 
L 137.547955 78.269021 
L 143.331023 83.252958 
L 149.114091 88.1496 
L 154.897159 92.747055 
L 160.680227 97.285664 
L 166.463295 101.794314 
L 172.246364 105.941663 
L 178.029432 110.06208 
L 183.8125 114.061584 
L 189.595568 117.915433 
L 195.378636 121.405852 
L 201.161705 124.768271 
L 206.944773 128.133771 
L 212.727841 131.000735 
L 218.510909 133.770489 
L 224.293977 136.290143 
L 230.077045 138.624069 
L 235.860114 140.885711 
L 241.643182 143.050943 
L 247.42625 145.362074 
L 253.209318 147.291526 
L 258.992386 148.97751 
L 264.775455 150.640381 
L 270.558523 152.124686 
L 276.341591 153.446371 
L 282.124659 154.773335 
L 287.907727 155.994818 
L 293.690795 157.161623 
L 299.473864 158.276718 
L 299.473864 110.531289 
L 299.473864 110.531289 
L 293.690795 109.834425 
L 287.907727 109.203636 
L 282.124659 108.457784 
L 276.341591 107.708002 
L 270.558523 106.948178 
L 264.775455 106.074255 
L 258.992386 105.091981 
L 253.209318 104.150184 
L 247.42625 103.093006 
L 241.643182 101.981291 
L 235.860114 100.8749 
L 230.077045 99.547224 
L 224.293977 98.22292 
L 218.510909 96.815376 
L 212.727841 95.304683 
L 206.944773 93.808896 
L 201.161705 92.093087 
L 195.378636 90.348863 
L 189.595568 88.539526 
L 183.8125 86.677524 
L 178.029432 84.578762 
L 172.246364 82.377909 
L 166.463295 80.14124 
L 160.680227 77.764903 
L 154.897159 75.266534 
L 149.114091 72.604553 
L 143.331023 69.743092 
L 137.547955 66.695819 
L 131.764886 63.741247 
L 125.981818 61.003187 
L 120.19875 58.488439 
L 114.415682 56.189099 
L 108.632614 54.136105 
L 102.849545 52.333376 
L 97.066477 50.773319 
L 91.283409 49.482144 
L 85.500341 48.474885 
L 79.717273 47.752354 
L 73.934205 47.326141 
L 68.151136 47.2075 
z
" style="fill:#9467bd;fill-opacity:0.2;"/>
   </g>
   <g id="PolyCollection_8">
    <path clip-path="url(#pc8a58696e3)" d="M 68.151136 47.2075 
L 68.151136 47.2075 
L 73.934205 47.371511 
L 79.717273 47.964393 
L 85.500341 48.97743 
L 91.283409 50.400782 
L 97.066477 52.221603 
L 102.849545 54.432065 
L 108.632614 57.019393 
L 114.415682 59.973592 
L 120.19875 63.295496 
L 125.981818 66.987851 
L 131.764886 71.014728 
L 137.547955 75.410194 
L 143.331023 79.931633 
L 149.114091 84.371094 
L 154.897159 88.587651 
L 160.680227 92.684704 
L 166.463295 96.620926 
L 172.246364 100.349931 
L 178.029432 103.960723 
L 183.8125 107.500959 
L 189.595568 110.842236 
L 195.378636 114.07454 
L 201.161705 117.023906 
L 206.944773 119.790801 
L 212.727841 122.441677 
L 218.510909 125.01818 
L 224.293977 127.373547 
L 230.077045 129.552363 
L 235.860114 131.584549 
L 241.643182 133.564173 
L 247.42625 135.439971 
L 253.209318 137.111308 
L 258.992386 138.73689 
L 264.775455 140.30259 
L 270.558523 141.638605 
L 276.341591 142.978799 
L 282.124659 144.322518 
L 287.907727 145.431356 
L 293.690795 146.376257 
L 299.473864 147.36338 
L 299.473864 123.033658 
L 299.473864 123.033658 
L 293.690795 122.336559 
L 287.907727 121.504537 
L 282.124659 120.633658 
L 276.341591 119.718273 
L 270.558523 118.732229 
L 264.775455 117.73779 
L 258.992386 116.572978 
L 253.209318 115.45756 
L 247.42625 114.208407 
L 241.643182 112.915387 
L 235.860114 111.403116 
L 230.077045 109.883356 
L 224.293977 108.249419 
L 218.510909 106.520268 
L 212.727841 104.655055 
L 206.944773 102.738293 
L 201.161705 100.699523 
L 195.378636 98.475031 
L 189.595568 96.175144 
L 183.8125 93.740977 
L 178.029432 91.240046 
L 172.246364 88.5857 
L 166.463295 85.836642 
L 160.680227 82.91992 
L 154.897159 79.869555 
L 149.114091 76.693311 
L 143.331023 73.31031 
L 137.547955 69.778908 
L 131.764886 66.322245 
L 125.981818 63.120446 
L 120.19875 60.193516 
L 114.415682 57.545427 
L 108.632614 55.157575 
L 102.849545 53.075578 
L 97.066477 51.287582 
L 91.283409 49.811068 
L 85.500341 48.654789 
L 79.717273 47.828278 
L 73.934205 47.341923 
L 68.151136 47.2075 
z
" style="fill:#8c564b;fill-opacity:0.2;"/>
   </g>
   <g id="matplotlib.axis_1">
    <g id="xtick_1">
     <g id="line2d_1">
      <defs>
       <path d="M 0 0 
L 0 3.5 
" id="m8b80f00a5a" style="stroke:#000000;stroke-width:0.8;"/>
      </defs>
      <g>
       <use style="stroke:#000000;stroke-width:0.8;" x="68.151136" xlink:href="#m8b80f00a5a" y="251.94"/>
      </g>
     </g>
     <g id="text_1">
      <!-- 2021 -->
      <g transform="translate(71.462386 289.48)rotate(-90)scale(0.12 -0.12)">
       <defs>
        <path d="M 1228 531 
L 3431 531 
L 3431 0 
L 469 0 
L 469 531 
Q 828 903 1448 1529 
Q 2069 2156 2228 2338 
Q 2531 2678 2651 2914 
Q 2772 3150 2772 3378 
Q 2772 3750 2511 3984 
Q 2250 4219 1831 4219 
Q 1534 4219 1204 4116 
Q 875 4013 500 3803 
L 500 4441 
Q 881 4594 1212 4672 
Q 1544 4750 1819 4750 
Q 2544 4750 2975 4387 
Q 3406 4025 3406 3419 
Q 3406 3131 3298 2873 
Q 3191 2616 2906 2266 
Q 2828 2175 2409 1742 
Q 1991 1309 1228 531 
z
" id="DejaVuSans-32" transform="scale(0.015625)"/>
        <path d="M 2034 4250 
Q 1547 4250 1301 3770 
Q 1056 3291 1056 2328 
Q 1056 1369 1301 889 
Q 1547 409 2034 409 
Q 2525 409 2770 889 
Q 3016 1369 3016 2328 
Q 3016 3291 2770 3770 
Q 2525 4250 2034 4250 
z
M 2034 4750 
Q 2819 4750 3233 4129 
Q 3647 3509 3647 2328 
Q 3647 1150 3233 529 
Q 2819 -91 2034 -91 
Q 1250 -91 836 529 
Q 422 1150 422 2328 
Q 422 3509 836 4129 
Q 1250 4750 2034 4750 
z
" id="DejaVuSans-30" transform="scale(0.015625)"/>
        <path d="M 794 531 
L 1825 531 
L 1825 4091 
L 703 3866 
L 703 4441 
L 1819 4666 
L 2450 4666 
L 2450 531 
L 3481 531 
L 3481 0 
L 794 0 
L 794 531 
z
" id="DejaVuSans-31" transform="scale(0.015625)"/>
       </defs>
       <use xlink:href="#DejaVuSans-32"/>
       <use x="63.623047" xlink:href="#DejaVuSans-30"/>
       <use x="127.246094" xlink:href="#DejaVuSans-32"/>
       <use x="190.869141" xlink:href="#DejaVuSans-31"/>
      </g>
     </g>
    </g>
    <g id="xtick_2">
     <g id="line2d_2">
      <g>
       <use style="stroke:#000000;stroke-width:0.8;" x="91.283409" xlink:href="#m8b80f00a5a" y="251.94"/>
      </g>
     </g>
     <g id="text_2">
      <!-- 2022 -->
      <g transform="translate(94.594659 289.48)rotate(-90)scale(0.12 -0.12)">
       <use xlink:href="#DejaVuSans-32"/>
       <use x="63.623047" xlink:href="#DejaVuSans-30"/>
       <use x="127.246094" xlink:href="#DejaVuSans-32"/>
       <use x="190.869141" xlink:href="#DejaVuSans-32"/>
      </g>
     </g>
    </g>
    <g id="xtick_3">
     <g id="line2d_3">
      <g>
       <use style="stroke:#000000;stroke-width:0.8;" x="114.415682" xlink:href="#m8b80f00a5a" y="251.94"/>
      </g>
     </g>
     <g id="text_3">
      <!-- 2023 -->
      <g transform="translate(117.726932 289.48)rotate(-90)scale(0.12 -0.12)">
       <defs>
        <path d="M 2597 2516 
Q 3050 2419 3304 2112 
Q 3559 1806 3559 1356 
Q 3559 666 3084 287 
Q 2609 -91 1734 -91 
Q 1441 -91 1130 -33 
Q 819 25 488 141 
L 488 750 
Q 750 597 1062 519 
Q 1375 441 1716 441 
Q 2309 441 2620 675 
Q 2931 909 2931 1356 
Q 2931 1769 2642 2001 
Q 2353 2234 1838 2234 
L 1294 2234 
L 1294 2753 
L 1863 2753 
Q 2328 2753 2575 2939 
Q 2822 3125 2822 3475 
Q 2822 3834 2567 4026 
Q 2313 4219 1838 4219 
Q 1578 4219 1281 4162 
Q 984 4106 628 3988 
L 628 4550 
Q 988 4650 1302 4700 
Q 1616 4750 1894 4750 
Q 2613 4750 3031 4423 
Q 3450 4097 3450 3541 
Q 3450 3153 3228 2886 
Q 3006 2619 2597 2516 
z
" id="DejaVuSans-33" transform="scale(0.015625)"/>
       </defs>
       <use xlink:href="#DejaVuSans-32"/>
       <use x="63.623047" xlink:href="#DejaVuSans-30"/>
       <use x="127.246094" xlink:href="#DejaVuSans-32"/>
       <use x="190.869141" xlink:href="#DejaVuSans-33"/>
      </g>
     </g>
    </g>
    <g id="xtick_4">
     <g id="line2d_4">
      <g>
       <use style="stroke:#000000;stroke-width:0.8;" x="137.547955" xlink:href="#m8b80f00a5a" y="251.94"/>
      </g>
     </g>
     <g id="text_4">
      <!-- 2024 -->
      <g transform="translate(140.859205 289.48)rotate(-90)scale(0.12 -0.12)">
       <defs>
        <path d="M 2419 4116 
L 825 1625 
L 2419 1625 
L 2419 4116 
z
M 2253 4666 
L 3047 4666 
L 3047 1625 
L 3713 1625 
L 3713 1100 
L 3047 1100 
L 3047 0 
L 2419 0 
L 2419 1100 
L 313 1100 
L 313 1709 
L 2253 4666 
z
" id="DejaVuSans-34" transform="scale(0.015625)"/>
       </defs>
       <use xlink:href="#DejaVuSans-32"/>
       <use x="63.623047" xlink:href="#DejaVuSans-30"/>
       <use x="127.246094" xlink:href="#DejaVuSans-32"/>
       <use x="190.869141" xlink:href="#DejaVuSans-34"/>
      </g>
     </g>
    </g>
    <g id="xtick_5">
     <g id="line2d_5">
      <g>
       <use style="stroke:#000000;stroke-width:0.8;" x="160.680227" xlink:href="#m8b80f00a5a" y="251.94"/>
      </g>
     </g>
     <g id="text_5">
      <!-- 2025 -->
      <g transform="translate(163.991477 289.48)rotate(-90)scale(0.12 -0.12)">
       <defs>
        <path d="M 691 4666 
L 3169 4666 
L 3169 4134 
L 1269 4134 
L 1269 2991 
Q 1406 3038 1543 3061 
Q 1681 3084 1819 3084 
Q 2600 3084 3056 2656 
Q 3513 2228 3513 1497 
Q 3513 744 3044 326 
Q 2575 -91 1722 -91 
Q 1428 -91 1123 -41 
Q 819 9 494 109 
L 494 744 
Q 775 591 1075 516 
Q 1375 441 1709 441 
Q 2250 441 2565 725 
Q 2881 1009 2881 1497 
Q 2881 1984 2565 2268 
Q 2250 2553 1709 2553 
Q 1456 2553 1204 2497 
Q 953 2441 691 2322 
L 691 4666 
z
" id="DejaVuSans-35" transform="scale(0.015625)"/>
       </defs>
       <use xlink:href="#DejaVuSans-32"/>
       <use x="63.623047" xlink:href="#DejaVuSans-30"/>
       <use x="127.246094" xlink:href="#DejaVuSans-32"/>
       <use x="190.869141" xlink:href="#DejaVuSans-35"/>
      </g>
     </g>
    </g>
    <g id="xtick_6">
     <g id="line2d_6">
      <g>
       <use style="stroke:#000000;stroke-width:0.8;" x="183.8125" xlink:href="#m8b80f00a5a" y="251.94"/>
      </g>
     </g>
     <g id="text_6">
      <!-- 2026 -->
      <g transform="translate(187.12375 289.48)rotate(-90)scale(0.12 -0.12)">
       <defs>
        <path d="M 2113 2584 
Q 1688 2584 1439 2293 
Q 1191 2003 1191 1497 
Q 1191 994 1439 701 
Q 1688 409 2113 409 
Q 2538 409 2786 701 
Q 3034 994 3034 1497 
Q 3034 2003 2786 2293 
Q 2538 2584 2113 2584 
z
M 3366 4563 
L 3366 3988 
Q 3128 4100 2886 4159 
Q 2644 4219 2406 4219 
Q 1781 4219 1451 3797 
Q 1122 3375 1075 2522 
Q 1259 2794 1537 2939 
Q 1816 3084 2150 3084 
Q 2853 3084 3261 2657 
Q 3669 2231 3669 1497 
Q 3669 778 3244 343 
Q 2819 -91 2113 -91 
Q 1303 -91 875 529 
Q 447 1150 447 2328 
Q 447 3434 972 4092 
Q 1497 4750 2381 4750 
Q 2619 4750 2861 4703 
Q 3103 4656 3366 4563 
z
" id="DejaVuSans-36" transform="scale(0.015625)"/>
       </defs>
       <use xlink:href="#DejaVuSans-32"/>
       <use x="63.623047" xlink:href="#DejaVuSans-30"/>
       <use x="127.246094" xlink:href="#DejaVuSans-32"/>
       <use x="190.869141" xlink:href="#DejaVuSans-36"/>
      </g>
     </g>
    </g>
    <g id="xtick_7">
     <g id="line2d_7">
      <g>
       <use style="stroke:#000000;stroke-width:0.8;" x="206.944773" xlink:href="#m8b80f00a5a" y="251.94"/>
      </g>
     </g>
     <g id="text_7">
      <!-- 2027 -->
      <g transform="translate(210.256023 289.48)rotate(-90)scale(0.12 -0.12)">
       <defs>
        <path d="M 525 4666 
L 3525 4666 
L 3525 4397 
L 1831 0 
L 1172 0 
L 2766 4134 
L 525 4134 
L 525 4666 
z
" id="DejaVuSans-37" transform="scale(0.015625)"/>
       </defs>
       <use xlink:href="#DejaVuSans-32"/>
       <use x="63.623047" xlink:href="#DejaVuSans-30"/>
       <use x="127.246094" xlink:href="#DejaVuSans-32"/>
       <use x="190.869141" xlink:href="#DejaVuSans-37"/>
      </g>
     </g>
    </g>
    <g id="xtick_8">
     <g id="line2d_8">
      <g>
       <use style="stroke:#000000;stroke-width:0.8;" x="230.077045" xlink:href="#m8b80f00a5a" y="251.94"/>
      </g>
     </g>
     <g id="text_8">
      <!-- 2028 -->
      <g transform="translate(233.388295 289.48)rotate(-90)scale(0.12 -0.12)">
       <defs>
        <path d="M 2034 2216 
Q 1584 2216 1326 1975 
Q 1069 1734 1069 1313 
Q 1069 891 1326 650 
Q 1584 409 2034 409 
Q 2484 409 2743 651 
Q 3003 894 3003 1313 
Q 3003 1734 2745 1975 
Q 2488 2216 2034 2216 
z
M 1403 2484 
Q 997 2584 770 2862 
Q 544 3141 544 3541 
Q 544 4100 942 4425 
Q 1341 4750 2034 4750 
Q 2731 4750 3128 4425 
Q 3525 4100 3525 3541 
Q 3525 3141 3298 2862 
Q 3072 2584 2669 2484 
Q 3125 2378 3379 2068 
Q 3634 1759 3634 1313 
Q 3634 634 3220 271 
Q 2806 -91 2034 -91 
Q 1263 -91 848 271 
Q 434 634 434 1313 
Q 434 1759 690 2068 
Q 947 2378 1403 2484 
z
M 1172 3481 
Q 1172 3119 1398 2916 
Q 1625 2713 2034 2713 
Q 2441 2713 2670 2916 
Q 2900 3119 2900 3481 
Q 2900 3844 2670 4047 
Q 2441 4250 2034 4250 
Q 1625 4250 1398 4047 
Q 1172 3844 1172 3481 
z
" id="DejaVuSans-38" transform="scale(0.015625)"/>
       </defs>
       <use xlink:href="#DejaVuSans-32"/>
       <use x="63.623047" xlink:href="#DejaVuSans-30"/>
       <use x="127.246094" xlink:href="#DejaVuSans-32"/>
       <use x="190.869141" xlink:href="#DejaVuSans-38"/>
      </g>
     </g>
    </g>
    <g id="xtick_9">
     <g id="line2d_9">
      <g>
       <use style="stroke:#000000;stroke-width:0.8;" x="253.209318" xlink:href="#m8b80f00a5a" y="251.94"/>
      </g>
     </g>
     <g id="text_9">
      <!-- 2029 -->
      <g transform="translate(256.520568 289.48)rotate(-90)scale(0.12 -0.12)">
       <defs>
        <path d="M 703 97 
L 703 672 
Q 941 559 1184 500 
Q 1428 441 1663 441 
Q 2288 441 2617 861 
Q 2947 1281 2994 2138 
Q 2813 1869 2534 1725 
Q 2256 1581 1919 1581 
Q 1219 1581 811 2004 
Q 403 2428 403 3163 
Q 403 3881 828 4315 
Q 1253 4750 1959 4750 
Q 2769 4750 3195 4129 
Q 3622 3509 3622 2328 
Q 3622 1225 3098 567 
Q 2575 -91 1691 -91 
Q 1453 -91 1209 -44 
Q 966 3 703 97 
z
M 1959 2075 
Q 2384 2075 2632 2365 
Q 2881 2656 2881 3163 
Q 2881 3666 2632 3958 
Q 2384 4250 1959 4250 
Q 1534 4250 1286 3958 
Q 1038 3666 1038 3163 
Q 1038 2656 1286 2365 
Q 1534 2075 1959 2075 
z
" id="DejaVuSans-39" transform="scale(0.015625)"/>
       </defs>
       <use xlink:href="#DejaVuSans-32"/>
       <use x="63.623047" xlink:href="#DejaVuSans-30"/>
       <use x="127.246094" xlink:href="#DejaVuSans-32"/>
       <use x="190.869141" xlink:href="#DejaVuSans-39"/>
      </g>
     </g>
    </g>
    <g id="xtick_10">
     <g id="line2d_10">
      <g>
       <use style="stroke:#000000;stroke-width:0.8;" x="276.341591" xlink:href="#m8b80f00a5a" y="251.94"/>
      </g>
     </g>
     <g id="text_10">
      <!-- 2030 -->
      <g transform="translate(279.652841 289.48)rotate(-90)scale(0.12 -0.12)">
       <use xlink:href="#DejaVuSans-32"/>
       <use x="63.623047" xlink:href="#DejaVuSans-30"/>
       <use x="127.246094" xlink:href="#DejaVuSans-33"/>
       <use x="190.869141" xlink:href="#DejaVuSans-30"/>
      </g>
     </g>
    </g>
    <g id="xtick_11">
     <g id="line2d_11">
      <g>
       <use style="stroke:#000000;stroke-width:0.8;" x="299.473864" xlink:href="#m8b80f00a5a" y="251.94"/>
      </g>
     </g>
     <g id="text_11">
      <!-- 2031 -->
      <g transform="translate(302.785114 289.48)rotate(-90)scale(0.12 -0.12)">
       <use xlink:href="#DejaVuSans-32"/>
       <use x="63.623047" xlink:href="#DejaVuSans-30"/>
       <use x="127.246094" xlink:href="#DejaVuSans-33"/>
       <use x="190.869141" xlink:href="#DejaVuSans-31"/>
      </g>
     </g>
    </g>
   </g>
   <g id="matplotlib.axis_2">
    <g id="ytick_1">
     <g id="line2d_12">
      <defs>
       <path d="M 0 0 
L -3.5 0 
" id="m395a7a0301" style="stroke:#000000;stroke-width:0.8;"/>
      </defs>
      <g>
       <use style="stroke:#000000;stroke-width:0.8;" x="56.585" xlink:href="#m395a7a0301" y="251.94"/>
      </g>
     </g>
     <g id="text_12">
      <!-- −14% -->
      <g transform="translate(12.8575 256.499063)scale(0.12 -0.12)">
       <defs>
        <path d="M 678 2272 
L 4684 2272 
L 4684 1741 
L 678 1741 
L 678 2272 
z
" id="DejaVuSans-2212" transform="scale(0.015625)"/>
        <path d="M 4653 2053 
Q 4381 2053 4226 1822 
Q 4072 1591 4072 1178 
Q 4072 772 4226 539 
Q 4381 306 4653 306 
Q 4919 306 5073 539 
Q 5228 772 5228 1178 
Q 5228 1588 5073 1820 
Q 4919 2053 4653 2053 
z
M 4653 2450 
Q 5147 2450 5437 2106 
Q 5728 1763 5728 1178 
Q 5728 594 5436 251 
Q 5144 -91 4653 -91 
Q 4153 -91 3862 251 
Q 3572 594 3572 1178 
Q 3572 1766 3864 2108 
Q 4156 2450 4653 2450 
z
M 1428 4353 
Q 1159 4353 1004 4120 
Q 850 3888 850 3481 
Q 850 3069 1003 2837 
Q 1156 2606 1428 2606 
Q 1700 2606 1854 2837 
Q 2009 3069 2009 3481 
Q 2009 3884 1853 4118 
Q 1697 4353 1428 4353 
z
M 4250 4750 
L 4750 4750 
L 1831 -91 
L 1331 -91 
L 4250 4750 
z
M 1428 4750 
Q 1922 4750 2215 4408 
Q 2509 4066 2509 3481 
Q 2509 2891 2217 2550 
Q 1925 2209 1428 2209 
Q 931 2209 642 2551 
Q 353 2894 353 3481 
Q 353 4063 643 4406 
Q 934 4750 1428 4750 
z
" id="DejaVuSans-25" transform="scale(0.015625)"/>
       </defs>
       <use xlink:href="#DejaVuSans-2212"/>
       <use x="83.789062" xlink:href="#DejaVuSans-31"/>
       <use x="147.412109" xlink:href="#DejaVuSans-34"/>
       <use x="211.035156" xlink:href="#DejaVuSans-25"/>
      </g>
     </g>
    </g>
    <g id="ytick_2">
     <g id="line2d_13">
      <g>
       <use style="stroke:#000000;stroke-width:0.8;" x="56.585" xlink:href="#m395a7a0301" y="222.6925"/>
      </g>
     </g>
     <g id="text_13">
      <!-- −12% -->
      <g transform="translate(12.8575 227.251563)scale(0.12 -0.12)">
       <use xlink:href="#DejaVuSans-2212"/>
       <use x="83.789062" xlink:href="#DejaVuSans-31"/>
       <use x="147.412109" xlink:href="#DejaVuSans-32"/>
       <use x="211.035156" xlink:href="#DejaVuSans-25"/>
      </g>
     </g>
    </g>
    <g id="ytick_3">
     <g id="line2d_14">
      <g>
       <use style="stroke:#000000;stroke-width:0.8;" x="56.585" xlink:href="#m395a7a0301" y="193.445"/>
      </g>
     </g>
     <g id="text_14">
      <!-- −10% -->
      <g transform="translate(12.8575 198.004063)scale(0.12 -0.12)">
       <use xlink:href="#DejaVuSans-2212"/>
       <use x="83.789062" xlink:href="#DejaVuSans-31"/>
       <use x="147.412109" xlink:href="#DejaVuSans-30"/>
       <use x="211.035156" xlink:href="#DejaVuSans-25"/>
      </g>
     </g>
    </g>
    <g id="ytick_4">
     <g id="line2d_15">
      <g>
       <use style="stroke:#000000;stroke-width:0.8;" x="56.585" xlink:href="#m395a7a0301" y="164.1975"/>
      </g>
     </g>
     <g id="text_15">
      <!-- −8% -->
      <g transform="translate(20.4925 168.756563)scale(0.12 -0.12)">
       <use xlink:href="#DejaVuSans-2212"/>
       <use x="83.789062" xlink:href="#DejaVuSans-38"/>
       <use x="147.412109" xlink:href="#DejaVuSans-25"/>
      </g>
     </g>
    </g>
    <g id="ytick_5">
     <g id="line2d_16">
      <g>
       <use style="stroke:#000000;stroke-width:0.8;" x="56.585" xlink:href="#m395a7a0301" y="134.95"/>
      </g>
     </g>
     <g id="text_16">
      <!-- −6% -->
      <g transform="translate(20.4925 139.509063)scale(0.12 -0.12)">
       <use xlink:href="#DejaVuSans-2212"/>
       <use x="83.789062" xlink:href="#DejaVuSans-36"/>
       <use x="147.412109" xlink:href="#DejaVuSans-25"/>
      </g>
     </g>
    </g>
    <g id="ytick_6">
     <g id="line2d_17">
      <g>
       <use style="stroke:#000000;stroke-width:0.8;" x="56.585" xlink:href="#m395a7a0301" y="105.7025"/>
      </g>
     </g>
     <g id="text_17">
      <!-- −4% -->
      <g transform="translate(20.4925 110.261562)scale(0.12 -0.12)">
       <use xlink:href="#DejaVuSans-2212"/>
       <use x="83.789062" xlink:href="#DejaVuSans-34"/>
       <use x="147.412109" xlink:href="#DejaVuSans-25"/>
      </g>
     </g>
    </g>
    <g id="ytick_7">
     <g id="line2d_18">
      <g>
       <use style="stroke:#000000;stroke-width:0.8;" x="56.585" xlink:href="#m395a7a0301" y="76.455"/>
      </g>
     </g>
     <g id="text_18">
      <!-- −2% -->
      <g transform="translate(20.4925 81.014062)scale(0.12 -0.12)">
       <use xlink:href="#DejaVuSans-2212"/>
       <use x="83.789062" xlink:href="#DejaVuSans-32"/>
       <use x="147.412109" xlink:href="#DejaVuSans-25"/>
      </g>
     </g>
    </g>
    <g id="ytick_8">
     <g id="line2d_19">
      <g>
       <use style="stroke:#000000;stroke-width:0.8;" x="56.585" xlink:href="#m395a7a0301" y="47.2075"/>
      </g>
     </g>
     <g id="text_19">
      <!-- 0% -->
      <g transform="translate(30.548125 51.766562)scale(0.12 -0.12)">
       <use xlink:href="#DejaVuSans-30"/>
       <use x="63.623047" xlink:href="#DejaVuSans-25"/>
      </g>
     </g>
    </g>
    <g id="ytick_9">
     <g id="line2d_20">
      <g>
       <use style="stroke:#000000;stroke-width:0.8;" x="56.585" xlink:href="#m395a7a0301" y="17.96"/>
      </g>
     </g>
     <g id="text_20">
      <!-- 2% -->
      <g transform="translate(30.548125 22.519062)scale(0.12 -0.12)">
       <use xlink:href="#DejaVuSans-32"/>
       <use x="63.623047" xlink:href="#DejaVuSans-25"/>
      </g>
     </g>
    </g>
   </g>
   <g id="line2d_21">
    <path clip-path="url(#pc8a58696e3)" d="M 68.151136 47.2075 
L 73.934205 47.471512 
L 79.717273 48.438227 
L 85.500341 50.105234 
L 91.283409 52.47422 
L 97.066477 55.548205 
L 102.849545 59.320771 
L 108.632614 63.809421 
L 114.415682 69.010401 
L 120.19875 72.461197 
L 125.981818 76.370591 
L 131.764886 81.263145 
L 137.547955 86.869032 
L 143.331023 92.729672 
L 149.114091 98.321274 
L 154.897159 103.692256 
L 160.680227 108.867273 
L 166.463295 113.861331 
L 172.246364 118.685984 
L 178.029432 123.352297 
L 183.8125 127.862119 
L 189.595568 132.223233 
L 195.378636 136.443334 
L 201.161705 140.524435 
L 206.944773 144.48108 
L 212.727841 148.305817 
L 218.510909 152.007121 
L 224.293977 155.591484 
L 230.077045 159.068475 
L 235.860114 162.137516 
L 241.643182 163.485034 
L 247.42625 163.657128 
L 253.209318 163.088677 
L 258.992386 162.005908 
L 264.775455 160.5574 
L 270.558523 159.928568 
L 276.341591 160.179228 
L 282.124659 160.861654 
L 287.907727 161.763028 
L 293.690795 162.774643 
L 299.473864 163.835333 
" style="fill:none;stroke:#dc143c;stroke-linecap:square;stroke-width:1.5;"/>
   </g>
   <g id="line2d_22">
    <path clip-path="url(#pc8a58696e3)" d="M 68.151136 47.2075 
L 299.473864 47.2075 
" style="fill:none;stroke:#000000;stroke-dasharray:1,1.65;stroke-dashoffset:0;"/>
   </g>
   <g id="line2d_23">
    <path clip-path="url(#pc8a58696e3)" d="M 68.151136 47.2075 
L 73.934205 47.379276 
L 79.717273 48.004902 
L 85.500341 49.073852 
L 91.283409 50.588543 
L 97.066477 52.533302 
L 102.849545 54.914473 
L 108.632614 57.719754 
L 114.415682 60.945253 
L 120.19875 64.255145 
L 125.981818 67.877705 
L 131.764886 71.883833 
L 137.547955 76.257596 
L 143.331023 80.784747 
L 149.114091 85.14226 
L 154.897159 89.344443 
L 160.680227 93.390615 
L 166.463295 97.29701 
L 172.246364 101.064552 
L 178.029432 104.699854 
L 183.8125 108.193934 
L 189.595568 111.565931 
L 195.378636 114.812996 
L 201.161705 117.944729 
L 206.944773 120.953075 
L 212.727841 123.842818 
L 218.510909 126.630578 
L 224.293977 129.29744 
L 230.077045 131.855234 
L 235.860114 134.264574 
L 241.643182 136.306299 
L 247.42625 138.050466 
L 253.209318 139.538484 
L 258.992386 140.81411 
L 264.775455 141.896052 
L 270.558523 142.97588 
L 276.341591 144.099983 
L 282.124659 145.203038 
L 287.907727 146.270296 
L 293.690795 147.287502 
L 299.473864 148.238955 
" style="fill:none;stroke:#1e90ff;stroke-dasharray:5.55,2.4;stroke-dashoffset:0;stroke-width:1.5;"/>
   </g>
   <g id="line2d_24">
    <path clip-path="url(#pc8a58696e3)" d="M 68.151136 47.2075 
L 299.473864 47.2075 
" style="fill:none;stroke:#000000;stroke-dasharray:1,1.65;stroke-dashoffset:0;"/>
   </g>
   <g id="patch_3">
    <path d="M 56.585 251.94 
L 56.585 17.96 
" style="fill:none;stroke:#000000;stroke-linecap:square;stroke-linejoin:miter;stroke-width:0.8;"/>
   </g>
   <g id="patch_4">
    <path d="M 311.04 251.94 
L 311.04 17.96 
" style="fill:none;stroke:#000000;stroke-linecap:square;stroke-linejoin:miter;stroke-width:0.8;"/>
   </g>
   <g id="patch_5">
    <path d="M 56.585 251.94 
L 311.04 251.94 
" style="fill:none;stroke:#000000;stroke-linecap:square;stroke-linejoin:miter;stroke-width:0.8;"/>
   </g>
   <g id="patch_6">
    <path d="M 56.585 17.96 
L 311.04 17.96 
" style="fill:none;stroke:#000000;stroke-linecap:square;stroke-linejoin:miter;stroke-width:0.8;"/>
   </g>
  </g>
 </g>
 <defs>
  <clipPath id="pc8a58696e3">
   <rect height="233.98" width="254.455" x="56.585" y="17.96"/>
  </clipPath>
 </defs>
</svg>
