<?xml version="1.0" encoding="utf-8" standalone="no"?>
<!DOCTYPE svg PUBLIC "-//W3C//DTD SVG 1.1//EN"
  "http://www.w3.org/Graphics/SVG/1.1/DTD/svg11.dtd">
<svg height="302.4pt" version="1.1" viewBox="0 0 324 302.4" width="324pt" xmlns="http://www.w3.org/2000/svg" xmlns:xlink="http://www.w3.org/1999/xlink">
 <metadata>
  <rdf:RDF xmlns:cc="http://creativecommons.org/ns#" xmlns:dc="http://purl.org/dc/elements/1.1/" xmlns:rdf="http://www.w3.org/1999/02/22-rdf-syntax-ns#">
   <cc:Work>
    <dc:type rdf:resource="http://purl.org/dc/dcmitype/StillImage"/>
    <dc:date>2021-08-08T11:02:07.054364</dc:date>
    <dc:format>image/svg+xml</dc:format>
    <dc:creator>
     <cc:Agent>
      <dc:title>Matplotlib v3.4.0rc1, https://matplotlib.org/</dc:title>
     </cc:Agent>
    </dc:creator>
   </cc:Work>
  </rdf:RDF>
 </metadata>
 <defs>
  <style type="text/css">*{stroke-linecap:butt;stroke-linejoin:round;}</style>
 </defs>
 <g id="figure_1">
  <g id="patch_1">
   <path d="M 0 302.4 
L 324 302.4 
L 324 0 
L 0 0 
z
" style="fill:none;"/>
  </g>
  <g id="axes_1">
   <g id="patch_2">
    <path d="M 56.585 251.94 
L 311.04 251.94 
L 311.04 17.96 
L 56.585 17.96 
z
" style="fill:#ffffff;"/>
   </g>
   <g id="PolyCollection_1">
    <path clip-path="url(#p767924c00d)" d="M 68.151136 47.2075 
L 68.151136 47.2075 
L 73.934205 47.323074 
L 79.717273 47.533209 
L 85.500341 47.791187 
L 91.283409 48.096054 
L 97.066477 48.444674 
L 102.849545 48.840898 
L 108.632614 49.289605 
L 114.415682 49.789221 
L 120.19875 50.350212 
L 125.981818 50.938344 
L 131.764886 51.587417 
L 137.547955 52.299841 
L 143.331023 52.906475 
L 149.114091 53.409565 
L 154.897159 53.929309 
L 160.680227 54.440592 
L 166.463295 54.894759 
L 172.246364 55.382009 
L 178.029432 55.672538 
L 183.8125 56.004508 
L 189.595568 56.479472 
L 195.378636 56.832892 
L 201.161705 57.065299 
L 206.944773 57.34065 
L 212.727841 57.744466 
L 218.510909 57.824332 
L 224.293977 58.019001 
L 230.077045 58.190203 
L 235.860114 58.28085 
L 241.643182 58.317661 
L 247.42625 58.320009 
L 253.209318 58.456849 
L 258.992386 58.352843 
L 264.775455 58.229614 
L 270.558523 58.147536 
L 276.341591 58.112403 
L 282.124659 58.012074 
L 287.907727 57.72832 
L 293.690795 57.701358 
L 299.473864 57.374751 
L 299.473864 47.81579 
L 299.473864 47.81579 
L 293.690795 47.850883 
L 287.907727 47.881931 
L 282.124659 47.900226 
L 276.341591 47.947802 
L 270.558523 47.987959 
L 264.775455 48.04168 
L 258.992386 48.064216 
L 253.209318 48.111844 
L 247.42625 48.20017 
L 241.643182 48.277309 
L 235.860114 48.335941 
L 230.077045 48.396898 
L 224.293977 48.482851 
L 218.510909 48.582483 
L 212.727841 48.71432 
L 206.944773 48.911456 
L 201.161705 49.211866 
L 195.378636 49.455735 
L 189.595568 49.740672 
L 183.8125 50.066724 
L 178.029432 50.274882 
L 172.246364 50.449899 
L 166.463295 50.570766 
L 160.680227 50.52286 
L 154.897159 50.409934 
L 149.114091 50.269448 
L 143.331023 50.137554 
L 137.547955 49.92838 
L 131.764886 49.611391 
L 125.981818 49.309731 
L 120.19875 49.019986 
L 114.415682 48.754959 
L 108.632614 48.493998 
L 102.849545 48.254374 
L 97.066477 48.030908 
L 91.283409 47.821237 
L 85.500341 47.629517 
L 79.717273 47.454414 
L 73.934205 47.300172 
L 68.151136 47.2075 
z
" style="fill:#dc143c;fill-opacity:0.2;"/>
   </g>
   <g id="PolyCollection_2">
    <path clip-path="url(#p767924c00d)" d="M 68.151136 47.2075 
L 68.151136 47.2075 
L 73.934205 47.319107 
L 79.717273 47.522143 
L 85.500341 47.771365 
L 91.283409 48.062954 
L 97.066477 48.398033 
L 102.849545 48.773131 
L 108.632614 49.194252 
L 114.415682 49.657583 
L 120.19875 50.164198 
L 125.981818 50.720337 
L 131.764886 51.318896 
L 137.547955 51.959955 
L 143.331023 52.494177 
L 149.114091 52.953425 
L 154.897159 53.394537 
L 160.680227 53.831088 
L 166.463295 54.259027 
L 172.246364 54.65299 
L 178.029432 55.048042 
L 183.8125 55.408987 
L 189.595568 55.780706 
L 195.378636 56.087123 
L 201.161705 56.364305 
L 206.944773 56.647449 
L 212.727841 56.849377 
L 218.510909 56.977333 
L 224.293977 57.147538 
L 230.077045 57.269552 
L 235.860114 57.322107 
L 241.643182 57.389452 
L 247.42625 57.288112 
L 253.209318 57.239095 
L 258.992386 57.168417 
L 264.775455 56.949072 
L 270.558523 56.641557 
L 276.341591 56.275775 
L 282.124659 55.543158 
L 287.907727 55.154832 
L 293.690795 55.102844 
L 299.473864 55.062616 
L 299.473864 48.109742 
L 299.473864 48.109742 
L 293.690795 48.160486 
L 287.907727 48.220128 
L 282.124659 48.274236 
L 276.341591 48.332667 
L 270.558523 48.395833 
L 264.775455 48.463869 
L 258.992386 48.548961 
L 253.209318 48.642926 
L 247.42625 48.748108 
L 241.643182 48.89546 
L 235.860114 49.046455 
L 230.077045 49.280805 
L 224.293977 49.485515 
L 218.510909 49.749398 
L 212.727841 50.020154 
L 206.944773 50.246301 
L 201.161705 50.581379 
L 195.378636 50.830865 
L 189.595568 51.01718 
L 183.8125 51.105841 
L 178.029432 51.069466 
L 172.246364 50.988429 
L 166.463295 50.881247 
L 160.680227 50.749139 
L 154.897159 50.606995 
L 149.114091 50.453654 
L 143.331023 50.296952 
L 137.547955 50.068188 
L 131.764886 49.73356 
L 125.981818 49.412762 
L 120.19875 49.110777 
L 114.415682 48.821874 
L 108.632614 48.551172 
L 102.849545 48.296386 
L 97.066477 48.059288 
L 91.283409 47.842943 
L 85.500341 47.64448 
L 79.717273 47.463832 
L 73.934205 47.303733 
L 68.151136 47.2075 
z
" style="fill:#1f77b4;fill-opacity:0.2;"/>
   </g>
   <g id="PolyCollection_3">
    <path clip-path="url(#p767924c00d)" d="M 68.151136 47.2075 
L 68.151136 47.2075 
L 73.934205 47.317151 
L 79.717273 47.516444 
L 85.500341 47.761115 
L 91.283409 48.047386 
L 97.066477 48.373955 
L 102.849545 48.7416 
L 108.632614 49.151044 
L 114.415682 49.603093 
L 120.19875 50.094947 
L 125.981818 50.629405 
L 131.764886 51.202242 
L 137.547955 51.816334 
L 143.331023 52.32095 
L 149.114091 52.744673 
L 154.897159 53.156586 
L 160.680227 53.55681 
L 166.463295 53.954135 
L 172.246364 54.315371 
L 178.029432 54.638883 
L 183.8125 54.955307 
L 189.595568 55.271474 
L 195.378636 55.547093 
L 201.161705 55.765261 
L 206.944773 56.008276 
L 212.727841 56.177992 
L 218.510909 56.308917 
L 224.293977 56.38084 
L 230.077045 56.403361 
L 235.860114 56.417333 
L 241.643182 56.382222 
L 247.42625 56.156191 
L 253.209318 55.643911 
L 258.992386 55.088752 
L 264.775455 54.831967 
L 270.558523 54.722923 
L 276.341591 54.689031 
L 282.124659 54.652857 
L 287.907727 54.624143 
L 293.690795 54.629846 
L 299.473864 54.606828 
L 299.473864 48.591434 
L 299.473864 48.591434 
L 293.690795 48.683629 
L 287.907727 48.775485 
L 282.124659 48.877997 
L 276.341591 48.988098 
L 270.558523 49.135039 
L 264.775455 49.297897 
L 258.992386 49.540714 
L 253.209318 49.786717 
L 247.42625 50.092795 
L 241.643182 50.349866 
L 235.860114 50.607978 
L 230.077045 50.879049 
L 224.293977 51.127361 
L 218.510909 51.375755 
L 212.727841 51.483644 
L 206.944773 51.562215 
L 201.161705 51.550767 
L 195.378636 51.515014 
L 189.595568 51.460622 
L 183.8125 51.381765 
L 178.029432 51.308714 
L 172.246364 51.200475 
L 166.463295 51.065796 
L 160.680227 50.918598 
L 154.897159 50.754872 
L 149.114091 50.584368 
L 143.331023 50.407964 
L 137.547955 50.173284 
L 131.764886 49.822247 
L 125.981818 49.486778 
L 120.19875 49.17123 
L 114.415682 48.876878 
L 108.632614 48.595395 
L 102.849545 48.331248 
L 97.066477 48.08573 
L 91.283409 47.861244 
L 85.500341 47.657255 
L 79.717273 47.4713 
L 73.934205 47.30575 
L 68.151136 47.2075 
z
" style="fill:#ff7f0e;fill-opacity:0.2;"/>
   </g>
   <g id="PolyCollection_4">
    <path clip-path="url(#p767924c00d)" d="M 68.151136 47.2075 
L 68.151136 47.2075 
L 73.934205 47.314288 
L 79.717273 47.508002 
L 85.500341 47.745019 
L 91.283409 48.020579 
L 97.066477 48.334864 
L 102.849545 48.686681 
L 108.632614 49.075288 
L 114.415682 49.500968 
L 120.19875 49.963228 
L 125.981818 50.460726 
L 131.764886 50.992766 
L 137.547955 51.555631 
L 143.331023 52.016844 
L 149.114091 52.39362 
L 154.897159 52.750774 
L 160.680227 53.085235 
L 166.463295 53.405178 
L 172.246364 53.679922 
L 178.029432 53.943562 
L 183.8125 54.174104 
L 189.595568 54.385652 
L 195.378636 54.559623 
L 201.161705 54.70074 
L 206.944773 54.762547 
L 212.727841 54.700918 
L 218.510909 54.521685 
L 224.293977 54.27448 
L 230.077045 54.091726 
L 235.860114 54.006262 
L 241.643182 53.995984 
L 247.42625 53.995883 
L 253.209318 54.024484 
L 258.992386 54.048281 
L 264.775455 54.044964 
L 270.558523 54.041663 
L 276.341591 54.026382 
L 282.124659 54.010938 
L 287.907727 54.021075 
L 293.690795 54.019392 
L 299.473864 53.997317 
L 299.473864 51.263886 
L 299.473864 51.263886 
L 293.690795 51.525457 
L 287.907727 51.791297 
L 282.124659 52.048545 
L 276.341591 52.226678 
L 270.558523 52.335265 
L 264.775455 52.399843 
L 258.992386 52.444748 
L 253.209318 52.47119 
L 247.42625 52.514497 
L 241.643182 52.519852 
L 235.860114 52.501517 
L 230.077045 52.465642 
L 224.293977 52.42921 
L 218.510909 52.384967 
L 212.727841 52.317282 
L 206.944773 52.232537 
L 201.161705 52.15055 
L 195.378636 52.037133 
L 189.595568 51.935773 
L 183.8125 51.81649 
L 178.029432 51.68828 
L 172.246364 51.548508 
L 166.463295 51.400587 
L 160.680227 51.231009 
L 154.897159 51.049103 
L 149.114091 50.856191 
L 143.331023 50.658615 
L 137.547955 50.399264 
L 131.764886 50.022399 
L 125.981818 49.664548 
L 120.19875 49.326835 
L 114.415682 49.010984 
L 108.632614 48.72687 
L 102.849545 48.486549 
L 97.066477 48.220065 
L 91.283409 47.952109 
L 85.500341 47.705072 
L 79.717273 47.488687 
L 73.934205 47.308383 
L 68.151136 47.2075 
z
" style="fill:#2ca02c;fill-opacity:0.2;"/>
   </g>
   <g id="PolyCollection_5">
    <path clip-path="url(#p767924c00d)" d="M 68.151136 47.2075 
L 68.151136 47.2075 
L 73.934205 47.595321 
L 79.717273 48.0161 
L 85.500341 48.473377 
L 91.283409 48.990619 
L 97.066477 49.582807 
L 102.849545 50.297349 
L 108.632614 50.970975 
L 114.415682 51.416784 
L 120.19875 52.484647 
L 125.981818 53.124568 
L 131.764886 54.118341 
L 137.547955 55.214282 
L 143.331023 55.83177 
L 149.114091 56.527651 
L 154.897159 56.74353 
L 160.680227 58.015211 
L 166.463295 58.448058 
L 172.246364 59.342338 
L 178.029432 59.9319 
L 183.8125 60.786973 
L 189.595568 61.684732 
L 195.378636 62.328632 
L 201.161705 61.883619 
L 206.944773 62.630276 
L 212.727841 62.747007 
L 218.510909 63.088725 
L 224.293977 64.470636 
L 230.077045 64.792411 
L 235.860114 64.74537 
L 241.643182 64.792298 
L 247.42625 63.955509 
L 253.209318 64.584844 
L 258.992386 65.200911 
L 264.775455 64.725781 
L 270.558523 64.721731 
L 276.341591 64.722831 
L 282.124659 64.772959 
L 287.907727 64.812973 
L 293.690795 64.74139 
L 299.473864 64.001206 
L 299.473864 39.41627 
L 299.473864 39.41627 
L 293.690795 39.154478 
L 287.907727 38.515232 
L 282.124659 39.209366 
L 276.341591 39.342836 
L 270.558523 39.211902 
L 264.775455 40.551387 
L 258.992386 39.935535 
L 253.209318 39.565333 
L 247.42625 39.32189 
L 241.643182 39.345716 
L 235.860114 39.30751 
L 230.077045 39.651402 
L 224.293977 40.160482 
L 218.510909 41.045316 
L 212.727841 40.806353 
L 206.944773 40.339251 
L 201.161705 40.056184 
L 195.378636 41.537103 
L 189.595568 40.614377 
L 183.8125 41.134998 
L 178.029432 41.830151 
L 172.246364 41.469905 
L 166.463295 41.919197 
L 160.680227 41.899622 
L 154.897159 42.724932 
L 149.114091 42.526479 
L 143.331023 42.499412 
L 137.547955 43.770811 
L 131.764886 43.819956 
L 125.981818 44.018417 
L 120.19875 44.480412 
L 114.415682 44.74765 
L 108.632614 45.088991 
L 102.849545 45.277483 
L 97.066477 45.638722 
L 91.283409 45.925326 
L 85.500341 46.239079 
L 79.717273 46.579879 
L 73.934205 46.862603 
L 68.151136 47.2075 
z
" style="fill:#1e90ff;fill-opacity:0.2;"/>
   </g>
   <g id="PolyCollection_6">
    <path clip-path="url(#p767924c00d)" d="M 68.151136 47.2075 
L 68.151136 47.2075 
L 73.934205 47.229575 
L 79.717273 47.282903 
L 85.500341 47.362608 
L 91.283409 47.469359 
L 97.066477 47.60358 
L 102.849545 47.765404 
L 108.632614 47.953742 
L 114.415682 48.172105 
L 120.19875 48.413667 
L 125.981818 48.688773 
L 131.764886 48.987759 
L 137.547955 49.316111 
L 143.331023 49.643033 
L 149.114091 49.963585 
L 154.897159 50.262691 
L 160.680227 50.554009 
L 166.463295 50.851431 
L 172.246364 51.132626 
L 178.029432 51.396869 
L 183.8125 51.65938 
L 189.595568 51.901401 
L 195.378636 52.110769 
L 201.161705 52.335956 
L 206.944773 52.543955 
L 212.727841 52.712836 
L 218.510909 52.871932 
L 224.293977 53.003172 
L 230.077045 53.131867 
L 235.860114 53.235629 
L 241.643182 53.311502 
L 247.42625 53.379461 
L 253.209318 53.474108 
L 258.992386 53.535454 
L 264.775455 53.632303 
L 270.558523 53.69857 
L 276.341591 53.739834 
L 282.124659 53.815722 
L 287.907727 53.850645 
L 293.690795 53.916869 
L 299.473864 53.988224 
L 299.473864 48.120589 
L 299.473864 48.120589 
L 293.690795 48.169924 
L 287.907727 48.237871 
L 282.124659 48.319897 
L 276.341591 48.391894 
L 270.558523 48.48308 
L 264.775455 48.581624 
L 258.992386 48.688775 
L 253.209318 48.79286 
L 247.42625 48.905541 
L 241.643182 49.042549 
L 235.860114 49.171092 
L 230.077045 49.314708 
L 224.293977 49.473749 
L 218.510909 49.596042 
L 212.727841 49.726964 
L 206.944773 49.804505 
L 201.161705 49.855299 
L 195.378636 49.849461 
L 189.595568 49.809496 
L 183.8125 49.764058 
L 178.029432 49.669055 
L 172.246364 49.56304 
L 166.463295 49.437 
L 160.680227 49.309054 
L 154.897159 49.163752 
L 149.114091 49.007514 
L 143.331023 48.835034 
L 137.547955 48.641456 
L 131.764886 48.436834 
L 125.981818 48.246806 
L 120.19875 48.07205 
L 114.415682 47.909944 
L 108.632614 47.76395 
L 102.849545 47.631193 
L 97.066477 47.514924 
L 91.283409 47.415339 
L 85.500341 47.33368 
L 79.717273 47.269193 
L 73.934205 47.223478 
L 68.151136 47.2075 
z
" style="fill:#d62728;fill-opacity:0.2;"/>
   </g>
   <g id="PolyCollection_7">
    <path clip-path="url(#p767924c00d)" d="M 68.151136 47.2075 
L 68.151136 47.2075 
L 73.934205 47.229167 
L 79.717273 47.281266 
L 85.500341 47.359056 
L 91.283409 47.463275 
L 97.066477 47.593585 
L 102.849545 47.749742 
L 108.632614 47.931577 
L 114.415682 48.140413 
L 120.19875 48.373621 
L 125.981818 48.633683 
L 131.764886 48.918008 
L 137.547955 49.227964 
L 143.331023 49.537245 
L 149.114091 49.830633 
L 154.897159 50.112207 
L 160.680227 50.385724 
L 166.463295 50.649576 
L 172.246364 50.901052 
L 178.029432 51.139077 
L 183.8125 51.37617 
L 189.595568 51.594231 
L 195.378636 51.814509 
L 201.161705 52.003104 
L 206.944773 52.173271 
L 212.727841 52.342704 
L 218.510909 52.480507 
L 224.293977 52.59236 
L 230.077045 52.701477 
L 235.860114 52.813642 
L 241.643182 52.911727 
L 247.42625 52.983589 
L 253.209318 53.069069 
L 258.992386 53.143991 
L 264.775455 53.214044 
L 270.558523 53.264625 
L 276.341591 53.338782 
L 282.124659 53.392007 
L 287.907727 53.455796 
L 293.690795 53.493063 
L 299.473864 53.536811 
L 299.473864 48.695167 
L 299.473864 48.695167 
L 293.690795 48.804335 
L 287.907727 48.916772 
L 282.124659 49.054375 
L 276.341591 49.191996 
L 270.558523 49.353116 
L 264.775455 49.506411 
L 258.992386 49.689439 
L 253.209318 49.854032 
L 247.42625 49.976976 
L 241.643182 50.099863 
L 235.860114 50.210313 
L 230.077045 50.299891 
L 224.293977 50.335037 
L 218.510909 50.336418 
L 212.727841 50.308352 
L 206.944773 50.267697 
L 201.161705 50.218256 
L 195.378636 50.149457 
L 189.595568 50.071078 
L 183.8125 49.97063 
L 178.029432 49.859658 
L 172.246364 49.73742 
L 166.463295 49.602499 
L 160.680227 49.45607 
L 154.897159 49.292354 
L 149.114091 49.118491 
L 143.331023 48.931093 
L 137.547955 48.725341 
L 131.764886 48.505413 
L 125.981818 48.304227 
L 120.19875 48.117967 
L 114.415682 47.946751 
L 108.632614 47.791237 
L 102.849545 47.651341 
L 97.066477 47.528571 
L 91.283409 47.42409 
L 85.500341 47.337906 
L 79.717273 47.271245 
L 73.934205 47.223896 
L 68.151136 47.2075 
z
" style="fill:#9467bd;fill-opacity:0.2;"/>
   </g>
   <g id="PolyCollection_8">
    <path clip-path="url(#p767924c00d)" d="M 68.151136 47.2075 
L 68.151136 47.2075 
L 73.934205 47.228593 
L 79.717273 47.278942 
L 85.500341 47.354357 
L 91.283409 47.4548 
L 97.066477 47.580237 
L 102.849545 47.729344 
L 108.632614 47.902074 
L 114.415682 48.09872 
L 120.19875 48.317927 
L 125.981818 48.559285 
L 131.764886 48.823156 
L 137.547955 49.107784 
L 143.331023 49.387444 
L 149.114091 49.652352 
L 154.897159 49.902619 
L 160.680227 50.144404 
L 166.463295 50.373547 
L 172.246364 50.58936 
L 178.029432 50.791022 
L 183.8125 50.985334 
L 189.595568 51.167955 
L 195.378636 51.33804 
L 201.161705 51.503464 
L 206.944773 51.665789 
L 212.727841 51.812871 
L 218.510909 51.951027 
L 224.293977 52.078113 
L 230.077045 52.188667 
L 235.860114 52.289683 
L 241.643182 52.386886 
L 247.42625 52.48279 
L 253.209318 52.54189 
L 258.992386 52.61526 
L 264.775455 52.680532 
L 270.558523 52.742629 
L 276.341591 52.788859 
L 282.124659 52.832184 
L 287.907727 52.870279 
L 293.690795 52.901162 
L 299.473864 52.929884 
L 299.473864 51.063089 
L 299.473864 51.063089 
L 293.690795 51.092075 
L 287.907727 51.151132 
L 282.124659 51.175524 
L 276.341591 51.195488 
L 270.558523 51.218687 
L 264.775455 51.23727 
L 258.992386 51.222182 
L 253.209318 51.200583 
L 247.42625 51.174878 
L 241.643182 51.141936 
L 235.860114 51.095106 
L 230.077045 51.040745 
L 224.293977 50.968043 
L 218.510909 50.898342 
L 212.727841 50.821069 
L 206.944773 50.733748 
L 201.161705 50.633319 
L 195.378636 50.524091 
L 189.595568 50.40232 
L 183.8125 50.273392 
L 178.029432 50.139802 
L 172.246364 49.992963 
L 166.463295 49.827379 
L 160.680227 49.657525 
L 154.897159 49.472839 
L 149.114091 49.278333 
L 143.331023 49.071111 
L 137.547955 48.843693 
L 131.764886 48.607254 
L 125.981818 48.386373 
L 120.19875 48.182564 
L 114.415682 47.996153 
L 108.632614 47.827852 
L 102.849545 47.677555 
L 97.066477 47.546731 
L 91.283409 47.435373 
L 85.500341 47.34395 
L 79.717273 47.273567 
L 73.934205 47.227129 
L 68.151136 47.2075 
z
" style="fill:#8c564b;fill-opacity:0.2;"/>
   </g>
   <g id="matplotlib.axis_1">
    <g id="xtick_1">
     <g id="line2d_1">
      <defs>
       <path d="M 0 0 
L 0 3.5 
" id="m40cf8f1414" style="stroke:#000000;stroke-width:0.8;"/>
      </defs>
      <g>
       <use style="stroke:#000000;stroke-width:0.8;" x="68.151136" xlink:href="#m40cf8f1414" y="251.94"/>
      </g>
     </g>
     <g id="text_1">
      <!-- 2021 -->
      <g transform="translate(71.462386 289.48)rotate(-90)scale(0.12 -0.12)">
       <defs>
        <path d="M 1228 531 
L 3431 531 
L 3431 0 
L 469 0 
L 469 531 
Q 828 903 1448 1529 
Q 2069 2156 2228 2338 
Q 2531 2678 2651 2914 
Q 2772 3150 2772 3378 
Q 2772 3750 2511 3984 
Q 2250 4219 1831 4219 
Q 1534 4219 1204 4116 
Q 875 4013 500 3803 
L 500 4441 
Q 881 4594 1212 4672 
Q 1544 4750 1819 4750 
Q 2544 4750 2975 4387 
Q 3406 4025 3406 3419 
Q 3406 3131 3298 2873 
Q 3191 2616 2906 2266 
Q 2828 2175 2409 1742 
Q 1991 1309 1228 531 
z
" id="DejaVuSans-32" transform="scale(0.015625)"/>
        <path d="M 2034 4250 
Q 1547 4250 1301 3770 
Q 1056 3291 1056 2328 
Q 1056 1369 1301 889 
Q 1547 409 2034 409 
Q 2525 409 2770 889 
Q 3016 1369 3016 2328 
Q 3016 3291 2770 3770 
Q 2525 4250 2034 4250 
z
M 2034 4750 
Q 2819 4750 3233 4129 
Q 3647 3509 3647 2328 
Q 3647 1150 3233 529 
Q 2819 -91 2034 -91 
Q 1250 -91 836 529 
Q 422 1150 422 2328 
Q 422 3509 836 4129 
Q 1250 4750 2034 4750 
z
" id="DejaVuSans-30" transform="scale(0.015625)"/>
        <path d="M 794 531 
L 1825 531 
L 1825 4091 
L 703 3866 
L 703 4441 
L 1819 4666 
L 2450 4666 
L 2450 531 
L 3481 531 
L 3481 0 
L 794 0 
L 794 531 
z
" id="DejaVuSans-31" transform="scale(0.015625)"/>
       </defs>
       <use xlink:href="#DejaVuSans-32"/>
       <use x="63.623047" xlink:href="#DejaVuSans-30"/>
       <use x="127.246094" xlink:href="#DejaVuSans-32"/>
       <use x="190.869141" xlink:href="#DejaVuSans-31"/>
      </g>
     </g>
    </g>
    <g id="xtick_2">
     <g id="line2d_2">
      <g>
       <use style="stroke:#000000;stroke-width:0.8;" x="91.283409" xlink:href="#m40cf8f1414" y="251.94"/>
      </g>
     </g>
     <g id="text_2">
      <!-- 2022 -->
      <g transform="translate(94.594659 289.48)rotate(-90)scale(0.12 -0.12)">
       <use xlink:href="#DejaVuSans-32"/>
       <use x="63.623047" xlink:href="#DejaVuSans-30"/>
       <use x="127.246094" xlink:href="#DejaVuSans-32"/>
       <use x="190.869141" xlink:href="#DejaVuSans-32"/>
      </g>
     </g>
    </g>
    <g id="xtick_3">
     <g id="line2d_3">
      <g>
       <use style="stroke:#000000;stroke-width:0.8;" x="114.415682" xlink:href="#m40cf8f1414" y="251.94"/>
      </g>
     </g>
     <g id="text_3">
      <!-- 2023 -->
      <g transform="translate(117.726932 289.48)rotate(-90)scale(0.12 -0.12)">
       <defs>
        <path d="M 2597 2516 
Q 3050 2419 3304 2112 
Q 3559 1806 3559 1356 
Q 3559 666 3084 287 
Q 2609 -91 1734 -91 
Q 1441 -91 1130 -33 
Q 819 25 488 141 
L 488 750 
Q 750 597 1062 519 
Q 1375 441 1716 441 
Q 2309 441 2620 675 
Q 2931 909 2931 1356 
Q 2931 1769 2642 2001 
Q 2353 2234 1838 2234 
L 1294 2234 
L 1294 2753 
L 1863 2753 
Q 2328 2753 2575 2939 
Q 2822 3125 2822 3475 
Q 2822 3834 2567 4026 
Q 2313 4219 1838 4219 
Q 1578 4219 1281 4162 
Q 984 4106 628 3988 
L 628 4550 
Q 988 4650 1302 4700 
Q 1616 4750 1894 4750 
Q 2613 4750 3031 4423 
Q 3450 4097 3450 3541 
Q 3450 3153 3228 2886 
Q 3006 2619 2597 2516 
z
" id="DejaVuSans-33" transform="scale(0.015625)"/>
       </defs>
       <use xlink:href="#DejaVuSans-32"/>
       <use x="63.623047" xlink:href="#DejaVuSans-30"/>
       <use x="127.246094" xlink:href="#DejaVuSans-32"/>
       <use x="190.869141" xlink:href="#DejaVuSans-33"/>
      </g>
     </g>
    </g>
    <g id="xtick_4">
     <g id="line2d_4">
      <g>
       <use style="stroke:#000000;stroke-width:0.8;" x="137.547955" xlink:href="#m40cf8f1414" y="251.94"/>
      </g>
     </g>
     <g id="text_4">
      <!-- 2024 -->
      <g transform="translate(140.859205 289.48)rotate(-90)scale(0.12 -0.12)">
       <defs>
        <path d="M 2419 4116 
L 825 1625 
L 2419 1625 
L 2419 4116 
z
M 2253 4666 
L 3047 4666 
L 3047 1625 
L 3713 1625 
L 3713 1100 
L 3047 1100 
L 3047 0 
L 2419 0 
L 2419 1100 
L 313 1100 
L 313 1709 
L 2253 4666 
z
" id="DejaVuSans-34" transform="scale(0.015625)"/>
       </defs>
       <use xlink:href="#DejaVuSans-32"/>
       <use x="63.623047" xlink:href="#DejaVuSans-30"/>
       <use x="127.246094" xlink:href="#DejaVuSans-32"/>
       <use x="190.869141" xlink:href="#DejaVuSans-34"/>
      </g>
     </g>
    </g>
    <g id="xtick_5">
     <g id="line2d_5">
      <g>
       <use style="stroke:#000000;stroke-width:0.8;" x="160.680227" xlink:href="#m40cf8f1414" y="251.94"/>
      </g>
     </g>
     <g id="text_5">
      <!-- 2025 -->
      <g transform="translate(163.991477 289.48)rotate(-90)scale(0.12 -0.12)">
       <defs>
        <path d="M 691 4666 
L 3169 4666 
L 3169 4134 
L 1269 4134 
L 1269 2991 
Q 1406 3038 1543 3061 
Q 1681 3084 1819 3084 
Q 2600 3084 3056 2656 
Q 3513 2228 3513 1497 
Q 3513 744 3044 326 
Q 2575 -91 1722 -91 
Q 1428 -91 1123 -41 
Q 819 9 494 109 
L 494 744 
Q 775 591 1075 516 
Q 1375 441 1709 441 
Q 2250 441 2565 725 
Q 2881 1009 2881 1497 
Q 2881 1984 2565 2268 
Q 2250 2553 1709 2553 
Q 1456 2553 1204 2497 
Q 953 2441 691 2322 
L 691 4666 
z
" id="DejaVuSans-35" transform="scale(0.015625)"/>
       </defs>
       <use xlink:href="#DejaVuSans-32"/>
       <use x="63.623047" xlink:href="#DejaVuSans-30"/>
       <use x="127.246094" xlink:href="#DejaVuSans-32"/>
       <use x="190.869141" xlink:href="#DejaVuSans-35"/>
      </g>
     </g>
    </g>
    <g id="xtick_6">
     <g id="line2d_6">
      <g>
       <use style="stroke:#000000;stroke-width:0.8;" x="183.8125" xlink:href="#m40cf8f1414" y="251.94"/>
      </g>
     </g>
     <g id="text_6">
      <!-- 2026 -->
      <g transform="translate(187.12375 289.48)rotate(-90)scale(0.12 -0.12)">
       <defs>
        <path d="M 2113 2584 
Q 1688 2584 1439 2293 
Q 1191 2003 1191 1497 
Q 1191 994 1439 701 
Q 1688 409 2113 409 
Q 2538 409 2786 701 
Q 3034 994 3034 1497 
Q 3034 2003 2786 2293 
Q 2538 2584 2113 2584 
z
M 3366 4563 
L 3366 3988 
Q 3128 4100 2886 4159 
Q 2644 4219 2406 4219 
Q 1781 4219 1451 3797 
Q 1122 3375 1075 2522 
Q 1259 2794 1537 2939 
Q 1816 3084 2150 3084 
Q 2853 3084 3261 2657 
Q 3669 2231 3669 1497 
Q 3669 778 3244 343 
Q 2819 -91 2113 -91 
Q 1303 -91 875 529 
Q 447 1150 447 2328 
Q 447 3434 972 4092 
Q 1497 4750 2381 4750 
Q 2619 4750 2861 4703 
Q 3103 4656 3366 4563 
z
" id="DejaVuSans-36" transform="scale(0.015625)"/>
       </defs>
       <use xlink:href="#DejaVuSans-32"/>
       <use x="63.623047" xlink:href="#DejaVuSans-30"/>
       <use x="127.246094" xlink:href="#DejaVuSans-32"/>
       <use x="190.869141" xlink:href="#DejaVuSans-36"/>
      </g>
     </g>
    </g>
    <g id="xtick_7">
     <g id="line2d_7">
      <g>
       <use style="stroke:#000000;stroke-width:0.8;" x="206.944773" xlink:href="#m40cf8f1414" y="251.94"/>
      </g>
     </g>
     <g id="text_7">
      <!-- 2027 -->
      <g transform="translate(210.256023 289.48)rotate(-90)scale(0.12 -0.12)">
       <defs>
        <path d="M 525 4666 
L 3525 4666 
L 3525 4397 
L 1831 0 
L 1172 0 
L 2766 4134 
L 525 4134 
L 525 4666 
z
" id="DejaVuSans-37" transform="scale(0.015625)"/>
       </defs>
       <use xlink:href="#DejaVuSans-32"/>
       <use x="63.623047" xlink:href="#DejaVuSans-30"/>
       <use x="127.246094" xlink:href="#DejaVuSans-32"/>
       <use x="190.869141" xlink:href="#DejaVuSans-37"/>
      </g>
     </g>
    </g>
    <g id="xtick_8">
     <g id="line2d_8">
      <g>
       <use style="stroke:#000000;stroke-width:0.8;" x="230.077045" xlink:href="#m40cf8f1414" y="251.94"/>
      </g>
     </g>
     <g id="text_8">
      <!-- 2028 -->
      <g transform="translate(233.388295 289.48)rotate(-90)scale(0.12 -0.12)">
       <defs>
        <path d="M 2034 2216 
Q 1584 2216 1326 1975 
Q 1069 1734 1069 1313 
Q 1069 891 1326 650 
Q 1584 409 2034 409 
Q 2484 409 2743 651 
Q 3003 894 3003 1313 
Q 3003 1734 2745 1975 
Q 2488 2216 2034 2216 
z
M 1403 2484 
Q 997 2584 770 2862 
Q 544 3141 544 3541 
Q 544 4100 942 4425 
Q 1341 4750 2034 4750 
Q 2731 4750 3128 4425 
Q 3525 4100 3525 3541 
Q 3525 3141 3298 2862 
Q 3072 2584 2669 2484 
Q 3125 2378 3379 2068 
Q 3634 1759 3634 1313 
Q 3634 634 3220 271 
Q 2806 -91 2034 -91 
Q 1263 -91 848 271 
Q 434 634 434 1313 
Q 434 1759 690 2068 
Q 947 2378 1403 2484 
z
M 1172 3481 
Q 1172 3119 1398 2916 
Q 1625 2713 2034 2713 
Q 2441 2713 2670 2916 
Q 2900 3119 2900 3481 
Q 2900 3844 2670 4047 
Q 2441 4250 2034 4250 
Q 1625 4250 1398 4047 
Q 1172 3844 1172 3481 
z
" id="DejaVuSans-38" transform="scale(0.015625)"/>
       </defs>
       <use xlink:href="#DejaVuSans-32"/>
       <use x="63.623047" xlink:href="#DejaVuSans-30"/>
       <use x="127.246094" xlink:href="#DejaVuSans-32"/>
       <use x="190.869141" xlink:href="#DejaVuSans-38"/>
      </g>
     </g>
    </g>
    <g id="xtick_9">
     <g id="line2d_9">
      <g>
       <use style="stroke:#000000;stroke-width:0.8;" x="253.209318" xlink:href="#m40cf8f1414" y="251.94"/>
      </g>
     </g>
     <g id="text_9">
      <!-- 2029 -->
      <g transform="translate(256.520568 289.48)rotate(-90)scale(0.12 -0.12)">
       <defs>
        <path d="M 703 97 
L 703 672 
Q 941 559 1184 500 
Q 1428 441 1663 441 
Q 2288 441 2617 861 
Q 2947 1281 2994 2138 
Q 2813 1869 2534 1725 
Q 2256 1581 1919 1581 
Q 1219 1581 811 2004 
Q 403 2428 403 3163 
Q 403 3881 828 4315 
Q 1253 4750 1959 4750 
Q 2769 4750 3195 4129 
Q 3622 3509 3622 2328 
Q 3622 1225 3098 567 
Q 2575 -91 1691 -91 
Q 1453 -91 1209 -44 
Q 966 3 703 97 
z
M 1959 2075 
Q 2384 2075 2632 2365 
Q 2881 2656 2881 3163 
Q 2881 3666 2632 3958 
Q 2384 4250 1959 4250 
Q 1534 4250 1286 3958 
Q 1038 3666 1038 3163 
Q 1038 2656 1286 2365 
Q 1534 2075 1959 2075 
z
" id="DejaVuSans-39" transform="scale(0.015625)"/>
       </defs>
       <use xlink:href="#DejaVuSans-32"/>
       <use x="63.623047" xlink:href="#DejaVuSans-30"/>
       <use x="127.246094" xlink:href="#DejaVuSans-32"/>
       <use x="190.869141" xlink:href="#DejaVuSans-39"/>
      </g>
     </g>
    </g>
    <g id="xtick_10">
     <g id="line2d_10">
      <g>
       <use style="stroke:#000000;stroke-width:0.8;" x="276.341591" xlink:href="#m40cf8f1414" y="251.94"/>
      </g>
     </g>
     <g id="text_10">
      <!-- 2030 -->
      <g transform="translate(279.652841 289.48)rotate(-90)scale(0.12 -0.12)">
       <use xlink:href="#DejaVuSans-32"/>
       <use x="63.623047" xlink:href="#DejaVuSans-30"/>
       <use x="127.246094" xlink:href="#DejaVuSans-33"/>
       <use x="190.869141" xlink:href="#DejaVuSans-30"/>
      </g>
     </g>
    </g>
    <g id="xtick_11">
     <g id="line2d_11">
      <g>
       <use style="stroke:#000000;stroke-width:0.8;" x="299.473864" xlink:href="#m40cf8f1414" y="251.94"/>
      </g>
     </g>
     <g id="text_11">
      <!-- 2031 -->
      <g transform="translate(302.785114 289.48)rotate(-90)scale(0.12 -0.12)">
       <use xlink:href="#DejaVuSans-32"/>
       <use x="63.623047" xlink:href="#DejaVuSans-30"/>
       <use x="127.246094" xlink:href="#DejaVuSans-33"/>
       <use x="190.869141" xlink:href="#DejaVuSans-31"/>
      </g>
     </g>
    </g>
   </g>
   <g id="matplotlib.axis_2">
    <g id="ytick_1">
     <g id="line2d_12">
      <defs>
       <path d="M 0 0 
L -3.5 0 
" id="mdc8303ac16" style="stroke:#000000;stroke-width:0.8;"/>
      </defs>
      <g>
       <use style="stroke:#000000;stroke-width:0.8;" x="56.585" xlink:href="#mdc8303ac16" y="251.94"/>
      </g>
     </g>
     <g id="text_12">
      <!-- −14% -->
      <g transform="translate(12.8575 256.499063)scale(0.12 -0.12)">
       <defs>
        <path d="M 678 2272 
L 4684 2272 
L 4684 1741 
L 678 1741 
L 678 2272 
z
" id="DejaVuSans-2212" transform="scale(0.015625)"/>
        <path d="M 4653 2053 
Q 4381 2053 4226 1822 
Q 4072 1591 4072 1178 
Q 4072 772 4226 539 
Q 4381 306 4653 306 
Q 4919 306 5073 539 
Q 5228 772 5228 1178 
Q 5228 1588 5073 1820 
Q 4919 2053 4653 2053 
z
M 4653 2450 
Q 5147 2450 5437 2106 
Q 5728 1763 5728 1178 
Q 5728 594 5436 251 
Q 5144 -91 4653 -91 
Q 4153 -91 3862 251 
Q 3572 594 3572 1178 
Q 3572 1766 3864 2108 
Q 4156 2450 4653 2450 
z
M 1428 4353 
Q 1159 4353 1004 4120 
Q 850 3888 850 3481 
Q 850 3069 1003 2837 
Q 1156 2606 1428 2606 
Q 1700 2606 1854 2837 
Q 2009 3069 2009 3481 
Q 2009 3884 1853 4118 
Q 1697 4353 1428 4353 
z
M 4250 4750 
L 4750 4750 
L 1831 -91 
L 1331 -91 
L 4250 4750 
z
M 1428 4750 
Q 1922 4750 2215 4408 
Q 2509 4066 2509 3481 
Q 2509 2891 2217 2550 
Q 1925 2209 1428 2209 
Q 931 2209 642 2551 
Q 353 2894 353 3481 
Q 353 4063 643 4406 
Q 934 4750 1428 4750 
z
" id="DejaVuSans-25" transform="scale(0.015625)"/>
       </defs>
       <use xlink:href="#DejaVuSans-2212"/>
       <use x="83.789062" xlink:href="#DejaVuSans-31"/>
       <use x="147.412109" xlink:href="#DejaVuSans-34"/>
       <use x="211.035156" xlink:href="#DejaVuSans-25"/>
      </g>
     </g>
    </g>
    <g id="ytick_2">
     <g id="line2d_13">
      <g>
       <use style="stroke:#000000;stroke-width:0.8;" x="56.585" xlink:href="#mdc8303ac16" y="222.6925"/>
      </g>
     </g>
     <g id="text_13">
      <!-- −12% -->
      <g transform="translate(12.8575 227.251563)scale(0.12 -0.12)">
       <use xlink:href="#DejaVuSans-2212"/>
       <use x="83.789062" xlink:href="#DejaVuSans-31"/>
       <use x="147.412109" xlink:href="#DejaVuSans-32"/>
       <use x="211.035156" xlink:href="#DejaVuSans-25"/>
      </g>
     </g>
    </g>
    <g id="ytick_3">
     <g id="line2d_14">
      <g>
       <use style="stroke:#000000;stroke-width:0.8;" x="56.585" xlink:href="#mdc8303ac16" y="193.445"/>
      </g>
     </g>
     <g id="text_14">
      <!-- −10% -->
      <g transform="translate(12.8575 198.004063)scale(0.12 -0.12)">
       <use xlink:href="#DejaVuSans-2212"/>
       <use x="83.789062" xlink:href="#DejaVuSans-31"/>
       <use x="147.412109" xlink:href="#DejaVuSans-30"/>
       <use x="211.035156" xlink:href="#DejaVuSans-25"/>
      </g>
     </g>
    </g>
    <g id="ytick_4">
     <g id="line2d_15">
      <g>
       <use style="stroke:#000000;stroke-width:0.8;" x="56.585" xlink:href="#mdc8303ac16" y="164.1975"/>
      </g>
     </g>
     <g id="text_15">
      <!-- −8% -->
      <g transform="translate(20.4925 168.756563)scale(0.12 -0.12)">
       <use xlink:href="#DejaVuSans-2212"/>
       <use x="83.789062" xlink:href="#DejaVuSans-38"/>
       <use x="147.412109" xlink:href="#DejaVuSans-25"/>
      </g>
     </g>
    </g>
    <g id="ytick_5">
     <g id="line2d_16">
      <g>
       <use style="stroke:#000000;stroke-width:0.8;" x="56.585" xlink:href="#mdc8303ac16" y="134.95"/>
      </g>
     </g>
     <g id="text_16">
      <!-- −6% -->
      <g transform="translate(20.4925 139.509063)scale(0.12 -0.12)">
       <use xlink:href="#DejaVuSans-2212"/>
       <use x="83.789062" xlink:href="#DejaVuSans-36"/>
       <use x="147.412109" xlink:href="#DejaVuSans-25"/>
      </g>
     </g>
    </g>
    <g id="ytick_6">
     <g id="line2d_17">
      <g>
       <use style="stroke:#000000;stroke-width:0.8;" x="56.585" xlink:href="#mdc8303ac16" y="105.7025"/>
      </g>
     </g>
     <g id="text_17">
      <!-- −4% -->
      <g transform="translate(20.4925 110.261562)scale(0.12 -0.12)">
       <use xlink:href="#DejaVuSans-2212"/>
       <use x="83.789062" xlink:href="#DejaVuSans-34"/>
       <use x="147.412109" xlink:href="#DejaVuSans-25"/>
      </g>
     </g>
    </g>
    <g id="ytick_7">
     <g id="line2d_18">
      <g>
       <use style="stroke:#000000;stroke-width:0.8;" x="56.585" xlink:href="#mdc8303ac16" y="76.455"/>
      </g>
     </g>
     <g id="text_18">
      <!-- −2% -->
      <g transform="translate(20.4925 81.014062)scale(0.12 -0.12)">
       <use xlink:href="#DejaVuSans-2212"/>
       <use x="83.789062" xlink:href="#DejaVuSans-32"/>
       <use x="147.412109" xlink:href="#DejaVuSans-25"/>
      </g>
     </g>
    </g>
    <g id="ytick_8">
     <g id="line2d_19">
      <g>
       <use style="stroke:#000000;stroke-width:0.8;" x="56.585" xlink:href="#mdc8303ac16" y="47.2075"/>
      </g>
     </g>
     <g id="text_19">
      <!-- 0% -->
      <g transform="translate(30.548125 51.766562)scale(0.12 -0.12)">
       <use xlink:href="#DejaVuSans-30"/>
       <use x="63.623047" xlink:href="#DejaVuSans-25"/>
      </g>
     </g>
    </g>
    <g id="ytick_9">
     <g id="line2d_20">
      <g>
       <use style="stroke:#000000;stroke-width:0.8;" x="56.585" xlink:href="#mdc8303ac16" y="17.96"/>
      </g>
     </g>
     <g id="text_20">
      <!-- 2% -->
      <g transform="translate(30.548125 22.519062)scale(0.12 -0.12)">
       <use xlink:href="#DejaVuSans-32"/>
       <use x="63.623047" xlink:href="#DejaVuSans-25"/>
      </g>
     </g>
    </g>
   </g>
   <g id="line2d_21">
    <path clip-path="url(#p767924c00d)" d="M 68.151136 47.2075 
L 73.934205 47.316211 
L 79.717273 47.515182 
L 85.500341 47.7597 
L 91.283409 48.043698 
L 97.066477 48.371444 
L 102.849545 48.737255 
L 108.632614 49.151622 
L 114.415682 49.600671 
L 120.19875 49.814989 
L 125.981818 49.922073 
L 131.764886 50.164713 
L 137.547955 50.487777 
L 143.331023 50.726265 
L 149.114091 50.925572 
L 154.897159 51.13598 
L 160.680227 51.351845 
L 166.463295 51.567162 
L 172.246364 51.781847 
L 178.029432 51.992582 
L 183.8125 52.195881 
L 189.595568 52.394569 
L 195.378636 52.591595 
L 201.161705 52.783409 
L 206.944773 52.972991 
L 212.727841 53.153246 
L 218.510909 53.337539 
L 224.293977 53.511769 
L 230.077045 53.686073 
L 235.860114 53.856704 
L 241.643182 54.019675 
L 247.42625 54.185685 
L 253.209318 54.264125 
L 258.992386 54.148052 
L 264.775455 53.705463 
L 270.558523 53.012927 
L 276.341591 52.563661 
L 282.124659 52.229092 
L 287.907727 51.945658 
L 293.690795 51.687228 
L 299.473864 51.438576 
" style="fill:none;stroke:#dc143c;stroke-linecap:square;stroke-width:1.5;"/>
   </g>
   <g id="line2d_22">
    <path clip-path="url(#p767924c00d)" d="M 68.151136 47.2075 
L 299.473864 47.2075 
" style="fill:none;stroke:#000000;stroke-dasharray:1,1.65;stroke-dashoffset:0;"/>
   </g>
   <g id="line2d_23">
    <path clip-path="url(#p767924c00d)" d="M 68.151136 47.2075 
L 73.934205 47.228972 
L 79.717273 47.281576 
L 85.500341 47.35787 
L 91.283409 47.463435 
L 97.066477 47.59508 
L 102.849545 47.749397 
L 108.632614 47.932159 
L 114.415682 48.139927 
L 120.19875 48.339798 
L 125.981818 48.535805 
L 131.764886 48.757609 
L 137.547955 49.011347 
L 143.331023 49.262088 
L 149.114091 49.493676 
L 154.897159 49.726324 
L 160.680227 49.949013 
L 166.463295 50.16656 
L 172.246364 50.378517 
L 178.029432 50.59007 
L 183.8125 50.783776 
L 189.595568 50.976132 
L 195.378636 51.166887 
L 201.161705 51.355801 
L 206.944773 51.536521 
L 212.727841 51.708559 
L 218.510909 51.877605 
L 224.293977 52.043413 
L 230.077045 52.205698 
L 235.860114 52.357649 
L 241.643182 52.505338 
L 247.42625 52.655133 
L 253.209318 52.779899 
L 258.992386 52.851085 
L 264.775455 52.838757 
L 270.558523 52.732057 
L 276.341591 52.634334 
L 282.124659 52.510398 
L 287.907727 52.381443 
L 293.690795 52.232869 
L 299.473864 52.06428 
" style="fill:none;stroke:#1e90ff;stroke-dasharray:5.55,2.4;stroke-dashoffset:0;stroke-width:1.5;"/>
   </g>
   <g id="line2d_24">
    <path clip-path="url(#p767924c00d)" d="M 68.151136 47.2075 
L 299.473864 47.2075 
" style="fill:none;stroke:#000000;stroke-dasharray:1,1.65;stroke-dashoffset:0;"/>
   </g>
   <g id="patch_3">
    <path d="M 56.585 251.94 
L 56.585 17.96 
" style="fill:none;stroke:#000000;stroke-linecap:square;stroke-linejoin:miter;stroke-width:0.8;"/>
   </g>
   <g id="patch_4">
    <path d="M 311.04 251.94 
L 311.04 17.96 
" style="fill:none;stroke:#000000;stroke-linecap:square;stroke-linejoin:miter;stroke-width:0.8;"/>
   </g>
   <g id="patch_5">
    <path d="M 56.585 251.94 
L 311.04 251.94 
" style="fill:none;stroke:#000000;stroke-linecap:square;stroke-linejoin:miter;stroke-width:0.8;"/>
   </g>
   <g id="patch_6">
    <path d="M 56.585 17.96 
L 311.04 17.96 
" style="fill:none;stroke:#000000;stroke-linecap:square;stroke-linejoin:miter;stroke-width:0.8;"/>
   </g>
  </g>
 </g>
 <defs>
  <clipPath id="p767924c00d">
   <rect height="233.98" width="254.455" x="56.585" y="17.96"/>
  </clipPath>
 </defs>
</svg>
