<?xml version="1.0" encoding="utf-8" standalone="no"?>
<!DOCTYPE svg PUBLIC "-//W3C//DTD SVG 1.1//EN"
  "http://www.w3.org/Graphics/SVG/1.1/DTD/svg11.dtd">
<svg height="302.4pt" version="1.1" viewBox="0 0 324 302.4" width="324pt" xmlns="http://www.w3.org/2000/svg" xmlns:xlink="http://www.w3.org/1999/xlink">
 <metadata>
  <rdf:RDF xmlns:cc="http://creativecommons.org/ns#" xmlns:dc="http://purl.org/dc/elements/1.1/" xmlns:rdf="http://www.w3.org/1999/02/22-rdf-syntax-ns#">
   <cc:Work>
    <dc:type rdf:resource="http://purl.org/dc/dcmitype/StillImage"/>
    <dc:date>2021-07-27T11:58:45.498391</dc:date>
    <dc:format>image/svg+xml</dc:format>
    <dc:creator>
     <cc:Agent>
      <dc:title>Matplotlib v3.4.1, https://matplotlib.org/</dc:title>
     </cc:Agent>
    </dc:creator>
   </cc:Work>
  </rdf:RDF>
 </metadata>
 <defs>
  <style type="text/css">*{stroke-linecap:butt;stroke-linejoin:round;}</style>
 </defs>
 <g id="figure_1">
  <g id="patch_1">
   <path d="M 0 302.4 
L 324 302.4 
L 324 0 
L 0 0 
z
" style="fill:none;"/>
  </g>
  <g id="axes_1">
   <g id="patch_2">
    <path d="M 56.585 251.94 
L 311.04 251.94 
L 311.04 17.96 
L 56.585 17.96 
z
" style="fill:#ffffff;"/>
   </g>
   <g id="PolyCollection_1">
    <path clip-path="url(#pef12afb422)" d="M 68.151136 47.2075 
L 68.151136 47.2075 
L 73.934205 62.619109 
L 79.717273 78.306592 
L 85.500341 94.241141 
L 91.283409 110.372675 
L 97.066477 126.689929 
L 102.849545 143.210953 
L 108.632614 159.859123 
L 114.415682 176.56931 
L 120.19875 193.443552 
L 125.981818 210.370834 
L 131.764886 227.427439 
L 137.547955 244.555024 
L 143.331023 244.506978 
L 149.114091 244.438691 
L 154.897159 244.358899 
L 160.680227 244.14521 
L 166.463295 243.8316 
L 172.246364 243.497901 
L 178.029432 243.115601 
L 183.8125 242.694291 
L 189.595568 242.214142 
L 195.378636 241.72 
L 201.161705 241.213857 
L 206.944773 240.739062 
L 212.727841 240.287131 
L 218.510909 239.722676 
L 224.293977 239.205294 
L 230.077045 238.705047 
L 235.860114 238.160404 
L 241.643182 237.490227 
L 247.42625 236.8647 
L 253.209318 236.294788 
L 258.992386 235.844466 
L 264.775455 235.279153 
L 270.558523 234.737287 
L 276.341591 234.08914 
L 282.124659 233.613161 
L 287.907727 233.248273 
L 293.690795 232.596817 
L 299.473864 232.095742 
L 299.473864 203.179992 
L 299.473864 203.179992 
L 293.690795 204.535823 
L 287.907727 205.800437 
L 282.124659 207.033574 
L 276.341591 208.426546 
L 270.558523 209.719829 
L 264.775455 211.060205 
L 258.992386 212.321336 
L 253.209318 213.539883 
L 247.42625 214.643363 
L 241.643182 215.851634 
L 235.860114 216.996866 
L 230.077045 218.060503 
L 224.293977 219.177533 
L 218.510909 220.188921 
L 212.727841 221.054193 
L 206.944773 222.102636 
L 201.161705 222.877168 
L 195.378636 223.732265 
L 189.595568 224.523481 
L 183.8125 225.223095 
L 178.029432 225.86924 
L 172.246364 226.533466 
L 166.463295 226.835046 
L 160.680227 227.255425 
L 154.897159 227.621646 
L 149.114091 228.083472 
L 143.331023 228.521991 
L 137.547955 229.015144 
L 131.764886 213.67636 
L 125.981818 198.276036 
L 120.19875 182.881924 
L 114.415682 167.50878 
L 108.632614 152.286589 
L 102.849545 137.015503 
L 97.066477 121.810481 
L 91.283409 106.645656 
L 85.500341 91.535635 
L 79.717273 76.579521 
L 73.934205 61.790645 
L 68.151136 47.2075 
z
" style="fill:#dc143c;fill-opacity:0.2;"/>
   </g>
   <g id="PolyCollection_2">
    <path clip-path="url(#pef12afb422)" d="M 68.151136 47.2075 
L 68.151136 47.2075 
L 73.934205 47.190007 
L 79.717273 47.116575 
L 85.500341 46.991774 
L 91.283409 46.816648 
L 97.066477 46.590938 
L 102.849545 46.315702 
L 108.632614 45.991598 
L 114.415682 45.620997 
L 120.19875 45.214046 
L 125.981818 44.769276 
L 131.764886 44.286445 
L 137.547955 43.771441 
L 143.331023 43.247833 
L 149.114091 42.74006 
L 154.897159 42.251399 
L 160.680227 41.827259 
L 166.463295 41.436095 
L 172.246364 41.069025 
L 178.029432 40.703796 
L 183.8125 40.364459 
L 189.595568 40.006754 
L 195.378636 39.666634 
L 201.161705 39.3678 
L 206.944773 39.082486 
L 212.727841 38.794283 
L 218.510909 38.52549 
L 224.293977 38.279328 
L 230.077045 38.051589 
L 235.860114 37.819719 
L 241.643182 37.623404 
L 247.42625 37.452754 
L 253.209318 37.318534 
L 258.992386 37.198424 
L 264.775455 37.06882 
L 270.558523 36.980552 
L 276.341591 36.89547 
L 282.124659 36.835962 
L 287.907727 36.779144 
L 293.690795 36.754989 
L 299.473864 36.744344 
L 299.473864 22.417965 
L 299.473864 22.417965 
L 293.690795 22.992327 
L 287.907727 23.674737 
L 282.124659 24.310318 
L 276.341591 25.011042 
L 270.558523 25.714733 
L 264.775455 26.432765 
L 258.992386 27.139234 
L 253.209318 27.786589 
L 247.42625 28.514787 
L 241.643182 29.230594 
L 235.860114 29.972645 
L 230.077045 30.697356 
L 224.293977 31.416685 
L 218.510909 32.060485 
L 212.727841 32.733024 
L 206.944773 33.43717 
L 201.161705 34.09541 
L 195.378636 34.816612 
L 189.595568 35.426657 
L 183.8125 36.161471 
L 178.029432 36.908965 
L 172.246364 37.682571 
L 166.463295 38.481127 
L 160.680227 39.270292 
L 154.897159 40.062835 
L 149.114091 40.882516 
L 143.331023 41.68684 
L 137.547955 42.499328 
L 131.764886 43.269896 
L 125.981818 43.973175 
L 120.19875 44.612229 
L 114.415682 45.177762 
L 108.632614 45.672129 
L 102.849545 46.092634 
L 97.066477 46.446898 
L 91.283409 46.730791 
L 85.500341 46.947635 
L 79.717273 47.09716 
L 73.934205 47.181831 
L 68.151136 47.2075 
z
" style="fill:#1e90ff;fill-opacity:0.2;"/>
   </g>
   <g id="matplotlib.axis_1">
    <g id="xtick_1">
     <g id="line2d_1">
      <defs>
       <path d="M 0 0 
L 0 3.5 
" id="m2624d84466" style="stroke:#000000;stroke-width:0.8;"/>
      </defs>
      <g>
       <use style="stroke:#000000;stroke-width:0.8;" x="68.151136" xlink:href="#m2624d84466" y="251.94"/>
      </g>
     </g>
     <g id="text_1">
      <!-- 2021 -->
      <g transform="translate(71.462386 289.48)rotate(-90)scale(0.12 -0.12)">
       <defs>
        <path d="M 1228 531 
L 3431 531 
L 3431 0 
L 469 0 
L 469 531 
Q 828 903 1448 1529 
Q 2069 2156 2228 2338 
Q 2531 2678 2651 2914 
Q 2772 3150 2772 3378 
Q 2772 3750 2511 3984 
Q 2250 4219 1831 4219 
Q 1534 4219 1204 4116 
Q 875 4013 500 3803 
L 500 4441 
Q 881 4594 1212 4672 
Q 1544 4750 1819 4750 
Q 2544 4750 2975 4387 
Q 3406 4025 3406 3419 
Q 3406 3131 3298 2873 
Q 3191 2616 2906 2266 
Q 2828 2175 2409 1742 
Q 1991 1309 1228 531 
z
" id="DejaVuSans-32" transform="scale(0.015625)"/>
        <path d="M 2034 4250 
Q 1547 4250 1301 3770 
Q 1056 3291 1056 2328 
Q 1056 1369 1301 889 
Q 1547 409 2034 409 
Q 2525 409 2770 889 
Q 3016 1369 3016 2328 
Q 3016 3291 2770 3770 
Q 2525 4250 2034 4250 
z
M 2034 4750 
Q 2819 4750 3233 4129 
Q 3647 3509 3647 2328 
Q 3647 1150 3233 529 
Q 2819 -91 2034 -91 
Q 1250 -91 836 529 
Q 422 1150 422 2328 
Q 422 3509 836 4129 
Q 1250 4750 2034 4750 
z
" id="DejaVuSans-30" transform="scale(0.015625)"/>
        <path d="M 794 531 
L 1825 531 
L 1825 4091 
L 703 3866 
L 703 4441 
L 1819 4666 
L 2450 4666 
L 2450 531 
L 3481 531 
L 3481 0 
L 794 0 
L 794 531 
z
" id="DejaVuSans-31" transform="scale(0.015625)"/>
       </defs>
       <use xlink:href="#DejaVuSans-32"/>
       <use x="63.623047" xlink:href="#DejaVuSans-30"/>
       <use x="127.246094" xlink:href="#DejaVuSans-32"/>
       <use x="190.869141" xlink:href="#DejaVuSans-31"/>
      </g>
     </g>
    </g>
    <g id="xtick_2">
     <g id="line2d_2">
      <g>
       <use style="stroke:#000000;stroke-width:0.8;" x="91.283409" xlink:href="#m2624d84466" y="251.94"/>
      </g>
     </g>
     <g id="text_2">
      <!-- 2022 -->
      <g transform="translate(94.594659 289.48)rotate(-90)scale(0.12 -0.12)">
       <use xlink:href="#DejaVuSans-32"/>
       <use x="63.623047" xlink:href="#DejaVuSans-30"/>
       <use x="127.246094" xlink:href="#DejaVuSans-32"/>
       <use x="190.869141" xlink:href="#DejaVuSans-32"/>
      </g>
     </g>
    </g>
    <g id="xtick_3">
     <g id="line2d_3">
      <g>
       <use style="stroke:#000000;stroke-width:0.8;" x="114.415682" xlink:href="#m2624d84466" y="251.94"/>
      </g>
     </g>
     <g id="text_3">
      <!-- 2023 -->
      <g transform="translate(117.726932 289.48)rotate(-90)scale(0.12 -0.12)">
       <defs>
        <path d="M 2597 2516 
Q 3050 2419 3304 2112 
Q 3559 1806 3559 1356 
Q 3559 666 3084 287 
Q 2609 -91 1734 -91 
Q 1441 -91 1130 -33 
Q 819 25 488 141 
L 488 750 
Q 750 597 1062 519 
Q 1375 441 1716 441 
Q 2309 441 2620 675 
Q 2931 909 2931 1356 
Q 2931 1769 2642 2001 
Q 2353 2234 1838 2234 
L 1294 2234 
L 1294 2753 
L 1863 2753 
Q 2328 2753 2575 2939 
Q 2822 3125 2822 3475 
Q 2822 3834 2567 4026 
Q 2313 4219 1838 4219 
Q 1578 4219 1281 4162 
Q 984 4106 628 3988 
L 628 4550 
Q 988 4650 1302 4700 
Q 1616 4750 1894 4750 
Q 2613 4750 3031 4423 
Q 3450 4097 3450 3541 
Q 3450 3153 3228 2886 
Q 3006 2619 2597 2516 
z
" id="DejaVuSans-33" transform="scale(0.015625)"/>
       </defs>
       <use xlink:href="#DejaVuSans-32"/>
       <use x="63.623047" xlink:href="#DejaVuSans-30"/>
       <use x="127.246094" xlink:href="#DejaVuSans-32"/>
       <use x="190.869141" xlink:href="#DejaVuSans-33"/>
      </g>
     </g>
    </g>
    <g id="xtick_4">
     <g id="line2d_4">
      <g>
       <use style="stroke:#000000;stroke-width:0.8;" x="137.547955" xlink:href="#m2624d84466" y="251.94"/>
      </g>
     </g>
     <g id="text_4">
      <!-- 2024 -->
      <g transform="translate(140.859205 289.48)rotate(-90)scale(0.12 -0.12)">
       <defs>
        <path d="M 2419 4116 
L 825 1625 
L 2419 1625 
L 2419 4116 
z
M 2253 4666 
L 3047 4666 
L 3047 1625 
L 3713 1625 
L 3713 1100 
L 3047 1100 
L 3047 0 
L 2419 0 
L 2419 1100 
L 313 1100 
L 313 1709 
L 2253 4666 
z
" id="DejaVuSans-34" transform="scale(0.015625)"/>
       </defs>
       <use xlink:href="#DejaVuSans-32"/>
       <use x="63.623047" xlink:href="#DejaVuSans-30"/>
       <use x="127.246094" xlink:href="#DejaVuSans-32"/>
       <use x="190.869141" xlink:href="#DejaVuSans-34"/>
      </g>
     </g>
    </g>
    <g id="xtick_5">
     <g id="line2d_5">
      <g>
       <use style="stroke:#000000;stroke-width:0.8;" x="160.680227" xlink:href="#m2624d84466" y="251.94"/>
      </g>
     </g>
     <g id="text_5">
      <!-- 2025 -->
      <g transform="translate(163.991477 289.48)rotate(-90)scale(0.12 -0.12)">
       <defs>
        <path d="M 691 4666 
L 3169 4666 
L 3169 4134 
L 1269 4134 
L 1269 2991 
Q 1406 3038 1543 3061 
Q 1681 3084 1819 3084 
Q 2600 3084 3056 2656 
Q 3513 2228 3513 1497 
Q 3513 744 3044 326 
Q 2575 -91 1722 -91 
Q 1428 -91 1123 -41 
Q 819 9 494 109 
L 494 744 
Q 775 591 1075 516 
Q 1375 441 1709 441 
Q 2250 441 2565 725 
Q 2881 1009 2881 1497 
Q 2881 1984 2565 2268 
Q 2250 2553 1709 2553 
Q 1456 2553 1204 2497 
Q 953 2441 691 2322 
L 691 4666 
z
" id="DejaVuSans-35" transform="scale(0.015625)"/>
       </defs>
       <use xlink:href="#DejaVuSans-32"/>
       <use x="63.623047" xlink:href="#DejaVuSans-30"/>
       <use x="127.246094" xlink:href="#DejaVuSans-32"/>
       <use x="190.869141" xlink:href="#DejaVuSans-35"/>
      </g>
     </g>
    </g>
    <g id="xtick_6">
     <g id="line2d_6">
      <g>
       <use style="stroke:#000000;stroke-width:0.8;" x="183.8125" xlink:href="#m2624d84466" y="251.94"/>
      </g>
     </g>
     <g id="text_6">
      <!-- 2026 -->
      <g transform="translate(187.12375 289.48)rotate(-90)scale(0.12 -0.12)">
       <defs>
        <path d="M 2113 2584 
Q 1688 2584 1439 2293 
Q 1191 2003 1191 1497 
Q 1191 994 1439 701 
Q 1688 409 2113 409 
Q 2538 409 2786 701 
Q 3034 994 3034 1497 
Q 3034 2003 2786 2293 
Q 2538 2584 2113 2584 
z
M 3366 4563 
L 3366 3988 
Q 3128 4100 2886 4159 
Q 2644 4219 2406 4219 
Q 1781 4219 1451 3797 
Q 1122 3375 1075 2522 
Q 1259 2794 1537 2939 
Q 1816 3084 2150 3084 
Q 2853 3084 3261 2657 
Q 3669 2231 3669 1497 
Q 3669 778 3244 343 
Q 2819 -91 2113 -91 
Q 1303 -91 875 529 
Q 447 1150 447 2328 
Q 447 3434 972 4092 
Q 1497 4750 2381 4750 
Q 2619 4750 2861 4703 
Q 3103 4656 3366 4563 
z
" id="DejaVuSans-36" transform="scale(0.015625)"/>
       </defs>
       <use xlink:href="#DejaVuSans-32"/>
       <use x="63.623047" xlink:href="#DejaVuSans-30"/>
       <use x="127.246094" xlink:href="#DejaVuSans-32"/>
       <use x="190.869141" xlink:href="#DejaVuSans-36"/>
      </g>
     </g>
    </g>
    <g id="xtick_7">
     <g id="line2d_7">
      <g>
       <use style="stroke:#000000;stroke-width:0.8;" x="206.944773" xlink:href="#m2624d84466" y="251.94"/>
      </g>
     </g>
     <g id="text_7">
      <!-- 2027 -->
      <g transform="translate(210.256023 289.48)rotate(-90)scale(0.12 -0.12)">
       <defs>
        <path d="M 525 4666 
L 3525 4666 
L 3525 4397 
L 1831 0 
L 1172 0 
L 2766 4134 
L 525 4134 
L 525 4666 
z
" id="DejaVuSans-37" transform="scale(0.015625)"/>
       </defs>
       <use xlink:href="#DejaVuSans-32"/>
       <use x="63.623047" xlink:href="#DejaVuSans-30"/>
       <use x="127.246094" xlink:href="#DejaVuSans-32"/>
       <use x="190.869141" xlink:href="#DejaVuSans-37"/>
      </g>
     </g>
    </g>
    <g id="xtick_8">
     <g id="line2d_8">
      <g>
       <use style="stroke:#000000;stroke-width:0.8;" x="230.077045" xlink:href="#m2624d84466" y="251.94"/>
      </g>
     </g>
     <g id="text_8">
      <!-- 2028 -->
      <g transform="translate(233.388295 289.48)rotate(-90)scale(0.12 -0.12)">
       <defs>
        <path d="M 2034 2216 
Q 1584 2216 1326 1975 
Q 1069 1734 1069 1313 
Q 1069 891 1326 650 
Q 1584 409 2034 409 
Q 2484 409 2743 651 
Q 3003 894 3003 1313 
Q 3003 1734 2745 1975 
Q 2488 2216 2034 2216 
z
M 1403 2484 
Q 997 2584 770 2862 
Q 544 3141 544 3541 
Q 544 4100 942 4425 
Q 1341 4750 2034 4750 
Q 2731 4750 3128 4425 
Q 3525 4100 3525 3541 
Q 3525 3141 3298 2862 
Q 3072 2584 2669 2484 
Q 3125 2378 3379 2068 
Q 3634 1759 3634 1313 
Q 3634 634 3220 271 
Q 2806 -91 2034 -91 
Q 1263 -91 848 271 
Q 434 634 434 1313 
Q 434 1759 690 2068 
Q 947 2378 1403 2484 
z
M 1172 3481 
Q 1172 3119 1398 2916 
Q 1625 2713 2034 2713 
Q 2441 2713 2670 2916 
Q 2900 3119 2900 3481 
Q 2900 3844 2670 4047 
Q 2441 4250 2034 4250 
Q 1625 4250 1398 4047 
Q 1172 3844 1172 3481 
z
" id="DejaVuSans-38" transform="scale(0.015625)"/>
       </defs>
       <use xlink:href="#DejaVuSans-32"/>
       <use x="63.623047" xlink:href="#DejaVuSans-30"/>
       <use x="127.246094" xlink:href="#DejaVuSans-32"/>
       <use x="190.869141" xlink:href="#DejaVuSans-38"/>
      </g>
     </g>
    </g>
    <g id="xtick_9">
     <g id="line2d_9">
      <g>
       <use style="stroke:#000000;stroke-width:0.8;" x="253.209318" xlink:href="#m2624d84466" y="251.94"/>
      </g>
     </g>
     <g id="text_9">
      <!-- 2029 -->
      <g transform="translate(256.520568 289.48)rotate(-90)scale(0.12 -0.12)">
       <defs>
        <path d="M 703 97 
L 703 672 
Q 941 559 1184 500 
Q 1428 441 1663 441 
Q 2288 441 2617 861 
Q 2947 1281 2994 2138 
Q 2813 1869 2534 1725 
Q 2256 1581 1919 1581 
Q 1219 1581 811 2004 
Q 403 2428 403 3163 
Q 403 3881 828 4315 
Q 1253 4750 1959 4750 
Q 2769 4750 3195 4129 
Q 3622 3509 3622 2328 
Q 3622 1225 3098 567 
Q 2575 -91 1691 -91 
Q 1453 -91 1209 -44 
Q 966 3 703 97 
z
M 1959 2075 
Q 2384 2075 2632 2365 
Q 2881 2656 2881 3163 
Q 2881 3666 2632 3958 
Q 2384 4250 1959 4250 
Q 1534 4250 1286 3958 
Q 1038 3666 1038 3163 
Q 1038 2656 1286 2365 
Q 1534 2075 1959 2075 
z
" id="DejaVuSans-39" transform="scale(0.015625)"/>
       </defs>
       <use xlink:href="#DejaVuSans-32"/>
       <use x="63.623047" xlink:href="#DejaVuSans-30"/>
       <use x="127.246094" xlink:href="#DejaVuSans-32"/>
       <use x="190.869141" xlink:href="#DejaVuSans-39"/>
      </g>
     </g>
    </g>
    <g id="xtick_10">
     <g id="line2d_10">
      <g>
       <use style="stroke:#000000;stroke-width:0.8;" x="276.341591" xlink:href="#m2624d84466" y="251.94"/>
      </g>
     </g>
     <g id="text_10">
      <!-- 2030 -->
      <g transform="translate(279.652841 289.48)rotate(-90)scale(0.12 -0.12)">
       <use xlink:href="#DejaVuSans-32"/>
       <use x="63.623047" xlink:href="#DejaVuSans-30"/>
       <use x="127.246094" xlink:href="#DejaVuSans-33"/>
       <use x="190.869141" xlink:href="#DejaVuSans-30"/>
      </g>
     </g>
    </g>
    <g id="xtick_11">
     <g id="line2d_11">
      <g>
       <use style="stroke:#000000;stroke-width:0.8;" x="299.473864" xlink:href="#m2624d84466" y="251.94"/>
      </g>
     </g>
     <g id="text_11">
      <!-- 2031 -->
      <g transform="translate(302.785114 289.48)rotate(-90)scale(0.12 -0.12)">
       <use xlink:href="#DejaVuSans-32"/>
       <use x="63.623047" xlink:href="#DejaVuSans-30"/>
       <use x="127.246094" xlink:href="#DejaVuSans-33"/>
       <use x="190.869141" xlink:href="#DejaVuSans-31"/>
      </g>
     </g>
    </g>
   </g>
   <g id="matplotlib.axis_2">
    <g id="ytick_1">
     <g id="line2d_12">
      <defs>
       <path d="M 0 0 
L -3.5 0 
" id="mb710e1b01f" style="stroke:#000000;stroke-width:0.8;"/>
      </defs>
      <g>
       <use style="stroke:#000000;stroke-width:0.8;" x="56.585" xlink:href="#mb710e1b01f" y="251.94"/>
      </g>
     </g>
     <g id="text_12">
      <!-- −14% -->
      <g transform="translate(12.8575 256.499063)scale(0.12 -0.12)">
       <defs>
        <path d="M 678 2272 
L 4684 2272 
L 4684 1741 
L 678 1741 
L 678 2272 
z
" id="DejaVuSans-2212" transform="scale(0.015625)"/>
        <path d="M 4653 2053 
Q 4381 2053 4226 1822 
Q 4072 1591 4072 1178 
Q 4072 772 4226 539 
Q 4381 306 4653 306 
Q 4919 306 5073 539 
Q 5228 772 5228 1178 
Q 5228 1588 5073 1820 
Q 4919 2053 4653 2053 
z
M 4653 2450 
Q 5147 2450 5437 2106 
Q 5728 1763 5728 1178 
Q 5728 594 5436 251 
Q 5144 -91 4653 -91 
Q 4153 -91 3862 251 
Q 3572 594 3572 1178 
Q 3572 1766 3864 2108 
Q 4156 2450 4653 2450 
z
M 1428 4353 
Q 1159 4353 1004 4120 
Q 850 3888 850 3481 
Q 850 3069 1003 2837 
Q 1156 2606 1428 2606 
Q 1700 2606 1854 2837 
Q 2009 3069 2009 3481 
Q 2009 3884 1853 4118 
Q 1697 4353 1428 4353 
z
M 4250 4750 
L 4750 4750 
L 1831 -91 
L 1331 -91 
L 4250 4750 
z
M 1428 4750 
Q 1922 4750 2215 4408 
Q 2509 4066 2509 3481 
Q 2509 2891 2217 2550 
Q 1925 2209 1428 2209 
Q 931 2209 642 2551 
Q 353 2894 353 3481 
Q 353 4063 643 4406 
Q 934 4750 1428 4750 
z
" id="DejaVuSans-25" transform="scale(0.015625)"/>
       </defs>
       <use xlink:href="#DejaVuSans-2212"/>
       <use x="83.789062" xlink:href="#DejaVuSans-31"/>
       <use x="147.412109" xlink:href="#DejaVuSans-34"/>
       <use x="211.035156" xlink:href="#DejaVuSans-25"/>
      </g>
     </g>
    </g>
    <g id="ytick_2">
     <g id="line2d_13">
      <g>
       <use style="stroke:#000000;stroke-width:0.8;" x="56.585" xlink:href="#mb710e1b01f" y="222.6925"/>
      </g>
     </g>
     <g id="text_13">
      <!-- −12% -->
      <g transform="translate(12.8575 227.251563)scale(0.12 -0.12)">
       <use xlink:href="#DejaVuSans-2212"/>
       <use x="83.789062" xlink:href="#DejaVuSans-31"/>
       <use x="147.412109" xlink:href="#DejaVuSans-32"/>
       <use x="211.035156" xlink:href="#DejaVuSans-25"/>
      </g>
     </g>
    </g>
    <g id="ytick_3">
     <g id="line2d_14">
      <g>
       <use style="stroke:#000000;stroke-width:0.8;" x="56.585" xlink:href="#mb710e1b01f" y="193.445"/>
      </g>
     </g>
     <g id="text_14">
      <!-- −10% -->
      <g transform="translate(12.8575 198.004063)scale(0.12 -0.12)">
       <use xlink:href="#DejaVuSans-2212"/>
       <use x="83.789062" xlink:href="#DejaVuSans-31"/>
       <use x="147.412109" xlink:href="#DejaVuSans-30"/>
       <use x="211.035156" xlink:href="#DejaVuSans-25"/>
      </g>
     </g>
    </g>
    <g id="ytick_4">
     <g id="line2d_15">
      <g>
       <use style="stroke:#000000;stroke-width:0.8;" x="56.585" xlink:href="#mb710e1b01f" y="164.1975"/>
      </g>
     </g>
     <g id="text_15">
      <!-- −8% -->
      <g transform="translate(20.4925 168.756563)scale(0.12 -0.12)">
       <use xlink:href="#DejaVuSans-2212"/>
       <use x="83.789062" xlink:href="#DejaVuSans-38"/>
       <use x="147.412109" xlink:href="#DejaVuSans-25"/>
      </g>
     </g>
    </g>
    <g id="ytick_5">
     <g id="line2d_16">
      <g>
       <use style="stroke:#000000;stroke-width:0.8;" x="56.585" xlink:href="#mb710e1b01f" y="134.95"/>
      </g>
     </g>
     <g id="text_16">
      <!-- −6% -->
      <g transform="translate(20.4925 139.509063)scale(0.12 -0.12)">
       <use xlink:href="#DejaVuSans-2212"/>
       <use x="83.789062" xlink:href="#DejaVuSans-36"/>
       <use x="147.412109" xlink:href="#DejaVuSans-25"/>
      </g>
     </g>
    </g>
    <g id="ytick_6">
     <g id="line2d_17">
      <g>
       <use style="stroke:#000000;stroke-width:0.8;" x="56.585" xlink:href="#mb710e1b01f" y="105.7025"/>
      </g>
     </g>
     <g id="text_17">
      <!-- −4% -->
      <g transform="translate(20.4925 110.261562)scale(0.12 -0.12)">
       <use xlink:href="#DejaVuSans-2212"/>
       <use x="83.789062" xlink:href="#DejaVuSans-34"/>
       <use x="147.412109" xlink:href="#DejaVuSans-25"/>
      </g>
     </g>
    </g>
    <g id="ytick_7">
     <g id="line2d_18">
      <g>
       <use style="stroke:#000000;stroke-width:0.8;" x="56.585" xlink:href="#mb710e1b01f" y="76.455"/>
      </g>
     </g>
     <g id="text_18">
      <!-- −2% -->
      <g transform="translate(20.4925 81.014062)scale(0.12 -0.12)">
       <use xlink:href="#DejaVuSans-2212"/>
       <use x="83.789062" xlink:href="#DejaVuSans-32"/>
       <use x="147.412109" xlink:href="#DejaVuSans-25"/>
      </g>
     </g>
    </g>
    <g id="ytick_8">
     <g id="line2d_19">
      <g>
       <use style="stroke:#000000;stroke-width:0.8;" x="56.585" xlink:href="#mb710e1b01f" y="47.2075"/>
      </g>
     </g>
     <g id="text_19">
      <!-- 0% -->
      <g transform="translate(30.548125 51.766562)scale(0.12 -0.12)">
       <use xlink:href="#DejaVuSans-30"/>
       <use x="63.623047" xlink:href="#DejaVuSans-25"/>
      </g>
     </g>
    </g>
    <g id="ytick_9">
     <g id="line2d_20">
      <g>
       <use style="stroke:#000000;stroke-width:0.8;" x="56.585" xlink:href="#mb710e1b01f" y="17.96"/>
      </g>
     </g>
     <g id="text_20">
      <!-- 2% -->
      <g transform="translate(30.548125 22.519062)scale(0.12 -0.12)">
       <use xlink:href="#DejaVuSans-32"/>
       <use x="63.623047" xlink:href="#DejaVuSans-25"/>
      </g>
     </g>
    </g>
   </g>
   <g id="line2d_21">
    <path clip-path="url(#pef12afb422)" d="M 68.151136 47.2075 
L 73.934205 62.007329 
L 79.717273 77.030722 
L 85.500341 92.240366 
L 91.283409 107.724969 
L 97.066477 123.380499 
L 102.849545 139.182357 
L 108.632614 155.097846 
L 114.415682 171.093939 
L 120.19875 187.143309 
L 125.981818 203.21182 
L 131.764886 219.284344 
L 137.547955 235.336168 
L 143.331023 235.050362 
L 149.114091 234.66759 
L 154.897159 234.181699 
L 160.680227 233.610565 
L 166.463295 233.421599 
L 172.246364 233.645831 
L 178.029432 233.566464 
L 183.8125 233.31799 
L 189.595568 232.966142 
L 195.378636 232.54701 
L 201.161705 232.070678 
L 206.944773 231.551752 
L 212.727841 231.051796 
L 218.510909 230.509612 
L 224.293977 229.909268 
L 230.077045 229.280641 
L 235.860114 228.640972 
L 241.643182 227.980039 
L 247.42625 227.305348 
L 253.209318 226.622974 
L 258.992386 225.932289 
L 264.775455 225.235559 
L 270.558523 224.529319 
L 276.341591 223.812035 
L 282.124659 223.086306 
L 287.907727 222.353043 
L 293.690795 221.621115 
L 299.473864 220.888643 
" style="fill:none;stroke:#dc143c;stroke-linecap:square;stroke-width:1.5;"/>
   </g>
   <g id="line2d_22">
    <path clip-path="url(#pef12afb422)" d="M 68.151136 47.2075 
L 299.473864 47.2075 
" style="fill:none;stroke:#000000;stroke-dasharray:1,1.65;stroke-dashoffset:0;"/>
   </g>
   <g id="line2d_23">
    <path clip-path="url(#pef12afb422)" d="M 68.151136 47.2075 
L 73.934205 47.183523 
L 79.717273 47.109369 
L 85.500341 46.976422 
L 91.283409 46.795968 
L 97.066477 46.564816 
L 102.849545 46.274123 
L 108.632614 45.930876 
L 114.415682 45.531581 
L 120.19875 45.072544 
L 125.981818 44.561792 
L 131.764886 43.996141 
L 137.547955 43.378541 
L 143.331023 42.731646 
L 149.114091 42.087116 
L 154.897159 41.459843 
L 160.680227 40.831587 
L 166.463295 40.295957 
L 172.246364 39.841248 
L 178.029432 39.37043 
L 183.8125 38.890553 
L 189.595568 38.40956 
L 195.378636 37.928177 
L 201.161705 37.455611 
L 206.944773 36.984959 
L 212.727841 36.534541 
L 218.510909 36.098286 
L 224.293977 35.678087 
L 230.077045 35.26661 
L 235.860114 34.865245 
L 241.643182 34.475427 
L 247.42625 34.088795 
L 253.209318 33.736267 
L 258.992386 33.379807 
L 264.775455 33.051007 
L 270.558523 32.730735 
L 276.341591 32.430817 
L 282.124659 32.141982 
L 287.907727 31.865208 
L 293.690795 31.612956 
L 299.473864 31.363659 
" style="fill:none;stroke:#1e90ff;stroke-dasharray:5.55,2.4;stroke-dashoffset:0;stroke-width:1.5;"/>
   </g>
   <g id="line2d_24">
    <path clip-path="url(#pef12afb422)" d="M 68.151136 47.2075 
L 299.473864 47.2075 
" style="fill:none;stroke:#000000;stroke-dasharray:1,1.65;stroke-dashoffset:0;"/>
   </g>
   <g id="patch_3">
    <path d="M 56.585 251.94 
L 56.585 17.96 
" style="fill:none;stroke:#000000;stroke-linecap:square;stroke-linejoin:miter;stroke-width:0.8;"/>
   </g>
   <g id="patch_4">
    <path d="M 311.04 251.94 
L 311.04 17.96 
" style="fill:none;stroke:#000000;stroke-linecap:square;stroke-linejoin:miter;stroke-width:0.8;"/>
   </g>
   <g id="patch_5">
    <path d="M 56.585 251.94 
L 311.04 251.94 
" style="fill:none;stroke:#000000;stroke-linecap:square;stroke-linejoin:miter;stroke-width:0.8;"/>
   </g>
   <g id="patch_6">
    <path d="M 56.585 17.96 
L 311.04 17.96 
" style="fill:none;stroke:#000000;stroke-linecap:square;stroke-linejoin:miter;stroke-width:0.8;"/>
   </g>
  </g>
 </g>
 <defs>
  <clipPath id="pef12afb422">
   <rect height="233.98" width="254.455" x="56.585" y="17.96"/>
  </clipPath>
 </defs>
</svg>
