<?xml version="1.0" encoding="utf-8" standalone="no"?>
<!DOCTYPE svg PUBLIC "-//W3C//DTD SVG 1.1//EN"
  "http://www.w3.org/Graphics/SVG/1.1/DTD/svg11.dtd">
<svg height="302.4pt" version="1.1" viewBox="0 0 324 302.4" width="324pt" xmlns="http://www.w3.org/2000/svg" xmlns:xlink="http://www.w3.org/1999/xlink">
 <metadata>
  <rdf:RDF xmlns:cc="http://creativecommons.org/ns#" xmlns:dc="http://purl.org/dc/elements/1.1/" xmlns:rdf="http://www.w3.org/1999/02/22-rdf-syntax-ns#">
   <cc:Work>
    <dc:type rdf:resource="http://purl.org/dc/dcmitype/StillImage"/>
    <dc:date>2021-08-08T11:02:05.117207</dc:date>
    <dc:format>image/svg+xml</dc:format>
    <dc:creator>
     <cc:Agent>
      <dc:title>Matplotlib v3.4.0rc1, https://matplotlib.org/</dc:title>
     </cc:Agent>
    </dc:creator>
   </cc:Work>
  </rdf:RDF>
 </metadata>
 <defs>
  <style type="text/css">*{stroke-linecap:butt;stroke-linejoin:round;}</style>
 </defs>
 <g id="figure_1">
  <g id="patch_1">
   <path d="M 0 302.4 
L 324 302.4 
L 324 0 
L 0 0 
z
" style="fill:none;"/>
  </g>
  <g id="axes_1">
   <g id="patch_2">
    <path d="M 56.585 251.94 
L 311.04 251.94 
L 311.04 17.96 
L 56.585 17.96 
z
" style="fill:#ffffff;"/>
   </g>
   <g id="PolyCollection_1">
    <path clip-path="url(#p6b3645caa8)" d="M 68.151136 47.2075 
L 68.151136 47.2075 
L 73.934205 51.651515 
L 79.717273 58.725764 
L 85.500341 66.642901 
L 91.283409 75.417926 
L 97.066477 85.094381 
L 102.849545 95.695047 
L 108.632614 107.109627 
L 114.415682 119.55684 
L 120.19875 132.997966 
L 125.981818 147.31244 
L 131.764886 161.959005 
L 137.547955 177.157816 
L 143.331023 185.724943 
L 149.114091 189.956225 
L 154.897159 194.124744 
L 160.680227 197.907528 
L 166.463295 200.664224 
L 172.246364 202.481721 
L 178.029432 203.97747 
L 183.8125 204.653601 
L 189.595568 204.672493 
L 195.378636 205.073094 
L 201.161705 203.185422 
L 206.944773 201.37425 
L 212.727841 197.700807 
L 218.510909 193.321375 
L 224.293977 187.124615 
L 230.077045 180.495111 
L 235.860114 172.683664 
L 241.643182 165.452507 
L 247.42625 157.997563 
L 253.209318 151.814515 
L 258.992386 143.498763 
L 264.775455 135.242323 
L 270.558523 126.831566 
L 276.341591 119.33361 
L 282.124659 110.275161 
L 287.907727 105.017278 
L 293.690795 95.959048 
L 299.473864 87.221231 
L 299.473864 45.790992 
L 299.473864 45.790992 
L 293.690795 45.858154 
L 287.907727 46.006634 
L 282.124659 46.085214 
L 276.341591 46.188439 
L 270.558523 46.274608 
L 264.775455 46.367066 
L 258.992386 46.475335 
L 253.209318 46.643437 
L 247.42625 46.765468 
L 241.643182 46.841693 
L 235.860114 46.889376 
L 230.077045 46.976492 
L 224.293977 47.04207 
L 218.510909 47.083529 
L 212.727841 47.118708 
L 206.944773 47.156916 
L 201.161705 47.190507 
L 195.378636 47.2075 
L 189.595568 47.2075 
L 183.8125 47.2075 
L 178.029432 47.2075 
L 172.246364 47.2075 
L 166.463295 47.2075 
L 160.680227 47.2075 
L 154.897159 47.2075 
L 149.114091 47.2075 
L 143.331023 47.2075 
L 137.547955 47.2075 
L 131.764886 47.2075 
L 125.981818 47.2075 
L 120.19875 47.2075 
L 114.415682 47.2075 
L 108.632614 47.2075 
L 102.849545 47.2075 
L 97.066477 47.2075 
L 91.283409 47.2075 
L 85.500341 47.2075 
L 79.717273 47.2075 
L 73.934205 47.2075 
L 68.151136 47.2075 
z
" style="fill:#dc143c;fill-opacity:0.2;"/>
   </g>
   <g id="PolyCollection_2">
    <path clip-path="url(#p6b3645caa8)" d="M 68.151136 47.2075 
L 68.151136 47.2075 
L 73.934205 51.522235 
L 79.717273 58.393941 
L 85.500341 66.080271 
L 91.283409 74.571828 
L 97.066477 83.967056 
L 102.849545 94.240091 
L 108.632614 105.45411 
L 114.415682 117.526715 
L 120.19875 130.563461 
L 125.981818 144.375591 
L 131.764886 158.964522 
L 137.547955 173.317789 
L 143.331023 181.522449 
L 149.114091 186.160889 
L 154.897159 190.370643 
L 160.680227 193.540383 
L 166.463295 196.326094 
L 172.246364 197.957843 
L 178.029432 198.868427 
L 183.8125 199.349263 
L 189.595568 199.085406 
L 195.378636 196.262269 
L 201.161705 193.279803 
L 206.944773 188.347323 
L 212.727841 181.024621 
L 218.510909 172.913695 
L 224.293977 165.750945 
L 230.077045 156.717564 
L 235.860114 148.74006 
L 241.643182 139.589612 
L 247.42625 129.515652 
L 253.209318 119.972361 
L 258.992386 110.662358 
L 264.775455 100.818843 
L 270.558523 90.573531 
L 276.341591 78.810483 
L 282.124659 71.343772 
L 287.907727 66.406828 
L 293.690795 63.384837 
L 299.473864 61.215722 
L 299.473864 46.582737 
L 299.473864 46.582737 
L 293.690795 46.630147 
L 287.907727 46.684034 
L 282.124659 46.735708 
L 276.341591 46.78286 
L 270.558523 46.836013 
L 264.775455 46.892959 
L 258.992386 46.935334 
L 253.209318 46.967732 
L 247.42625 47.005381 
L 241.643182 47.050463 
L 235.860114 47.089738 
L 230.077045 47.123904 
L 224.293977 47.152233 
L 218.510909 47.182249 
L 212.727841 47.201433 
L 206.944773 47.2075 
L 201.161705 47.2075 
L 195.378636 47.2075 
L 189.595568 47.2075 
L 183.8125 47.2075 
L 178.029432 47.2075 
L 172.246364 47.2075 
L 166.463295 47.2075 
L 160.680227 47.2075 
L 154.897159 47.2075 
L 149.114091 47.2075 
L 143.331023 47.2075 
L 137.547955 47.2075 
L 131.764886 47.2075 
L 125.981818 47.2075 
L 120.19875 47.2075 
L 114.415682 47.2075 
L 108.632614 47.2075 
L 102.849545 47.2075 
L 97.066477 47.2075 
L 91.283409 47.2075 
L 85.500341 47.2075 
L 79.717273 47.2075 
L 73.934205 47.2075 
L 68.151136 47.2075 
z
" style="fill:#1f77b4;fill-opacity:0.2;"/>
   </g>
   <g id="PolyCollection_3">
    <path clip-path="url(#p6b3645caa8)" d="M 68.151136 47.2075 
L 68.151136 47.2075 
L 73.934205 51.44184 
L 79.717273 58.167469 
L 85.500341 65.694904 
L 91.283409 74.014573 
L 97.066477 83.155638 
L 102.849545 93.1391 
L 108.632614 104.010202 
L 114.415682 115.718154 
L 120.19875 128.104928 
L 125.981818 141.374697 
L 131.764886 155.358433 
L 137.547955 169.670883 
L 143.331023 177.347157 
L 149.114091 181.36879 
L 154.897159 184.796571 
L 160.680227 187.53922 
L 166.463295 189.627006 
L 172.246364 190.649076 
L 178.029432 190.590768 
L 183.8125 188.364283 
L 189.595568 184.762211 
L 195.378636 178.881389 
L 201.161705 170.960799 
L 206.944773 162.368375 
L 212.727841 153.24139 
L 218.510909 143.126959 
L 224.293977 133.210059 
L 230.077045 123.7842 
L 235.860114 113.260257 
L 241.643182 102.586839 
L 247.42625 91.28516 
L 253.209318 80.326338 
L 258.992386 73.274456 
L 264.775455 68.588207 
L 270.558523 65.708617 
L 276.341591 63.354557 
L 282.124659 61.579978 
L 287.907727 59.890946 
L 293.690795 58.414301 
L 299.473864 57.180518 
L 299.473864 46.897979 
L 299.473864 46.897979 
L 293.690795 46.925857 
L 287.907727 46.959223 
L 282.124659 46.992354 
L 276.341591 47.024293 
L 270.558523 47.055412 
L 264.775455 47.086958 
L 258.992386 47.112261 
L 253.209318 47.135572 
L 247.42625 47.158595 
L 241.643182 47.175877 
L 235.860114 47.193818 
L 230.077045 47.204395 
L 224.293977 47.2075 
L 218.510909 47.2075 
L 212.727841 47.2075 
L 206.944773 47.2075 
L 201.161705 47.2075 
L 195.378636 47.2075 
L 189.595568 47.2075 
L 183.8125 47.2075 
L 178.029432 47.2075 
L 172.246364 47.2075 
L 166.463295 47.2075 
L 160.680227 47.2075 
L 154.897159 47.2075 
L 149.114091 47.2075 
L 143.331023 47.2075 
L 137.547955 47.2075 
L 131.764886 47.2075 
L 125.981818 47.2075 
L 120.19875 47.2075 
L 114.415682 47.2075 
L 108.632614 47.2075 
L 102.849545 47.2075 
L 97.066477 47.2075 
L 91.283409 47.2075 
L 85.500341 47.2075 
L 79.717273 47.2075 
L 73.934205 47.2075 
L 68.151136 47.2075 
z
" style="fill:#ff7f0e;fill-opacity:0.2;"/>
   </g>
   <g id="PolyCollection_4">
    <path clip-path="url(#p6b3645caa8)" d="M 68.151136 47.2075 
L 68.151136 47.2075 
L 73.934205 51.313746 
L 79.717273 57.827857 
L 85.500341 65.102205 
L 91.283409 73.118713 
L 97.066477 81.862575 
L 102.849545 91.37834 
L 108.632614 101.557106 
L 114.415682 112.580623 
L 120.19875 124.190038 
L 125.981818 136.261213 
L 131.764886 148.630094 
L 137.547955 160.999047 
L 143.331023 167.121817 
L 149.114091 169.578421 
L 154.897159 170.317314 
L 160.680227 168.87405 
L 166.463295 163.791149 
L 172.246364 157.343832 
L 178.029432 149.707262 
L 183.8125 141.369427 
L 189.595568 132.704756 
L 195.378636 122.61881 
L 201.161705 113.342753 
L 206.944773 102.989531 
L 212.727841 91.721205 
L 218.510909 80.736938 
L 224.293977 72.98235 
L 230.077045 68.74333 
L 235.860114 65.520641 
L 241.643182 63.162958 
L 247.42625 61.327675 
L 253.209318 59.788955 
L 258.992386 58.418267 
L 264.775455 57.211597 
L 270.558523 56.132498 
L 276.341591 55.125693 
L 282.124659 54.242833 
L 287.907727 53.497038 
L 293.690795 52.800212 
L 299.473864 52.129987 
L 299.473864 47.2075 
L 299.473864 47.2075 
L 293.690795 47.2075 
L 287.907727 47.2075 
L 282.124659 47.2075 
L 276.341591 47.2075 
L 270.558523 47.2075 
L 264.775455 47.2075 
L 258.992386 47.2075 
L 253.209318 47.2075 
L 247.42625 47.2075 
L 241.643182 47.2075 
L 235.860114 47.2075 
L 230.077045 47.2075 
L 224.293977 47.217341 
L 218.510909 47.239272 
L 212.727841 47.280893 
L 206.944773 47.319208 
L 201.161705 47.363739 
L 195.378636 47.408148 
L 189.595568 47.475406 
L 183.8125 47.548828 
L 178.029432 47.625369 
L 172.246364 47.70063 
L 166.463295 47.819992 
L 160.680227 47.941572 
L 154.897159 48.090903 
L 149.114091 48.239735 
L 143.331023 48.455498 
L 137.547955 48.646051 
L 131.764886 48.996402 
L 125.981818 49.443151 
L 120.19875 50.131375 
L 114.415682 51.30133 
L 108.632614 53.233131 
L 102.849545 56.67601 
L 97.066477 60.484896 
L 91.283409 62.554162 
L 85.500341 61.900483 
L 79.717273 56.774607 
L 73.934205 50.962254 
L 68.151136 47.2075 
z
" style="fill:#2ca02c;fill-opacity:0.2;"/>
   </g>
   <g id="PolyCollection_5">
    <path clip-path="url(#p6b3645caa8)" d="M 68.151136 47.2075 
L 68.151136 47.2075 
L 73.934205 48.099858 
L 79.717273 49.419452 
L 85.500341 50.953101 
L 91.283409 52.802883 
L 97.066477 54.78446 
L 102.849545 57.116702 
L 108.632614 59.917262 
L 114.415682 63.01105 
L 120.19875 66.299737 
L 125.981818 69.959896 
L 131.764886 73.638762 
L 137.547955 77.867063 
L 143.331023 81.141196 
L 149.114091 84.063542 
L 154.897159 86.482085 
L 160.680227 88.713119 
L 166.463295 90.749699 
L 172.246364 92.556681 
L 178.029432 94.024739 
L 183.8125 95.049084 
L 189.595568 95.9376 
L 195.378636 96.403645 
L 201.161705 96.747372 
L 206.944773 97.184517 
L 212.727841 97.089803 
L 218.510909 96.63116 
L 224.293977 95.87255 
L 230.077045 95.368299 
L 235.860114 94.396216 
L 241.643182 93.910008 
L 247.42625 92.674363 
L 253.209318 90.895288 
L 258.992386 89.372495 
L 264.775455 87.604618 
L 270.558523 86.093081 
L 276.341591 84.007129 
L 282.124659 82.244817 
L 287.907727 79.413127 
L 293.690795 77.761313 
L 299.473864 75.116818 
L 299.473864 33.971087 
L 299.473864 33.971087 
L 293.690795 34.360837 
L 287.907727 34.840399 
L 282.124659 34.698357 
L 276.341591 35.22255 
L 270.558523 36.313479 
L 264.775455 36.259878 
L 258.992386 37.057771 
L 253.209318 39.104687 
L 247.42625 39.368551 
L 241.643182 40.802857 
L 235.860114 40.473011 
L 230.077045 41.090029 
L 224.293977 41.003736 
L 218.510909 44.385504 
L 212.727841 45.423861 
L 206.944773 44.925518 
L 201.161705 46.423468 
L 195.378636 47.168222 
L 189.595568 47.2075 
L 183.8125 47.2075 
L 178.029432 47.2075 
L 172.246364 47.2075 
L 166.463295 47.2075 
L 160.680227 47.2075 
L 154.897159 47.2075 
L 149.114091 47.2075 
L 143.331023 47.2075 
L 137.547955 47.2075 
L 131.764886 47.2075 
L 125.981818 47.2075 
L 120.19875 47.2075 
L 114.415682 47.2075 
L 108.632614 47.2075 
L 102.849545 47.2075 
L 97.066477 47.2075 
L 91.283409 47.2075 
L 85.500341 47.2075 
L 79.717273 47.2075 
L 73.934205 47.2075 
L 68.151136 47.2075 
z
" style="fill:#1e90ff;fill-opacity:0.2;"/>
   </g>
   <g id="PolyCollection_6">
    <path clip-path="url(#p6b3645caa8)" d="M 68.151136 47.2075 
L 68.151136 47.2075 
L 73.934205 47.826308 
L 79.717273 48.950919 
L 85.500341 50.365574 
L 91.283409 52.06532 
L 97.066477 54.060948 
L 102.849545 56.36343 
L 108.632614 58.974866 
L 114.415682 61.910122 
L 120.19875 65.149439 
L 125.981818 68.721239 
L 131.764886 72.601772 
L 137.547955 76.434469 
L 143.331023 79.744158 
L 149.114091 82.574234 
L 154.897159 85.046307 
L 160.680227 87.192691 
L 166.463295 89.054743 
L 172.246364 90.567913 
L 178.029432 91.842429 
L 183.8125 92.675434 
L 189.595568 93.175107 
L 195.378636 93.453738 
L 201.161705 93.681465 
L 206.944773 93.274812 
L 212.727841 92.569649 
L 218.510909 91.713326 
L 224.293977 90.625904 
L 230.077045 88.934644 
L 235.860114 87.346441 
L 241.643182 85.664006 
L 247.42625 83.343128 
L 253.209318 80.932518 
L 258.992386 78.48471 
L 264.775455 76.02085 
L 270.558523 73.137721 
L 276.341591 70.273437 
L 282.124659 67.621052 
L 287.907727 65.239494 
L 293.690795 63.363896 
L 299.473864 61.709141 
L 299.473864 46.930893 
L 299.473864 46.930893 
L 293.690795 46.990014 
L 287.907727 47.046028 
L 282.124659 47.095068 
L 276.341591 47.128415 
L 270.558523 47.153371 
L 264.775455 47.170806 
L 258.992386 47.189341 
L 253.209318 47.201167 
L 247.42625 47.2075 
L 241.643182 47.2075 
L 235.860114 47.2075 
L 230.077045 47.2075 
L 224.293977 47.2075 
L 218.510909 47.2075 
L 212.727841 47.2075 
L 206.944773 47.2075 
L 201.161705 47.2075 
L 195.378636 47.2075 
L 189.595568 47.2075 
L 183.8125 47.2075 
L 178.029432 47.2075 
L 172.246364 47.2075 
L 166.463295 47.2075 
L 160.680227 47.2075 
L 154.897159 47.2075 
L 149.114091 47.2075 
L 143.331023 47.2075 
L 137.547955 47.2075 
L 131.764886 47.2075 
L 125.981818 47.2075 
L 120.19875 47.2075 
L 114.415682 47.2075 
L 108.632614 47.2075 
L 102.849545 47.2075 
L 97.066477 47.2075 
L 91.283409 47.2075 
L 85.500341 47.2075 
L 79.717273 47.2075 
L 73.934205 47.2075 
L 68.151136 47.2075 
z
" style="fill:#d62728;fill-opacity:0.2;"/>
   </g>
   <g id="PolyCollection_7">
    <path clip-path="url(#p6b3645caa8)" d="M 68.151136 47.2075 
L 68.151136 47.2075 
L 73.934205 47.814185 
L 79.717273 48.917798 
L 85.500341 50.299974 
L 91.283409 51.959994 
L 97.066477 53.908774 
L 102.849545 56.139819 
L 108.632614 58.649671 
L 114.415682 61.466441 
L 120.19875 64.584539 
L 125.981818 67.98479 
L 131.764886 71.630137 
L 137.547955 75.403034 
L 143.331023 78.4525 
L 149.114091 81.032078 
L 154.897159 83.212448 
L 160.680227 85.176661 
L 166.463295 86.718027 
L 172.246364 87.987828 
L 178.029432 89.079412 
L 183.8125 89.539384 
L 189.595568 89.966792 
L 195.378636 89.660281 
L 201.161705 89.155685 
L 206.944773 88.131393 
L 212.727841 86.875331 
L 218.510909 85.197864 
L 224.293977 83.284132 
L 230.077045 81.167921 
L 235.860114 78.673493 
L 241.643182 75.986526 
L 247.42625 73.3076 
L 253.209318 70.637002 
L 258.992386 68.085922 
L 264.775455 65.789376 
L 270.558523 63.745675 
L 276.341591 62.105743 
L 282.124659 60.524338 
L 287.907727 59.048784 
L 293.690795 57.739461 
L 299.473864 56.568516 
L 299.473864 47.120183 
L 299.473864 47.120183 
L 293.690795 47.154201 
L 287.907727 47.17628 
L 282.124659 47.193989 
L 276.341591 47.20124 
L 270.558523 47.2075 
L 264.775455 47.2075 
L 258.992386 47.2075 
L 253.209318 47.2075 
L 247.42625 47.2075 
L 241.643182 47.2075 
L 235.860114 47.2075 
L 230.077045 47.2075 
L 224.293977 47.2075 
L 218.510909 47.2075 
L 212.727841 47.2075 
L 206.944773 47.2075 
L 201.161705 47.2075 
L 195.378636 47.2075 
L 189.595568 47.2075 
L 183.8125 47.2075 
L 178.029432 47.2075 
L 172.246364 47.2075 
L 166.463295 47.2075 
L 160.680227 47.2075 
L 154.897159 47.2075 
L 149.114091 47.2075 
L 143.331023 47.2075 
L 137.547955 47.2075 
L 131.764886 47.2075 
L 125.981818 47.2075 
L 120.19875 47.2075 
L 114.415682 47.2075 
L 108.632614 47.2075 
L 102.849545 47.2075 
L 97.066477 47.2075 
L 91.283409 47.2075 
L 85.500341 47.2075 
L 79.717273 47.2075 
L 73.934205 47.2075 
L 68.151136 47.2075 
z
" style="fill:#9467bd;fill-opacity:0.2;"/>
   </g>
   <g id="PolyCollection_8">
    <path clip-path="url(#p6b3645caa8)" d="M 68.151136 47.2075 
L 68.151136 47.2075 
L 73.934205 47.798527 
L 79.717273 48.8692 
L 85.500341 50.205321 
L 91.283409 51.803069 
L 97.066477 53.66242 
L 102.849545 55.785874 
L 108.632614 58.160725 
L 114.415682 60.795316 
L 120.19875 63.657779 
L 125.981818 66.679581 
L 131.764886 69.916122 
L 137.547955 73.250313 
L 143.331023 75.82607 
L 149.114091 77.713902 
L 154.897159 79.211654 
L 160.680227 80.286104 
L 166.463295 80.951919 
L 172.246364 81.175001 
L 178.029432 80.861793 
L 183.8125 80.037244 
L 189.595568 78.751624 
L 195.378636 77.005007 
L 201.161705 75.149738 
L 206.944773 73.122301 
L 212.727841 70.948525 
L 218.510909 68.863553 
L 224.293977 66.530407 
L 230.077045 64.478833 
L 235.860114 62.659111 
L 241.643182 60.967915 
L 247.42625 59.516155 
L 253.209318 58.267706 
L 258.992386 57.121765 
L 264.775455 56.010373 
L 270.558523 54.97552 
L 276.341591 54.091912 
L 282.124659 53.255136 
L 287.907727 52.491041 
L 293.690795 51.832742 
L 299.473864 51.219117 
L 299.473864 47.2075 
L 299.473864 47.2075 
L 293.690795 47.2075 
L 287.907727 47.2075 
L 282.124659 47.2075 
L 276.341591 47.2075 
L 270.558523 47.2075 
L 264.775455 47.214374 
L 258.992386 47.226535 
L 253.209318 47.240362 
L 247.42625 47.257083 
L 241.643182 47.276565 
L 235.860114 47.299071 
L 230.077045 47.321297 
L 224.293977 47.342175 
L 218.510909 47.366507 
L 212.727841 47.394735 
L 206.944773 47.429576 
L 201.161705 47.461336 
L 195.378636 47.502027 
L 189.595568 47.541421 
L 183.8125 47.597537 
L 178.029432 47.646776 
L 172.246364 47.706513 
L 166.463295 47.780848 
L 160.680227 47.875819 
L 154.897159 47.982481 
L 149.114091 48.093241 
L 143.331023 48.214104 
L 137.547955 48.34302 
L 131.764886 48.478407 
L 125.981818 48.618494 
L 120.19875 48.803491 
L 114.415682 49.009776 
L 108.632614 49.207891 
L 102.849545 49.543288 
L 97.066477 49.891267 
L 91.283409 49.925731 
L 85.500341 49.571725 
L 79.717273 48.730778 
L 73.934205 47.760555 
L 68.151136 47.2075 
z
" style="fill:#8c564b;fill-opacity:0.2;"/>
   </g>
   <g id="matplotlib.axis_1">
    <g id="xtick_1">
     <g id="line2d_1">
      <defs>
       <path d="M 0 0 
L 0 3.5 
" id="m60369fc442" style="stroke:#000000;stroke-width:0.8;"/>
      </defs>
      <g>
       <use style="stroke:#000000;stroke-width:0.8;" x="68.151136" xlink:href="#m60369fc442" y="251.94"/>
      </g>
     </g>
     <g id="text_1">
      <!-- 2021 -->
      <g transform="translate(71.462386 289.48)rotate(-90)scale(0.12 -0.12)">
       <defs>
        <path d="M 1228 531 
L 3431 531 
L 3431 0 
L 469 0 
L 469 531 
Q 828 903 1448 1529 
Q 2069 2156 2228 2338 
Q 2531 2678 2651 2914 
Q 2772 3150 2772 3378 
Q 2772 3750 2511 3984 
Q 2250 4219 1831 4219 
Q 1534 4219 1204 4116 
Q 875 4013 500 3803 
L 500 4441 
Q 881 4594 1212 4672 
Q 1544 4750 1819 4750 
Q 2544 4750 2975 4387 
Q 3406 4025 3406 3419 
Q 3406 3131 3298 2873 
Q 3191 2616 2906 2266 
Q 2828 2175 2409 1742 
Q 1991 1309 1228 531 
z
" id="DejaVuSans-32" transform="scale(0.015625)"/>
        <path d="M 2034 4250 
Q 1547 4250 1301 3770 
Q 1056 3291 1056 2328 
Q 1056 1369 1301 889 
Q 1547 409 2034 409 
Q 2525 409 2770 889 
Q 3016 1369 3016 2328 
Q 3016 3291 2770 3770 
Q 2525 4250 2034 4250 
z
M 2034 4750 
Q 2819 4750 3233 4129 
Q 3647 3509 3647 2328 
Q 3647 1150 3233 529 
Q 2819 -91 2034 -91 
Q 1250 -91 836 529 
Q 422 1150 422 2328 
Q 422 3509 836 4129 
Q 1250 4750 2034 4750 
z
" id="DejaVuSans-30" transform="scale(0.015625)"/>
        <path d="M 794 531 
L 1825 531 
L 1825 4091 
L 703 3866 
L 703 4441 
L 1819 4666 
L 2450 4666 
L 2450 531 
L 3481 531 
L 3481 0 
L 794 0 
L 794 531 
z
" id="DejaVuSans-31" transform="scale(0.015625)"/>
       </defs>
       <use xlink:href="#DejaVuSans-32"/>
       <use x="63.623047" xlink:href="#DejaVuSans-30"/>
       <use x="127.246094" xlink:href="#DejaVuSans-32"/>
       <use x="190.869141" xlink:href="#DejaVuSans-31"/>
      </g>
     </g>
    </g>
    <g id="xtick_2">
     <g id="line2d_2">
      <g>
       <use style="stroke:#000000;stroke-width:0.8;" x="91.283409" xlink:href="#m60369fc442" y="251.94"/>
      </g>
     </g>
     <g id="text_2">
      <!-- 2022 -->
      <g transform="translate(94.594659 289.48)rotate(-90)scale(0.12 -0.12)">
       <use xlink:href="#DejaVuSans-32"/>
       <use x="63.623047" xlink:href="#DejaVuSans-30"/>
       <use x="127.246094" xlink:href="#DejaVuSans-32"/>
       <use x="190.869141" xlink:href="#DejaVuSans-32"/>
      </g>
     </g>
    </g>
    <g id="xtick_3">
     <g id="line2d_3">
      <g>
       <use style="stroke:#000000;stroke-width:0.8;" x="114.415682" xlink:href="#m60369fc442" y="251.94"/>
      </g>
     </g>
     <g id="text_3">
      <!-- 2023 -->
      <g transform="translate(117.726932 289.48)rotate(-90)scale(0.12 -0.12)">
       <defs>
        <path d="M 2597 2516 
Q 3050 2419 3304 2112 
Q 3559 1806 3559 1356 
Q 3559 666 3084 287 
Q 2609 -91 1734 -91 
Q 1441 -91 1130 -33 
Q 819 25 488 141 
L 488 750 
Q 750 597 1062 519 
Q 1375 441 1716 441 
Q 2309 441 2620 675 
Q 2931 909 2931 1356 
Q 2931 1769 2642 2001 
Q 2353 2234 1838 2234 
L 1294 2234 
L 1294 2753 
L 1863 2753 
Q 2328 2753 2575 2939 
Q 2822 3125 2822 3475 
Q 2822 3834 2567 4026 
Q 2313 4219 1838 4219 
Q 1578 4219 1281 4162 
Q 984 4106 628 3988 
L 628 4550 
Q 988 4650 1302 4700 
Q 1616 4750 1894 4750 
Q 2613 4750 3031 4423 
Q 3450 4097 3450 3541 
Q 3450 3153 3228 2886 
Q 3006 2619 2597 2516 
z
" id="DejaVuSans-33" transform="scale(0.015625)"/>
       </defs>
       <use xlink:href="#DejaVuSans-32"/>
       <use x="63.623047" xlink:href="#DejaVuSans-30"/>
       <use x="127.246094" xlink:href="#DejaVuSans-32"/>
       <use x="190.869141" xlink:href="#DejaVuSans-33"/>
      </g>
     </g>
    </g>
    <g id="xtick_4">
     <g id="line2d_4">
      <g>
       <use style="stroke:#000000;stroke-width:0.8;" x="137.547955" xlink:href="#m60369fc442" y="251.94"/>
      </g>
     </g>
     <g id="text_4">
      <!-- 2024 -->
      <g transform="translate(140.859205 289.48)rotate(-90)scale(0.12 -0.12)">
       <defs>
        <path d="M 2419 4116 
L 825 1625 
L 2419 1625 
L 2419 4116 
z
M 2253 4666 
L 3047 4666 
L 3047 1625 
L 3713 1625 
L 3713 1100 
L 3047 1100 
L 3047 0 
L 2419 0 
L 2419 1100 
L 313 1100 
L 313 1709 
L 2253 4666 
z
" id="DejaVuSans-34" transform="scale(0.015625)"/>
       </defs>
       <use xlink:href="#DejaVuSans-32"/>
       <use x="63.623047" xlink:href="#DejaVuSans-30"/>
       <use x="127.246094" xlink:href="#DejaVuSans-32"/>
       <use x="190.869141" xlink:href="#DejaVuSans-34"/>
      </g>
     </g>
    </g>
    <g id="xtick_5">
     <g id="line2d_5">
      <g>
       <use style="stroke:#000000;stroke-width:0.8;" x="160.680227" xlink:href="#m60369fc442" y="251.94"/>
      </g>
     </g>
     <g id="text_5">
      <!-- 2025 -->
      <g transform="translate(163.991477 289.48)rotate(-90)scale(0.12 -0.12)">
       <defs>
        <path d="M 691 4666 
L 3169 4666 
L 3169 4134 
L 1269 4134 
L 1269 2991 
Q 1406 3038 1543 3061 
Q 1681 3084 1819 3084 
Q 2600 3084 3056 2656 
Q 3513 2228 3513 1497 
Q 3513 744 3044 326 
Q 2575 -91 1722 -91 
Q 1428 -91 1123 -41 
Q 819 9 494 109 
L 494 744 
Q 775 591 1075 516 
Q 1375 441 1709 441 
Q 2250 441 2565 725 
Q 2881 1009 2881 1497 
Q 2881 1984 2565 2268 
Q 2250 2553 1709 2553 
Q 1456 2553 1204 2497 
Q 953 2441 691 2322 
L 691 4666 
z
" id="DejaVuSans-35" transform="scale(0.015625)"/>
       </defs>
       <use xlink:href="#DejaVuSans-32"/>
       <use x="63.623047" xlink:href="#DejaVuSans-30"/>
       <use x="127.246094" xlink:href="#DejaVuSans-32"/>
       <use x="190.869141" xlink:href="#DejaVuSans-35"/>
      </g>
     </g>
    </g>
    <g id="xtick_6">
     <g id="line2d_6">
      <g>
       <use style="stroke:#000000;stroke-width:0.8;" x="183.8125" xlink:href="#m60369fc442" y="251.94"/>
      </g>
     </g>
     <g id="text_6">
      <!-- 2026 -->
      <g transform="translate(187.12375 289.48)rotate(-90)scale(0.12 -0.12)">
       <defs>
        <path d="M 2113 2584 
Q 1688 2584 1439 2293 
Q 1191 2003 1191 1497 
Q 1191 994 1439 701 
Q 1688 409 2113 409 
Q 2538 409 2786 701 
Q 3034 994 3034 1497 
Q 3034 2003 2786 2293 
Q 2538 2584 2113 2584 
z
M 3366 4563 
L 3366 3988 
Q 3128 4100 2886 4159 
Q 2644 4219 2406 4219 
Q 1781 4219 1451 3797 
Q 1122 3375 1075 2522 
Q 1259 2794 1537 2939 
Q 1816 3084 2150 3084 
Q 2853 3084 3261 2657 
Q 3669 2231 3669 1497 
Q 3669 778 3244 343 
Q 2819 -91 2113 -91 
Q 1303 -91 875 529 
Q 447 1150 447 2328 
Q 447 3434 972 4092 
Q 1497 4750 2381 4750 
Q 2619 4750 2861 4703 
Q 3103 4656 3366 4563 
z
" id="DejaVuSans-36" transform="scale(0.015625)"/>
       </defs>
       <use xlink:href="#DejaVuSans-32"/>
       <use x="63.623047" xlink:href="#DejaVuSans-30"/>
       <use x="127.246094" xlink:href="#DejaVuSans-32"/>
       <use x="190.869141" xlink:href="#DejaVuSans-36"/>
      </g>
     </g>
    </g>
    <g id="xtick_7">
     <g id="line2d_7">
      <g>
       <use style="stroke:#000000;stroke-width:0.8;" x="206.944773" xlink:href="#m60369fc442" y="251.94"/>
      </g>
     </g>
     <g id="text_7">
      <!-- 2027 -->
      <g transform="translate(210.256023 289.48)rotate(-90)scale(0.12 -0.12)">
       <defs>
        <path d="M 525 4666 
L 3525 4666 
L 3525 4397 
L 1831 0 
L 1172 0 
L 2766 4134 
L 525 4134 
L 525 4666 
z
" id="DejaVuSans-37" transform="scale(0.015625)"/>
       </defs>
       <use xlink:href="#DejaVuSans-32"/>
       <use x="63.623047" xlink:href="#DejaVuSans-30"/>
       <use x="127.246094" xlink:href="#DejaVuSans-32"/>
       <use x="190.869141" xlink:href="#DejaVuSans-37"/>
      </g>
     </g>
    </g>
    <g id="xtick_8">
     <g id="line2d_8">
      <g>
       <use style="stroke:#000000;stroke-width:0.8;" x="230.077045" xlink:href="#m60369fc442" y="251.94"/>
      </g>
     </g>
     <g id="text_8">
      <!-- 2028 -->
      <g transform="translate(233.388295 289.48)rotate(-90)scale(0.12 -0.12)">
       <defs>
        <path d="M 2034 2216 
Q 1584 2216 1326 1975 
Q 1069 1734 1069 1313 
Q 1069 891 1326 650 
Q 1584 409 2034 409 
Q 2484 409 2743 651 
Q 3003 894 3003 1313 
Q 3003 1734 2745 1975 
Q 2488 2216 2034 2216 
z
M 1403 2484 
Q 997 2584 770 2862 
Q 544 3141 544 3541 
Q 544 4100 942 4425 
Q 1341 4750 2034 4750 
Q 2731 4750 3128 4425 
Q 3525 4100 3525 3541 
Q 3525 3141 3298 2862 
Q 3072 2584 2669 2484 
Q 3125 2378 3379 2068 
Q 3634 1759 3634 1313 
Q 3634 634 3220 271 
Q 2806 -91 2034 -91 
Q 1263 -91 848 271 
Q 434 634 434 1313 
Q 434 1759 690 2068 
Q 947 2378 1403 2484 
z
M 1172 3481 
Q 1172 3119 1398 2916 
Q 1625 2713 2034 2713 
Q 2441 2713 2670 2916 
Q 2900 3119 2900 3481 
Q 2900 3844 2670 4047 
Q 2441 4250 2034 4250 
Q 1625 4250 1398 4047 
Q 1172 3844 1172 3481 
z
" id="DejaVuSans-38" transform="scale(0.015625)"/>
       </defs>
       <use xlink:href="#DejaVuSans-32"/>
       <use x="63.623047" xlink:href="#DejaVuSans-30"/>
       <use x="127.246094" xlink:href="#DejaVuSans-32"/>
       <use x="190.869141" xlink:href="#DejaVuSans-38"/>
      </g>
     </g>
    </g>
    <g id="xtick_9">
     <g id="line2d_9">
      <g>
       <use style="stroke:#000000;stroke-width:0.8;" x="253.209318" xlink:href="#m60369fc442" y="251.94"/>
      </g>
     </g>
     <g id="text_9">
      <!-- 2029 -->
      <g transform="translate(256.520568 289.48)rotate(-90)scale(0.12 -0.12)">
       <defs>
        <path d="M 703 97 
L 703 672 
Q 941 559 1184 500 
Q 1428 441 1663 441 
Q 2288 441 2617 861 
Q 2947 1281 2994 2138 
Q 2813 1869 2534 1725 
Q 2256 1581 1919 1581 
Q 1219 1581 811 2004 
Q 403 2428 403 3163 
Q 403 3881 828 4315 
Q 1253 4750 1959 4750 
Q 2769 4750 3195 4129 
Q 3622 3509 3622 2328 
Q 3622 1225 3098 567 
Q 2575 -91 1691 -91 
Q 1453 -91 1209 -44 
Q 966 3 703 97 
z
M 1959 2075 
Q 2384 2075 2632 2365 
Q 2881 2656 2881 3163 
Q 2881 3666 2632 3958 
Q 2384 4250 1959 4250 
Q 1534 4250 1286 3958 
Q 1038 3666 1038 3163 
Q 1038 2656 1286 2365 
Q 1534 2075 1959 2075 
z
" id="DejaVuSans-39" transform="scale(0.015625)"/>
       </defs>
       <use xlink:href="#DejaVuSans-32"/>
       <use x="63.623047" xlink:href="#DejaVuSans-30"/>
       <use x="127.246094" xlink:href="#DejaVuSans-32"/>
       <use x="190.869141" xlink:href="#DejaVuSans-39"/>
      </g>
     </g>
    </g>
    <g id="xtick_10">
     <g id="line2d_10">
      <g>
       <use style="stroke:#000000;stroke-width:0.8;" x="276.341591" xlink:href="#m60369fc442" y="251.94"/>
      </g>
     </g>
     <g id="text_10">
      <!-- 2030 -->
      <g transform="translate(279.652841 289.48)rotate(-90)scale(0.12 -0.12)">
       <use xlink:href="#DejaVuSans-32"/>
       <use x="63.623047" xlink:href="#DejaVuSans-30"/>
       <use x="127.246094" xlink:href="#DejaVuSans-33"/>
       <use x="190.869141" xlink:href="#DejaVuSans-30"/>
      </g>
     </g>
    </g>
    <g id="xtick_11">
     <g id="line2d_11">
      <g>
       <use style="stroke:#000000;stroke-width:0.8;" x="299.473864" xlink:href="#m60369fc442" y="251.94"/>
      </g>
     </g>
     <g id="text_11">
      <!-- 2031 -->
      <g transform="translate(302.785114 289.48)rotate(-90)scale(0.12 -0.12)">
       <use xlink:href="#DejaVuSans-32"/>
       <use x="63.623047" xlink:href="#DejaVuSans-30"/>
       <use x="127.246094" xlink:href="#DejaVuSans-33"/>
       <use x="190.869141" xlink:href="#DejaVuSans-31"/>
      </g>
     </g>
    </g>
   </g>
   <g id="matplotlib.axis_2">
    <g id="ytick_1">
     <g id="line2d_12">
      <defs>
       <path d="M 0 0 
L -3.5 0 
" id="m02b40eed3e" style="stroke:#000000;stroke-width:0.8;"/>
      </defs>
      <g>
       <use style="stroke:#000000;stroke-width:0.8;" x="56.585" xlink:href="#m02b40eed3e" y="251.94"/>
      </g>
     </g>
     <g id="text_12">
      <!-- −14% -->
      <g transform="translate(12.8575 256.499063)scale(0.12 -0.12)">
       <defs>
        <path d="M 678 2272 
L 4684 2272 
L 4684 1741 
L 678 1741 
L 678 2272 
z
" id="DejaVuSans-2212" transform="scale(0.015625)"/>
        <path d="M 4653 2053 
Q 4381 2053 4226 1822 
Q 4072 1591 4072 1178 
Q 4072 772 4226 539 
Q 4381 306 4653 306 
Q 4919 306 5073 539 
Q 5228 772 5228 1178 
Q 5228 1588 5073 1820 
Q 4919 2053 4653 2053 
z
M 4653 2450 
Q 5147 2450 5437 2106 
Q 5728 1763 5728 1178 
Q 5728 594 5436 251 
Q 5144 -91 4653 -91 
Q 4153 -91 3862 251 
Q 3572 594 3572 1178 
Q 3572 1766 3864 2108 
Q 4156 2450 4653 2450 
z
M 1428 4353 
Q 1159 4353 1004 4120 
Q 850 3888 850 3481 
Q 850 3069 1003 2837 
Q 1156 2606 1428 2606 
Q 1700 2606 1854 2837 
Q 2009 3069 2009 3481 
Q 2009 3884 1853 4118 
Q 1697 4353 1428 4353 
z
M 4250 4750 
L 4750 4750 
L 1831 -91 
L 1331 -91 
L 4250 4750 
z
M 1428 4750 
Q 1922 4750 2215 4408 
Q 2509 4066 2509 3481 
Q 2509 2891 2217 2550 
Q 1925 2209 1428 2209 
Q 931 2209 642 2551 
Q 353 2894 353 3481 
Q 353 4063 643 4406 
Q 934 4750 1428 4750 
z
" id="DejaVuSans-25" transform="scale(0.015625)"/>
       </defs>
       <use xlink:href="#DejaVuSans-2212"/>
       <use x="83.789062" xlink:href="#DejaVuSans-31"/>
       <use x="147.412109" xlink:href="#DejaVuSans-34"/>
       <use x="211.035156" xlink:href="#DejaVuSans-25"/>
      </g>
     </g>
    </g>
    <g id="ytick_2">
     <g id="line2d_13">
      <g>
       <use style="stroke:#000000;stroke-width:0.8;" x="56.585" xlink:href="#m02b40eed3e" y="222.6925"/>
      </g>
     </g>
     <g id="text_13">
      <!-- −12% -->
      <g transform="translate(12.8575 227.251563)scale(0.12 -0.12)">
       <use xlink:href="#DejaVuSans-2212"/>
       <use x="83.789062" xlink:href="#DejaVuSans-31"/>
       <use x="147.412109" xlink:href="#DejaVuSans-32"/>
       <use x="211.035156" xlink:href="#DejaVuSans-25"/>
      </g>
     </g>
    </g>
    <g id="ytick_3">
     <g id="line2d_14">
      <g>
       <use style="stroke:#000000;stroke-width:0.8;" x="56.585" xlink:href="#m02b40eed3e" y="193.445"/>
      </g>
     </g>
     <g id="text_14">
      <!-- −10% -->
      <g transform="translate(12.8575 198.004063)scale(0.12 -0.12)">
       <use xlink:href="#DejaVuSans-2212"/>
       <use x="83.789062" xlink:href="#DejaVuSans-31"/>
       <use x="147.412109" xlink:href="#DejaVuSans-30"/>
       <use x="211.035156" xlink:href="#DejaVuSans-25"/>
      </g>
     </g>
    </g>
    <g id="ytick_4">
     <g id="line2d_15">
      <g>
       <use style="stroke:#000000;stroke-width:0.8;" x="56.585" xlink:href="#m02b40eed3e" y="164.1975"/>
      </g>
     </g>
     <g id="text_15">
      <!-- −8% -->
      <g transform="translate(20.4925 168.756563)scale(0.12 -0.12)">
       <use xlink:href="#DejaVuSans-2212"/>
       <use x="83.789062" xlink:href="#DejaVuSans-38"/>
       <use x="147.412109" xlink:href="#DejaVuSans-25"/>
      </g>
     </g>
    </g>
    <g id="ytick_5">
     <g id="line2d_16">
      <g>
       <use style="stroke:#000000;stroke-width:0.8;" x="56.585" xlink:href="#m02b40eed3e" y="134.95"/>
      </g>
     </g>
     <g id="text_16">
      <!-- −6% -->
      <g transform="translate(20.4925 139.509063)scale(0.12 -0.12)">
       <use xlink:href="#DejaVuSans-2212"/>
       <use x="83.789062" xlink:href="#DejaVuSans-36"/>
       <use x="147.412109" xlink:href="#DejaVuSans-25"/>
      </g>
     </g>
    </g>
    <g id="ytick_6">
     <g id="line2d_17">
      <g>
       <use style="stroke:#000000;stroke-width:0.8;" x="56.585" xlink:href="#m02b40eed3e" y="105.7025"/>
      </g>
     </g>
     <g id="text_17">
      <!-- −4% -->
      <g transform="translate(20.4925 110.261562)scale(0.12 -0.12)">
       <use xlink:href="#DejaVuSans-2212"/>
       <use x="83.789062" xlink:href="#DejaVuSans-34"/>
       <use x="147.412109" xlink:href="#DejaVuSans-25"/>
      </g>
     </g>
    </g>
    <g id="ytick_7">
     <g id="line2d_18">
      <g>
       <use style="stroke:#000000;stroke-width:0.8;" x="56.585" xlink:href="#m02b40eed3e" y="76.455"/>
      </g>
     </g>
     <g id="text_18">
      <!-- −2% -->
      <g transform="translate(20.4925 81.014062)scale(0.12 -0.12)">
       <use xlink:href="#DejaVuSans-2212"/>
       <use x="83.789062" xlink:href="#DejaVuSans-32"/>
       <use x="147.412109" xlink:href="#DejaVuSans-25"/>
      </g>
     </g>
    </g>
    <g id="ytick_8">
     <g id="line2d_19">
      <g>
       <use style="stroke:#000000;stroke-width:0.8;" x="56.585" xlink:href="#m02b40eed3e" y="47.2075"/>
      </g>
     </g>
     <g id="text_19">
      <!-- 0% -->
      <g transform="translate(30.548125 51.766562)scale(0.12 -0.12)">
       <use xlink:href="#DejaVuSans-30"/>
       <use x="63.623047" xlink:href="#DejaVuSans-25"/>
      </g>
     </g>
    </g>
    <g id="ytick_9">
     <g id="line2d_20">
      <g>
       <use style="stroke:#000000;stroke-width:0.8;" x="56.585" xlink:href="#m02b40eed3e" y="17.96"/>
      </g>
     </g>
     <g id="text_20">
      <!-- 2% -->
      <g transform="translate(30.548125 22.519062)scale(0.12 -0.12)">
       <use xlink:href="#DejaVuSans-32"/>
       <use x="63.623047" xlink:href="#DejaVuSans-25"/>
      </g>
     </g>
    </g>
   </g>
   <g id="line2d_21">
    <path clip-path="url(#p6b3645caa8)" d="M 68.151136 47.2075 
L 73.934205 51.364394 
L 79.717273 57.997222 
L 85.500341 65.448501 
L 91.283409 73.724269 
L 97.066477 77.950105 
L 102.849545 76.899388 
L 108.632614 72.838055 
L 114.415682 66.914985 
L 120.19875 60.165928 
L 125.981818 55.982716 
L 131.764886 53.668273 
L 137.547955 52.317949 
L 143.331023 51.480286 
L 149.114091 50.907625 
L 154.897159 50.488295 
L 160.680227 50.157245 
L 166.463295 49.880351 
L 172.246364 49.637524 
L 178.029432 49.423581 
L 183.8125 49.229904 
L 189.595568 49.050704 
L 195.378636 48.889823 
L 201.161705 48.737945 
L 206.944773 48.605606 
L 212.727841 48.47643 
L 218.510909 48.361021 
L 224.293977 48.252914 
L 230.077045 48.152441 
L 235.860114 48.059962 
L 241.643182 47.975846 
L 247.42625 47.896749 
L 253.209318 47.822925 
L 258.992386 47.754633 
L 264.775455 47.676625 
L 270.558523 47.576472 
L 276.341591 47.505285 
L 282.124659 47.44433 
L 287.907727 47.398162 
L 293.690795 47.35095 
L 299.473864 47.31514 
" style="fill:none;stroke:#dc143c;stroke-linecap:square;stroke-width:1.5;"/>
   </g>
   <g id="line2d_22">
    <path clip-path="url(#p6b3645caa8)" d="M 68.151136 47.2075 
L 299.473864 47.2075 
" style="fill:none;stroke:#000000;stroke-dasharray:1,1.65;stroke-dashoffset:0;"/>
   </g>
   <g id="line2d_23">
    <path clip-path="url(#p6b3645caa8)" d="M 68.151136 47.2075 
L 73.934205 47.808715 
L 79.717273 48.906882 
L 85.500341 50.290076 
L 91.283409 51.962512 
L 97.066477 53.221826 
L 102.849545 53.733417 
L 108.632614 53.691782 
L 114.415682 53.198939 
L 120.19875 52.383025 
L 125.981818 51.735588 
L 131.764886 51.24581 
L 137.547955 50.861055 
L 143.331023 50.535208 
L 149.114091 50.245224 
L 154.897159 49.993149 
L 160.680227 49.764801 
L 166.463295 49.556047 
L 172.246364 49.362452 
L 178.029432 49.190581 
L 183.8125 49.024386 
L 189.595568 48.875965 
L 195.378636 48.734438 
L 201.161705 48.606276 
L 206.944773 48.492202 
L 212.727841 48.380616 
L 218.510909 48.277993 
L 224.293977 48.184837 
L 230.077045 48.095211 
L 235.860114 48.015878 
L 241.643182 47.940742 
L 247.42625 47.87005 
L 253.209318 47.804058 
L 258.992386 47.743023 
L 264.775455 47.680248 
L 270.558523 47.622722 
L 276.341591 47.570713 
L 282.124659 47.517316 
L 287.907727 47.477128 
L 293.690795 47.435926 
L 299.473864 47.393726 
" style="fill:none;stroke:#1e90ff;stroke-dasharray:5.55,2.4;stroke-dashoffset:0;stroke-width:1.5;"/>
   </g>
   <g id="line2d_24">
    <path clip-path="url(#p6b3645caa8)" d="M 68.151136 47.2075 
L 299.473864 47.2075 
" style="fill:none;stroke:#000000;stroke-dasharray:1,1.65;stroke-dashoffset:0;"/>
   </g>
   <g id="patch_3">
    <path d="M 56.585 251.94 
L 56.585 17.96 
" style="fill:none;stroke:#000000;stroke-linecap:square;stroke-linejoin:miter;stroke-width:0.8;"/>
   </g>
   <g id="patch_4">
    <path d="M 311.04 251.94 
L 311.04 17.96 
" style="fill:none;stroke:#000000;stroke-linecap:square;stroke-linejoin:miter;stroke-width:0.8;"/>
   </g>
   <g id="patch_5">
    <path d="M 56.585 251.94 
L 311.04 251.94 
" style="fill:none;stroke:#000000;stroke-linecap:square;stroke-linejoin:miter;stroke-width:0.8;"/>
   </g>
   <g id="patch_6">
    <path d="M 56.585 17.96 
L 311.04 17.96 
" style="fill:none;stroke:#000000;stroke-linecap:square;stroke-linejoin:miter;stroke-width:0.8;"/>
   </g>
  </g>
 </g>
 <defs>
  <clipPath id="p6b3645caa8">
   <rect height="233.98" width="254.455" x="56.585" y="17.96"/>
  </clipPath>
 </defs>
</svg>
