<?xml version="1.0" encoding="utf-8" standalone="no"?>
<!DOCTYPE svg PUBLIC "-//W3C//DTD SVG 1.1//EN"
  "http://www.w3.org/Graphics/SVG/1.1/DTD/svg11.dtd">
<svg height="302.4pt" version="1.1" viewBox="0 0 324 302.4" width="324pt" xmlns="http://www.w3.org/2000/svg" xmlns:xlink="http://www.w3.org/1999/xlink">
 <metadata>
  <rdf:RDF xmlns:cc="http://creativecommons.org/ns#" xmlns:dc="http://purl.org/dc/elements/1.1/" xmlns:rdf="http://www.w3.org/1999/02/22-rdf-syntax-ns#">
   <cc:Work>
    <dc:type rdf:resource="http://purl.org/dc/dcmitype/StillImage"/>
    <dc:date>2021-08-08T11:02:04.945414</dc:date>
    <dc:format>image/svg+xml</dc:format>
    <dc:creator>
     <cc:Agent>
      <dc:title>Matplotlib v3.4.0rc1, https://matplotlib.org/</dc:title>
     </cc:Agent>
    </dc:creator>
   </cc:Work>
  </rdf:RDF>
 </metadata>
 <defs>
  <style type="text/css">*{stroke-linecap:butt;stroke-linejoin:round;}</style>
 </defs>
 <g id="figure_1">
  <g id="patch_1">
   <path d="M 0 302.4 
L 324 302.4 
L 324 0 
L 0 0 
z
" style="fill:none;"/>
  </g>
  <g id="axes_1">
   <g id="patch_2">
    <path d="M 56.585 251.94 
L 311.04 251.94 
L 311.04 17.96 
L 56.585 17.96 
z
" style="fill:#ffffff;"/>
   </g>
   <g id="PolyCollection_1">
    <path clip-path="url(#pff743a5c5a)" d="M 68.151136 47.2075 
L 68.151136 47.2075 
L 73.934205 47.266511 
L 79.717273 47.326343 
L 85.500341 47.364362 
L 91.283409 47.388701 
L 97.066477 47.401683 
L 102.849545 47.409701 
L 108.632614 47.412405 
L 114.415682 47.414087 
L 120.19875 47.41403 
L 125.981818 47.412674 
L 131.764886 47.411184 
L 137.547955 47.409519 
L 143.331023 47.405447 
L 149.114091 47.400327 
L 154.897159 47.396039 
L 160.680227 47.393397 
L 166.463295 47.388518 
L 172.246364 47.385076 
L 178.029432 47.381472 
L 183.8125 47.378146 
L 189.595568 47.374766 
L 195.378636 47.372283 
L 201.161705 47.368461 
L 206.944773 47.363593 
L 212.727841 47.361842 
L 218.510909 47.355968 
L 224.293977 47.351166 
L 230.077045 47.347034 
L 235.860114 47.343667 
L 241.643182 47.33984 
L 247.42625 47.334195 
L 253.209318 47.32967 
L 258.992386 47.325923 
L 264.775455 47.320666 
L 270.558523 47.317234 
L 276.341591 47.314876 
L 282.124659 47.310351 
L 287.907727 47.302548 
L 293.690795 47.299913 
L 299.473864 47.295261 
L 299.473864 47.20005 
L 299.473864 47.20005 
L 293.690795 47.200223 
L 287.907727 47.200376 
L 282.124659 47.200628 
L 276.341591 47.20073 
L 270.558523 47.200901 
L 264.775455 47.201112 
L 258.992386 47.201301 
L 253.209318 47.201575 
L 247.42625 47.203939 
L 241.643182 47.20408 
L 235.860114 47.204198 
L 230.077045 47.204278 
L 224.293977 47.204404 
L 218.510909 47.20449 
L 212.727841 47.204559 
L 206.944773 47.2075 
L 201.161705 47.2075 
L 195.378636 47.2075 
L 189.595568 47.2075 
L 183.8125 47.2075 
L 178.029432 47.2075 
L 172.246364 47.2075 
L 166.463295 47.2075 
L 160.680227 47.2075 
L 154.897159 47.2075 
L 149.114091 47.2075 
L 143.331023 47.2075 
L 137.547955 47.2075 
L 131.764886 47.2075 
L 125.981818 47.2075 
L 120.19875 47.2075 
L 114.415682 47.2075 
L 108.632614 47.2075 
L 102.849545 47.2075 
L 97.066477 47.2075 
L 91.283409 47.2075 
L 85.500341 47.2075 
L 79.717273 47.2075 
L 73.934205 47.2075 
L 68.151136 47.2075 
z
" style="fill:#dc143c;fill-opacity:0.2;"/>
   </g>
   <g id="PolyCollection_2">
    <path clip-path="url(#pff743a5c5a)" d="M 68.151136 47.2075 
L 68.151136 47.2075 
L 73.934205 47.264288 
L 79.717273 47.321946 
L 85.500341 47.358928 
L 91.283409 47.381783 
L 97.066477 47.394728 
L 102.849545 47.401559 
L 108.632614 47.404104 
L 114.415682 47.404236 
L 120.19875 47.402986 
L 125.981818 47.401236 
L 131.764886 47.398924 
L 137.547955 47.396847 
L 143.331023 47.391669 
L 149.114091 47.385819 
L 154.897159 47.381177 
L 160.680227 47.377236 
L 166.463295 47.372933 
L 172.246364 47.369357 
L 178.029432 47.365682 
L 183.8125 47.36278 
L 189.595568 47.360311 
L 195.378636 47.357206 
L 201.161705 47.353949 
L 206.944773 47.349338 
L 212.727841 47.346017 
L 218.510909 47.342018 
L 224.293977 47.337999 
L 230.077045 47.33392 
L 235.860114 47.329497 
L 241.643182 47.325382 
L 247.42625 47.320206 
L 253.209318 47.315258 
L 258.992386 47.311543 
L 264.775455 47.305534 
L 270.558523 47.300113 
L 276.341591 47.293673 
L 282.124659 47.271096 
L 287.907727 47.24345 
L 293.690795 47.231558 
L 299.473864 47.22663 
L 299.473864 47.2007 
L 299.473864 47.2007 
L 293.690795 47.200947 
L 287.907727 47.203456 
L 282.124659 47.203585 
L 276.341591 47.20371 
L 270.558523 47.203822 
L 264.775455 47.20394 
L 258.992386 47.204058 
L 253.209318 47.204144 
L 247.42625 47.20427 
L 241.643182 47.204367 
L 235.860114 47.204513 
L 230.077045 47.2075 
L 224.293977 47.2075 
L 218.510909 47.2075 
L 212.727841 47.2075 
L 206.944773 47.2075 
L 201.161705 47.2075 
L 195.378636 47.2075 
L 189.595568 47.2075 
L 183.8125 47.2075 
L 178.029432 47.2075 
L 172.246364 47.2075 
L 166.463295 47.2075 
L 160.680227 47.2075 
L 154.897159 47.2075 
L 149.114091 47.2075 
L 143.331023 47.2075 
L 137.547955 47.2075 
L 131.764886 47.2075 
L 125.981818 47.2075 
L 120.19875 47.2075 
L 114.415682 47.2075 
L 108.632614 47.2075 
L 102.849545 47.2075 
L 97.066477 47.2075 
L 91.283409 47.2075 
L 85.500341 47.2075 
L 79.717273 47.2075 
L 73.934205 47.2075 
L 68.151136 47.2075 
z
" style="fill:#1f77b4;fill-opacity:0.2;"/>
   </g>
   <g id="PolyCollection_3">
    <path clip-path="url(#pff743a5c5a)" d="M 68.151136 47.2075 
L 68.151136 47.2075 
L 73.934205 47.262977 
L 79.717273 47.31943 
L 85.500341 47.355692 
L 91.283409 47.377703 
L 97.066477 47.3903 
L 102.849545 47.396513 
L 108.632614 47.399009 
L 114.415682 47.398942 
L 120.19875 47.397316 
L 125.981818 47.395256 
L 131.764886 47.392552 
L 137.547955 47.389634 
L 143.331023 47.383803 
L 149.114091 47.377827 
L 154.897159 47.373196 
L 160.680227 47.368468 
L 166.463295 47.364017 
L 172.246364 47.35978 
L 178.029432 47.355915 
L 183.8125 47.352491 
L 189.595568 47.349276 
L 195.378636 47.345448 
L 201.161705 47.341865 
L 206.944773 47.337761 
L 212.727841 47.334277 
L 218.510909 47.330219 
L 224.293977 47.325721 
L 230.077045 47.320733 
L 235.860114 47.315933 
L 241.643182 47.309878 
L 247.42625 47.303914 
L 253.209318 47.292178 
L 258.992386 47.272451 
L 264.775455 47.247206 
L 270.558523 47.237808 
L 276.341591 47.232248 
L 282.124659 47.227892 
L 287.907727 47.225466 
L 293.690795 47.222489 
L 299.473864 47.221027 
L 299.473864 47.203548 
L 299.473864 47.203548 
L 293.690795 47.203673 
L 287.907727 47.203809 
L 282.124659 47.2039 
L 276.341591 47.203987 
L 270.558523 47.204103 
L 264.775455 47.204253 
L 258.992386 47.2075 
L 253.209318 47.2075 
L 247.42625 47.2075 
L 241.643182 47.2075 
L 235.860114 47.2075 
L 230.077045 47.2075 
L 224.293977 47.2075 
L 218.510909 47.2075 
L 212.727841 47.2075 
L 206.944773 47.2075 
L 201.161705 47.2075 
L 195.378636 47.2075 
L 189.595568 47.2075 
L 183.8125 47.2075 
L 178.029432 47.2075 
L 172.246364 47.2075 
L 166.463295 47.2075 
L 160.680227 47.2075 
L 154.897159 47.2075 
L 149.114091 47.2075 
L 143.331023 47.2075 
L 137.547955 47.2075 
L 131.764886 47.2075 
L 125.981818 47.2075 
L 120.19875 47.2075 
L 114.415682 47.2075 
L 108.632614 47.2075 
L 102.849545 47.2075 
L 97.066477 47.2075 
L 91.283409 47.2075 
L 85.500341 47.2075 
L 79.717273 47.2075 
L 73.934205 47.2075 
L 68.151136 47.2075 
z
" style="fill:#ff7f0e;fill-opacity:0.2;"/>
   </g>
   <g id="PolyCollection_4">
    <path clip-path="url(#pff743a5c5a)" d="M 68.151136 47.2075 
L 68.151136 47.2075 
L 73.934205 47.261186 
L 79.717273 47.315873 
L 85.500341 47.35102 
L 91.283409 47.37198 
L 97.066477 47.383892 
L 102.849545 47.389574 
L 108.632614 47.391193 
L 114.415682 47.390588 
L 120.19875 47.388237 
L 125.981818 47.385241 
L 131.764886 47.381908 
L 137.547955 47.378103 
L 143.331023 47.371963 
L 149.114091 47.365135 
L 154.897159 47.359308 
L 160.680227 47.354305 
L 166.463295 47.349079 
L 172.246364 47.343941 
L 178.029432 47.338993 
L 183.8125 47.333836 
L 189.595568 47.329424 
L 195.378636 47.325058 
L 201.161705 47.320191 
L 206.944773 47.314459 
L 212.727841 47.308053 
L 218.510909 47.298854 
L 224.293977 47.278815 
L 230.077045 47.255416 
L 235.860114 47.245382 
L 241.643182 47.238882 
L 247.42625 47.23426 
L 253.209318 47.230373 
L 258.992386 47.227577 
L 264.775455 47.224526 
L 270.558523 47.221343 
L 276.341591 47.22029 
L 282.124659 47.217037 
L 287.907727 47.216434 
L 293.690795 47.216048 
L 299.473864 47.212257 
L 299.473864 47.2075 
L 299.473864 47.2075 
L 293.690795 47.2075 
L 287.907727 47.2075 
L 282.124659 47.2075 
L 276.341591 47.2075 
L 270.558523 47.2075 
L 264.775455 47.2075 
L 258.992386 47.2075 
L 253.209318 47.2075 
L 247.42625 47.2075 
L 241.643182 47.2075 
L 235.860114 47.2075 
L 230.077045 47.2075 
L 224.293977 47.2075 
L 218.510909 47.2075 
L 212.727841 47.2075 
L 206.944773 47.210507 
L 201.161705 47.210572 
L 195.378636 47.210663 
L 189.595568 47.210696 
L 183.8125 47.213104 
L 178.029432 47.213381 
L 172.246364 47.213632 
L 166.463295 47.216016 
L 160.680227 47.216447 
L 154.897159 47.218594 
L 149.114091 47.219738 
L 143.331023 47.221692 
L 137.547955 47.225302 
L 131.764886 47.228496 
L 125.981818 47.234664 
L 120.19875 47.243741 
L 114.415682 47.258735 
L 108.632614 47.284363 
L 102.849545 47.332746 
L 97.066477 47.362574 
L 91.283409 47.355005 
L 85.500341 47.338049 
L 79.717273 47.306854 
L 73.934205 47.256503 
L 68.151136 47.2075 
z
" style="fill:#2ca02c;fill-opacity:0.2;"/>
   </g>
   <g id="PolyCollection_5">
    <path clip-path="url(#pff743a5c5a)" d="M 68.151136 47.2075 
L 68.151136 47.2075 
L 73.934205 47.410179 
L 79.717273 47.6236 
L 85.500341 47.881306 
L 91.283409 48.236407 
L 97.066477 48.701948 
L 102.849545 48.984385 
L 108.632614 49.237137 
L 114.415682 49.662255 
L 120.19875 49.944768 
L 125.981818 50.235012 
L 131.764886 50.37342 
L 137.547955 50.305716 
L 143.331023 50.501127 
L 149.114091 50.693904 
L 154.897159 51.130006 
L 160.680227 51.529096 
L 166.463295 52.148858 
L 172.246364 52.634881 
L 178.029432 53.391073 
L 183.8125 53.875445 
L 189.595568 54.316167 
L 195.378636 54.798404 
L 201.161705 55.294333 
L 206.944773 55.735914 
L 212.727841 56.062671 
L 218.510909 56.729895 
L 224.293977 56.715592 
L 230.077045 57.416093 
L 235.860114 57.841593 
L 241.643182 58.236351 
L 247.42625 57.856911 
L 253.209318 57.027856 
L 258.992386 56.463553 
L 264.775455 57.014822 
L 270.558523 57.306817 
L 276.341591 57.302649 
L 282.124659 57.267033 
L 287.907727 57.307243 
L 293.690795 57.974946 
L 299.473864 58.097289 
L 299.473864 36.23601 
L 299.473864 36.23601 
L 293.690795 36.360185 
L 287.907727 37.050574 
L 282.124659 37.097635 
L 276.341591 37.07045 
L 270.558523 37.063727 
L 264.775455 37.346907 
L 258.992386 37.911351 
L 253.209318 37.364118 
L 247.42625 36.52203 
L 241.643182 36.101557 
L 235.860114 36.513493 
L 230.077045 36.927593 
L 224.293977 37.637624 
L 218.510909 37.873775 
L 212.727841 38.374928 
L 206.944773 39.088224 
L 201.161705 39.788786 
L 195.378636 39.904437 
L 189.595568 40.942379 
L 183.8125 40.670501 
L 178.029432 41.492568 
L 172.246364 42.541706 
L 166.463295 42.753027 
L 160.680227 43.560896 
L 154.897159 43.904016 
L 149.114091 44.126006 
L 143.331023 44.421844 
L 137.547955 44.413366 
L 131.764886 44.79169 
L 125.981818 44.549483 
L 120.19875 44.870597 
L 114.415682 45.047059 
L 108.632614 45.736328 
L 102.849545 45.907906 
L 97.066477 46.240558 
L 91.283409 46.247864 
L 85.500341 46.719273 
L 79.717273 46.882091 
L 73.934205 47.074356 
L 68.151136 47.2075 
z
" style="fill:#1e90ff;fill-opacity:0.2;"/>
   </g>
   <g id="PolyCollection_6">
    <path clip-path="url(#pff743a5c5a)" d="M 68.151136 47.2075 
L 68.151136 47.2075 
L 73.934205 47.216293 
L 79.717273 47.228295 
L 85.500341 47.234633 
L 91.283409 47.243387 
L 97.066477 47.248717 
L 102.849545 47.25292 
L 108.632614 47.255479 
L 114.415682 47.259756 
L 120.19875 47.261765 
L 125.981818 47.263134 
L 131.764886 47.264519 
L 137.547955 47.266008 
L 143.331023 47.266717 
L 149.114091 47.267081 
L 154.897159 47.267445 
L 160.680227 47.26786 
L 166.463295 47.268185 
L 172.246364 47.267716 
L 178.029432 47.2661 
L 183.8125 47.266042 
L 189.595568 47.265645 
L 195.378636 47.264183 
L 201.161705 47.262778 
L 206.944773 47.262255 
L 212.727841 47.26136 
L 218.510909 47.258989 
L 224.293977 47.257509 
L 230.077045 47.256476 
L 235.860114 47.253822 
L 241.643182 47.25144 
L 247.42625 47.250153 
L 253.209318 47.246569 
L 258.992386 47.245156 
L 264.775455 47.243829 
L 270.558523 47.240366 
L 276.341591 47.238631 
L 282.124659 47.235939 
L 287.907727 47.233493 
L 293.690795 47.230429 
L 299.473864 47.228202 
L 299.473864 47.201485 
L 299.473864 47.201485 
L 293.690795 47.2075 
L 287.907727 47.2075 
L 282.124659 47.2075 
L 276.341591 47.2075 
L 270.558523 47.2075 
L 264.775455 47.2075 
L 258.992386 47.2075 
L 253.209318 47.2075 
L 247.42625 47.2075 
L 241.643182 47.2075 
L 235.860114 47.2075 
L 230.077045 47.2075 
L 224.293977 47.2075 
L 218.510909 47.2075 
L 212.727841 47.2075 
L 206.944773 47.2075 
L 201.161705 47.2075 
L 195.378636 47.2075 
L 189.595568 47.2075 
L 183.8125 47.2075 
L 178.029432 47.2075 
L 172.246364 47.2075 
L 166.463295 47.2075 
L 160.680227 47.2075 
L 154.897159 47.2075 
L 149.114091 47.2075 
L 143.331023 47.2075 
L 137.547955 47.2075 
L 131.764886 47.2075 
L 125.981818 47.2075 
L 120.19875 47.2075 
L 114.415682 47.2075 
L 108.632614 47.2075 
L 102.849545 47.2075 
L 97.066477 47.2075 
L 91.283409 47.2075 
L 85.500341 47.2075 
L 79.717273 47.2075 
L 73.934205 47.2075 
L 68.151136 47.2075 
z
" style="fill:#d62728;fill-opacity:0.2;"/>
   </g>
   <g id="PolyCollection_7">
    <path clip-path="url(#pff743a5c5a)" d="M 68.151136 47.2075 
L 68.151136 47.2075 
L 73.934205 47.216129 
L 79.717273 47.225238 
L 85.500341 47.234103 
L 91.283409 47.241872 
L 97.066477 47.24717 
L 102.849545 47.249897 
L 108.632614 47.254186 
L 114.415682 47.256329 
L 120.19875 47.259724 
L 125.981818 47.261104 
L 131.764886 47.262212 
L 137.547955 47.263271 
L 143.331023 47.263848 
L 149.114091 47.264103 
L 154.897159 47.264075 
L 160.680227 47.263232 
L 166.463295 47.262607 
L 172.246364 47.262282 
L 178.029432 47.262115 
L 183.8125 47.260942 
L 189.595568 47.259292 
L 195.378636 47.258905 
L 201.161705 47.258092 
L 206.944773 47.255724 
L 212.727841 47.254538 
L 218.510909 47.253067 
L 224.293977 47.250702 
L 230.077045 47.248998 
L 235.860114 47.247517 
L 241.643182 47.244531 
L 247.42625 47.242789 
L 253.209318 47.240282 
L 258.992386 47.237891 
L 264.775455 47.235124 
L 270.558523 47.232564 
L 276.341591 47.229862 
L 282.124659 47.228027 
L 287.907727 47.22663 
L 293.690795 47.2226 
L 299.473864 47.221998 
L 299.473864 47.2075 
L 299.473864 47.2075 
L 293.690795 47.2075 
L 287.907727 47.2075 
L 282.124659 47.2075 
L 276.341591 47.2075 
L 270.558523 47.2075 
L 264.775455 47.2075 
L 258.992386 47.2075 
L 253.209318 47.2075 
L 247.42625 47.2075 
L 241.643182 47.2075 
L 235.860114 47.2075 
L 230.077045 47.2075 
L 224.293977 47.2075 
L 218.510909 47.2075 
L 212.727841 47.2075 
L 206.944773 47.2075 
L 201.161705 47.2075 
L 195.378636 47.2075 
L 189.595568 47.2075 
L 183.8125 47.2075 
L 178.029432 47.2075 
L 172.246364 47.2075 
L 166.463295 47.2075 
L 160.680227 47.2075 
L 154.897159 47.2075 
L 149.114091 47.2075 
L 143.331023 47.2075 
L 137.547955 47.2075 
L 131.764886 47.2075 
L 125.981818 47.2075 
L 120.19875 47.2075 
L 114.415682 47.2075 
L 108.632614 47.2075 
L 102.849545 47.2075 
L 97.066477 47.2075 
L 91.283409 47.2075 
L 85.500341 47.2075 
L 79.717273 47.2075 
L 73.934205 47.2075 
L 68.151136 47.2075 
z
" style="fill:#9467bd;fill-opacity:0.2;"/>
   </g>
   <g id="PolyCollection_8">
    <path clip-path="url(#pff743a5c5a)" d="M 68.151136 47.2075 
L 68.151136 47.2075 
L 73.934205 47.215897 
L 79.717273 47.224656 
L 85.500341 47.233326 
L 91.283409 47.238676 
L 97.066477 47.243734 
L 102.849545 47.248142 
L 108.632614 47.252141 
L 114.415682 47.2539 
L 120.19875 47.255332 
L 125.981818 47.257238 
L 131.764886 47.258718 
L 137.547955 47.259305 
L 143.331023 47.258873 
L 149.114091 47.258017 
L 154.897159 47.257969 
L 160.680227 47.257449 
L 166.463295 47.256111 
L 172.246364 47.254892 
L 178.029432 47.254082 
L 183.8125 47.25279 
L 189.595568 47.25081 
L 195.378636 47.249965 
L 201.161705 47.247941 
L 206.944773 47.246134 
L 212.727841 47.244724 
L 218.510909 47.242012 
L 224.293977 47.239937 
L 230.077045 47.237597 
L 235.860114 47.235283 
L 241.643182 47.233274 
L 247.42625 47.230392 
L 253.209318 47.227754 
L 258.992386 47.226538 
L 264.775455 47.222295 
L 270.558523 47.221425 
L 276.341591 47.220942 
L 282.124659 47.220163 
L 287.907727 47.215056 
L 293.690795 47.214874 
L 299.473864 47.214775 
L 299.473864 47.2075 
L 299.473864 47.2075 
L 293.690795 47.2075 
L 287.907727 47.2075 
L 282.124659 47.2075 
L 276.341591 47.2075 
L 270.558523 47.2075 
L 264.775455 47.2075 
L 258.992386 47.2075 
L 253.209318 47.2075 
L 247.42625 47.2075 
L 241.643182 47.2075 
L 235.860114 47.2075 
L 230.077045 47.2075 
L 224.293977 47.2075 
L 218.510909 47.2075 
L 212.727841 47.2075 
L 206.944773 47.212798 
L 201.161705 47.212802 
L 195.378636 47.212846 
L 189.595568 47.212876 
L 183.8125 47.212881 
L 178.029432 47.212909 
L 172.246364 47.212896 
L 166.463295 47.213334 
L 160.680227 47.217262 
L 154.897159 47.217394 
L 149.114091 47.217509 
L 143.331023 47.217618 
L 137.547955 47.221365 
L 131.764886 47.221851 
L 125.981818 47.222418 
L 120.19875 47.225827 
L 114.415682 47.229431 
L 108.632614 47.231997 
L 102.849545 47.237907 
L 97.066477 47.238028 
L 91.283409 47.235846 
L 85.500341 47.228301 
L 79.717273 47.223563 
L 73.934205 47.211665 
L 68.151136 47.2075 
z
" style="fill:#8c564b;fill-opacity:0.2;"/>
   </g>
   <g id="matplotlib.axis_1">
    <g id="xtick_1">
     <g id="line2d_1">
      <defs>
       <path d="M 0 0 
L 0 3.5 
" id="m9422d5b70a" style="stroke:#000000;stroke-width:0.8;"/>
      </defs>
      <g>
       <use style="stroke:#000000;stroke-width:0.8;" x="68.151136" xlink:href="#m9422d5b70a" y="251.94"/>
      </g>
     </g>
     <g id="text_1">
      <!-- 2021 -->
      <g transform="translate(71.462386 289.48)rotate(-90)scale(0.12 -0.12)">
       <defs>
        <path d="M 1228 531 
L 3431 531 
L 3431 0 
L 469 0 
L 469 531 
Q 828 903 1448 1529 
Q 2069 2156 2228 2338 
Q 2531 2678 2651 2914 
Q 2772 3150 2772 3378 
Q 2772 3750 2511 3984 
Q 2250 4219 1831 4219 
Q 1534 4219 1204 4116 
Q 875 4013 500 3803 
L 500 4441 
Q 881 4594 1212 4672 
Q 1544 4750 1819 4750 
Q 2544 4750 2975 4387 
Q 3406 4025 3406 3419 
Q 3406 3131 3298 2873 
Q 3191 2616 2906 2266 
Q 2828 2175 2409 1742 
Q 1991 1309 1228 531 
z
" id="DejaVuSans-32" transform="scale(0.015625)"/>
        <path d="M 2034 4250 
Q 1547 4250 1301 3770 
Q 1056 3291 1056 2328 
Q 1056 1369 1301 889 
Q 1547 409 2034 409 
Q 2525 409 2770 889 
Q 3016 1369 3016 2328 
Q 3016 3291 2770 3770 
Q 2525 4250 2034 4250 
z
M 2034 4750 
Q 2819 4750 3233 4129 
Q 3647 3509 3647 2328 
Q 3647 1150 3233 529 
Q 2819 -91 2034 -91 
Q 1250 -91 836 529 
Q 422 1150 422 2328 
Q 422 3509 836 4129 
Q 1250 4750 2034 4750 
z
" id="DejaVuSans-30" transform="scale(0.015625)"/>
        <path d="M 794 531 
L 1825 531 
L 1825 4091 
L 703 3866 
L 703 4441 
L 1819 4666 
L 2450 4666 
L 2450 531 
L 3481 531 
L 3481 0 
L 794 0 
L 794 531 
z
" id="DejaVuSans-31" transform="scale(0.015625)"/>
       </defs>
       <use xlink:href="#DejaVuSans-32"/>
       <use x="63.623047" xlink:href="#DejaVuSans-30"/>
       <use x="127.246094" xlink:href="#DejaVuSans-32"/>
       <use x="190.869141" xlink:href="#DejaVuSans-31"/>
      </g>
     </g>
    </g>
    <g id="xtick_2">
     <g id="line2d_2">
      <g>
       <use style="stroke:#000000;stroke-width:0.8;" x="91.283409" xlink:href="#m9422d5b70a" y="251.94"/>
      </g>
     </g>
     <g id="text_2">
      <!-- 2022 -->
      <g transform="translate(94.594659 289.48)rotate(-90)scale(0.12 -0.12)">
       <use xlink:href="#DejaVuSans-32"/>
       <use x="63.623047" xlink:href="#DejaVuSans-30"/>
       <use x="127.246094" xlink:href="#DejaVuSans-32"/>
       <use x="190.869141" xlink:href="#DejaVuSans-32"/>
      </g>
     </g>
    </g>
    <g id="xtick_3">
     <g id="line2d_3">
      <g>
       <use style="stroke:#000000;stroke-width:0.8;" x="114.415682" xlink:href="#m9422d5b70a" y="251.94"/>
      </g>
     </g>
     <g id="text_3">
      <!-- 2023 -->
      <g transform="translate(117.726932 289.48)rotate(-90)scale(0.12 -0.12)">
       <defs>
        <path d="M 2597 2516 
Q 3050 2419 3304 2112 
Q 3559 1806 3559 1356 
Q 3559 666 3084 287 
Q 2609 -91 1734 -91 
Q 1441 -91 1130 -33 
Q 819 25 488 141 
L 488 750 
Q 750 597 1062 519 
Q 1375 441 1716 441 
Q 2309 441 2620 675 
Q 2931 909 2931 1356 
Q 2931 1769 2642 2001 
Q 2353 2234 1838 2234 
L 1294 2234 
L 1294 2753 
L 1863 2753 
Q 2328 2753 2575 2939 
Q 2822 3125 2822 3475 
Q 2822 3834 2567 4026 
Q 2313 4219 1838 4219 
Q 1578 4219 1281 4162 
Q 984 4106 628 3988 
L 628 4550 
Q 988 4650 1302 4700 
Q 1616 4750 1894 4750 
Q 2613 4750 3031 4423 
Q 3450 4097 3450 3541 
Q 3450 3153 3228 2886 
Q 3006 2619 2597 2516 
z
" id="DejaVuSans-33" transform="scale(0.015625)"/>
       </defs>
       <use xlink:href="#DejaVuSans-32"/>
       <use x="63.623047" xlink:href="#DejaVuSans-30"/>
       <use x="127.246094" xlink:href="#DejaVuSans-32"/>
       <use x="190.869141" xlink:href="#DejaVuSans-33"/>
      </g>
     </g>
    </g>
    <g id="xtick_4">
     <g id="line2d_4">
      <g>
       <use style="stroke:#000000;stroke-width:0.8;" x="137.547955" xlink:href="#m9422d5b70a" y="251.94"/>
      </g>
     </g>
     <g id="text_4">
      <!-- 2024 -->
      <g transform="translate(140.859205 289.48)rotate(-90)scale(0.12 -0.12)">
       <defs>
        <path d="M 2419 4116 
L 825 1625 
L 2419 1625 
L 2419 4116 
z
M 2253 4666 
L 3047 4666 
L 3047 1625 
L 3713 1625 
L 3713 1100 
L 3047 1100 
L 3047 0 
L 2419 0 
L 2419 1100 
L 313 1100 
L 313 1709 
L 2253 4666 
z
" id="DejaVuSans-34" transform="scale(0.015625)"/>
       </defs>
       <use xlink:href="#DejaVuSans-32"/>
       <use x="63.623047" xlink:href="#DejaVuSans-30"/>
       <use x="127.246094" xlink:href="#DejaVuSans-32"/>
       <use x="190.869141" xlink:href="#DejaVuSans-34"/>
      </g>
     </g>
    </g>
    <g id="xtick_5">
     <g id="line2d_5">
      <g>
       <use style="stroke:#000000;stroke-width:0.8;" x="160.680227" xlink:href="#m9422d5b70a" y="251.94"/>
      </g>
     </g>
     <g id="text_5">
      <!-- 2025 -->
      <g transform="translate(163.991477 289.48)rotate(-90)scale(0.12 -0.12)">
       <defs>
        <path d="M 691 4666 
L 3169 4666 
L 3169 4134 
L 1269 4134 
L 1269 2991 
Q 1406 3038 1543 3061 
Q 1681 3084 1819 3084 
Q 2600 3084 3056 2656 
Q 3513 2228 3513 1497 
Q 3513 744 3044 326 
Q 2575 -91 1722 -91 
Q 1428 -91 1123 -41 
Q 819 9 494 109 
L 494 744 
Q 775 591 1075 516 
Q 1375 441 1709 441 
Q 2250 441 2565 725 
Q 2881 1009 2881 1497 
Q 2881 1984 2565 2268 
Q 2250 2553 1709 2553 
Q 1456 2553 1204 2497 
Q 953 2441 691 2322 
L 691 4666 
z
" id="DejaVuSans-35" transform="scale(0.015625)"/>
       </defs>
       <use xlink:href="#DejaVuSans-32"/>
       <use x="63.623047" xlink:href="#DejaVuSans-30"/>
       <use x="127.246094" xlink:href="#DejaVuSans-32"/>
       <use x="190.869141" xlink:href="#DejaVuSans-35"/>
      </g>
     </g>
    </g>
    <g id="xtick_6">
     <g id="line2d_6">
      <g>
       <use style="stroke:#000000;stroke-width:0.8;" x="183.8125" xlink:href="#m9422d5b70a" y="251.94"/>
      </g>
     </g>
     <g id="text_6">
      <!-- 2026 -->
      <g transform="translate(187.12375 289.48)rotate(-90)scale(0.12 -0.12)">
       <defs>
        <path d="M 2113 2584 
Q 1688 2584 1439 2293 
Q 1191 2003 1191 1497 
Q 1191 994 1439 701 
Q 1688 409 2113 409 
Q 2538 409 2786 701 
Q 3034 994 3034 1497 
Q 3034 2003 2786 2293 
Q 2538 2584 2113 2584 
z
M 3366 4563 
L 3366 3988 
Q 3128 4100 2886 4159 
Q 2644 4219 2406 4219 
Q 1781 4219 1451 3797 
Q 1122 3375 1075 2522 
Q 1259 2794 1537 2939 
Q 1816 3084 2150 3084 
Q 2853 3084 3261 2657 
Q 3669 2231 3669 1497 
Q 3669 778 3244 343 
Q 2819 -91 2113 -91 
Q 1303 -91 875 529 
Q 447 1150 447 2328 
Q 447 3434 972 4092 
Q 1497 4750 2381 4750 
Q 2619 4750 2861 4703 
Q 3103 4656 3366 4563 
z
" id="DejaVuSans-36" transform="scale(0.015625)"/>
       </defs>
       <use xlink:href="#DejaVuSans-32"/>
       <use x="63.623047" xlink:href="#DejaVuSans-30"/>
       <use x="127.246094" xlink:href="#DejaVuSans-32"/>
       <use x="190.869141" xlink:href="#DejaVuSans-36"/>
      </g>
     </g>
    </g>
    <g id="xtick_7">
     <g id="line2d_7">
      <g>
       <use style="stroke:#000000;stroke-width:0.8;" x="206.944773" xlink:href="#m9422d5b70a" y="251.94"/>
      </g>
     </g>
     <g id="text_7">
      <!-- 2027 -->
      <g transform="translate(210.256023 289.48)rotate(-90)scale(0.12 -0.12)">
       <defs>
        <path d="M 525 4666 
L 3525 4666 
L 3525 4397 
L 1831 0 
L 1172 0 
L 2766 4134 
L 525 4134 
L 525 4666 
z
" id="DejaVuSans-37" transform="scale(0.015625)"/>
       </defs>
       <use xlink:href="#DejaVuSans-32"/>
       <use x="63.623047" xlink:href="#DejaVuSans-30"/>
       <use x="127.246094" xlink:href="#DejaVuSans-32"/>
       <use x="190.869141" xlink:href="#DejaVuSans-37"/>
      </g>
     </g>
    </g>
    <g id="xtick_8">
     <g id="line2d_8">
      <g>
       <use style="stroke:#000000;stroke-width:0.8;" x="230.077045" xlink:href="#m9422d5b70a" y="251.94"/>
      </g>
     </g>
     <g id="text_8">
      <!-- 2028 -->
      <g transform="translate(233.388295 289.48)rotate(-90)scale(0.12 -0.12)">
       <defs>
        <path d="M 2034 2216 
Q 1584 2216 1326 1975 
Q 1069 1734 1069 1313 
Q 1069 891 1326 650 
Q 1584 409 2034 409 
Q 2484 409 2743 651 
Q 3003 894 3003 1313 
Q 3003 1734 2745 1975 
Q 2488 2216 2034 2216 
z
M 1403 2484 
Q 997 2584 770 2862 
Q 544 3141 544 3541 
Q 544 4100 942 4425 
Q 1341 4750 2034 4750 
Q 2731 4750 3128 4425 
Q 3525 4100 3525 3541 
Q 3525 3141 3298 2862 
Q 3072 2584 2669 2484 
Q 3125 2378 3379 2068 
Q 3634 1759 3634 1313 
Q 3634 634 3220 271 
Q 2806 -91 2034 -91 
Q 1263 -91 848 271 
Q 434 634 434 1313 
Q 434 1759 690 2068 
Q 947 2378 1403 2484 
z
M 1172 3481 
Q 1172 3119 1398 2916 
Q 1625 2713 2034 2713 
Q 2441 2713 2670 2916 
Q 2900 3119 2900 3481 
Q 2900 3844 2670 4047 
Q 2441 4250 2034 4250 
Q 1625 4250 1398 4047 
Q 1172 3844 1172 3481 
z
" id="DejaVuSans-38" transform="scale(0.015625)"/>
       </defs>
       <use xlink:href="#DejaVuSans-32"/>
       <use x="63.623047" xlink:href="#DejaVuSans-30"/>
       <use x="127.246094" xlink:href="#DejaVuSans-32"/>
       <use x="190.869141" xlink:href="#DejaVuSans-38"/>
      </g>
     </g>
    </g>
    <g id="xtick_9">
     <g id="line2d_9">
      <g>
       <use style="stroke:#000000;stroke-width:0.8;" x="253.209318" xlink:href="#m9422d5b70a" y="251.94"/>
      </g>
     </g>
     <g id="text_9">
      <!-- 2029 -->
      <g transform="translate(256.520568 289.48)rotate(-90)scale(0.12 -0.12)">
       <defs>
        <path d="M 703 97 
L 703 672 
Q 941 559 1184 500 
Q 1428 441 1663 441 
Q 2288 441 2617 861 
Q 2947 1281 2994 2138 
Q 2813 1869 2534 1725 
Q 2256 1581 1919 1581 
Q 1219 1581 811 2004 
Q 403 2428 403 3163 
Q 403 3881 828 4315 
Q 1253 4750 1959 4750 
Q 2769 4750 3195 4129 
Q 3622 3509 3622 2328 
Q 3622 1225 3098 567 
Q 2575 -91 1691 -91 
Q 1453 -91 1209 -44 
Q 966 3 703 97 
z
M 1959 2075 
Q 2384 2075 2632 2365 
Q 2881 2656 2881 3163 
Q 2881 3666 2632 3958 
Q 2384 4250 1959 4250 
Q 1534 4250 1286 3958 
Q 1038 3666 1038 3163 
Q 1038 2656 1286 2365 
Q 1534 2075 1959 2075 
z
" id="DejaVuSans-39" transform="scale(0.015625)"/>
       </defs>
       <use xlink:href="#DejaVuSans-32"/>
       <use x="63.623047" xlink:href="#DejaVuSans-30"/>
       <use x="127.246094" xlink:href="#DejaVuSans-32"/>
       <use x="190.869141" xlink:href="#DejaVuSans-39"/>
      </g>
     </g>
    </g>
    <g id="xtick_10">
     <g id="line2d_10">
      <g>
       <use style="stroke:#000000;stroke-width:0.8;" x="276.341591" xlink:href="#m9422d5b70a" y="251.94"/>
      </g>
     </g>
     <g id="text_10">
      <!-- 2030 -->
      <g transform="translate(279.652841 289.48)rotate(-90)scale(0.12 -0.12)">
       <use xlink:href="#DejaVuSans-32"/>
       <use x="63.623047" xlink:href="#DejaVuSans-30"/>
       <use x="127.246094" xlink:href="#DejaVuSans-33"/>
       <use x="190.869141" xlink:href="#DejaVuSans-30"/>
      </g>
     </g>
    </g>
    <g id="xtick_11">
     <g id="line2d_11">
      <g>
       <use style="stroke:#000000;stroke-width:0.8;" x="299.473864" xlink:href="#m9422d5b70a" y="251.94"/>
      </g>
     </g>
     <g id="text_11">
      <!-- 2031 -->
      <g transform="translate(302.785114 289.48)rotate(-90)scale(0.12 -0.12)">
       <use xlink:href="#DejaVuSans-32"/>
       <use x="63.623047" xlink:href="#DejaVuSans-30"/>
       <use x="127.246094" xlink:href="#DejaVuSans-33"/>
       <use x="190.869141" xlink:href="#DejaVuSans-31"/>
      </g>
     </g>
    </g>
   </g>
   <g id="matplotlib.axis_2">
    <g id="ytick_1">
     <g id="line2d_12">
      <defs>
       <path d="M 0 0 
L -3.5 0 
" id="m165e96f45f" style="stroke:#000000;stroke-width:0.8;"/>
      </defs>
      <g>
       <use style="stroke:#000000;stroke-width:0.8;" x="56.585" xlink:href="#m165e96f45f" y="251.94"/>
      </g>
     </g>
     <g id="text_12">
      <!-- −14% -->
      <g transform="translate(12.8575 256.499063)scale(0.12 -0.12)">
       <defs>
        <path d="M 678 2272 
L 4684 2272 
L 4684 1741 
L 678 1741 
L 678 2272 
z
" id="DejaVuSans-2212" transform="scale(0.015625)"/>
        <path d="M 4653 2053 
Q 4381 2053 4226 1822 
Q 4072 1591 4072 1178 
Q 4072 772 4226 539 
Q 4381 306 4653 306 
Q 4919 306 5073 539 
Q 5228 772 5228 1178 
Q 5228 1588 5073 1820 
Q 4919 2053 4653 2053 
z
M 4653 2450 
Q 5147 2450 5437 2106 
Q 5728 1763 5728 1178 
Q 5728 594 5436 251 
Q 5144 -91 4653 -91 
Q 4153 -91 3862 251 
Q 3572 594 3572 1178 
Q 3572 1766 3864 2108 
Q 4156 2450 4653 2450 
z
M 1428 4353 
Q 1159 4353 1004 4120 
Q 850 3888 850 3481 
Q 850 3069 1003 2837 
Q 1156 2606 1428 2606 
Q 1700 2606 1854 2837 
Q 2009 3069 2009 3481 
Q 2009 3884 1853 4118 
Q 1697 4353 1428 4353 
z
M 4250 4750 
L 4750 4750 
L 1831 -91 
L 1331 -91 
L 4250 4750 
z
M 1428 4750 
Q 1922 4750 2215 4408 
Q 2509 4066 2509 3481 
Q 2509 2891 2217 2550 
Q 1925 2209 1428 2209 
Q 931 2209 642 2551 
Q 353 2894 353 3481 
Q 353 4063 643 4406 
Q 934 4750 1428 4750 
z
" id="DejaVuSans-25" transform="scale(0.015625)"/>
       </defs>
       <use xlink:href="#DejaVuSans-2212"/>
       <use x="83.789062" xlink:href="#DejaVuSans-31"/>
       <use x="147.412109" xlink:href="#DejaVuSans-34"/>
       <use x="211.035156" xlink:href="#DejaVuSans-25"/>
      </g>
     </g>
    </g>
    <g id="ytick_2">
     <g id="line2d_13">
      <g>
       <use style="stroke:#000000;stroke-width:0.8;" x="56.585" xlink:href="#m165e96f45f" y="222.6925"/>
      </g>
     </g>
     <g id="text_13">
      <!-- −12% -->
      <g transform="translate(12.8575 227.251563)scale(0.12 -0.12)">
       <use xlink:href="#DejaVuSans-2212"/>
       <use x="83.789062" xlink:href="#DejaVuSans-31"/>
       <use x="147.412109" xlink:href="#DejaVuSans-32"/>
       <use x="211.035156" xlink:href="#DejaVuSans-25"/>
      </g>
     </g>
    </g>
    <g id="ytick_3">
     <g id="line2d_14">
      <g>
       <use style="stroke:#000000;stroke-width:0.8;" x="56.585" xlink:href="#m165e96f45f" y="193.445"/>
      </g>
     </g>
     <g id="text_14">
      <!-- −10% -->
      <g transform="translate(12.8575 198.004063)scale(0.12 -0.12)">
       <use xlink:href="#DejaVuSans-2212"/>
       <use x="83.789062" xlink:href="#DejaVuSans-31"/>
       <use x="147.412109" xlink:href="#DejaVuSans-30"/>
       <use x="211.035156" xlink:href="#DejaVuSans-25"/>
      </g>
     </g>
    </g>
    <g id="ytick_4">
     <g id="line2d_15">
      <g>
       <use style="stroke:#000000;stroke-width:0.8;" x="56.585" xlink:href="#m165e96f45f" y="164.1975"/>
      </g>
     </g>
     <g id="text_15">
      <!-- −8% -->
      <g transform="translate(20.4925 168.756563)scale(0.12 -0.12)">
       <use xlink:href="#DejaVuSans-2212"/>
       <use x="83.789062" xlink:href="#DejaVuSans-38"/>
       <use x="147.412109" xlink:href="#DejaVuSans-25"/>
      </g>
     </g>
    </g>
    <g id="ytick_5">
     <g id="line2d_16">
      <g>
       <use style="stroke:#000000;stroke-width:0.8;" x="56.585" xlink:href="#m165e96f45f" y="134.95"/>
      </g>
     </g>
     <g id="text_16">
      <!-- −6% -->
      <g transform="translate(20.4925 139.509063)scale(0.12 -0.12)">
       <use xlink:href="#DejaVuSans-2212"/>
       <use x="83.789062" xlink:href="#DejaVuSans-36"/>
       <use x="147.412109" xlink:href="#DejaVuSans-25"/>
      </g>
     </g>
    </g>
    <g id="ytick_6">
     <g id="line2d_17">
      <g>
       <use style="stroke:#000000;stroke-width:0.8;" x="56.585" xlink:href="#m165e96f45f" y="105.7025"/>
      </g>
     </g>
     <g id="text_17">
      <!-- −4% -->
      <g transform="translate(20.4925 110.261562)scale(0.12 -0.12)">
       <use xlink:href="#DejaVuSans-2212"/>
       <use x="83.789062" xlink:href="#DejaVuSans-34"/>
       <use x="147.412109" xlink:href="#DejaVuSans-25"/>
      </g>
     </g>
    </g>
    <g id="ytick_7">
     <g id="line2d_18">
      <g>
       <use style="stroke:#000000;stroke-width:0.8;" x="56.585" xlink:href="#m165e96f45f" y="76.455"/>
      </g>
     </g>
     <g id="text_18">
      <!-- −2% -->
      <g transform="translate(20.4925 81.014062)scale(0.12 -0.12)">
       <use xlink:href="#DejaVuSans-2212"/>
       <use x="83.789062" xlink:href="#DejaVuSans-32"/>
       <use x="147.412109" xlink:href="#DejaVuSans-25"/>
      </g>
     </g>
    </g>
    <g id="ytick_8">
     <g id="line2d_19">
      <g>
       <use style="stroke:#000000;stroke-width:0.8;" x="56.585" xlink:href="#m165e96f45f" y="47.2075"/>
      </g>
     </g>
     <g id="text_19">
      <!-- 0% -->
      <g transform="translate(30.548125 51.766562)scale(0.12 -0.12)">
       <use xlink:href="#DejaVuSans-30"/>
       <use x="63.623047" xlink:href="#DejaVuSans-25"/>
      </g>
     </g>
    </g>
    <g id="ytick_9">
     <g id="line2d_20">
      <g>
       <use style="stroke:#000000;stroke-width:0.8;" x="56.585" xlink:href="#m165e96f45f" y="17.96"/>
      </g>
     </g>
     <g id="text_20">
      <!-- 2% -->
      <g transform="translate(30.548125 22.519062)scale(0.12 -0.12)">
       <use xlink:href="#DejaVuSans-32"/>
       <use x="63.623047" xlink:href="#DejaVuSans-25"/>
      </g>
     </g>
    </g>
   </g>
   <g id="line2d_21">
    <path clip-path="url(#pff743a5c5a)" d="M 68.151136 47.2075 
L 73.934205 47.261855 
L 79.717273 47.317014 
L 85.500341 47.352124 
L 91.283409 47.37474 
L 97.066477 47.389869 
L 102.849545 47.394651 
L 108.632614 47.396969 
L 114.415682 47.396727 
L 120.19875 47.35142 
L 125.981818 47.301796 
L 131.764886 47.271096 
L 137.547955 47.254278 
L 143.331023 47.24594 
L 149.114091 47.237412 
L 154.897159 47.234739 
L 160.680227 47.232005 
L 166.463295 47.229205 
L 172.246364 47.226337 
L 178.029432 47.226577 
L 183.8125 47.223602 
L 189.595568 47.220549 
L 195.378636 47.220721 
L 201.161705 47.217547 
L 206.944773 47.21768 
L 212.727841 47.217817 
L 218.510909 47.217955 
L 224.293977 47.214564 
L 230.077045 47.214659 
L 235.860114 47.214755 
L 241.643182 47.211176 
L 247.42625 47.214951 
L 253.209318 47.215051 
L 258.992386 47.211326 
L 264.775455 47.211377 
L 270.558523 47.211425 
L 276.341591 47.21147 
L 282.124659 47.2075 
L 287.907727 47.2075 
L 293.690795 47.2075 
L 299.473864 47.2075 
" style="fill:none;stroke:#dc143c;stroke-linecap:square;stroke-width:1.5;"/>
   </g>
   <g id="line2d_22">
    <path clip-path="url(#pff743a5c5a)" d="M 68.151136 47.2075 
L 299.473864 47.2075 
" style="fill:none;stroke:#000000;stroke-dasharray:1,1.65;stroke-dashoffset:0;"/>
   </g>
   <g id="line2d_23">
    <path clip-path="url(#pff743a5c5a)" d="M 68.151136 47.2075 
L 73.934205 47.216089 
L 79.717273 47.22493 
L 85.500341 47.234036 
L 91.283409 47.238931 
L 97.066477 47.243978 
L 102.849545 47.249184 
L 108.632614 47.254556 
L 114.415682 47.255317 
L 120.19875 47.251237 
L 125.981818 47.247003 
L 131.764886 47.242616 
L 137.547955 47.238074 
L 143.331023 47.238552 
L 149.114091 47.233778 
L 154.897159 47.228846 
L 160.680227 47.229172 
L 166.463295 47.224 
L 172.246364 47.224248 
L 178.029432 47.224498 
L 183.8125 47.224749 
L 189.595568 47.219168 
L 195.378636 47.219337 
L 201.161705 47.219507 
L 206.944773 47.219677 
L 212.727841 47.213674 
L 218.510909 47.21376 
L 224.293977 47.213846 
L 230.077045 47.213933 
L 235.860114 47.214019 
L 241.643182 47.214106 
L 247.42625 47.214192 
L 253.209318 47.214279 
L 258.992386 47.214366 
L 264.775455 47.214452 
L 270.558523 47.2075 
L 276.341591 47.214622 
L 282.124659 47.2075 
L 287.907727 47.2075 
L 293.690795 47.214869 
L 299.473864 47.214949 
" style="fill:none;stroke:#1e90ff;stroke-dasharray:5.55,2.4;stroke-dashoffset:0;stroke-width:1.5;"/>
   </g>
   <g id="line2d_24">
    <path clip-path="url(#pff743a5c5a)" d="M 68.151136 47.2075 
L 299.473864 47.2075 
" style="fill:none;stroke:#000000;stroke-dasharray:1,1.65;stroke-dashoffset:0;"/>
   </g>
   <g id="patch_3">
    <path d="M 56.585 251.94 
L 56.585 17.96 
" style="fill:none;stroke:#000000;stroke-linecap:square;stroke-linejoin:miter;stroke-width:0.8;"/>
   </g>
   <g id="patch_4">
    <path d="M 311.04 251.94 
L 311.04 17.96 
" style="fill:none;stroke:#000000;stroke-linecap:square;stroke-linejoin:miter;stroke-width:0.8;"/>
   </g>
   <g id="patch_5">
    <path d="M 56.585 251.94 
L 311.04 251.94 
" style="fill:none;stroke:#000000;stroke-linecap:square;stroke-linejoin:miter;stroke-width:0.8;"/>
   </g>
   <g id="patch_6">
    <path d="M 56.585 17.96 
L 311.04 17.96 
" style="fill:none;stroke:#000000;stroke-linecap:square;stroke-linejoin:miter;stroke-width:0.8;"/>
   </g>
  </g>
 </g>
 <defs>
  <clipPath id="pff743a5c5a">
   <rect height="233.98" width="254.455" x="56.585" y="17.96"/>
  </clipPath>
 </defs>
</svg>
