<?xml version="1.0" encoding="utf-8" standalone="no"?>
<!DOCTYPE svg PUBLIC "-//W3C//DTD SVG 1.1//EN"
  "http://www.w3.org/Graphics/SVG/1.1/DTD/svg11.dtd">
<svg height="302.4pt" version="1.1" viewBox="0 0 324 302.4" width="324pt" xmlns="http://www.w3.org/2000/svg" xmlns:xlink="http://www.w3.org/1999/xlink">
 <metadata>
  <rdf:RDF xmlns:cc="http://creativecommons.org/ns#" xmlns:dc="http://purl.org/dc/elements/1.1/" xmlns:rdf="http://www.w3.org/1999/02/22-rdf-syntax-ns#">
   <cc:Work>
    <dc:type rdf:resource="http://purl.org/dc/dcmitype/StillImage"/>
    <dc:date>2021-08-09T13:18:45.022604</dc:date>
    <dc:format>image/svg+xml</dc:format>
    <dc:creator>
     <cc:Agent>
      <dc:title>Matplotlib v3.4.0rc1, https://matplotlib.org/</dc:title>
     </cc:Agent>
    </dc:creator>
   </cc:Work>
  </rdf:RDF>
 </metadata>
 <defs>
  <style type="text/css">*{stroke-linecap:butt;stroke-linejoin:round;}</style>
 </defs>
 <g id="figure_1">
  <g id="patch_1">
   <path d="M 0 302.4 
L 324 302.4 
L 324 0 
L 0 0 
z
" style="fill:none;"/>
  </g>
  <g id="axes_1">
   <g id="patch_2">
    <path d="M 56.585 251.94 
L 311.04 251.94 
L 311.04 17.96 
L 56.585 17.96 
z
" style="fill:#ffffff;"/>
   </g>
   <g id="PolyCollection_1">
    <path clip-path="url(#p8082a620d9)" d="M 68.151136 47.2075 
L 68.151136 47.2075 
L 73.934205 47.264544 
L 79.717273 47.322432 
L 85.500341 47.359409 
L 91.283409 47.382447 
L 97.066477 47.395652 
L 102.849545 47.402216 
L 108.632614 47.405033 
L 114.415682 47.405407 
L 120.19875 47.404362 
L 125.981818 47.402334 
L 131.764886 47.400189 
L 137.547955 47.397871 
L 143.331023 47.393349 
L 149.114091 47.387434 
L 154.897159 47.382969 
L 160.680227 47.379209 
L 166.463295 47.375298 
L 172.246364 47.371817 
L 178.029432 47.368645 
L 183.8125 47.364648 
L 189.595568 47.361992 
L 195.378636 47.359227 
L 201.161705 47.355826 
L 206.944773 47.352564 
L 212.727841 47.348883 
L 218.510909 47.344475 
L 224.293977 47.34146 
L 230.077045 47.336635 
L 235.860114 47.33178 
L 241.643182 47.327677 
L 247.42625 47.322639 
L 253.209318 47.316982 
L 258.992386 47.313828 
L 264.775455 47.308434 
L 270.558523 47.303403 
L 276.341591 47.298315 
L 282.124659 47.287215 
L 287.907727 47.259101 
L 293.690795 47.237563 
L 299.473864 47.228525 
L 299.473864 47.200551 
L 299.473864 47.200551 
L 293.690795 47.200745 
L 287.907727 47.200984 
L 282.124659 47.203361 
L 276.341591 47.203608 
L 270.558523 47.203778 
L 264.775455 47.203892 
L 258.992386 47.204025 
L 253.209318 47.204111 
L 247.42625 47.204224 
L 241.643182 47.204308 
L 235.860114 47.204433 
L 230.077045 47.204625 
L 224.293977 47.2075 
L 218.510909 47.2075 
L 212.727841 47.2075 
L 206.944773 47.2075 
L 201.161705 47.2075 
L 195.378636 47.2075 
L 189.595568 47.2075 
L 183.8125 47.2075 
L 178.029432 47.2075 
L 172.246364 47.2075 
L 166.463295 47.2075 
L 160.680227 47.2075 
L 154.897159 47.2075 
L 149.114091 47.2075 
L 143.331023 47.2075 
L 137.547955 47.2075 
L 131.764886 47.2075 
L 125.981818 47.2075 
L 120.19875 47.2075 
L 114.415682 47.2075 
L 108.632614 47.2075 
L 102.849545 47.2075 
L 97.066477 47.2075 
L 91.283409 47.2075 
L 85.500341 47.2075 
L 79.717273 47.2075 
L 73.934205 47.2075 
L 68.151136 47.2075 
z
" style="fill:#dc143c;fill-opacity:0.2;"/>
   </g>
   <g id="PolyCollection_2">
    <path clip-path="url(#p8082a620d9)" d="M 68.151136 47.2075 
L 68.151136 47.2075 
L 73.934205 47.216277 
L 79.717273 47.228276 
L 85.500341 47.234589 
L 91.283409 47.243221 
L 97.066477 47.248604 
L 102.849545 47.252667 
L 108.632614 47.255365 
L 114.415682 47.259313 
L 120.19875 47.261586 
L 125.981818 47.262907 
L 131.764886 47.264244 
L 137.547955 47.265529 
L 143.331023 47.266322 
L 149.114091 47.266777 
L 154.897159 47.267078 
L 160.680227 47.267529 
L 166.463295 47.267556 
L 172.246364 47.266835 
L 178.029432 47.265662 
L 183.8125 47.265753 
L 189.595568 47.264989 
L 195.378636 47.263646 
L 201.161705 47.262516 
L 206.944773 47.261812 
L 212.727841 47.261148 
L 218.510909 47.258211 
L 224.293977 47.257307 
L 230.077045 47.255905 
L 235.860114 47.253259 
L 241.643182 47.251052 
L 247.42625 47.250016 
L 253.209318 47.246261 
L 258.992386 47.244906 
L 264.775455 47.243424 
L 270.558523 47.240102 
L 276.341591 47.238263 
L 282.124659 47.234832 
L 287.907727 47.233139 
L 293.690795 47.229381 
L 299.473864 47.227866 
L 299.473864 47.201658 
L 299.473864 47.201658 
L 293.690795 47.2075 
L 287.907727 47.2075 
L 282.124659 47.2075 
L 276.341591 47.2075 
L 270.558523 47.2075 
L 264.775455 47.2075 
L 258.992386 47.2075 
L 253.209318 47.2075 
L 247.42625 47.2075 
L 241.643182 47.2075 
L 235.860114 47.2075 
L 230.077045 47.2075 
L 224.293977 47.2075 
L 218.510909 47.2075 
L 212.727841 47.2075 
L 206.944773 47.2075 
L 201.161705 47.2075 
L 195.378636 47.2075 
L 189.595568 47.2075 
L 183.8125 47.2075 
L 178.029432 47.2075 
L 172.246364 47.2075 
L 166.463295 47.2075 
L 160.680227 47.2075 
L 154.897159 47.2075 
L 149.114091 47.2075 
L 143.331023 47.2075 
L 137.547955 47.2075 
L 131.764886 47.2075 
L 125.981818 47.2075 
L 120.19875 47.2075 
L 114.415682 47.2075 
L 108.632614 47.2075 
L 102.849545 47.2075 
L 97.066477 47.2075 
L 91.283409 47.2075 
L 85.500341 47.2075 
L 79.717273 47.2075 
L 73.934205 47.2075 
L 68.151136 47.2075 
z
" style="fill:#1e90ff;fill-opacity:0.2;"/>
   </g>
   <g id="matplotlib.axis_1">
    <g id="xtick_1">
     <g id="line2d_1">
      <defs>
       <path d="M 0 0 
L 0 3.5 
" id="m06fb66218e" style="stroke:#000000;stroke-width:0.8;"/>
      </defs>
      <g>
       <use style="stroke:#000000;stroke-width:0.8;" x="68.151136" xlink:href="#m06fb66218e" y="251.94"/>
      </g>
     </g>
     <g id="text_1">
      <!-- 2021 -->
      <g transform="translate(71.462386 289.48)rotate(-90)scale(0.12 -0.12)">
       <defs>
        <path d="M 1228 531 
L 3431 531 
L 3431 0 
L 469 0 
L 469 531 
Q 828 903 1448 1529 
Q 2069 2156 2228 2338 
Q 2531 2678 2651 2914 
Q 2772 3150 2772 3378 
Q 2772 3750 2511 3984 
Q 2250 4219 1831 4219 
Q 1534 4219 1204 4116 
Q 875 4013 500 3803 
L 500 4441 
Q 881 4594 1212 4672 
Q 1544 4750 1819 4750 
Q 2544 4750 2975 4387 
Q 3406 4025 3406 3419 
Q 3406 3131 3298 2873 
Q 3191 2616 2906 2266 
Q 2828 2175 2409 1742 
Q 1991 1309 1228 531 
z
" id="DejaVuSans-32" transform="scale(0.015625)"/>
        <path d="M 2034 4250 
Q 1547 4250 1301 3770 
Q 1056 3291 1056 2328 
Q 1056 1369 1301 889 
Q 1547 409 2034 409 
Q 2525 409 2770 889 
Q 3016 1369 3016 2328 
Q 3016 3291 2770 3770 
Q 2525 4250 2034 4250 
z
M 2034 4750 
Q 2819 4750 3233 4129 
Q 3647 3509 3647 2328 
Q 3647 1150 3233 529 
Q 2819 -91 2034 -91 
Q 1250 -91 836 529 
Q 422 1150 422 2328 
Q 422 3509 836 4129 
Q 1250 4750 2034 4750 
z
" id="DejaVuSans-30" transform="scale(0.015625)"/>
        <path d="M 794 531 
L 1825 531 
L 1825 4091 
L 703 3866 
L 703 4441 
L 1819 4666 
L 2450 4666 
L 2450 531 
L 3481 531 
L 3481 0 
L 794 0 
L 794 531 
z
" id="DejaVuSans-31" transform="scale(0.015625)"/>
       </defs>
       <use xlink:href="#DejaVuSans-32"/>
       <use x="63.623047" xlink:href="#DejaVuSans-30"/>
       <use x="127.246094" xlink:href="#DejaVuSans-32"/>
       <use x="190.869141" xlink:href="#DejaVuSans-31"/>
      </g>
     </g>
    </g>
    <g id="xtick_2">
     <g id="line2d_2">
      <g>
       <use style="stroke:#000000;stroke-width:0.8;" x="91.283409" xlink:href="#m06fb66218e" y="251.94"/>
      </g>
     </g>
     <g id="text_2">
      <!-- 2022 -->
      <g transform="translate(94.594659 289.48)rotate(-90)scale(0.12 -0.12)">
       <use xlink:href="#DejaVuSans-32"/>
       <use x="63.623047" xlink:href="#DejaVuSans-30"/>
       <use x="127.246094" xlink:href="#DejaVuSans-32"/>
       <use x="190.869141" xlink:href="#DejaVuSans-32"/>
      </g>
     </g>
    </g>
    <g id="xtick_3">
     <g id="line2d_3">
      <g>
       <use style="stroke:#000000;stroke-width:0.8;" x="114.415682" xlink:href="#m06fb66218e" y="251.94"/>
      </g>
     </g>
     <g id="text_3">
      <!-- 2023 -->
      <g transform="translate(117.726932 289.48)rotate(-90)scale(0.12 -0.12)">
       <defs>
        <path d="M 2597 2516 
Q 3050 2419 3304 2112 
Q 3559 1806 3559 1356 
Q 3559 666 3084 287 
Q 2609 -91 1734 -91 
Q 1441 -91 1130 -33 
Q 819 25 488 141 
L 488 750 
Q 750 597 1062 519 
Q 1375 441 1716 441 
Q 2309 441 2620 675 
Q 2931 909 2931 1356 
Q 2931 1769 2642 2001 
Q 2353 2234 1838 2234 
L 1294 2234 
L 1294 2753 
L 1863 2753 
Q 2328 2753 2575 2939 
Q 2822 3125 2822 3475 
Q 2822 3834 2567 4026 
Q 2313 4219 1838 4219 
Q 1578 4219 1281 4162 
Q 984 4106 628 3988 
L 628 4550 
Q 988 4650 1302 4700 
Q 1616 4750 1894 4750 
Q 2613 4750 3031 4423 
Q 3450 4097 3450 3541 
Q 3450 3153 3228 2886 
Q 3006 2619 2597 2516 
z
" id="DejaVuSans-33" transform="scale(0.015625)"/>
       </defs>
       <use xlink:href="#DejaVuSans-32"/>
       <use x="63.623047" xlink:href="#DejaVuSans-30"/>
       <use x="127.246094" xlink:href="#DejaVuSans-32"/>
       <use x="190.869141" xlink:href="#DejaVuSans-33"/>
      </g>
     </g>
    </g>
    <g id="xtick_4">
     <g id="line2d_4">
      <g>
       <use style="stroke:#000000;stroke-width:0.8;" x="137.547955" xlink:href="#m06fb66218e" y="251.94"/>
      </g>
     </g>
     <g id="text_4">
      <!-- 2024 -->
      <g transform="translate(140.859205 289.48)rotate(-90)scale(0.12 -0.12)">
       <defs>
        <path d="M 2419 4116 
L 825 1625 
L 2419 1625 
L 2419 4116 
z
M 2253 4666 
L 3047 4666 
L 3047 1625 
L 3713 1625 
L 3713 1100 
L 3047 1100 
L 3047 0 
L 2419 0 
L 2419 1100 
L 313 1100 
L 313 1709 
L 2253 4666 
z
" id="DejaVuSans-34" transform="scale(0.015625)"/>
       </defs>
       <use xlink:href="#DejaVuSans-32"/>
       <use x="63.623047" xlink:href="#DejaVuSans-30"/>
       <use x="127.246094" xlink:href="#DejaVuSans-32"/>
       <use x="190.869141" xlink:href="#DejaVuSans-34"/>
      </g>
     </g>
    </g>
    <g id="xtick_5">
     <g id="line2d_5">
      <g>
       <use style="stroke:#000000;stroke-width:0.8;" x="160.680227" xlink:href="#m06fb66218e" y="251.94"/>
      </g>
     </g>
     <g id="text_5">
      <!-- 2025 -->
      <g transform="translate(163.991477 289.48)rotate(-90)scale(0.12 -0.12)">
       <defs>
        <path d="M 691 4666 
L 3169 4666 
L 3169 4134 
L 1269 4134 
L 1269 2991 
Q 1406 3038 1543 3061 
Q 1681 3084 1819 3084 
Q 2600 3084 3056 2656 
Q 3513 2228 3513 1497 
Q 3513 744 3044 326 
Q 2575 -91 1722 -91 
Q 1428 -91 1123 -41 
Q 819 9 494 109 
L 494 744 
Q 775 591 1075 516 
Q 1375 441 1709 441 
Q 2250 441 2565 725 
Q 2881 1009 2881 1497 
Q 2881 1984 2565 2268 
Q 2250 2553 1709 2553 
Q 1456 2553 1204 2497 
Q 953 2441 691 2322 
L 691 4666 
z
" id="DejaVuSans-35" transform="scale(0.015625)"/>
       </defs>
       <use xlink:href="#DejaVuSans-32"/>
       <use x="63.623047" xlink:href="#DejaVuSans-30"/>
       <use x="127.246094" xlink:href="#DejaVuSans-32"/>
       <use x="190.869141" xlink:href="#DejaVuSans-35"/>
      </g>
     </g>
    </g>
    <g id="xtick_6">
     <g id="line2d_6">
      <g>
       <use style="stroke:#000000;stroke-width:0.8;" x="183.8125" xlink:href="#m06fb66218e" y="251.94"/>
      </g>
     </g>
     <g id="text_6">
      <!-- 2026 -->
      <g transform="translate(187.12375 289.48)rotate(-90)scale(0.12 -0.12)">
       <defs>
        <path d="M 2113 2584 
Q 1688 2584 1439 2293 
Q 1191 2003 1191 1497 
Q 1191 994 1439 701 
Q 1688 409 2113 409 
Q 2538 409 2786 701 
Q 3034 994 3034 1497 
Q 3034 2003 2786 2293 
Q 2538 2584 2113 2584 
z
M 3366 4563 
L 3366 3988 
Q 3128 4100 2886 4159 
Q 2644 4219 2406 4219 
Q 1781 4219 1451 3797 
Q 1122 3375 1075 2522 
Q 1259 2794 1537 2939 
Q 1816 3084 2150 3084 
Q 2853 3084 3261 2657 
Q 3669 2231 3669 1497 
Q 3669 778 3244 343 
Q 2819 -91 2113 -91 
Q 1303 -91 875 529 
Q 447 1150 447 2328 
Q 447 3434 972 4092 
Q 1497 4750 2381 4750 
Q 2619 4750 2861 4703 
Q 3103 4656 3366 4563 
z
" id="DejaVuSans-36" transform="scale(0.015625)"/>
       </defs>
       <use xlink:href="#DejaVuSans-32"/>
       <use x="63.623047" xlink:href="#DejaVuSans-30"/>
       <use x="127.246094" xlink:href="#DejaVuSans-32"/>
       <use x="190.869141" xlink:href="#DejaVuSans-36"/>
      </g>
     </g>
    </g>
    <g id="xtick_7">
     <g id="line2d_7">
      <g>
       <use style="stroke:#000000;stroke-width:0.8;" x="206.944773" xlink:href="#m06fb66218e" y="251.94"/>
      </g>
     </g>
     <g id="text_7">
      <!-- 2027 -->
      <g transform="translate(210.256023 289.48)rotate(-90)scale(0.12 -0.12)">
       <defs>
        <path d="M 525 4666 
L 3525 4666 
L 3525 4397 
L 1831 0 
L 1172 0 
L 2766 4134 
L 525 4134 
L 525 4666 
z
" id="DejaVuSans-37" transform="scale(0.015625)"/>
       </defs>
       <use xlink:href="#DejaVuSans-32"/>
       <use x="63.623047" xlink:href="#DejaVuSans-30"/>
       <use x="127.246094" xlink:href="#DejaVuSans-32"/>
       <use x="190.869141" xlink:href="#DejaVuSans-37"/>
      </g>
     </g>
    </g>
    <g id="xtick_8">
     <g id="line2d_8">
      <g>
       <use style="stroke:#000000;stroke-width:0.8;" x="230.077045" xlink:href="#m06fb66218e" y="251.94"/>
      </g>
     </g>
     <g id="text_8">
      <!-- 2028 -->
      <g transform="translate(233.388295 289.48)rotate(-90)scale(0.12 -0.12)">
       <defs>
        <path d="M 2034 2216 
Q 1584 2216 1326 1975 
Q 1069 1734 1069 1313 
Q 1069 891 1326 650 
Q 1584 409 2034 409 
Q 2484 409 2743 651 
Q 3003 894 3003 1313 
Q 3003 1734 2745 1975 
Q 2488 2216 2034 2216 
z
M 1403 2484 
Q 997 2584 770 2862 
Q 544 3141 544 3541 
Q 544 4100 942 4425 
Q 1341 4750 2034 4750 
Q 2731 4750 3128 4425 
Q 3525 4100 3525 3541 
Q 3525 3141 3298 2862 
Q 3072 2584 2669 2484 
Q 3125 2378 3379 2068 
Q 3634 1759 3634 1313 
Q 3634 634 3220 271 
Q 2806 -91 2034 -91 
Q 1263 -91 848 271 
Q 434 634 434 1313 
Q 434 1759 690 2068 
Q 947 2378 1403 2484 
z
M 1172 3481 
Q 1172 3119 1398 2916 
Q 1625 2713 2034 2713 
Q 2441 2713 2670 2916 
Q 2900 3119 2900 3481 
Q 2900 3844 2670 4047 
Q 2441 4250 2034 4250 
Q 1625 4250 1398 4047 
Q 1172 3844 1172 3481 
z
" id="DejaVuSans-38" transform="scale(0.015625)"/>
       </defs>
       <use xlink:href="#DejaVuSans-32"/>
       <use x="63.623047" xlink:href="#DejaVuSans-30"/>
       <use x="127.246094" xlink:href="#DejaVuSans-32"/>
       <use x="190.869141" xlink:href="#DejaVuSans-38"/>
      </g>
     </g>
    </g>
    <g id="xtick_9">
     <g id="line2d_9">
      <g>
       <use style="stroke:#000000;stroke-width:0.8;" x="253.209318" xlink:href="#m06fb66218e" y="251.94"/>
      </g>
     </g>
     <g id="text_9">
      <!-- 2029 -->
      <g transform="translate(256.520568 289.48)rotate(-90)scale(0.12 -0.12)">
       <defs>
        <path d="M 703 97 
L 703 672 
Q 941 559 1184 500 
Q 1428 441 1663 441 
Q 2288 441 2617 861 
Q 2947 1281 2994 2138 
Q 2813 1869 2534 1725 
Q 2256 1581 1919 1581 
Q 1219 1581 811 2004 
Q 403 2428 403 3163 
Q 403 3881 828 4315 
Q 1253 4750 1959 4750 
Q 2769 4750 3195 4129 
Q 3622 3509 3622 2328 
Q 3622 1225 3098 567 
Q 2575 -91 1691 -91 
Q 1453 -91 1209 -44 
Q 966 3 703 97 
z
M 1959 2075 
Q 2384 2075 2632 2365 
Q 2881 2656 2881 3163 
Q 2881 3666 2632 3958 
Q 2384 4250 1959 4250 
Q 1534 4250 1286 3958 
Q 1038 3666 1038 3163 
Q 1038 2656 1286 2365 
Q 1534 2075 1959 2075 
z
" id="DejaVuSans-39" transform="scale(0.015625)"/>
       </defs>
       <use xlink:href="#DejaVuSans-32"/>
       <use x="63.623047" xlink:href="#DejaVuSans-30"/>
       <use x="127.246094" xlink:href="#DejaVuSans-32"/>
       <use x="190.869141" xlink:href="#DejaVuSans-39"/>
      </g>
     </g>
    </g>
    <g id="xtick_10">
     <g id="line2d_10">
      <g>
       <use style="stroke:#000000;stroke-width:0.8;" x="276.341591" xlink:href="#m06fb66218e" y="251.94"/>
      </g>
     </g>
     <g id="text_10">
      <!-- 2030 -->
      <g transform="translate(279.652841 289.48)rotate(-90)scale(0.12 -0.12)">
       <use xlink:href="#DejaVuSans-32"/>
       <use x="63.623047" xlink:href="#DejaVuSans-30"/>
       <use x="127.246094" xlink:href="#DejaVuSans-33"/>
       <use x="190.869141" xlink:href="#DejaVuSans-30"/>
      </g>
     </g>
    </g>
    <g id="xtick_11">
     <g id="line2d_11">
      <g>
       <use style="stroke:#000000;stroke-width:0.8;" x="299.473864" xlink:href="#m06fb66218e" y="251.94"/>
      </g>
     </g>
     <g id="text_11">
      <!-- 2031 -->
      <g transform="translate(302.785114 289.48)rotate(-90)scale(0.12 -0.12)">
       <use xlink:href="#DejaVuSans-32"/>
       <use x="63.623047" xlink:href="#DejaVuSans-30"/>
       <use x="127.246094" xlink:href="#DejaVuSans-33"/>
       <use x="190.869141" xlink:href="#DejaVuSans-31"/>
      </g>
     </g>
    </g>
   </g>
   <g id="matplotlib.axis_2">
    <g id="ytick_1">
     <g id="line2d_12">
      <defs>
       <path d="M 0 0 
L -3.5 0 
" id="m64bfd22153" style="stroke:#000000;stroke-width:0.8;"/>
      </defs>
      <g>
       <use style="stroke:#000000;stroke-width:0.8;" x="56.585" xlink:href="#m64bfd22153" y="251.94"/>
      </g>
     </g>
     <g id="text_12">
      <!-- −14% -->
      <g transform="translate(12.8575 256.499063)scale(0.12 -0.12)">
       <defs>
        <path d="M 678 2272 
L 4684 2272 
L 4684 1741 
L 678 1741 
L 678 2272 
z
" id="DejaVuSans-2212" transform="scale(0.015625)"/>
        <path d="M 4653 2053 
Q 4381 2053 4226 1822 
Q 4072 1591 4072 1178 
Q 4072 772 4226 539 
Q 4381 306 4653 306 
Q 4919 306 5073 539 
Q 5228 772 5228 1178 
Q 5228 1588 5073 1820 
Q 4919 2053 4653 2053 
z
M 4653 2450 
Q 5147 2450 5437 2106 
Q 5728 1763 5728 1178 
Q 5728 594 5436 251 
Q 5144 -91 4653 -91 
Q 4153 -91 3862 251 
Q 3572 594 3572 1178 
Q 3572 1766 3864 2108 
Q 4156 2450 4653 2450 
z
M 1428 4353 
Q 1159 4353 1004 4120 
Q 850 3888 850 3481 
Q 850 3069 1003 2837 
Q 1156 2606 1428 2606 
Q 1700 2606 1854 2837 
Q 2009 3069 2009 3481 
Q 2009 3884 1853 4118 
Q 1697 4353 1428 4353 
z
M 4250 4750 
L 4750 4750 
L 1831 -91 
L 1331 -91 
L 4250 4750 
z
M 1428 4750 
Q 1922 4750 2215 4408 
Q 2509 4066 2509 3481 
Q 2509 2891 2217 2550 
Q 1925 2209 1428 2209 
Q 931 2209 642 2551 
Q 353 2894 353 3481 
Q 353 4063 643 4406 
Q 934 4750 1428 4750 
z
" id="DejaVuSans-25" transform="scale(0.015625)"/>
       </defs>
       <use xlink:href="#DejaVuSans-2212"/>
       <use x="83.789062" xlink:href="#DejaVuSans-31"/>
       <use x="147.412109" xlink:href="#DejaVuSans-34"/>
       <use x="211.035156" xlink:href="#DejaVuSans-25"/>
      </g>
     </g>
    </g>
    <g id="ytick_2">
     <g id="line2d_13">
      <g>
       <use style="stroke:#000000;stroke-width:0.8;" x="56.585" xlink:href="#m64bfd22153" y="222.6925"/>
      </g>
     </g>
     <g id="text_13">
      <!-- −12% -->
      <g transform="translate(12.8575 227.251563)scale(0.12 -0.12)">
       <use xlink:href="#DejaVuSans-2212"/>
       <use x="83.789062" xlink:href="#DejaVuSans-31"/>
       <use x="147.412109" xlink:href="#DejaVuSans-32"/>
       <use x="211.035156" xlink:href="#DejaVuSans-25"/>
      </g>
     </g>
    </g>
    <g id="ytick_3">
     <g id="line2d_14">
      <g>
       <use style="stroke:#000000;stroke-width:0.8;" x="56.585" xlink:href="#m64bfd22153" y="193.445"/>
      </g>
     </g>
     <g id="text_14">
      <!-- −10% -->
      <g transform="translate(12.8575 198.004063)scale(0.12 -0.12)">
       <use xlink:href="#DejaVuSans-2212"/>
       <use x="83.789062" xlink:href="#DejaVuSans-31"/>
       <use x="147.412109" xlink:href="#DejaVuSans-30"/>
       <use x="211.035156" xlink:href="#DejaVuSans-25"/>
      </g>
     </g>
    </g>
    <g id="ytick_4">
     <g id="line2d_15">
      <g>
       <use style="stroke:#000000;stroke-width:0.8;" x="56.585" xlink:href="#m64bfd22153" y="164.1975"/>
      </g>
     </g>
     <g id="text_15">
      <!-- −8% -->
      <g transform="translate(20.4925 168.756563)scale(0.12 -0.12)">
       <use xlink:href="#DejaVuSans-2212"/>
       <use x="83.789062" xlink:href="#DejaVuSans-38"/>
       <use x="147.412109" xlink:href="#DejaVuSans-25"/>
      </g>
     </g>
    </g>
    <g id="ytick_5">
     <g id="line2d_16">
      <g>
       <use style="stroke:#000000;stroke-width:0.8;" x="56.585" xlink:href="#m64bfd22153" y="134.95"/>
      </g>
     </g>
     <g id="text_16">
      <!-- −6% -->
      <g transform="translate(20.4925 139.509063)scale(0.12 -0.12)">
       <use xlink:href="#DejaVuSans-2212"/>
       <use x="83.789062" xlink:href="#DejaVuSans-36"/>
       <use x="147.412109" xlink:href="#DejaVuSans-25"/>
      </g>
     </g>
    </g>
    <g id="ytick_6">
     <g id="line2d_17">
      <g>
       <use style="stroke:#000000;stroke-width:0.8;" x="56.585" xlink:href="#m64bfd22153" y="105.7025"/>
      </g>
     </g>
     <g id="text_17">
      <!-- −4% -->
      <g transform="translate(20.4925 110.261562)scale(0.12 -0.12)">
       <use xlink:href="#DejaVuSans-2212"/>
       <use x="83.789062" xlink:href="#DejaVuSans-34"/>
       <use x="147.412109" xlink:href="#DejaVuSans-25"/>
      </g>
     </g>
    </g>
    <g id="ytick_7">
     <g id="line2d_18">
      <g>
       <use style="stroke:#000000;stroke-width:0.8;" x="56.585" xlink:href="#m64bfd22153" y="76.455"/>
      </g>
     </g>
     <g id="text_18">
      <!-- −2% -->
      <g transform="translate(20.4925 81.014062)scale(0.12 -0.12)">
       <use xlink:href="#DejaVuSans-2212"/>
       <use x="83.789062" xlink:href="#DejaVuSans-32"/>
       <use x="147.412109" xlink:href="#DejaVuSans-25"/>
      </g>
     </g>
    </g>
    <g id="ytick_8">
     <g id="line2d_19">
      <g>
       <use style="stroke:#000000;stroke-width:0.8;" x="56.585" xlink:href="#m64bfd22153" y="47.2075"/>
      </g>
     </g>
     <g id="text_19">
      <!-- 0% -->
      <g transform="translate(30.548125 51.766562)scale(0.12 -0.12)">
       <use xlink:href="#DejaVuSans-30"/>
       <use x="63.623047" xlink:href="#DejaVuSans-25"/>
      </g>
     </g>
    </g>
    <g id="ytick_9">
     <g id="line2d_20">
      <g>
       <use style="stroke:#000000;stroke-width:0.8;" x="56.585" xlink:href="#m64bfd22153" y="17.96"/>
      </g>
     </g>
     <g id="text_20">
      <!-- 2% -->
      <g transform="translate(30.548125 22.519062)scale(0.12 -0.12)">
       <use xlink:href="#DejaVuSans-32"/>
       <use x="63.623047" xlink:href="#DejaVuSans-25"/>
      </g>
     </g>
    </g>
   </g>
   <g id="line2d_21">
    <path clip-path="url(#p8082a620d9)" d="M 68.151136 47.2075 
L 73.934205 47.261855 
L 79.717273 47.317014 
L 85.500341 47.352124 
L 91.283409 47.37474 
L 97.066477 47.389869 
L 102.849545 47.394651 
L 108.632614 47.396969 
L 114.415682 47.396727 
L 120.19875 47.35142 
L 125.981818 47.301796 
L 131.764886 47.271096 
L 137.547955 47.254278 
L 143.331023 47.24594 
L 149.114091 47.237412 
L 154.897159 47.234739 
L 160.680227 47.232005 
L 166.463295 47.229205 
L 172.246364 47.226337 
L 178.029432 47.226577 
L 183.8125 47.223602 
L 189.595568 47.220549 
L 195.378636 47.220721 
L 201.161705 47.217547 
L 206.944773 47.21768 
L 212.727841 47.217817 
L 218.510909 47.217955 
L 224.293977 47.214564 
L 230.077045 47.214659 
L 235.860114 47.214755 
L 241.643182 47.211176 
L 247.42625 47.214951 
L 253.209318 47.215051 
L 258.992386 47.211326 
L 264.775455 47.211377 
L 270.558523 47.211425 
L 276.341591 47.21147 
L 282.124659 47.2075 
L 287.907727 47.2075 
L 293.690795 47.2075 
L 299.473864 47.2075 
" style="fill:none;stroke:#dc143c;stroke-linecap:square;stroke-width:1.5;"/>
   </g>
   <g id="line2d_22">
    <path clip-path="url(#p8082a620d9)" d="M 68.151136 47.2075 
L 299.473864 47.2075 
" style="fill:none;stroke:#000000;stroke-dasharray:1,1.65;stroke-dashoffset:0;"/>
   </g>
   <g id="line2d_23">
    <path clip-path="url(#p8082a620d9)" d="M 68.151136 47.2075 
L 73.934205 47.216089 
L 79.717273 47.22493 
L 85.500341 47.234036 
L 91.283409 47.238931 
L 97.066477 47.243978 
L 102.849545 47.249184 
L 108.632614 47.254556 
L 114.415682 47.255317 
L 120.19875 47.251237 
L 125.981818 47.247003 
L 131.764886 47.242616 
L 137.547955 47.238074 
L 143.331023 47.238552 
L 149.114091 47.233778 
L 154.897159 47.228846 
L 160.680227 47.229172 
L 166.463295 47.224 
L 172.246364 47.224248 
L 178.029432 47.224498 
L 183.8125 47.224749 
L 189.595568 47.219168 
L 195.378636 47.219337 
L 201.161705 47.219507 
L 206.944773 47.219677 
L 212.727841 47.213674 
L 218.510909 47.21376 
L 224.293977 47.213846 
L 230.077045 47.213933 
L 235.860114 47.214019 
L 241.643182 47.214106 
L 247.42625 47.214192 
L 253.209318 47.214279 
L 258.992386 47.214366 
L 264.775455 47.214452 
L 270.558523 47.2075 
L 276.341591 47.214622 
L 282.124659 47.2075 
L 287.907727 47.2075 
L 293.690795 47.214869 
L 299.473864 47.214949 
" style="fill:none;stroke:#1e90ff;stroke-dasharray:5.55,2.4;stroke-dashoffset:0;stroke-width:1.5;"/>
   </g>
   <g id="line2d_24">
    <path clip-path="url(#p8082a620d9)" d="M 68.151136 47.2075 
L 299.473864 47.2075 
" style="fill:none;stroke:#000000;stroke-dasharray:1,1.65;stroke-dashoffset:0;"/>
   </g>
   <g id="patch_3">
    <path d="M 56.585 251.94 
L 56.585 17.96 
" style="fill:none;stroke:#000000;stroke-linecap:square;stroke-linejoin:miter;stroke-width:0.8;"/>
   </g>
   <g id="patch_4">
    <path d="M 311.04 251.94 
L 311.04 17.96 
" style="fill:none;stroke:#000000;stroke-linecap:square;stroke-linejoin:miter;stroke-width:0.8;"/>
   </g>
   <g id="patch_5">
    <path d="M 56.585 251.94 
L 311.04 251.94 
" style="fill:none;stroke:#000000;stroke-linecap:square;stroke-linejoin:miter;stroke-width:0.8;"/>
   </g>
   <g id="patch_6">
    <path d="M 56.585 17.96 
L 311.04 17.96 
" style="fill:none;stroke:#000000;stroke-linecap:square;stroke-linejoin:miter;stroke-width:0.8;"/>
   </g>
  </g>
 </g>
 <defs>
  <clipPath id="p8082a620d9">
   <rect height="233.98" width="254.455" x="56.585" y="17.96"/>
  </clipPath>
 </defs>
</svg>
