<?xml version="1.0" encoding="utf-8" standalone="no"?>
<!DOCTYPE svg PUBLIC "-//W3C//DTD SVG 1.1//EN"
  "http://www.w3.org/Graphics/SVG/1.1/DTD/svg11.dtd">
<svg height="302.4pt" version="1.1" viewBox="0 0 324 302.4" width="324pt" xmlns="http://www.w3.org/2000/svg" xmlns:xlink="http://www.w3.org/1999/xlink">
 <metadata>
  <rdf:RDF xmlns:cc="http://creativecommons.org/ns#" xmlns:dc="http://purl.org/dc/elements/1.1/" xmlns:rdf="http://www.w3.org/1999/02/22-rdf-syntax-ns#">
   <cc:Work>
    <dc:type rdf:resource="http://purl.org/dc/dcmitype/StillImage"/>
    <dc:date>2021-08-08T11:02:05.273197</dc:date>
    <dc:format>image/svg+xml</dc:format>
    <dc:creator>
     <cc:Agent>
      <dc:title>Matplotlib v3.4.0rc1, https://matplotlib.org/</dc:title>
     </cc:Agent>
    </dc:creator>
   </cc:Work>
  </rdf:RDF>
 </metadata>
 <defs>
  <style type="text/css">*{stroke-linecap:butt;stroke-linejoin:round;}</style>
 </defs>
 <g id="figure_1">
  <g id="patch_1">
   <path d="M 0 302.4 
L 324 302.4 
L 324 0 
L 0 0 
z
" style="fill:none;"/>
  </g>
  <g id="axes_1">
   <g id="patch_2">
    <path d="M 56.585 251.94 
L 311.04 251.94 
L 311.04 17.96 
L 56.585 17.96 
z
" style="fill:#ffffff;"/>
   </g>
   <g id="PolyCollection_1">
    <path clip-path="url(#ped1df01550)" d="M 68.151136 47.2075 
L 68.151136 47.2075 
L 73.934205 47.215438 
L 79.717273 47.243905 
L 85.500341 47.29397 
L 91.283409 47.368517 
L 97.066477 47.464545 
L 102.849545 47.585745 
L 108.632614 47.719813 
L 114.415682 47.893619 
L 120.19875 48.090806 
L 125.981818 48.306525 
L 131.764886 48.560755 
L 137.547955 48.83523 
L 143.331023 49.151827 
L 149.114091 49.480738 
L 154.897159 49.842136 
L 160.680227 50.184887 
L 166.463295 50.59642 
L 172.246364 50.976066 
L 178.029432 51.348542 
L 183.8125 51.746138 
L 189.595568 52.204879 
L 195.378636 52.589615 
L 201.161705 53.003053 
L 206.944773 53.390117 
L 212.727841 53.825731 
L 218.510909 54.228222 
L 224.293977 54.556875 
L 230.077045 54.95739 
L 235.860114 55.306114 
L 241.643182 55.682693 
L 247.42625 55.882084 
L 253.209318 56.23283 
L 258.992386 56.545283 
L 264.775455 56.818851 
L 270.558523 57.24168 
L 276.341591 57.600944 
L 282.124659 57.945527 
L 287.907727 58.390607 
L 293.690795 58.881086 
L 299.473864 59.138618 
L 299.473864 50.616717 
L 299.473864 50.616717 
L 293.690795 50.467568 
L 287.907727 50.397527 
L 282.124659 50.29606 
L 276.341591 50.201669 
L 270.558523 50.091304 
L 264.775455 50.009743 
L 258.992386 49.927315 
L 253.209318 49.82354 
L 247.42625 49.757429 
L 241.643182 49.671984 
L 235.860114 49.567218 
L 230.077045 49.476039 
L 224.293977 49.368789 
L 218.510909 49.261817 
L 212.727841 49.161077 
L 206.944773 49.05474 
L 201.161705 48.953847 
L 195.378636 48.845962 
L 189.595568 48.743384 
L 183.8125 48.639377 
L 178.029432 48.525669 
L 172.246364 48.408188 
L 166.463295 48.294844 
L 160.680227 48.183481 
L 154.897159 48.063752 
L 149.114091 47.961892 
L 143.331023 47.855334 
L 137.547955 47.752743 
L 131.764886 47.656791 
L 125.981818 47.571102 
L 120.19875 47.491608 
L 114.415682 47.424062 
L 108.632614 47.363572 
L 102.849545 47.313747 
L 97.066477 47.273982 
L 91.283409 47.244349 
L 85.500341 47.224477 
L 79.717273 47.212335 
L 73.934205 47.2075 
L 68.151136 47.2075 
z
" style="fill:#dc143c;fill-opacity:0.2;"/>
   </g>
   <g id="PolyCollection_2">
    <path clip-path="url(#ped1df01550)" d="M 68.151136 47.2075 
L 68.151136 47.2075 
L 73.934205 47.213037 
L 79.717273 47.237012 
L 85.500341 47.27953 
L 91.283409 47.341612 
L 97.066477 47.423632 
L 102.849545 47.52605 
L 108.632614 47.649884 
L 114.415682 47.798246 
L 120.19875 47.968409 
L 125.981818 48.164181 
L 131.764886 48.388828 
L 137.547955 48.636339 
L 143.331023 48.913385 
L 149.114091 49.202371 
L 154.897159 49.495469 
L 160.680227 49.799743 
L 166.463295 50.130353 
L 172.246364 50.473793 
L 178.029432 50.832031 
L 183.8125 51.185398 
L 189.595568 51.560772 
L 195.378636 51.923549 
L 201.161705 52.258626 
L 206.944773 52.619572 
L 212.727841 52.967544 
L 218.510909 53.274208 
L 224.293977 53.652634 
L 230.077045 53.954462 
L 235.860114 54.247715 
L 241.643182 54.553079 
L 247.42625 54.834602 
L 253.209318 55.125188 
L 258.992386 55.468059 
L 264.775455 55.734752 
L 270.558523 56.067405 
L 276.341591 56.441536 
L 282.124659 56.714766 
L 287.907727 57.01172 
L 293.690795 57.356281 
L 299.473864 57.711369 
L 299.473864 51.186136 
L 299.473864 51.186136 
L 293.690795 51.059714 
L 287.907727 50.944608 
L 282.124659 50.825414 
L 276.341591 50.717154 
L 270.558523 50.596589 
L 264.775455 50.474734 
L 258.992386 50.363677 
L 253.209318 50.251735 
L 247.42625 50.141896 
L 241.643182 50.021424 
L 235.860114 49.918644 
L 230.077045 49.796864 
L 224.293977 49.683598 
L 218.510909 49.567816 
L 212.727841 49.447132 
L 206.944773 49.331242 
L 201.161705 49.212405 
L 195.378636 49.084937 
L 189.595568 48.952156 
L 183.8125 48.823461 
L 178.029432 48.692529 
L 172.246364 48.564796 
L 166.463295 48.435389 
L 160.680227 48.318122 
L 154.897159 48.191762 
L 149.114091 48.064671 
L 143.331023 47.941171 
L 137.547955 47.823641 
L 131.764886 47.713671 
L 125.981818 47.616995 
L 120.19875 47.527716 
L 114.415682 47.450421 
L 108.632614 47.383672 
L 102.849545 47.326534 
L 97.066477 47.282108 
L 91.283409 47.248536 
L 85.500341 47.225954 
L 79.717273 47.212551 
L 73.934205 47.2075 
L 68.151136 47.2075 
z
" style="fill:#1f77b4;fill-opacity:0.2;"/>
   </g>
   <g id="PolyCollection_3">
    <path clip-path="url(#ped1df01550)" d="M 68.151136 47.2075 
L 68.151136 47.2075 
L 73.934205 47.212689 
L 79.717273 47.2327 
L 85.500341 47.268706 
L 91.283409 47.322264 
L 97.066477 47.393863 
L 102.849545 47.484657 
L 108.632614 47.595384 
L 114.415682 47.725465 
L 120.19875 47.875838 
L 125.981818 48.047345 
L 131.764886 48.244996 
L 137.547955 48.467003 
L 143.331023 48.714361 
L 149.114091 48.973849 
L 154.897159 49.254902 
L 160.680227 49.540042 
L 166.463295 49.850108 
L 172.246364 50.169371 
L 178.029432 50.478815 
L 183.8125 50.803424 
L 189.595568 51.126295 
L 195.378636 51.446615 
L 201.161705 51.767668 
L 206.944773 52.0826 
L 212.727841 52.385583 
L 218.510909 52.667152 
L 224.293977 52.939595 
L 230.077045 53.223028 
L 235.860114 53.47736 
L 241.643182 53.756328 
L 247.42625 54.020097 
L 253.209318 54.32391 
L 258.992386 54.592188 
L 264.775455 54.889425 
L 270.558523 55.19171 
L 276.341591 55.499544 
L 282.124659 55.776182 
L 287.907727 56.083148 
L 293.690795 56.391977 
L 299.473864 56.721756 
L 299.473864 51.761613 
L 299.473864 51.761613 
L 293.690795 51.604772 
L 287.907727 51.462087 
L 282.124659 51.323377 
L 276.341591 51.188366 
L 270.558523 51.053048 
L 264.775455 50.922458 
L 258.992386 50.789741 
L 253.209318 50.644809 
L 247.42625 50.525957 
L 241.643182 50.397357 
L 235.860114 50.26544 
L 230.077045 50.13366 
L 224.293977 49.99077 
L 218.510909 49.854241 
L 212.727841 49.717551 
L 206.944773 49.581445 
L 201.161705 49.444205 
L 195.378636 49.299638 
L 189.595568 49.153853 
L 183.8125 49.010239 
L 178.029432 48.868903 
L 172.246364 48.723749 
L 166.463295 48.582533 
L 160.680227 48.441789 
L 154.897159 48.298616 
L 149.114091 48.160471 
L 143.331023 48.021279 
L 137.547955 47.890178 
L 131.764886 47.769611 
L 125.981818 47.659035 
L 120.19875 47.561304 
L 114.415682 47.474122 
L 108.632614 47.399987 
L 102.849545 47.33868 
L 97.066477 47.290006 
L 91.283409 47.253163 
L 85.500341 47.228134 
L 79.717273 47.214864 
L 73.934205 47.2075 
L 68.151136 47.2075 
z
" style="fill:#ff7f0e;fill-opacity:0.2;"/>
   </g>
   <g id="PolyCollection_4">
    <path clip-path="url(#ped1df01550)" d="M 68.151136 47.2075 
L 68.151136 47.2075 
L 73.934205 47.210178 
L 79.717273 47.225754 
L 85.500341 47.254289 
L 91.283409 47.297573 
L 97.066477 47.356658 
L 102.849545 47.432967 
L 108.632614 47.527898 
L 114.415682 47.641761 
L 120.19875 47.775243 
L 125.981818 47.92938 
L 131.764886 48.102466 
L 137.547955 48.296219 
L 143.331023 48.507948 
L 149.114091 48.7318 
L 154.897159 48.966505 
L 160.680227 49.20954 
L 166.463295 49.458462 
L 172.246364 49.717987 
L 178.029432 49.975581 
L 183.8125 50.244879 
L 189.595568 50.50464 
L 195.378636 50.770099 
L 201.161705 51.038269 
L 206.944773 51.287936 
L 212.727841 51.55265 
L 218.510909 51.809587 
L 224.293977 52.053521 
L 230.077045 52.297462 
L 235.860114 52.529604 
L 241.643182 52.773289 
L 247.42625 53.024493 
L 253.209318 53.251996 
L 258.992386 53.501393 
L 264.775455 53.737268 
L 270.558523 53.989083 
L 276.341591 54.245266 
L 282.124659 54.510744 
L 287.907727 54.774348 
L 293.690795 55.036656 
L 299.473864 55.306025 
L 299.473864 52.767641 
L 299.473864 52.767641 
L 293.690795 52.587116 
L 287.907727 52.401649 
L 282.124659 52.225302 
L 276.341591 52.046327 
L 270.558523 51.872931 
L 264.775455 51.696399 
L 258.992386 51.527289 
L 253.209318 51.35546 
L 247.42625 51.189322 
L 241.643182 51.032276 
L 235.860114 50.864398 
L 230.077045 50.6935 
L 224.293977 50.522264 
L 218.510909 50.358423 
L 212.727841 50.194325 
L 206.944773 50.025541 
L 201.161705 49.85891 
L 195.378636 49.685217 
L 189.595568 49.517634 
L 183.8125 49.348484 
L 178.029432 49.170992 
L 172.246364 48.994703 
L 166.463295 48.819654 
L 160.680227 48.645742 
L 154.897159 48.476771 
L 149.114091 48.313059 
L 143.331023 48.150101 
L 137.547955 47.997764 
L 131.764886 47.855224 
L 125.981818 47.728866 
L 120.19875 47.61619 
L 114.415682 47.516994 
L 108.632614 47.432209 
L 102.849545 47.361753 
L 97.066477 47.304825 
L 91.283409 47.262708 
L 85.500341 47.233689 
L 79.717273 47.217181 
L 73.934205 47.209896 
L 68.151136 47.2075 
z
" style="fill:#2ca02c;fill-opacity:0.2;"/>
   </g>
   <g id="PolyCollection_5">
    <path clip-path="url(#ped1df01550)" d="M 68.151136 47.2075 
L 68.151136 47.2075 
L 73.934205 47.507008 
L 79.717273 47.839069 
L 85.500341 48.10941 
L 91.283409 48.343166 
L 97.066477 48.952123 
L 102.849545 49.381011 
L 108.632614 49.934913 
L 114.415682 50.214706 
L 120.19875 50.554976 
L 125.981818 50.377345 
L 131.764886 50.590453 
L 137.547955 50.999175 
L 143.331023 51.772562 
L 149.114091 52.996014 
L 154.897159 53.50416 
L 160.680227 55.118357 
L 166.463295 56.22234 
L 172.246364 56.270608 
L 178.029432 56.790604 
L 183.8125 56.513626 
L 189.595568 57.001725 
L 195.378636 57.657691 
L 201.161705 57.712764 
L 206.944773 59.108162 
L 212.727841 59.746626 
L 218.510909 59.55324 
L 224.293977 60.556997 
L 230.077045 61.098722 
L 235.860114 62.348156 
L 241.643182 62.847127 
L 247.42625 63.887965 
L 253.209318 62.55569 
L 258.992386 63.192759 
L 264.775455 64.556318 
L 270.558523 64.520113 
L 276.341591 64.725135 
L 282.124659 64.212101 
L 287.907727 65.796159 
L 293.690795 67.845848 
L 299.473864 68.527982 
L 299.473864 44.050987 
L 299.473864 44.050987 
L 293.690795 43.471057 
L 287.907727 43.920646 
L 282.124659 44.271063 
L 276.341591 44.052161 
L 270.558523 44.130487 
L 264.775455 43.29348 
L 258.992386 43.360559 
L 253.209318 41.932615 
L 247.42625 40.630435 
L 241.643182 40.173952 
L 235.860114 40.397922 
L 230.077045 41.069298 
L 224.293977 40.46595 
L 218.510909 40.754633 
L 212.727841 40.988918 
L 206.944773 41.103225 
L 201.161705 41.677478 
L 195.378636 41.868484 
L 189.595568 42.213738 
L 183.8125 41.860252 
L 178.029432 40.423155 
L 172.246364 41.001861 
L 166.463295 40.500178 
L 160.680227 41.227283 
L 154.897159 41.980961 
L 149.114091 42.962663 
L 143.331023 43.467443 
L 137.547955 44.299052 
L 131.764886 44.723758 
L 125.981818 44.229246 
L 120.19875 43.96388 
L 114.415682 44.631406 
L 108.632614 44.791879 
L 102.849545 45.195935 
L 97.066477 45.557212 
L 91.283409 46.141778 
L 85.500341 46.346514 
L 79.717273 46.586767 
L 73.934205 46.909997 
L 68.151136 47.2075 
z
" style="fill:#1e90ff;fill-opacity:0.2;"/>
   </g>
   <g id="PolyCollection_6">
    <path clip-path="url(#ped1df01550)" d="M 68.151136 47.2075 
L 68.151136 47.2075 
L 73.934205 47.211711 
L 79.717273 47.215589 
L 85.500341 47.228948 
L 91.283409 47.256715 
L 97.066477 47.30202 
L 102.849545 47.366828 
L 108.632614 47.455048 
L 114.415682 47.564578 
L 120.19875 47.698082 
L 125.981818 47.858407 
L 131.764886 48.043362 
L 137.547955 48.262641 
L 143.331023 48.503314 
L 149.114091 48.763662 
L 154.897159 49.056784 
L 160.680227 49.376442 
L 166.463295 49.712857 
L 172.246364 50.060182 
L 178.029432 50.408109 
L 183.8125 50.785031 
L 189.595568 51.171055 
L 195.378636 51.591922 
L 201.161705 52.005243 
L 206.944773 52.450042 
L 212.727841 52.84447 
L 218.510909 53.315867 
L 224.293977 53.798893 
L 230.077045 54.286196 
L 235.860114 54.766969 
L 241.643182 55.290507 
L 247.42625 55.805726 
L 253.209318 56.343999 
L 258.992386 56.895046 
L 264.775455 57.426195 
L 270.558523 57.994668 
L 276.341591 58.583068 
L 282.124659 59.195794 
L 287.907727 59.80732 
L 293.690795 60.420136 
L 299.473864 61.042099 
L 299.473864 51.303777 
L 299.473864 51.303777 
L 293.690795 51.122192 
L 287.907727 50.935021 
L 282.124659 50.758213 
L 276.341591 50.584199 
L 270.558523 50.411854 
L 264.775455 50.251359 
L 258.992386 50.080992 
L 253.209318 49.92974 
L 247.42625 49.781508 
L 241.643182 49.627328 
L 235.860114 49.486006 
L 230.077045 49.344169 
L 224.293977 49.211884 
L 218.510909 49.081593 
L 212.727841 48.954485 
L 206.944773 48.809041 
L 201.161705 48.684257 
L 195.378636 48.558877 
L 189.595568 48.443353 
L 183.8125 48.328705 
L 178.029432 48.214183 
L 172.246364 48.103729 
L 166.463295 47.998013 
L 160.680227 47.900789 
L 154.897159 47.806253 
L 149.114091 47.714993 
L 143.331023 47.633129 
L 137.547955 47.5563 
L 131.764886 47.486794 
L 125.981818 47.426299 
L 120.19875 47.374123 
L 114.415682 47.329115 
L 108.632614 47.292327 
L 102.849545 47.262386 
L 97.066477 47.240528 
L 91.283409 47.22408 
L 85.500341 47.215433 
L 79.717273 47.2075 
L 73.934205 47.2075 
L 68.151136 47.2075 
z
" style="fill:#d62728;fill-opacity:0.2;"/>
   </g>
   <g id="PolyCollection_7">
    <path clip-path="url(#ped1df01550)" d="M 68.151136 47.2075 
L 68.151136 47.2075 
L 73.934205 47.2075 
L 79.717273 47.211922 
L 85.500341 47.225337 
L 91.283409 47.250955 
L 97.066477 47.290787 
L 102.849545 47.3485 
L 108.632614 47.424073 
L 114.415682 47.520085 
L 120.19875 47.637811 
L 125.981818 47.7777 
L 131.764886 47.943126 
L 137.547955 48.131616 
L 143.331023 48.344988 
L 149.114091 48.579587 
L 154.897159 48.840538 
L 160.680227 49.115255 
L 166.463295 49.406763 
L 172.246364 49.710399 
L 178.029432 50.030283 
L 183.8125 50.364624 
L 189.595568 50.721334 
L 195.378636 51.071204 
L 201.161705 51.433636 
L 206.944773 51.804591 
L 212.727841 52.197761 
L 218.510909 52.598009 
L 224.293977 53.020822 
L 230.077045 53.435948 
L 235.860114 53.854322 
L 241.643182 54.295074 
L 247.42625 54.734087 
L 253.209318 55.187108 
L 258.992386 55.659906 
L 264.775455 56.149918 
L 270.558523 56.647194 
L 276.341591 57.173663 
L 282.124659 57.705067 
L 287.907727 58.247576 
L 293.690795 58.796061 
L 299.473864 59.363818 
L 299.473864 52.199151 
L 299.473864 52.199151 
L 293.690795 51.978175 
L 287.907727 51.753573 
L 282.124659 51.532667 
L 276.341591 51.312661 
L 270.558523 51.106371 
L 264.775455 50.908176 
L 258.992386 50.71119 
L 253.209318 50.519209 
L 247.42625 50.325296 
L 241.643182 50.147216 
L 235.860114 49.972311 
L 230.077045 49.794293 
L 224.293977 49.621249 
L 218.510909 49.45319 
L 212.727841 49.291513 
L 206.944773 49.128805 
L 201.161705 48.977752 
L 195.378636 48.827939 
L 189.595568 48.681753 
L 183.8125 48.540311 
L 178.029432 48.406593 
L 172.246364 48.27368 
L 166.463295 48.147707 
L 160.680227 48.026611 
L 154.897159 47.910668 
L 149.114091 47.802272 
L 143.331023 47.70179 
L 137.547955 47.611755 
L 131.764886 47.53094 
L 125.981818 47.460631 
L 120.19875 47.398973 
L 114.415682 47.346822 
L 108.632614 47.304562 
L 102.849545 47.270653 
L 97.066477 47.245294 
L 91.283409 47.227941 
L 85.500341 47.215699 
L 79.717273 47.2075 
L 73.934205 47.2075 
L 68.151136 47.2075 
z
" style="fill:#9467bd;fill-opacity:0.2;"/>
   </g>
   <g id="PolyCollection_8">
    <path clip-path="url(#ped1df01550)" d="M 68.151136 47.2075 
L 68.151136 47.2075 
L 73.934205 47.2075 
L 79.717273 47.211789 
L 85.500341 47.224123 
L 91.283409 47.24435 
L 97.066477 47.278823 
L 102.849545 47.327799 
L 108.632614 47.393048 
L 114.415682 47.475698 
L 120.19875 47.576264 
L 125.981818 47.695853 
L 131.764886 47.834489 
L 137.547955 47.993051 
L 143.331023 48.173736 
L 149.114091 48.375825 
L 154.897159 48.59466 
L 160.680227 48.825738 
L 166.463295 49.07281 
L 172.246364 49.329168 
L 178.029432 49.59962 
L 183.8125 49.875465 
L 189.595568 50.169045 
L 195.378636 50.463734 
L 201.161705 50.770651 
L 206.944773 51.088607 
L 212.727841 51.410582 
L 218.510909 51.740319 
L 224.293977 52.092397 
L 230.077045 52.432588 
L 235.860114 52.784984 
L 241.643182 53.154755 
L 247.42625 53.536657 
L 253.209318 53.917832 
L 258.992386 54.321224 
L 264.775455 54.727532 
L 270.558523 55.139534 
L 276.341591 55.549356 
L 282.124659 55.974289 
L 287.907727 56.432917 
L 293.690795 56.889319 
L 299.473864 57.364757 
L 299.473864 53.605621 
L 299.473864 53.605621 
L 293.690795 53.298496 
L 287.907727 53.000276 
L 282.124659 52.717672 
L 276.341591 52.440619 
L 270.558523 52.174054 
L 264.775455 51.907166 
L 258.992386 51.653476 
L 253.209318 51.40822 
L 247.42625 51.165698 
L 241.643182 50.92935 
L 235.860114 50.699729 
L 230.077045 50.477664 
L 224.293977 50.26342 
L 218.510909 50.046517 
L 212.727841 49.840726 
L 206.944773 49.639412 
L 201.161705 49.445937 
L 195.378636 49.258673 
L 189.595568 49.070271 
L 183.8125 48.890917 
L 178.029432 48.714119 
L 172.246364 48.549408 
L 166.463295 48.384719 
L 160.680227 48.23299 
L 154.897159 48.088457 
L 149.114091 47.952402 
L 143.331023 47.828227 
L 137.547955 47.71234 
L 131.764886 47.610771 
L 125.981818 47.522234 
L 120.19875 47.446207 
L 114.415682 47.381668 
L 108.632614 47.328412 
L 102.849545 47.286154 
L 97.066477 47.25422 
L 91.283409 47.232375 
L 85.500341 47.216148 
L 79.717273 47.211455 
L 73.934205 47.2075 
L 68.151136 47.2075 
z
" style="fill:#8c564b;fill-opacity:0.2;"/>
   </g>
   <g id="matplotlib.axis_1">
    <g id="xtick_1">
     <g id="line2d_1">
      <defs>
       <path d="M 0 0 
L 0 3.5 
" id="mff49f9ae5c" style="stroke:#000000;stroke-width:0.8;"/>
      </defs>
      <g>
       <use style="stroke:#000000;stroke-width:0.8;" x="68.151136" xlink:href="#mff49f9ae5c" y="251.94"/>
      </g>
     </g>
     <g id="text_1">
      <!-- 2021 -->
      <g transform="translate(71.462386 289.48)rotate(-90)scale(0.12 -0.12)">
       <defs>
        <path d="M 1228 531 
L 3431 531 
L 3431 0 
L 469 0 
L 469 531 
Q 828 903 1448 1529 
Q 2069 2156 2228 2338 
Q 2531 2678 2651 2914 
Q 2772 3150 2772 3378 
Q 2772 3750 2511 3984 
Q 2250 4219 1831 4219 
Q 1534 4219 1204 4116 
Q 875 4013 500 3803 
L 500 4441 
Q 881 4594 1212 4672 
Q 1544 4750 1819 4750 
Q 2544 4750 2975 4387 
Q 3406 4025 3406 3419 
Q 3406 3131 3298 2873 
Q 3191 2616 2906 2266 
Q 2828 2175 2409 1742 
Q 1991 1309 1228 531 
z
" id="DejaVuSans-32" transform="scale(0.015625)"/>
        <path d="M 2034 4250 
Q 1547 4250 1301 3770 
Q 1056 3291 1056 2328 
Q 1056 1369 1301 889 
Q 1547 409 2034 409 
Q 2525 409 2770 889 
Q 3016 1369 3016 2328 
Q 3016 3291 2770 3770 
Q 2525 4250 2034 4250 
z
M 2034 4750 
Q 2819 4750 3233 4129 
Q 3647 3509 3647 2328 
Q 3647 1150 3233 529 
Q 2819 -91 2034 -91 
Q 1250 -91 836 529 
Q 422 1150 422 2328 
Q 422 3509 836 4129 
Q 1250 4750 2034 4750 
z
" id="DejaVuSans-30" transform="scale(0.015625)"/>
        <path d="M 794 531 
L 1825 531 
L 1825 4091 
L 703 3866 
L 703 4441 
L 1819 4666 
L 2450 4666 
L 2450 531 
L 3481 531 
L 3481 0 
L 794 0 
L 794 531 
z
" id="DejaVuSans-31" transform="scale(0.015625)"/>
       </defs>
       <use xlink:href="#DejaVuSans-32"/>
       <use x="63.623047" xlink:href="#DejaVuSans-30"/>
       <use x="127.246094" xlink:href="#DejaVuSans-32"/>
       <use x="190.869141" xlink:href="#DejaVuSans-31"/>
      </g>
     </g>
    </g>
    <g id="xtick_2">
     <g id="line2d_2">
      <g>
       <use style="stroke:#000000;stroke-width:0.8;" x="91.283409" xlink:href="#mff49f9ae5c" y="251.94"/>
      </g>
     </g>
     <g id="text_2">
      <!-- 2022 -->
      <g transform="translate(94.594659 289.48)rotate(-90)scale(0.12 -0.12)">
       <use xlink:href="#DejaVuSans-32"/>
       <use x="63.623047" xlink:href="#DejaVuSans-30"/>
       <use x="127.246094" xlink:href="#DejaVuSans-32"/>
       <use x="190.869141" xlink:href="#DejaVuSans-32"/>
      </g>
     </g>
    </g>
    <g id="xtick_3">
     <g id="line2d_3">
      <g>
       <use style="stroke:#000000;stroke-width:0.8;" x="114.415682" xlink:href="#mff49f9ae5c" y="251.94"/>
      </g>
     </g>
     <g id="text_3">
      <!-- 2023 -->
      <g transform="translate(117.726932 289.48)rotate(-90)scale(0.12 -0.12)">
       <defs>
        <path d="M 2597 2516 
Q 3050 2419 3304 2112 
Q 3559 1806 3559 1356 
Q 3559 666 3084 287 
Q 2609 -91 1734 -91 
Q 1441 -91 1130 -33 
Q 819 25 488 141 
L 488 750 
Q 750 597 1062 519 
Q 1375 441 1716 441 
Q 2309 441 2620 675 
Q 2931 909 2931 1356 
Q 2931 1769 2642 2001 
Q 2353 2234 1838 2234 
L 1294 2234 
L 1294 2753 
L 1863 2753 
Q 2328 2753 2575 2939 
Q 2822 3125 2822 3475 
Q 2822 3834 2567 4026 
Q 2313 4219 1838 4219 
Q 1578 4219 1281 4162 
Q 984 4106 628 3988 
L 628 4550 
Q 988 4650 1302 4700 
Q 1616 4750 1894 4750 
Q 2613 4750 3031 4423 
Q 3450 4097 3450 3541 
Q 3450 3153 3228 2886 
Q 3006 2619 2597 2516 
z
" id="DejaVuSans-33" transform="scale(0.015625)"/>
       </defs>
       <use xlink:href="#DejaVuSans-32"/>
       <use x="63.623047" xlink:href="#DejaVuSans-30"/>
       <use x="127.246094" xlink:href="#DejaVuSans-32"/>
       <use x="190.869141" xlink:href="#DejaVuSans-33"/>
      </g>
     </g>
    </g>
    <g id="xtick_4">
     <g id="line2d_4">
      <g>
       <use style="stroke:#000000;stroke-width:0.8;" x="137.547955" xlink:href="#mff49f9ae5c" y="251.94"/>
      </g>
     </g>
     <g id="text_4">
      <!-- 2024 -->
      <g transform="translate(140.859205 289.48)rotate(-90)scale(0.12 -0.12)">
       <defs>
        <path d="M 2419 4116 
L 825 1625 
L 2419 1625 
L 2419 4116 
z
M 2253 4666 
L 3047 4666 
L 3047 1625 
L 3713 1625 
L 3713 1100 
L 3047 1100 
L 3047 0 
L 2419 0 
L 2419 1100 
L 313 1100 
L 313 1709 
L 2253 4666 
z
" id="DejaVuSans-34" transform="scale(0.015625)"/>
       </defs>
       <use xlink:href="#DejaVuSans-32"/>
       <use x="63.623047" xlink:href="#DejaVuSans-30"/>
       <use x="127.246094" xlink:href="#DejaVuSans-32"/>
       <use x="190.869141" xlink:href="#DejaVuSans-34"/>
      </g>
     </g>
    </g>
    <g id="xtick_5">
     <g id="line2d_5">
      <g>
       <use style="stroke:#000000;stroke-width:0.8;" x="160.680227" xlink:href="#mff49f9ae5c" y="251.94"/>
      </g>
     </g>
     <g id="text_5">
      <!-- 2025 -->
      <g transform="translate(163.991477 289.48)rotate(-90)scale(0.12 -0.12)">
       <defs>
        <path d="M 691 4666 
L 3169 4666 
L 3169 4134 
L 1269 4134 
L 1269 2991 
Q 1406 3038 1543 3061 
Q 1681 3084 1819 3084 
Q 2600 3084 3056 2656 
Q 3513 2228 3513 1497 
Q 3513 744 3044 326 
Q 2575 -91 1722 -91 
Q 1428 -91 1123 -41 
Q 819 9 494 109 
L 494 744 
Q 775 591 1075 516 
Q 1375 441 1709 441 
Q 2250 441 2565 725 
Q 2881 1009 2881 1497 
Q 2881 1984 2565 2268 
Q 2250 2553 1709 2553 
Q 1456 2553 1204 2497 
Q 953 2441 691 2322 
L 691 4666 
z
" id="DejaVuSans-35" transform="scale(0.015625)"/>
       </defs>
       <use xlink:href="#DejaVuSans-32"/>
       <use x="63.623047" xlink:href="#DejaVuSans-30"/>
       <use x="127.246094" xlink:href="#DejaVuSans-32"/>
       <use x="190.869141" xlink:href="#DejaVuSans-35"/>
      </g>
     </g>
    </g>
    <g id="xtick_6">
     <g id="line2d_6">
      <g>
       <use style="stroke:#000000;stroke-width:0.8;" x="183.8125" xlink:href="#mff49f9ae5c" y="251.94"/>
      </g>
     </g>
     <g id="text_6">
      <!-- 2026 -->
      <g transform="translate(187.12375 289.48)rotate(-90)scale(0.12 -0.12)">
       <defs>
        <path d="M 2113 2584 
Q 1688 2584 1439 2293 
Q 1191 2003 1191 1497 
Q 1191 994 1439 701 
Q 1688 409 2113 409 
Q 2538 409 2786 701 
Q 3034 994 3034 1497 
Q 3034 2003 2786 2293 
Q 2538 2584 2113 2584 
z
M 3366 4563 
L 3366 3988 
Q 3128 4100 2886 4159 
Q 2644 4219 2406 4219 
Q 1781 4219 1451 3797 
Q 1122 3375 1075 2522 
Q 1259 2794 1537 2939 
Q 1816 3084 2150 3084 
Q 2853 3084 3261 2657 
Q 3669 2231 3669 1497 
Q 3669 778 3244 343 
Q 2819 -91 2113 -91 
Q 1303 -91 875 529 
Q 447 1150 447 2328 
Q 447 3434 972 4092 
Q 1497 4750 2381 4750 
Q 2619 4750 2861 4703 
Q 3103 4656 3366 4563 
z
" id="DejaVuSans-36" transform="scale(0.015625)"/>
       </defs>
       <use xlink:href="#DejaVuSans-32"/>
       <use x="63.623047" xlink:href="#DejaVuSans-30"/>
       <use x="127.246094" xlink:href="#DejaVuSans-32"/>
       <use x="190.869141" xlink:href="#DejaVuSans-36"/>
      </g>
     </g>
    </g>
    <g id="xtick_7">
     <g id="line2d_7">
      <g>
       <use style="stroke:#000000;stroke-width:0.8;" x="206.944773" xlink:href="#mff49f9ae5c" y="251.94"/>
      </g>
     </g>
     <g id="text_7">
      <!-- 2027 -->
      <g transform="translate(210.256023 289.48)rotate(-90)scale(0.12 -0.12)">
       <defs>
        <path d="M 525 4666 
L 3525 4666 
L 3525 4397 
L 1831 0 
L 1172 0 
L 2766 4134 
L 525 4134 
L 525 4666 
z
" id="DejaVuSans-37" transform="scale(0.015625)"/>
       </defs>
       <use xlink:href="#DejaVuSans-32"/>
       <use x="63.623047" xlink:href="#DejaVuSans-30"/>
       <use x="127.246094" xlink:href="#DejaVuSans-32"/>
       <use x="190.869141" xlink:href="#DejaVuSans-37"/>
      </g>
     </g>
    </g>
    <g id="xtick_8">
     <g id="line2d_8">
      <g>
       <use style="stroke:#000000;stroke-width:0.8;" x="230.077045" xlink:href="#mff49f9ae5c" y="251.94"/>
      </g>
     </g>
     <g id="text_8">
      <!-- 2028 -->
      <g transform="translate(233.388295 289.48)rotate(-90)scale(0.12 -0.12)">
       <defs>
        <path d="M 2034 2216 
Q 1584 2216 1326 1975 
Q 1069 1734 1069 1313 
Q 1069 891 1326 650 
Q 1584 409 2034 409 
Q 2484 409 2743 651 
Q 3003 894 3003 1313 
Q 3003 1734 2745 1975 
Q 2488 2216 2034 2216 
z
M 1403 2484 
Q 997 2584 770 2862 
Q 544 3141 544 3541 
Q 544 4100 942 4425 
Q 1341 4750 2034 4750 
Q 2731 4750 3128 4425 
Q 3525 4100 3525 3541 
Q 3525 3141 3298 2862 
Q 3072 2584 2669 2484 
Q 3125 2378 3379 2068 
Q 3634 1759 3634 1313 
Q 3634 634 3220 271 
Q 2806 -91 2034 -91 
Q 1263 -91 848 271 
Q 434 634 434 1313 
Q 434 1759 690 2068 
Q 947 2378 1403 2484 
z
M 1172 3481 
Q 1172 3119 1398 2916 
Q 1625 2713 2034 2713 
Q 2441 2713 2670 2916 
Q 2900 3119 2900 3481 
Q 2900 3844 2670 4047 
Q 2441 4250 2034 4250 
Q 1625 4250 1398 4047 
Q 1172 3844 1172 3481 
z
" id="DejaVuSans-38" transform="scale(0.015625)"/>
       </defs>
       <use xlink:href="#DejaVuSans-32"/>
       <use x="63.623047" xlink:href="#DejaVuSans-30"/>
       <use x="127.246094" xlink:href="#DejaVuSans-32"/>
       <use x="190.869141" xlink:href="#DejaVuSans-38"/>
      </g>
     </g>
    </g>
    <g id="xtick_9">
     <g id="line2d_9">
      <g>
       <use style="stroke:#000000;stroke-width:0.8;" x="253.209318" xlink:href="#mff49f9ae5c" y="251.94"/>
      </g>
     </g>
     <g id="text_9">
      <!-- 2029 -->
      <g transform="translate(256.520568 289.48)rotate(-90)scale(0.12 -0.12)">
       <defs>
        <path d="M 703 97 
L 703 672 
Q 941 559 1184 500 
Q 1428 441 1663 441 
Q 2288 441 2617 861 
Q 2947 1281 2994 2138 
Q 2813 1869 2534 1725 
Q 2256 1581 1919 1581 
Q 1219 1581 811 2004 
Q 403 2428 403 3163 
Q 403 3881 828 4315 
Q 1253 4750 1959 4750 
Q 2769 4750 3195 4129 
Q 3622 3509 3622 2328 
Q 3622 1225 3098 567 
Q 2575 -91 1691 -91 
Q 1453 -91 1209 -44 
Q 966 3 703 97 
z
M 1959 2075 
Q 2384 2075 2632 2365 
Q 2881 2656 2881 3163 
Q 2881 3666 2632 3958 
Q 2384 4250 1959 4250 
Q 1534 4250 1286 3958 
Q 1038 3666 1038 3163 
Q 1038 2656 1286 2365 
Q 1534 2075 1959 2075 
z
" id="DejaVuSans-39" transform="scale(0.015625)"/>
       </defs>
       <use xlink:href="#DejaVuSans-32"/>
       <use x="63.623047" xlink:href="#DejaVuSans-30"/>
       <use x="127.246094" xlink:href="#DejaVuSans-32"/>
       <use x="190.869141" xlink:href="#DejaVuSans-39"/>
      </g>
     </g>
    </g>
    <g id="xtick_10">
     <g id="line2d_10">
      <g>
       <use style="stroke:#000000;stroke-width:0.8;" x="276.341591" xlink:href="#mff49f9ae5c" y="251.94"/>
      </g>
     </g>
     <g id="text_10">
      <!-- 2030 -->
      <g transform="translate(279.652841 289.48)rotate(-90)scale(0.12 -0.12)">
       <use xlink:href="#DejaVuSans-32"/>
       <use x="63.623047" xlink:href="#DejaVuSans-30"/>
       <use x="127.246094" xlink:href="#DejaVuSans-33"/>
       <use x="190.869141" xlink:href="#DejaVuSans-30"/>
      </g>
     </g>
    </g>
    <g id="xtick_11">
     <g id="line2d_11">
      <g>
       <use style="stroke:#000000;stroke-width:0.8;" x="299.473864" xlink:href="#mff49f9ae5c" y="251.94"/>
      </g>
     </g>
     <g id="text_11">
      <!-- 2031 -->
      <g transform="translate(302.785114 289.48)rotate(-90)scale(0.12 -0.12)">
       <use xlink:href="#DejaVuSans-32"/>
       <use x="63.623047" xlink:href="#DejaVuSans-30"/>
       <use x="127.246094" xlink:href="#DejaVuSans-33"/>
       <use x="190.869141" xlink:href="#DejaVuSans-31"/>
      </g>
     </g>
    </g>
   </g>
   <g id="matplotlib.axis_2">
    <g id="ytick_1">
     <g id="line2d_12">
      <defs>
       <path d="M 0 0 
L -3.5 0 
" id="meab63309a5" style="stroke:#000000;stroke-width:0.8;"/>
      </defs>
      <g>
       <use style="stroke:#000000;stroke-width:0.8;" x="56.585" xlink:href="#meab63309a5" y="251.94"/>
      </g>
     </g>
     <g id="text_12">
      <!-- −14% -->
      <g transform="translate(12.8575 256.499063)scale(0.12 -0.12)">
       <defs>
        <path d="M 678 2272 
L 4684 2272 
L 4684 1741 
L 678 1741 
L 678 2272 
z
" id="DejaVuSans-2212" transform="scale(0.015625)"/>
        <path d="M 4653 2053 
Q 4381 2053 4226 1822 
Q 4072 1591 4072 1178 
Q 4072 772 4226 539 
Q 4381 306 4653 306 
Q 4919 306 5073 539 
Q 5228 772 5228 1178 
Q 5228 1588 5073 1820 
Q 4919 2053 4653 2053 
z
M 4653 2450 
Q 5147 2450 5437 2106 
Q 5728 1763 5728 1178 
Q 5728 594 5436 251 
Q 5144 -91 4653 -91 
Q 4153 -91 3862 251 
Q 3572 594 3572 1178 
Q 3572 1766 3864 2108 
Q 4156 2450 4653 2450 
z
M 1428 4353 
Q 1159 4353 1004 4120 
Q 850 3888 850 3481 
Q 850 3069 1003 2837 
Q 1156 2606 1428 2606 
Q 1700 2606 1854 2837 
Q 2009 3069 2009 3481 
Q 2009 3884 1853 4118 
Q 1697 4353 1428 4353 
z
M 4250 4750 
L 4750 4750 
L 1831 -91 
L 1331 -91 
L 4250 4750 
z
M 1428 4750 
Q 1922 4750 2215 4408 
Q 2509 4066 2509 3481 
Q 2509 2891 2217 2550 
Q 1925 2209 1428 2209 
Q 931 2209 642 2551 
Q 353 2894 353 3481 
Q 353 4063 643 4406 
Q 934 4750 1428 4750 
z
" id="DejaVuSans-25" transform="scale(0.015625)"/>
       </defs>
       <use xlink:href="#DejaVuSans-2212"/>
       <use x="83.789062" xlink:href="#DejaVuSans-31"/>
       <use x="147.412109" xlink:href="#DejaVuSans-34"/>
       <use x="211.035156" xlink:href="#DejaVuSans-25"/>
      </g>
     </g>
    </g>
    <g id="ytick_2">
     <g id="line2d_13">
      <g>
       <use style="stroke:#000000;stroke-width:0.8;" x="56.585" xlink:href="#meab63309a5" y="222.6925"/>
      </g>
     </g>
     <g id="text_13">
      <!-- −12% -->
      <g transform="translate(12.8575 227.251563)scale(0.12 -0.12)">
       <use xlink:href="#DejaVuSans-2212"/>
       <use x="83.789062" xlink:href="#DejaVuSans-31"/>
       <use x="147.412109" xlink:href="#DejaVuSans-32"/>
       <use x="211.035156" xlink:href="#DejaVuSans-25"/>
      </g>
     </g>
    </g>
    <g id="ytick_3">
     <g id="line2d_14">
      <g>
       <use style="stroke:#000000;stroke-width:0.8;" x="56.585" xlink:href="#meab63309a5" y="193.445"/>
      </g>
     </g>
     <g id="text_14">
      <!-- −10% -->
      <g transform="translate(12.8575 198.004063)scale(0.12 -0.12)">
       <use xlink:href="#DejaVuSans-2212"/>
       <use x="83.789062" xlink:href="#DejaVuSans-31"/>
       <use x="147.412109" xlink:href="#DejaVuSans-30"/>
       <use x="211.035156" xlink:href="#DejaVuSans-25"/>
      </g>
     </g>
    </g>
    <g id="ytick_4">
     <g id="line2d_15">
      <g>
       <use style="stroke:#000000;stroke-width:0.8;" x="56.585" xlink:href="#meab63309a5" y="164.1975"/>
      </g>
     </g>
     <g id="text_15">
      <!-- −8% -->
      <g transform="translate(20.4925 168.756563)scale(0.12 -0.12)">
       <use xlink:href="#DejaVuSans-2212"/>
       <use x="83.789062" xlink:href="#DejaVuSans-38"/>
       <use x="147.412109" xlink:href="#DejaVuSans-25"/>
      </g>
     </g>
    </g>
    <g id="ytick_5">
     <g id="line2d_16">
      <g>
       <use style="stroke:#000000;stroke-width:0.8;" x="56.585" xlink:href="#meab63309a5" y="134.95"/>
      </g>
     </g>
     <g id="text_16">
      <!-- −6% -->
      <g transform="translate(20.4925 139.509063)scale(0.12 -0.12)">
       <use xlink:href="#DejaVuSans-2212"/>
       <use x="83.789062" xlink:href="#DejaVuSans-36"/>
       <use x="147.412109" xlink:href="#DejaVuSans-25"/>
      </g>
     </g>
    </g>
    <g id="ytick_6">
     <g id="line2d_17">
      <g>
       <use style="stroke:#000000;stroke-width:0.8;" x="56.585" xlink:href="#meab63309a5" y="105.7025"/>
      </g>
     </g>
     <g id="text_17">
      <!-- −4% -->
      <g transform="translate(20.4925 110.261562)scale(0.12 -0.12)">
       <use xlink:href="#DejaVuSans-2212"/>
       <use x="83.789062" xlink:href="#DejaVuSans-34"/>
       <use x="147.412109" xlink:href="#DejaVuSans-25"/>
      </g>
     </g>
    </g>
    <g id="ytick_7">
     <g id="line2d_18">
      <g>
       <use style="stroke:#000000;stroke-width:0.8;" x="56.585" xlink:href="#meab63309a5" y="76.455"/>
      </g>
     </g>
     <g id="text_18">
      <!-- −2% -->
      <g transform="translate(20.4925 81.014062)scale(0.12 -0.12)">
       <use xlink:href="#DejaVuSans-2212"/>
       <use x="83.789062" xlink:href="#DejaVuSans-32"/>
       <use x="147.412109" xlink:href="#DejaVuSans-25"/>
      </g>
     </g>
    </g>
    <g id="ytick_8">
     <g id="line2d_19">
      <g>
       <use style="stroke:#000000;stroke-width:0.8;" x="56.585" xlink:href="#meab63309a5" y="47.2075"/>
      </g>
     </g>
     <g id="text_19">
      <!-- 0% -->
      <g transform="translate(30.548125 51.766562)scale(0.12 -0.12)">
       <use xlink:href="#DejaVuSans-30"/>
       <use x="63.623047" xlink:href="#DejaVuSans-25"/>
      </g>
     </g>
    </g>
    <g id="ytick_9">
     <g id="line2d_20">
      <g>
       <use style="stroke:#000000;stroke-width:0.8;" x="56.585" xlink:href="#meab63309a5" y="17.96"/>
      </g>
     </g>
     <g id="text_20">
      <!-- 2% -->
      <g transform="translate(30.548125 22.519062)scale(0.12 -0.12)">
       <use xlink:href="#DejaVuSans-32"/>
       <use x="63.623047" xlink:href="#DejaVuSans-25"/>
      </g>
     </g>
    </g>
   </g>
   <g id="line2d_21">
    <path clip-path="url(#ped1df01550)" d="M 68.151136 47.2075 
L 73.934205 47.2075 
L 79.717273 47.212715 
L 85.500341 47.228536 
L 91.283409 47.255283 
L 97.066477 47.296003 
L 102.849545 47.351254 
L 108.632614 47.427175 
L 114.415682 47.519169 
L 120.19875 47.613862 
L 125.981818 47.716125 
L 131.764886 47.837678 
L 137.547955 47.976406 
L 143.331023 48.135981 
L 149.114091 48.305274 
L 154.897159 48.48471 
L 160.680227 48.677778 
L 166.463295 48.875706 
L 172.246364 49.075541 
L 178.029432 49.290044 
L 183.8125 49.503637 
L 189.595568 49.722739 
L 195.378636 49.947472 
L 201.161705 50.17462 
L 206.944773 50.414321 
L 212.727841 50.653213 
L 218.510909 50.901554 
L 224.293977 51.148993 
L 230.077045 51.409624 
L 235.860114 51.67295 
L 241.643182 51.942568 
L 247.42625 52.222256 
L 253.209318 52.508464 
L 258.992386 52.797437 
L 264.775455 53.030853 
L 270.558523 53.13461 
L 276.341591 53.31805 
L 282.124659 53.54169 
L 287.907727 53.791431 
L 293.690795 54.056197 
L 299.473864 54.336573 
" style="fill:none;stroke:#dc143c;stroke-linecap:square;stroke-width:1.5;"/>
   </g>
   <g id="line2d_22">
    <path clip-path="url(#ped1df01550)" d="M 68.151136 47.2075 
L 299.473864 47.2075 
" style="fill:none;stroke:#000000;stroke-dasharray:1,1.65;stroke-dashoffset:0;"/>
   </g>
   <g id="line2d_23">
    <path clip-path="url(#ped1df01550)" d="M 68.151136 47.2075 
L 73.934205 47.2075 
L 79.717273 47.211857 
L 85.500341 47.225191 
L 91.283409 47.247911 
L 97.066477 47.285016 
L 102.849545 47.341816 
L 108.632614 47.419251 
L 114.415682 47.508746 
L 120.19875 47.62543 
L 125.981818 47.760549 
L 131.764886 47.914831 
L 137.547955 48.094137 
L 143.331023 48.299485 
L 149.114091 48.52665 
L 154.897159 48.771092 
L 160.680227 49.038787 
L 166.463295 49.319543 
L 172.246364 49.608094 
L 178.029432 49.927154 
L 183.8125 50.24331 
L 189.595568 50.5736 
L 195.378636 50.924234 
L 201.161705 51.283761 
L 206.944773 51.658294 
L 212.727841 52.041971 
L 218.510909 52.441022 
L 224.293977 52.855745 
L 230.077045 53.279957 
L 235.860114 53.720157 
L 241.643182 54.169995 
L 247.42625 54.642783 
L 253.209318 55.125458 
L 258.992386 55.624817 
L 264.775455 56.134086 
L 270.558523 56.630917 
L 276.341591 57.156695 
L 282.124659 57.690811 
L 287.907727 58.254962 
L 293.690795 58.835113 
L 299.473864 59.423941 
" style="fill:none;stroke:#1e90ff;stroke-dasharray:5.55,2.4;stroke-dashoffset:0;stroke-width:1.5;"/>
   </g>
   <g id="line2d_24">
    <path clip-path="url(#ped1df01550)" d="M 68.151136 47.2075 
L 299.473864 47.2075 
" style="fill:none;stroke:#000000;stroke-dasharray:1,1.65;stroke-dashoffset:0;"/>
   </g>
   <g id="patch_3">
    <path d="M 56.585 251.94 
L 56.585 17.96 
" style="fill:none;stroke:#000000;stroke-linecap:square;stroke-linejoin:miter;stroke-width:0.8;"/>
   </g>
   <g id="patch_4">
    <path d="M 311.04 251.94 
L 311.04 17.96 
" style="fill:none;stroke:#000000;stroke-linecap:square;stroke-linejoin:miter;stroke-width:0.8;"/>
   </g>
   <g id="patch_5">
    <path d="M 56.585 251.94 
L 311.04 251.94 
" style="fill:none;stroke:#000000;stroke-linecap:square;stroke-linejoin:miter;stroke-width:0.8;"/>
   </g>
   <g id="patch_6">
    <path d="M 56.585 17.96 
L 311.04 17.96 
" style="fill:none;stroke:#000000;stroke-linecap:square;stroke-linejoin:miter;stroke-width:0.8;"/>
   </g>
  </g>
 </g>
 <defs>
  <clipPath id="ped1df01550">
   <rect height="233.98" width="254.455" x="56.585" y="17.96"/>
  </clipPath>
 </defs>
</svg>
