<?xml version="1.0" encoding="utf-8" standalone="no"?>
<!DOCTYPE svg PUBLIC "-//W3C//DTD SVG 1.1//EN"
  "http://www.w3.org/Graphics/SVG/1.1/DTD/svg11.dtd">
<svg height="302.4pt" version="1.1" viewBox="0 0 324 302.4" width="324pt" xmlns="http://www.w3.org/2000/svg" xmlns:xlink="http://www.w3.org/1999/xlink">
 <metadata>
  <rdf:RDF xmlns:cc="http://creativecommons.org/ns#" xmlns:dc="http://purl.org/dc/elements/1.1/" xmlns:rdf="http://www.w3.org/1999/02/22-rdf-syntax-ns#">
   <cc:Work>
    <dc:type rdf:resource="http://purl.org/dc/dcmitype/StillImage"/>
    <dc:date>2021-08-08T11:02:05.445056</dc:date>
    <dc:format>image/svg+xml</dc:format>
    <dc:creator>
     <cc:Agent>
      <dc:title>Matplotlib v3.4.0rc1, https://matplotlib.org/</dc:title>
     </cc:Agent>
    </dc:creator>
   </cc:Work>
  </rdf:RDF>
 </metadata>
 <defs>
  <style type="text/css">*{stroke-linecap:butt;stroke-linejoin:round;}</style>
 </defs>
 <g id="figure_1">
  <g id="patch_1">
   <path d="M 0 302.4 
L 324 302.4 
L 324 0 
L 0 0 
z
" style="fill:none;"/>
  </g>
  <g id="axes_1">
   <g id="patch_2">
    <path d="M 56.585 251.94 
L 311.04 251.94 
L 311.04 17.96 
L 56.585 17.96 
z
" style="fill:#ffffff;"/>
   </g>
   <g id="PolyCollection_1">
    <path clip-path="url(#pe212bccdde)" d="M 68.151136 47.2075 
L 68.151136 47.2075 
L 73.934205 62.542177 
L 79.717273 78.154663 
L 85.500341 94.022949 
L 91.283409 110.103153 
L 97.066477 126.370969 
L 102.849545 142.787044 
L 108.632614 159.400367 
L 114.415682 176.069494 
L 120.19875 192.839558 
L 125.981818 209.645253 
L 131.764886 226.597835 
L 137.547955 243.535586 
L 143.331023 243.45559 
L 149.114091 243.244631 
L 154.897159 242.914189 
L 160.680227 242.585285 
L 166.463295 242.181393 
L 172.246364 241.765376 
L 178.029432 241.225194 
L 183.8125 240.706227 
L 189.595568 240.10896 
L 195.378636 239.478594 
L 201.161705 238.891631 
L 206.944773 238.182125 
L 212.727841 237.511132 
L 218.510909 236.723315 
L 224.293977 236.1077 
L 230.077045 235.543387 
L 235.860114 235.082411 
L 241.643182 234.416733 
L 247.42625 233.883943 
L 253.209318 233.427695 
L 258.992386 232.963721 
L 264.775455 232.594733 
L 270.558523 232.308634 
L 276.341591 231.784828 
L 282.124659 231.359396 
L 287.907727 230.839585 
L 293.690795 230.49139 
L 299.473864 230.064205 
L 299.473864 202.948157 
L 299.473864 202.948157 
L 293.690795 203.733535 
L 287.907727 204.604585 
L 282.124659 205.920972 
L 276.341591 207.1484 
L 270.558523 208.280396 
L 264.775455 209.524633 
L 258.992386 210.592807 
L 253.209318 211.792468 
L 247.42625 212.739509 
L 241.643182 213.936736 
L 235.860114 215.031135 
L 230.077045 215.960243 
L 224.293977 217.025575 
L 218.510909 217.710015 
L 212.727841 218.978571 
L 206.944773 220.412291 
L 201.161705 221.576693 
L 195.378636 222.687143 
L 189.595568 223.632527 
L 183.8125 224.82678 
L 178.029432 225.908886 
L 172.246364 226.977945 
L 166.463295 228.049651 
L 160.680227 229.017442 
L 154.897159 230.03004 
L 149.114091 230.84811 
L 143.331023 231.529213 
L 137.547955 232.145286 
L 131.764886 216.533013 
L 125.981818 200.764897 
L 120.19875 185.029475 
L 114.415682 169.278595 
L 108.632614 153.644402 
L 102.849545 138.020146 
L 97.066477 122.469378 
L 91.283409 107.035291 
L 85.500341 91.758712 
L 79.717273 76.672714 
L 73.934205 61.811551 
L 68.151136 47.2075 
z
" style="fill:#dc143c;fill-opacity:0.2;"/>
   </g>
   <g id="PolyCollection_2">
    <path clip-path="url(#pe212bccdde)" d="M 68.151136 47.2075 
L 68.151136 47.2075 
L 73.934205 62.439689 
L 79.717273 77.964128 
L 85.500341 93.737951 
L 91.283409 109.725112 
L 97.066477 125.894864 
L 102.849545 142.219638 
L 108.632614 158.667782 
L 114.415682 175.191069 
L 120.19875 191.820619 
L 125.981818 208.50538 
L 131.764886 225.221061 
L 137.547955 242.022032 
L 143.331023 241.866456 
L 149.114091 241.679515 
L 154.897159 241.402938 
L 160.680227 241.071507 
L 166.463295 240.650435 
L 172.246364 240.207023 
L 178.029432 239.691051 
L 183.8125 239.151358 
L 189.595568 238.557864 
L 195.378636 237.951569 
L 201.161705 237.333786 
L 206.944773 236.711538 
L 212.727841 236.086876 
L 218.510909 235.434561 
L 224.293977 234.814561 
L 230.077045 234.178842 
L 235.860114 233.517515 
L 241.643182 232.973983 
L 247.42625 232.426434 
L 253.209318 231.873689 
L 258.992386 231.316445 
L 264.775455 230.774612 
L 270.558523 230.320511 
L 276.341591 229.787052 
L 282.124659 229.252279 
L 287.907727 228.635851 
L 293.690795 228.035766 
L 299.473864 227.52478 
L 299.473864 213.765321 
L 299.473864 213.765321 
L 293.690795 214.07594 
L 287.907727 212.524789 
L 282.124659 210.719794 
L 276.341591 210.820629 
L 270.558523 211.524709 
L 264.775455 212.043187 
L 258.992386 213.013 
L 253.209318 214.017534 
L 247.42625 215.032279 
L 241.643182 216.109762 
L 235.860114 217.215707 
L 230.077045 218.212105 
L 224.293977 219.163209 
L 218.510909 220.194581 
L 212.727841 221.374879 
L 206.944773 222.672201 
L 201.161705 223.797165 
L 195.378636 224.981057 
L 189.595568 225.988054 
L 183.8125 227.123805 
L 178.029432 228.146092 
L 172.246364 229.123434 
L 166.463295 230.120772 
L 160.680227 230.982343 
L 154.897159 231.830512 
L 149.114091 232.534248 
L 143.331023 233.147831 
L 137.547955 233.736528 
L 131.764886 217.915938 
L 125.981818 202.046568 
L 120.19875 186.131561 
L 114.415682 170.254139 
L 108.632614 154.40786 
L 102.849545 138.650813 
L 97.066477 122.986084 
L 91.283409 107.451399 
L 85.500341 92.066437 
L 79.717273 76.876982 
L 73.934205 61.909879 
L 68.151136 47.2075 
z
" style="fill:#1f77b4;fill-opacity:0.2;"/>
   </g>
   <g id="PolyCollection_3">
    <path clip-path="url(#pe212bccdde)" d="M 68.151136 47.2075 
L 68.151136 47.2075 
L 73.934205 62.352044 
L 79.717273 77.787261 
L 85.500341 93.465941 
L 91.283409 109.370177 
L 97.066477 125.446398 
L 102.849545 141.684582 
L 108.632614 158.055656 
L 114.415682 174.495777 
L 120.19875 191.062264 
L 125.981818 207.694074 
L 131.764886 224.385297 
L 137.547955 241.078448 
L 143.331023 240.882682 
L 149.114091 240.591106 
L 154.897159 240.309854 
L 160.680227 239.946933 
L 166.463295 239.568043 
L 172.246364 239.115743 
L 178.029432 238.588543 
L 183.8125 238.060174 
L 189.595568 237.506415 
L 195.378636 236.933812 
L 201.161705 236.284399 
L 206.944773 235.632339 
L 212.727841 234.966409 
L 218.510909 234.318137 
L 224.293977 233.664301 
L 230.077045 233.024634 
L 235.860114 232.324603 
L 241.643182 231.681741 
L 247.42625 231.07222 
L 253.209318 230.424719 
L 258.992386 229.88547 
L 264.775455 229.271448 
L 270.558523 228.617373 
L 276.341591 228.087515 
L 282.124659 227.566348 
L 287.907727 227.073886 
L 293.690795 226.51488 
L 299.473864 226.023472 
L 299.473864 216.338787 
L 299.473864 216.338787 
L 293.690795 216.839811 
L 287.907727 217.320109 
L 282.124659 217.744227 
L 276.341591 218.075603 
L 270.558523 218.472278 
L 264.775455 217.97013 
L 258.992386 217.084689 
L 253.209318 217.119907 
L 247.42625 217.657977 
L 241.643182 218.185136 
L 235.860114 219.16475 
L 230.077045 220.099056 
L 224.293977 221.053098 
L 218.510909 222.067682 
L 212.727841 223.049493 
L 206.944773 224.14399 
L 201.161705 225.308076 
L 195.378636 226.378002 
L 189.595568 227.451585 
L 183.8125 228.543218 
L 178.029432 229.538619 
L 172.246364 230.55319 
L 166.463295 231.435282 
L 160.680227 232.264302 
L 154.897159 232.986516 
L 149.114091 233.676706 
L 143.331023 234.281053 
L 137.547955 234.78224 
L 131.764886 218.801356 
L 125.981818 202.814413 
L 120.19875 186.800881 
L 114.415682 170.8289 
L 108.632614 154.905354 
L 102.849545 139.064009 
L 97.066477 123.319448 
L 91.283409 107.710339 
L 85.500341 92.25569 
L 79.717273 77.00145 
L 73.934205 61.971069 
L 68.151136 47.2075 
z
" style="fill:#ff7f0e;fill-opacity:0.2;"/>
   </g>
   <g id="PolyCollection_4">
    <path clip-path="url(#pe212bccdde)" d="M 68.151136 47.2075 
L 68.151136 47.2075 
L 73.934205 62.251878 
L 79.717273 77.582468 
L 85.500341 93.160171 
L 91.283409 108.942367 
L 97.066477 124.902935 
L 102.849545 141.017124 
L 108.632614 157.242842 
L 114.415682 173.570872 
L 120.19875 189.972598 
L 125.981818 206.435936 
L 131.764886 222.963743 
L 137.547955 239.514163 
L 143.331023 239.272098 
L 149.114091 238.973453 
L 154.897159 238.64564 
L 160.680227 238.288981 
L 166.463295 237.814953 
L 172.246364 237.363668 
L 178.029432 236.864928 
L 183.8125 236.359743 
L 189.595568 235.838512 
L 195.378636 235.213787 
L 201.161705 234.584277 
L 206.944773 233.939529 
L 212.727841 233.261209 
L 218.510909 232.629092 
L 224.293977 231.951863 
L 230.077045 231.254805 
L 235.860114 230.536973 
L 241.643182 229.873706 
L 247.42625 229.217616 
L 253.209318 228.531524 
L 258.992386 227.846892 
L 264.775455 227.200465 
L 270.558523 226.554283 
L 276.341591 225.985163 
L 282.124659 225.413302 
L 287.907727 224.880535 
L 293.690795 224.329399 
L 299.473864 223.770336 
L 299.473864 218.721315 
L 299.473864 218.721315 
L 293.690795 219.341099 
L 287.907727 219.940532 
L 282.124659 220.679583 
L 276.341591 221.287014 
L 270.558523 221.8192 
L 264.775455 222.406285 
L 258.992386 222.989084 
L 253.209318 223.433745 
L 247.42625 223.903831 
L 241.643182 224.252434 
L 235.860114 224.403342 
L 230.077045 224.585458 
L 224.293977 225.021462 
L 218.510909 225.623714 
L 212.727841 226.309085 
L 206.944773 227.128844 
L 201.161705 228.080199 
L 195.378636 228.996271 
L 189.595568 229.97534 
L 183.8125 230.779028 
L 178.029432 231.64826 
L 172.246364 232.482774 
L 166.463295 233.296964 
L 160.680227 234.04745 
L 154.897159 234.763118 
L 149.114091 235.406264 
L 143.331023 235.905789 
L 137.547955 236.301643 
L 131.764886 220.12103 
L 125.981818 203.963759 
L 120.19875 187.813085 
L 114.415682 171.69272 
L 108.632614 155.630289 
L 102.849545 139.670426 
L 97.066477 123.810183 
L 91.283409 108.089325 
L 85.500341 92.537854 
L 79.717273 77.179702 
L 73.934205 62.056125 
L 68.151136 47.2075 
z
" style="fill:#2ca02c;fill-opacity:0.2;"/>
   </g>
   <g id="PolyCollection_5">
    <path clip-path="url(#pe212bccdde)" d="M 68.151136 47.2075 
L 68.151136 47.2075 
L 73.934205 47.614071 
L 79.717273 47.935158 
L 85.500341 48.271337 
L 91.283409 48.41491 
L 97.066477 48.614222 
L 102.849545 48.782926 
L 108.632614 48.733613 
L 114.415682 48.756419 
L 120.19875 49.012966 
L 125.981818 48.914746 
L 131.764886 48.510545 
L 137.547955 48.980076 
L 143.331023 49.031218 
L 149.114091 49.360202 
L 154.897159 50.022521 
L 160.680227 49.845678 
L 166.463295 49.839301 
L 172.246364 50.736478 
L 178.029432 51.181855 
L 183.8125 51.451878 
L 189.595568 52.265548 
L 195.378636 52.390607 
L 201.161705 51.873835 
L 206.944773 51.038318 
L 212.727841 51.416846 
L 218.510909 51.363782 
L 224.293977 51.582766 
L 230.077045 51.261461 
L 235.860114 50.615463 
L 241.643182 49.685755 
L 247.42625 48.720656 
L 253.209318 47.981428 
L 258.992386 47.397973 
L 264.775455 47.507734 
L 270.558523 46.471056 
L 276.341591 46.971459 
L 282.124659 47.26428 
L 287.907727 47.085505 
L 293.690795 47.431106 
L 299.473864 46.861721 
L 299.473864 8.715827 
L 299.473864 8.715827 
L 293.690795 9.573495 
L 287.907727 10.49454 
L 282.124659 10.585273 
L 276.341591 11.542843 
L 270.558523 12.531017 
L 264.775455 13.055855 
L 258.992386 13.214807 
L 253.209318 14.756674 
L 247.42625 15.264942 
L 241.643182 15.485862 
L 235.860114 15.451971 
L 230.077045 16.186588 
L 224.293977 16.805701 
L 218.510909 17.392196 
L 212.727841 18.769754 
L 206.944773 20.641711 
L 201.161705 21.110621 
L 195.378636 20.865178 
L 189.595568 22.504343 
L 183.8125 24.13725 
L 178.029432 25.658609 
L 172.246364 27.021177 
L 166.463295 28.990988 
L 160.680227 30.385654 
L 154.897159 32.003317 
L 149.114091 33.710214 
L 143.331023 35.349481 
L 137.547955 36.945161 
L 131.764886 38.613691 
L 125.981818 39.651365 
L 120.19875 40.713552 
L 114.415682 41.866327 
L 108.632614 42.817716 
L 102.849545 43.63826 
L 97.066477 44.436741 
L 91.283409 45.106369 
L 85.500341 45.674061 
L 79.717273 46.274073 
L 73.934205 46.755288 
L 68.151136 47.2075 
z
" style="fill:#1e90ff;fill-opacity:0.2;"/>
   </g>
   <g id="PolyCollection_6">
    <path clip-path="url(#pe212bccdde)" d="M 68.151136 47.2075 
L 68.151136 47.2075 
L 73.934205 47.190718 
L 79.717273 47.115345 
L 85.500341 46.987238 
L 91.283409 46.804017 
L 97.066477 46.567814 
L 102.849545 46.274814 
L 108.632614 45.928342 
L 114.415682 45.526228 
L 120.19875 45.071272 
L 125.981818 44.564047 
L 131.764886 44.006745 
L 137.547955 43.396392 
L 143.331023 42.76007 
L 149.114091 42.142052 
L 154.897159 41.546015 
L 160.680227 40.962054 
L 166.463295 40.379472 
L 172.246364 39.817734 
L 178.029432 39.265955 
L 183.8125 38.740775 
L 189.595568 38.224056 
L 195.378636 37.753497 
L 201.161705 37.267601 
L 206.944773 36.795264 
L 212.727841 36.346584 
L 218.510909 35.923409 
L 224.293977 35.489502 
L 230.077045 35.103103 
L 235.860114 34.705586 
L 241.643182 34.330321 
L 247.42625 34.007114 
L 253.209318 33.705258 
L 258.992386 33.42295 
L 264.775455 33.157598 
L 270.558523 32.883159 
L 276.341591 32.691241 
L 282.124659 32.470792 
L 287.907727 32.266233 
L 293.690795 32.086151 
L 299.473864 31.913567 
L 299.473864 23.643811 
L 299.473864 23.643811 
L 293.690795 23.900046 
L 287.907727 24.220993 
L 282.124659 24.704491 
L 276.341591 25.147065 
L 270.558523 25.725673 
L 264.775455 26.23279 
L 258.992386 26.800508 
L 253.209318 27.466752 
L 247.42625 28.00079 
L 241.643182 28.665998 
L 235.860114 29.380043 
L 230.077045 30.141677 
L 224.293977 30.893098 
L 218.510909 31.658057 
L 212.727841 32.382504 
L 206.944773 33.162225 
L 201.161705 33.955551 
L 195.378636 34.71959 
L 189.595568 35.506847 
L 183.8125 36.304136 
L 178.029432 37.099459 
L 172.246364 37.89172 
L 166.463295 38.682429 
L 160.680227 39.480156 
L 154.897159 40.277079 
L 149.114091 41.0698 
L 143.331023 41.866668 
L 137.547955 42.668815 
L 131.764886 43.420851 
L 125.981818 44.104377 
L 120.19875 44.717769 
L 114.415682 45.260129 
L 108.632614 45.733205 
L 102.849545 46.140796 
L 97.066477 46.479865 
L 91.283409 46.751986 
L 85.500341 46.959079 
L 79.717273 47.102484 
L 73.934205 47.182821 
L 68.151136 47.2075 
z
" style="fill:#d62728;fill-opacity:0.2;"/>
   </g>
   <g id="PolyCollection_7">
    <path clip-path="url(#pe212bccdde)" d="M 68.151136 47.2075 
L 68.151136 47.2075 
L 73.934205 47.18811 
L 79.717273 47.113623 
L 85.500341 46.983057 
L 91.283409 46.796325 
L 97.066477 46.552856 
L 102.849545 46.251889 
L 108.632614 45.893775 
L 114.415682 45.478307 
L 120.19875 45.010417 
L 125.981818 44.486239 
L 131.764886 43.915052 
L 137.547955 43.284862 
L 143.331023 42.628346 
L 149.114091 41.988534 
L 154.897159 41.366959 
L 160.680227 40.757534 
L 166.463295 40.15951 
L 172.246364 39.572181 
L 178.029432 38.997479 
L 183.8125 38.450903 
L 189.595568 37.917424 
L 195.378636 37.383499 
L 201.161705 36.880395 
L 206.944773 36.382084 
L 212.727841 35.904566 
L 218.510909 35.43156 
L 224.293977 35.001183 
L 230.077045 34.591502 
L 235.860114 34.181073 
L 241.643182 33.788008 
L 247.42625 33.411905 
L 253.209318 33.052922 
L 258.992386 32.697252 
L 264.775455 32.352697 
L 270.558523 32.022011 
L 276.341591 31.735317 
L 282.124659 31.470949 
L 287.907727 31.213258 
L 293.690795 30.973695 
L 299.473864 30.77558 
L 299.473864 24.967489 
L 299.473864 24.967489 
L 293.690795 25.387078 
L 287.907727 25.7608 
L 282.124659 26.194493 
L 276.341591 26.632199 
L 270.558523 27.074713 
L 264.775455 27.503839 
L 258.992386 27.927301 
L 253.209318 28.400138 
L 247.42625 28.941049 
L 241.643182 29.553646 
L 235.860114 30.202966 
L 230.077045 30.886702 
L 224.293977 31.550348 
L 218.510909 32.218165 
L 212.727841 32.917471 
L 206.944773 33.625137 
L 201.161705 34.357152 
L 195.378636 35.094485 
L 189.595568 35.842101 
L 183.8125 36.599022 
L 178.029432 37.344716 
L 172.246364 38.110565 
L 166.463295 38.880899 
L 160.680227 39.648059 
L 154.897159 40.415526 
L 149.114091 41.187107 
L 143.331023 41.963724 
L 137.547955 42.748401 
L 131.764886 43.487733 
L 125.981818 44.158657 
L 120.19875 44.759156 
L 114.415682 45.292964 
L 108.632614 45.759269 
L 102.849545 46.158641 
L 97.066477 46.491807 
L 91.283409 46.759707 
L 85.500341 46.963513 
L 79.717273 47.104312 
L 73.934205 47.183876 
L 68.151136 47.2075 
z
" style="fill:#9467bd;fill-opacity:0.2;"/>
   </g>
   <g id="PolyCollection_8">
    <path clip-path="url(#pe212bccdde)" d="M 68.151136 47.2075 
L 68.151136 47.2075 
L 73.934205 47.187282 
L 79.717273 47.111334 
L 85.500341 46.978204 
L 91.283409 46.786988 
L 97.066477 46.536495 
L 102.849545 46.226539 
L 108.632614 45.856408 
L 114.415682 45.426435 
L 120.19875 44.937477 
L 125.981818 44.389649 
L 131.764886 43.78243 
L 137.547955 43.12191 
L 143.331023 42.431014 
L 149.114091 41.755474 
L 154.897159 41.091507 
L 160.680227 40.439943 
L 166.463295 39.81405 
L 172.246364 39.202226 
L 178.029432 38.61223 
L 183.8125 38.02742 
L 189.595568 37.464728 
L 195.378636 36.914885 
L 201.161705 36.379655 
L 206.944773 35.866688 
L 212.727841 35.358671 
L 218.510909 34.867315 
L 224.293977 34.390141 
L 230.077045 33.91324 
L 235.860114 33.476155 
L 241.643182 33.051518 
L 247.42625 32.636935 
L 253.209318 32.237805 
L 258.992386 31.846964 
L 264.775455 31.477345 
L 270.558523 31.101438 
L 276.341591 30.753105 
L 282.124659 30.419354 
L 287.907727 30.091773 
L 293.690795 29.792386 
L 299.473864 29.506896 
L 299.473864 26.604525 
L 299.473864 26.604525 
L 293.690795 27.001785 
L 287.907727 27.39945 
L 282.124659 27.807826 
L 276.341591 28.247193 
L 270.558523 28.651234 
L 264.775455 29.087222 
L 258.992386 29.513469 
L 253.209318 29.938947 
L 247.42625 30.391228 
L 241.643182 30.866958 
L 235.860114 31.368776 
L 230.077045 31.872704 
L 224.293977 32.425932 
L 218.510909 33.009659 
L 212.727841 33.621025 
L 206.944773 34.239449 
L 201.161705 34.909395 
L 195.378636 35.578206 
L 189.595568 36.266097 
L 183.8125 36.971984 
L 178.029432 37.685553 
L 172.246364 38.406621 
L 166.463295 39.134561 
L 160.680227 39.869874 
L 154.897159 40.609629 
L 149.114091 41.355065 
L 143.331023 42.107544 
L 137.547955 42.863255 
L 131.764886 43.579478 
L 125.981818 44.231473 
L 120.19875 44.816438 
L 114.415682 45.33658 
L 108.632614 45.791504 
L 102.849545 46.181339 
L 97.066477 46.506621 
L 91.283409 46.768754 
L 85.500341 46.968253 
L 79.717273 47.106678 
L 73.934205 47.186127 
L 68.151136 47.2075 
z
" style="fill:#8c564b;fill-opacity:0.2;"/>
   </g>
   <g id="matplotlib.axis_1">
    <g id="xtick_1">
     <g id="line2d_1">
      <defs>
       <path d="M 0 0 
L 0 3.5 
" id="mbb1ee72c1b" style="stroke:#000000;stroke-width:0.8;"/>
      </defs>
      <g>
       <use style="stroke:#000000;stroke-width:0.8;" x="68.151136" xlink:href="#mbb1ee72c1b" y="251.94"/>
      </g>
     </g>
     <g id="text_1">
      <!-- 2021 -->
      <g transform="translate(71.462386 289.48)rotate(-90)scale(0.12 -0.12)">
       <defs>
        <path d="M 1228 531 
L 3431 531 
L 3431 0 
L 469 0 
L 469 531 
Q 828 903 1448 1529 
Q 2069 2156 2228 2338 
Q 2531 2678 2651 2914 
Q 2772 3150 2772 3378 
Q 2772 3750 2511 3984 
Q 2250 4219 1831 4219 
Q 1534 4219 1204 4116 
Q 875 4013 500 3803 
L 500 4441 
Q 881 4594 1212 4672 
Q 1544 4750 1819 4750 
Q 2544 4750 2975 4387 
Q 3406 4025 3406 3419 
Q 3406 3131 3298 2873 
Q 3191 2616 2906 2266 
Q 2828 2175 2409 1742 
Q 1991 1309 1228 531 
z
" id="DejaVuSans-32" transform="scale(0.015625)"/>
        <path d="M 2034 4250 
Q 1547 4250 1301 3770 
Q 1056 3291 1056 2328 
Q 1056 1369 1301 889 
Q 1547 409 2034 409 
Q 2525 409 2770 889 
Q 3016 1369 3016 2328 
Q 3016 3291 2770 3770 
Q 2525 4250 2034 4250 
z
M 2034 4750 
Q 2819 4750 3233 4129 
Q 3647 3509 3647 2328 
Q 3647 1150 3233 529 
Q 2819 -91 2034 -91 
Q 1250 -91 836 529 
Q 422 1150 422 2328 
Q 422 3509 836 4129 
Q 1250 4750 2034 4750 
z
" id="DejaVuSans-30" transform="scale(0.015625)"/>
        <path d="M 794 531 
L 1825 531 
L 1825 4091 
L 703 3866 
L 703 4441 
L 1819 4666 
L 2450 4666 
L 2450 531 
L 3481 531 
L 3481 0 
L 794 0 
L 794 531 
z
" id="DejaVuSans-31" transform="scale(0.015625)"/>
       </defs>
       <use xlink:href="#DejaVuSans-32"/>
       <use x="63.623047" xlink:href="#DejaVuSans-30"/>
       <use x="127.246094" xlink:href="#DejaVuSans-32"/>
       <use x="190.869141" xlink:href="#DejaVuSans-31"/>
      </g>
     </g>
    </g>
    <g id="xtick_2">
     <g id="line2d_2">
      <g>
       <use style="stroke:#000000;stroke-width:0.8;" x="91.283409" xlink:href="#mbb1ee72c1b" y="251.94"/>
      </g>
     </g>
     <g id="text_2">
      <!-- 2022 -->
      <g transform="translate(94.594659 289.48)rotate(-90)scale(0.12 -0.12)">
       <use xlink:href="#DejaVuSans-32"/>
       <use x="63.623047" xlink:href="#DejaVuSans-30"/>
       <use x="127.246094" xlink:href="#DejaVuSans-32"/>
       <use x="190.869141" xlink:href="#DejaVuSans-32"/>
      </g>
     </g>
    </g>
    <g id="xtick_3">
     <g id="line2d_3">
      <g>
       <use style="stroke:#000000;stroke-width:0.8;" x="114.415682" xlink:href="#mbb1ee72c1b" y="251.94"/>
      </g>
     </g>
     <g id="text_3">
      <!-- 2023 -->
      <g transform="translate(117.726932 289.48)rotate(-90)scale(0.12 -0.12)">
       <defs>
        <path d="M 2597 2516 
Q 3050 2419 3304 2112 
Q 3559 1806 3559 1356 
Q 3559 666 3084 287 
Q 2609 -91 1734 -91 
Q 1441 -91 1130 -33 
Q 819 25 488 141 
L 488 750 
Q 750 597 1062 519 
Q 1375 441 1716 441 
Q 2309 441 2620 675 
Q 2931 909 2931 1356 
Q 2931 1769 2642 2001 
Q 2353 2234 1838 2234 
L 1294 2234 
L 1294 2753 
L 1863 2753 
Q 2328 2753 2575 2939 
Q 2822 3125 2822 3475 
Q 2822 3834 2567 4026 
Q 2313 4219 1838 4219 
Q 1578 4219 1281 4162 
Q 984 4106 628 3988 
L 628 4550 
Q 988 4650 1302 4700 
Q 1616 4750 1894 4750 
Q 2613 4750 3031 4423 
Q 3450 4097 3450 3541 
Q 3450 3153 3228 2886 
Q 3006 2619 2597 2516 
z
" id="DejaVuSans-33" transform="scale(0.015625)"/>
       </defs>
       <use xlink:href="#DejaVuSans-32"/>
       <use x="63.623047" xlink:href="#DejaVuSans-30"/>
       <use x="127.246094" xlink:href="#DejaVuSans-32"/>
       <use x="190.869141" xlink:href="#DejaVuSans-33"/>
      </g>
     </g>
    </g>
    <g id="xtick_4">
     <g id="line2d_4">
      <g>
       <use style="stroke:#000000;stroke-width:0.8;" x="137.547955" xlink:href="#mbb1ee72c1b" y="251.94"/>
      </g>
     </g>
     <g id="text_4">
      <!-- 2024 -->
      <g transform="translate(140.859205 289.48)rotate(-90)scale(0.12 -0.12)">
       <defs>
        <path d="M 2419 4116 
L 825 1625 
L 2419 1625 
L 2419 4116 
z
M 2253 4666 
L 3047 4666 
L 3047 1625 
L 3713 1625 
L 3713 1100 
L 3047 1100 
L 3047 0 
L 2419 0 
L 2419 1100 
L 313 1100 
L 313 1709 
L 2253 4666 
z
" id="DejaVuSans-34" transform="scale(0.015625)"/>
       </defs>
       <use xlink:href="#DejaVuSans-32"/>
       <use x="63.623047" xlink:href="#DejaVuSans-30"/>
       <use x="127.246094" xlink:href="#DejaVuSans-32"/>
       <use x="190.869141" xlink:href="#DejaVuSans-34"/>
      </g>
     </g>
    </g>
    <g id="xtick_5">
     <g id="line2d_5">
      <g>
       <use style="stroke:#000000;stroke-width:0.8;" x="160.680227" xlink:href="#mbb1ee72c1b" y="251.94"/>
      </g>
     </g>
     <g id="text_5">
      <!-- 2025 -->
      <g transform="translate(163.991477 289.48)rotate(-90)scale(0.12 -0.12)">
       <defs>
        <path d="M 691 4666 
L 3169 4666 
L 3169 4134 
L 1269 4134 
L 1269 2991 
Q 1406 3038 1543 3061 
Q 1681 3084 1819 3084 
Q 2600 3084 3056 2656 
Q 3513 2228 3513 1497 
Q 3513 744 3044 326 
Q 2575 -91 1722 -91 
Q 1428 -91 1123 -41 
Q 819 9 494 109 
L 494 744 
Q 775 591 1075 516 
Q 1375 441 1709 441 
Q 2250 441 2565 725 
Q 2881 1009 2881 1497 
Q 2881 1984 2565 2268 
Q 2250 2553 1709 2553 
Q 1456 2553 1204 2497 
Q 953 2441 691 2322 
L 691 4666 
z
" id="DejaVuSans-35" transform="scale(0.015625)"/>
       </defs>
       <use xlink:href="#DejaVuSans-32"/>
       <use x="63.623047" xlink:href="#DejaVuSans-30"/>
       <use x="127.246094" xlink:href="#DejaVuSans-32"/>
       <use x="190.869141" xlink:href="#DejaVuSans-35"/>
      </g>
     </g>
    </g>
    <g id="xtick_6">
     <g id="line2d_6">
      <g>
       <use style="stroke:#000000;stroke-width:0.8;" x="183.8125" xlink:href="#mbb1ee72c1b" y="251.94"/>
      </g>
     </g>
     <g id="text_6">
      <!-- 2026 -->
      <g transform="translate(187.12375 289.48)rotate(-90)scale(0.12 -0.12)">
       <defs>
        <path d="M 2113 2584 
Q 1688 2584 1439 2293 
Q 1191 2003 1191 1497 
Q 1191 994 1439 701 
Q 1688 409 2113 409 
Q 2538 409 2786 701 
Q 3034 994 3034 1497 
Q 3034 2003 2786 2293 
Q 2538 2584 2113 2584 
z
M 3366 4563 
L 3366 3988 
Q 3128 4100 2886 4159 
Q 2644 4219 2406 4219 
Q 1781 4219 1451 3797 
Q 1122 3375 1075 2522 
Q 1259 2794 1537 2939 
Q 1816 3084 2150 3084 
Q 2853 3084 3261 2657 
Q 3669 2231 3669 1497 
Q 3669 778 3244 343 
Q 2819 -91 2113 -91 
Q 1303 -91 875 529 
Q 447 1150 447 2328 
Q 447 3434 972 4092 
Q 1497 4750 2381 4750 
Q 2619 4750 2861 4703 
Q 3103 4656 3366 4563 
z
" id="DejaVuSans-36" transform="scale(0.015625)"/>
       </defs>
       <use xlink:href="#DejaVuSans-32"/>
       <use x="63.623047" xlink:href="#DejaVuSans-30"/>
       <use x="127.246094" xlink:href="#DejaVuSans-32"/>
       <use x="190.869141" xlink:href="#DejaVuSans-36"/>
      </g>
     </g>
    </g>
    <g id="xtick_7">
     <g id="line2d_7">
      <g>
       <use style="stroke:#000000;stroke-width:0.8;" x="206.944773" xlink:href="#mbb1ee72c1b" y="251.94"/>
      </g>
     </g>
     <g id="text_7">
      <!-- 2027 -->
      <g transform="translate(210.256023 289.48)rotate(-90)scale(0.12 -0.12)">
       <defs>
        <path d="M 525 4666 
L 3525 4666 
L 3525 4397 
L 1831 0 
L 1172 0 
L 2766 4134 
L 525 4134 
L 525 4666 
z
" id="DejaVuSans-37" transform="scale(0.015625)"/>
       </defs>
       <use xlink:href="#DejaVuSans-32"/>
       <use x="63.623047" xlink:href="#DejaVuSans-30"/>
       <use x="127.246094" xlink:href="#DejaVuSans-32"/>
       <use x="190.869141" xlink:href="#DejaVuSans-37"/>
      </g>
     </g>
    </g>
    <g id="xtick_8">
     <g id="line2d_8">
      <g>
       <use style="stroke:#000000;stroke-width:0.8;" x="230.077045" xlink:href="#mbb1ee72c1b" y="251.94"/>
      </g>
     </g>
     <g id="text_8">
      <!-- 2028 -->
      <g transform="translate(233.388295 289.48)rotate(-90)scale(0.12 -0.12)">
       <defs>
        <path d="M 2034 2216 
Q 1584 2216 1326 1975 
Q 1069 1734 1069 1313 
Q 1069 891 1326 650 
Q 1584 409 2034 409 
Q 2484 409 2743 651 
Q 3003 894 3003 1313 
Q 3003 1734 2745 1975 
Q 2488 2216 2034 2216 
z
M 1403 2484 
Q 997 2584 770 2862 
Q 544 3141 544 3541 
Q 544 4100 942 4425 
Q 1341 4750 2034 4750 
Q 2731 4750 3128 4425 
Q 3525 4100 3525 3541 
Q 3525 3141 3298 2862 
Q 3072 2584 2669 2484 
Q 3125 2378 3379 2068 
Q 3634 1759 3634 1313 
Q 3634 634 3220 271 
Q 2806 -91 2034 -91 
Q 1263 -91 848 271 
Q 434 634 434 1313 
Q 434 1759 690 2068 
Q 947 2378 1403 2484 
z
M 1172 3481 
Q 1172 3119 1398 2916 
Q 1625 2713 2034 2713 
Q 2441 2713 2670 2916 
Q 2900 3119 2900 3481 
Q 2900 3844 2670 4047 
Q 2441 4250 2034 4250 
Q 1625 4250 1398 4047 
Q 1172 3844 1172 3481 
z
" id="DejaVuSans-38" transform="scale(0.015625)"/>
       </defs>
       <use xlink:href="#DejaVuSans-32"/>
       <use x="63.623047" xlink:href="#DejaVuSans-30"/>
       <use x="127.246094" xlink:href="#DejaVuSans-32"/>
       <use x="190.869141" xlink:href="#DejaVuSans-38"/>
      </g>
     </g>
    </g>
    <g id="xtick_9">
     <g id="line2d_9">
      <g>
       <use style="stroke:#000000;stroke-width:0.8;" x="253.209318" xlink:href="#mbb1ee72c1b" y="251.94"/>
      </g>
     </g>
     <g id="text_9">
      <!-- 2029 -->
      <g transform="translate(256.520568 289.48)rotate(-90)scale(0.12 -0.12)">
       <defs>
        <path d="M 703 97 
L 703 672 
Q 941 559 1184 500 
Q 1428 441 1663 441 
Q 2288 441 2617 861 
Q 2947 1281 2994 2138 
Q 2813 1869 2534 1725 
Q 2256 1581 1919 1581 
Q 1219 1581 811 2004 
Q 403 2428 403 3163 
Q 403 3881 828 4315 
Q 1253 4750 1959 4750 
Q 2769 4750 3195 4129 
Q 3622 3509 3622 2328 
Q 3622 1225 3098 567 
Q 2575 -91 1691 -91 
Q 1453 -91 1209 -44 
Q 966 3 703 97 
z
M 1959 2075 
Q 2384 2075 2632 2365 
Q 2881 2656 2881 3163 
Q 2881 3666 2632 3958 
Q 2384 4250 1959 4250 
Q 1534 4250 1286 3958 
Q 1038 3666 1038 3163 
Q 1038 2656 1286 2365 
Q 1534 2075 1959 2075 
z
" id="DejaVuSans-39" transform="scale(0.015625)"/>
       </defs>
       <use xlink:href="#DejaVuSans-32"/>
       <use x="63.623047" xlink:href="#DejaVuSans-30"/>
       <use x="127.246094" xlink:href="#DejaVuSans-32"/>
       <use x="190.869141" xlink:href="#DejaVuSans-39"/>
      </g>
     </g>
    </g>
    <g id="xtick_10">
     <g id="line2d_10">
      <g>
       <use style="stroke:#000000;stroke-width:0.8;" x="276.341591" xlink:href="#mbb1ee72c1b" y="251.94"/>
      </g>
     </g>
     <g id="text_10">
      <!-- 2030 -->
      <g transform="translate(279.652841 289.48)rotate(-90)scale(0.12 -0.12)">
       <use xlink:href="#DejaVuSans-32"/>
       <use x="63.623047" xlink:href="#DejaVuSans-30"/>
       <use x="127.246094" xlink:href="#DejaVuSans-33"/>
       <use x="190.869141" xlink:href="#DejaVuSans-30"/>
      </g>
     </g>
    </g>
    <g id="xtick_11">
     <g id="line2d_11">
      <g>
       <use style="stroke:#000000;stroke-width:0.8;" x="299.473864" xlink:href="#mbb1ee72c1b" y="251.94"/>
      </g>
     </g>
     <g id="text_11">
      <!-- 2031 -->
      <g transform="translate(302.785114 289.48)rotate(-90)scale(0.12 -0.12)">
       <use xlink:href="#DejaVuSans-32"/>
       <use x="63.623047" xlink:href="#DejaVuSans-30"/>
       <use x="127.246094" xlink:href="#DejaVuSans-33"/>
       <use x="190.869141" xlink:href="#DejaVuSans-31"/>
      </g>
     </g>
    </g>
   </g>
   <g id="matplotlib.axis_2">
    <g id="ytick_1">
     <g id="line2d_12">
      <defs>
       <path d="M 0 0 
L -3.5 0 
" id="mdbbb1b8103" style="stroke:#000000;stroke-width:0.8;"/>
      </defs>
      <g>
       <use style="stroke:#000000;stroke-width:0.8;" x="56.585" xlink:href="#mdbbb1b8103" y="251.94"/>
      </g>
     </g>
     <g id="text_12">
      <!-- −14% -->
      <g transform="translate(12.8575 256.499063)scale(0.12 -0.12)">
       <defs>
        <path d="M 678 2272 
L 4684 2272 
L 4684 1741 
L 678 1741 
L 678 2272 
z
" id="DejaVuSans-2212" transform="scale(0.015625)"/>
        <path d="M 4653 2053 
Q 4381 2053 4226 1822 
Q 4072 1591 4072 1178 
Q 4072 772 4226 539 
Q 4381 306 4653 306 
Q 4919 306 5073 539 
Q 5228 772 5228 1178 
Q 5228 1588 5073 1820 
Q 4919 2053 4653 2053 
z
M 4653 2450 
Q 5147 2450 5437 2106 
Q 5728 1763 5728 1178 
Q 5728 594 5436 251 
Q 5144 -91 4653 -91 
Q 4153 -91 3862 251 
Q 3572 594 3572 1178 
Q 3572 1766 3864 2108 
Q 4156 2450 4653 2450 
z
M 1428 4353 
Q 1159 4353 1004 4120 
Q 850 3888 850 3481 
Q 850 3069 1003 2837 
Q 1156 2606 1428 2606 
Q 1700 2606 1854 2837 
Q 2009 3069 2009 3481 
Q 2009 3884 1853 4118 
Q 1697 4353 1428 4353 
z
M 4250 4750 
L 4750 4750 
L 1831 -91 
L 1331 -91 
L 4250 4750 
z
M 1428 4750 
Q 1922 4750 2215 4408 
Q 2509 4066 2509 3481 
Q 2509 2891 2217 2550 
Q 1925 2209 1428 2209 
Q 931 2209 642 2551 
Q 353 2894 353 3481 
Q 353 4063 643 4406 
Q 934 4750 1428 4750 
z
" id="DejaVuSans-25" transform="scale(0.015625)"/>
       </defs>
       <use xlink:href="#DejaVuSans-2212"/>
       <use x="83.789062" xlink:href="#DejaVuSans-31"/>
       <use x="147.412109" xlink:href="#DejaVuSans-34"/>
       <use x="211.035156" xlink:href="#DejaVuSans-25"/>
      </g>
     </g>
    </g>
    <g id="ytick_2">
     <g id="line2d_13">
      <g>
       <use style="stroke:#000000;stroke-width:0.8;" x="56.585" xlink:href="#mdbbb1b8103" y="222.6925"/>
      </g>
     </g>
     <g id="text_13">
      <!-- −12% -->
      <g transform="translate(12.8575 227.251563)scale(0.12 -0.12)">
       <use xlink:href="#DejaVuSans-2212"/>
       <use x="83.789062" xlink:href="#DejaVuSans-31"/>
       <use x="147.412109" xlink:href="#DejaVuSans-32"/>
       <use x="211.035156" xlink:href="#DejaVuSans-25"/>
      </g>
     </g>
    </g>
    <g id="ytick_3">
     <g id="line2d_14">
      <g>
       <use style="stroke:#000000;stroke-width:0.8;" x="56.585" xlink:href="#mdbbb1b8103" y="193.445"/>
      </g>
     </g>
     <g id="text_14">
      <!-- −10% -->
      <g transform="translate(12.8575 198.004063)scale(0.12 -0.12)">
       <use xlink:href="#DejaVuSans-2212"/>
       <use x="83.789062" xlink:href="#DejaVuSans-31"/>
       <use x="147.412109" xlink:href="#DejaVuSans-30"/>
       <use x="211.035156" xlink:href="#DejaVuSans-25"/>
      </g>
     </g>
    </g>
    <g id="ytick_4">
     <g id="line2d_15">
      <g>
       <use style="stroke:#000000;stroke-width:0.8;" x="56.585" xlink:href="#mdbbb1b8103" y="164.1975"/>
      </g>
     </g>
     <g id="text_15">
      <!-- −8% -->
      <g transform="translate(20.4925 168.756563)scale(0.12 -0.12)">
       <use xlink:href="#DejaVuSans-2212"/>
       <use x="83.789062" xlink:href="#DejaVuSans-38"/>
       <use x="147.412109" xlink:href="#DejaVuSans-25"/>
      </g>
     </g>
    </g>
    <g id="ytick_5">
     <g id="line2d_16">
      <g>
       <use style="stroke:#000000;stroke-width:0.8;" x="56.585" xlink:href="#mdbbb1b8103" y="134.95"/>
      </g>
     </g>
     <g id="text_16">
      <!-- −6% -->
      <g transform="translate(20.4925 139.509063)scale(0.12 -0.12)">
       <use xlink:href="#DejaVuSans-2212"/>
       <use x="83.789062" xlink:href="#DejaVuSans-36"/>
       <use x="147.412109" xlink:href="#DejaVuSans-25"/>
      </g>
     </g>
    </g>
    <g id="ytick_6">
     <g id="line2d_17">
      <g>
       <use style="stroke:#000000;stroke-width:0.8;" x="56.585" xlink:href="#mdbbb1b8103" y="105.7025"/>
      </g>
     </g>
     <g id="text_17">
      <!-- −4% -->
      <g transform="translate(20.4925 110.261562)scale(0.12 -0.12)">
       <use xlink:href="#DejaVuSans-2212"/>
       <use x="83.789062" xlink:href="#DejaVuSans-34"/>
       <use x="147.412109" xlink:href="#DejaVuSans-25"/>
      </g>
     </g>
    </g>
    <g id="ytick_7">
     <g id="line2d_18">
      <g>
       <use style="stroke:#000000;stroke-width:0.8;" x="56.585" xlink:href="#mdbbb1b8103" y="76.455"/>
      </g>
     </g>
     <g id="text_18">
      <!-- −2% -->
      <g transform="translate(20.4925 81.014062)scale(0.12 -0.12)">
       <use xlink:href="#DejaVuSans-2212"/>
       <use x="83.789062" xlink:href="#DejaVuSans-32"/>
       <use x="147.412109" xlink:href="#DejaVuSans-25"/>
      </g>
     </g>
    </g>
    <g id="ytick_8">
     <g id="line2d_19">
      <g>
       <use style="stroke:#000000;stroke-width:0.8;" x="56.585" xlink:href="#mdbbb1b8103" y="47.2075"/>
      </g>
     </g>
     <g id="text_19">
      <!-- 0% -->
      <g transform="translate(30.548125 51.766562)scale(0.12 -0.12)">
       <use xlink:href="#DejaVuSans-30"/>
       <use x="63.623047" xlink:href="#DejaVuSans-25"/>
      </g>
     </g>
    </g>
    <g id="ytick_9">
     <g id="line2d_20">
      <g>
       <use style="stroke:#000000;stroke-width:0.8;" x="56.585" xlink:href="#mdbbb1b8103" y="17.96"/>
      </g>
     </g>
     <g id="text_20">
      <!-- 2% -->
      <g transform="translate(30.548125 22.519062)scale(0.12 -0.12)">
       <use xlink:href="#DejaVuSans-32"/>
       <use x="63.623047" xlink:href="#DejaVuSans-25"/>
      </g>
     </g>
    </g>
   </g>
   <g id="line2d_21">
    <path clip-path="url(#pe212bccdde)" d="M 68.151136 47.2075 
L 73.934205 62.080172 
L 79.717273 77.224726 
L 85.500341 92.606214 
L 91.283409 108.186247 
L 97.066477 123.936622 
L 102.849545 139.822757 
L 108.632614 155.822948 
L 114.415682 171.90006 
L 120.19875 188.251752 
L 125.981818 205.007083 
L 131.764886 221.706184 
L 137.547955 238.387427 
L 143.331023 238.468631 
L 149.114091 238.450427 
L 154.897159 238.344071 
L 160.680227 238.156759 
L 166.463295 237.891533 
L 172.246364 237.556207 
L 178.029432 237.160934 
L 183.8125 236.708015 
L 189.595568 236.199497 
L 195.378636 235.650816 
L 201.161705 235.05367 
L 206.944773 234.424783 
L 212.727841 233.757434 
L 218.510909 233.060246 
L 224.293977 232.334041 
L 230.077045 231.585541 
L 235.860114 230.813307 
L 241.643182 230.014944 
L 247.42625 229.20289 
L 253.209318 228.369062 
L 258.992386 227.520277 
L 264.775455 226.665252 
L 270.558523 226.869582 
L 276.341591 227.859826 
L 282.124659 228.233672 
L 287.907727 228.214889 
L 293.690795 227.982759 
L 299.473864 227.628535 
" style="fill:none;stroke:#dc143c;stroke-linecap:square;stroke-width:1.5;"/>
   </g>
   <g id="line2d_22">
    <path clip-path="url(#pe212bccdde)" d="M 68.151136 47.2075 
L 299.473864 47.2075 
" style="fill:none;stroke:#000000;stroke-dasharray:1,1.65;stroke-dashoffset:0;"/>
   </g>
   <g id="line2d_23">
    <path clip-path="url(#pe212bccdde)" d="M 68.151136 47.2075 
L 73.934205 47.186028 
L 79.717273 47.10728 
L 85.500341 46.9731 
L 91.283409 46.776451 
L 97.066477 46.514416 
L 102.849545 46.193181 
L 108.632614 45.805239 
L 114.415682 45.35221 
L 120.19875 44.874869 
L 125.981818 44.392876 
L 131.764886 43.836389 
L 137.547955 43.22273 
L 143.331023 42.57562 
L 149.114091 41.936156 
L 154.897159 41.300003 
L 160.680227 40.667962 
L 166.463295 40.051856 
L 172.246364 39.436274 
L 178.029432 38.833232 
L 183.8125 38.226562 
L 189.595568 37.634242 
L 195.378636 37.045665 
L 201.161705 36.467544 
L 206.944773 35.9009 
L 212.727841 35.334336 
L 218.510909 34.781015 
L 224.293977 34.235576 
L 230.077045 33.692424 
L 235.860114 33.165195 
L 241.643182 32.641749 
L 247.42625 32.129468 
L 253.209318 31.62241 
L 258.992386 31.12809 
L 264.775455 30.647432 
L 270.558523 30.359359 
L 276.341591 30.250425 
L 282.124659 30.066747 
L 287.907727 29.83471 
L 293.690795 29.574497 
L 299.473864 29.299986 
" style="fill:none;stroke:#1e90ff;stroke-dasharray:5.55,2.4;stroke-dashoffset:0;stroke-width:1.5;"/>
   </g>
   <g id="line2d_24">
    <path clip-path="url(#pe212bccdde)" d="M 68.151136 47.2075 
L 299.473864 47.2075 
" style="fill:none;stroke:#000000;stroke-dasharray:1,1.65;stroke-dashoffset:0;"/>
   </g>
   <g id="patch_3">
    <path d="M 56.585 251.94 
L 56.585 17.96 
" style="fill:none;stroke:#000000;stroke-linecap:square;stroke-linejoin:miter;stroke-width:0.8;"/>
   </g>
   <g id="patch_4">
    <path d="M 311.04 251.94 
L 311.04 17.96 
" style="fill:none;stroke:#000000;stroke-linecap:square;stroke-linejoin:miter;stroke-width:0.8;"/>
   </g>
   <g id="patch_5">
    <path d="M 56.585 251.94 
L 311.04 251.94 
" style="fill:none;stroke:#000000;stroke-linecap:square;stroke-linejoin:miter;stroke-width:0.8;"/>
   </g>
   <g id="patch_6">
    <path d="M 56.585 17.96 
L 311.04 17.96 
" style="fill:none;stroke:#000000;stroke-linecap:square;stroke-linejoin:miter;stroke-width:0.8;"/>
   </g>
  </g>
 </g>
 <defs>
  <clipPath id="pe212bccdde">
   <rect height="233.98" width="254.455" x="56.585" y="17.96"/>
  </clipPath>
 </defs>
</svg>
