<?xml version="1.0" encoding="utf-8" standalone="no"?>
<!DOCTYPE svg PUBLIC "-//W3C//DTD SVG 1.1//EN"
  "http://www.w3.org/Graphics/SVG/1.1/DTD/svg11.dtd">
<svg height="302.4pt" version="1.1" viewBox="0 0 324 302.4" width="324pt" xmlns="http://www.w3.org/2000/svg" xmlns:xlink="http://www.w3.org/1999/xlink">
 <metadata>
  <rdf:RDF xmlns:cc="http://creativecommons.org/ns#" xmlns:dc="http://purl.org/dc/elements/1.1/" xmlns:rdf="http://www.w3.org/1999/02/22-rdf-syntax-ns#">
   <cc:Work>
    <dc:type rdf:resource="http://purl.org/dc/dcmitype/StillImage"/>
    <dc:date>2021-08-08T11:02:05.616915</dc:date>
    <dc:format>image/svg+xml</dc:format>
    <dc:creator>
     <cc:Agent>
      <dc:title>Matplotlib v3.4.0rc1, https://matplotlib.org/</dc:title>
     </cc:Agent>
    </dc:creator>
   </cc:Work>
  </rdf:RDF>
 </metadata>
 <defs>
  <style type="text/css">*{stroke-linecap:butt;stroke-linejoin:round;}</style>
 </defs>
 <g id="figure_1">
  <g id="patch_1">
   <path d="M 0 302.4 
L 324 302.4 
L 324 0 
L 0 0 
z
" style="fill:none;"/>
  </g>
  <g id="axes_1">
   <g id="patch_2">
    <path d="M 56.585 251.94 
L 311.04 251.94 
L 311.04 17.96 
L 56.585 17.96 
z
" style="fill:#ffffff;"/>
   </g>
   <g id="PolyCollection_1">
    <path clip-path="url(#pb5b8cb6e89)" d="M 68.151136 47.2075 
L 68.151136 47.2075 
L 73.934205 47.266035 
L 79.717273 47.479937 
L 85.500341 47.844717 
L 91.283409 48.351438 
L 97.066477 49.023371 
L 102.849545 49.839822 
L 108.632614 50.814409 
L 114.415682 51.963464 
L 120.19875 53.262821 
L 125.981818 54.783943 
L 131.764886 56.374458 
L 137.547955 58.221672 
L 143.331023 60.303598 
L 149.114091 62.256402 
L 154.897159 64.169975 
L 160.680227 66.219949 
L 166.463295 68.232985 
L 172.246364 70.38235 
L 178.029432 72.092536 
L 183.8125 74.103288 
L 189.595568 76.137157 
L 195.378636 78.091942 
L 201.161705 79.477431 
L 206.944773 81.105889 
L 212.727841 82.998876 
L 218.510909 84.423371 
L 224.293977 85.957472 
L 230.077045 87.641432 
L 235.860114 89.427964 
L 241.643182 90.493574 
L 247.42625 91.701125 
L 253.209318 93.152809 
L 258.992386 94.623153 
L 264.775455 95.688593 
L 270.558523 96.852513 
L 276.341591 98.057079 
L 282.124659 99.079828 
L 287.907727 99.723035 
L 293.690795 100.930477 
L 299.473864 101.872816 
L 299.473864 70.374542 
L 299.473864 70.374542 
L 293.690795 69.869267 
L 287.907727 69.364056 
L 282.124659 68.865364 
L 276.341591 68.241261 
L 270.558523 67.908792 
L 264.775455 67.319139 
L 258.992386 66.79586 
L 253.209318 66.337256 
L 247.42625 65.896783 
L 241.643182 65.462327 
L 235.860114 64.953678 
L 230.077045 64.324429 
L 224.293977 63.755974 
L 218.510909 62.986765 
L 212.727841 62.419952 
L 206.944773 61.86361 
L 201.161705 61.09717 
L 195.378636 60.431191 
L 189.595568 59.811358 
L 183.8125 59.012208 
L 178.029432 58.304192 
L 172.246364 57.51453 
L 166.463295 56.733126 
L 160.680227 55.949681 
L 154.897159 55.154178 
L 149.114091 54.339177 
L 143.331023 53.440824 
L 137.547955 52.601535 
L 131.764886 51.771337 
L 125.981818 50.999546 
L 120.19875 50.297746 
L 114.415682 49.652686 
L 108.632614 49.08669 
L 102.849545 48.600053 
L 97.066477 48.170667 
L 91.283409 47.822531 
L 85.500341 47.546939 
L 79.717273 47.352877 
L 73.934205 47.238505 
L 68.151136 47.2075 
z
" style="fill:#dc143c;fill-opacity:0.2;"/>
   </g>
   <g id="PolyCollection_2">
    <path clip-path="url(#pb5b8cb6e89)" d="M 68.151136 47.2075 
L 68.151136 47.2075 
L 73.934205 47.258944 
L 79.717273 47.445662 
L 85.500341 47.767852 
L 91.283409 48.229389 
L 97.066477 48.833461 
L 102.849545 49.576679 
L 108.632614 50.455366 
L 114.415682 51.481793 
L 120.19875 52.667589 
L 125.981818 54.024047 
L 131.764886 55.513935 
L 137.547955 57.158335 
L 143.331023 58.914688 
L 149.114091 60.686465 
L 154.897159 62.440613 
L 160.680227 64.241656 
L 166.463295 66.03119 
L 172.246364 67.889058 
L 178.029432 69.670435 
L 183.8125 71.449887 
L 189.595568 73.129492 
L 195.378636 74.876466 
L 201.161705 76.557125 
L 206.944773 78.049018 
L 212.727841 79.453485 
L 218.510909 81.026764 
L 224.293977 82.453401 
L 230.077045 83.517678 
L 235.860114 84.670512 
L 241.643182 85.961217 
L 247.42625 87.003192 
L 253.209318 88.11632 
L 258.992386 89.195602 
L 264.775455 90.350081 
L 270.558523 91.597035 
L 276.341591 92.659035 
L 282.124659 93.878723 
L 287.907727 94.881001 
L 293.690795 95.733487 
L 299.473864 96.576368 
L 299.473864 72.664959 
L 299.473864 72.664959 
L 293.690795 72.275306 
L 287.907727 71.759581 
L 282.124659 71.146588 
L 276.341591 70.59344 
L 270.558523 70.091191 
L 264.775455 69.610659 
L 258.992386 69.045811 
L 253.209318 68.571664 
L 247.42625 67.908546 
L 241.643182 67.258373 
L 235.860114 66.664154 
L 230.077045 66.014723 
L 224.293977 65.322856 
L 218.510909 64.591878 
L 212.727841 63.924618 
L 206.944773 63.21261 
L 201.161705 62.445155 
L 195.378636 61.685133 
L 189.595568 60.904537 
L 183.8125 60.130563 
L 178.029432 59.319056 
L 172.246364 58.429542 
L 166.463295 57.585378 
L 160.680227 56.699566 
L 154.897159 55.82661 
L 149.114091 54.91678 
L 143.331023 53.97627 
L 137.547955 53.048184 
L 131.764886 52.138514 
L 125.981818 51.305538 
L 120.19875 50.536669 
L 114.415682 49.849252 
L 108.632614 49.234645 
L 102.849545 48.699573 
L 97.066477 48.241424 
L 91.283409 47.864996 
L 85.500341 47.571575 
L 79.717273 47.363126 
L 73.934205 47.24073 
L 68.151136 47.2075 
z
" style="fill:#1f77b4;fill-opacity:0.2;"/>
   </g>
   <g id="PolyCollection_3">
    <path clip-path="url(#pb5b8cb6e89)" d="M 68.151136 47.2075 
L 68.151136 47.2075 
L 73.934205 47.255137 
L 79.717273 47.428837 
L 85.500341 47.731261 
L 91.283409 48.166012 
L 97.066477 48.729443 
L 102.849545 49.431174 
L 108.632614 50.269625 
L 114.415682 51.235543 
L 120.19875 52.342707 
L 125.981818 53.594324 
L 131.764886 54.976918 
L 137.547955 56.527453 
L 143.331023 58.16949 
L 149.114091 59.83359 
L 154.897159 61.498198 
L 160.680227 63.123791 
L 166.463295 64.821897 
L 172.246364 66.474086 
L 178.029432 68.101313 
L 183.8125 69.684397 
L 189.595568 71.324612 
L 195.378636 72.804554 
L 201.161705 74.318171 
L 206.944773 75.708063 
L 212.727841 76.90103 
L 218.510909 78.282122 
L 224.293977 79.53204 
L 230.077045 80.790757 
L 235.860114 81.932872 
L 241.643182 83.036928 
L 247.42625 84.224033 
L 253.209318 85.3242 
L 258.992386 86.381065 
L 264.775455 87.396667 
L 270.558523 88.421213 
L 276.341591 89.552108 
L 282.124659 90.498297 
L 287.907727 91.475638 
L 293.690795 92.563468 
L 299.473864 93.537451 
L 299.473864 75.236639 
L 299.473864 75.236639 
L 293.690795 74.674603 
L 287.907727 74.055147 
L 282.124659 73.438785 
L 276.341591 72.830303 
L 270.558523 72.264279 
L 264.775455 71.632704 
L 258.992386 71.041561 
L 253.209318 70.393708 
L 247.42625 69.748024 
L 241.643182 69.054904 
L 235.860114 68.292412 
L 230.077045 67.56414 
L 224.293977 66.840958 
L 218.510909 66.078881 
L 212.727841 65.324085 
L 206.944773 64.570636 
L 201.161705 63.761297 
L 195.378636 62.905931 
L 189.595568 62.032811 
L 183.8125 61.182186 
L 178.029432 60.288594 
L 172.246364 59.34456 
L 166.463295 58.413057 
L 160.680227 57.449067 
L 154.897159 56.478068 
L 149.114091 55.493062 
L 143.331023 54.485512 
L 137.547955 53.458775 
L 131.764886 52.481088 
L 125.981818 51.583098 
L 120.19875 50.765307 
L 114.415682 50.0231 
L 108.632614 49.365837 
L 102.849545 48.791197 
L 97.066477 48.301764 
L 91.283409 47.902926 
L 85.500341 47.591558 
L 79.717273 47.370923 
L 73.934205 47.242569 
L 68.151136 47.2075 
z
" style="fill:#ff7f0e;fill-opacity:0.2;"/>
   </g>
   <g id="PolyCollection_4">
    <path clip-path="url(#pb5b8cb6e89)" d="M 68.151136 47.2075 
L 68.151136 47.2075 
L 73.934205 47.251273 
L 79.717273 47.41164 
L 85.500341 47.69001 
L 91.283409 48.088461 
L 97.066477 48.607254 
L 102.849545 49.249121 
L 108.632614 50.013308 
L 114.415682 50.903208 
L 120.19875 51.91873 
L 125.981818 53.048876 
L 131.764886 54.315408 
L 137.547955 55.686503 
L 143.331023 57.134532 
L 149.114091 58.591526 
L 154.897159 60.049878 
L 160.680227 61.507286 
L 166.463295 62.928349 
L 172.246364 64.348925 
L 178.029432 65.768282 
L 183.8125 67.148048 
L 189.595568 68.491444 
L 195.378636 69.809926 
L 201.161705 71.150803 
L 206.944773 72.446807 
L 212.727841 73.677946 
L 218.510909 74.845017 
L 224.293977 75.986744 
L 230.077045 77.089236 
L 235.860114 78.114602 
L 241.643182 79.123396 
L 247.42625 80.09129 
L 253.209318 81.081503 
L 258.992386 82.024156 
L 264.775455 83.05063 
L 270.558523 83.969574 
L 276.341591 84.857767 
L 282.124659 85.717698 
L 287.907727 86.574197 
L 293.690795 87.347533 
L 299.473864 88.150337 
L 299.473864 78.953905 
L 299.473864 78.953905 
L 293.690795 78.272908 
L 287.907727 77.606205 
L 282.124659 76.972125 
L 276.341591 76.308998 
L 270.558523 75.600766 
L 264.775455 74.916006 
L 258.992386 74.198619 
L 253.209318 73.483208 
L 247.42625 72.76277 
L 241.643182 71.961821 
L 235.860114 71.174237 
L 230.077045 70.317006 
L 224.293977 69.490146 
L 218.510909 68.606093 
L 212.727841 67.71475 
L 206.944773 66.779521 
L 201.161705 65.847606 
L 195.378636 64.87246 
L 189.595568 63.884807 
L 183.8125 62.874983 
L 178.029432 61.856374 
L 172.246364 60.799985 
L 166.463295 59.766641 
L 160.680227 58.667028 
L 154.897159 57.55076 
L 149.114091 56.422797 
L 143.331023 55.286438 
L 137.547955 54.138089 
L 131.764886 53.042667 
L 125.981818 52.035702 
L 120.19875 51.11662 
L 114.415682 50.294161 
L 108.632614 49.565322 
L 102.849545 48.934481 
L 97.066477 48.398128 
L 91.283409 47.960482 
L 85.500341 47.621914 
L 79.717273 47.383279 
L 73.934205 47.245098 
L 68.151136 47.2075 
z
" style="fill:#2ca02c;fill-opacity:0.2;"/>
   </g>
   <g id="PolyCollection_5">
    <path clip-path="url(#pb5b8cb6e89)" d="M 68.151136 47.2075 
L 68.151136 47.2075 
L 73.934205 47.273519 
L 79.717273 47.371247 
L 85.500341 47.53423 
L 91.283409 47.758084 
L 97.066477 47.921543 
L 102.849545 48.192687 
L 108.632614 48.519604 
L 114.415682 48.870775 
L 120.19875 49.281442 
L 125.981818 49.399427 
L 131.764886 49.754156 
L 137.547955 50.103031 
L 143.331023 50.078452 
L 149.114091 50.236995 
L 154.897159 51.15575 
L 160.680227 51.320836 
L 166.463295 51.675177 
L 172.246364 52.524845 
L 178.029432 53.30159 
L 183.8125 54.599524 
L 189.595568 55.329946 
L 195.378636 55.671045 
L 201.161705 55.777278 
L 206.944773 56.624563 
L 212.727841 57.543698 
L 218.510909 58.655125 
L 224.293977 58.500257 
L 230.077045 59.795686 
L 235.860114 59.980041 
L 241.643182 60.700922 
L 247.42625 61.232457 
L 253.209318 62.381683 
L 258.992386 62.357143 
L 264.775455 62.460386 
L 270.558523 64.102038 
L 276.341591 64.467177 
L 282.124659 64.556765 
L 287.907727 64.900479 
L 293.690795 65.194121 
L 299.473864 65.169525 
L 299.473864 48.330798 
L 299.473864 48.330798 
L 293.690795 47.715531 
L 287.907727 48.017268 
L 282.124659 48.329526 
L 276.341591 48.338833 
L 270.558523 48.047329 
L 264.775455 47.324282 
L 258.992386 46.158305 
L 253.209318 46.411453 
L 247.42625 45.999218 
L 241.643182 44.988346 
L 235.860114 45.890401 
L 230.077045 46.510237 
L 224.293977 44.725551 
L 218.510909 44.573311 
L 212.727841 44.499473 
L 206.944773 44.814443 
L 201.161705 44.056552 
L 195.378636 45.20313 
L 189.595568 45.252146 
L 183.8125 45.220423 
L 178.029432 45.237173 
L 172.246364 45.383003 
L 166.463295 45.867888 
L 160.680227 45.898708 
L 154.897159 46.850506 
L 149.114091 46.328777 
L 143.331023 46.379176 
L 137.547955 45.775735 
L 131.764886 46.049972 
L 125.981818 46.003876 
L 120.19875 45.822153 
L 114.415682 45.99892 
L 108.632614 46.197157 
L 102.849545 46.437929 
L 97.066477 46.60675 
L 91.283409 46.70728 
L 85.500341 46.902438 
L 79.717273 47.051983 
L 73.934205 47.141478 
L 68.151136 47.2075 
z
" style="fill:#1e90ff;fill-opacity:0.2;"/>
   </g>
   <g id="PolyCollection_6">
    <path clip-path="url(#pb5b8cb6e89)" d="M 68.151136 47.2075 
L 68.151136 47.2075 
L 73.934205 47.21169 
L 79.717273 47.215773 
L 85.500341 47.229617 
L 91.283409 47.261012 
L 97.066477 47.312948 
L 102.849545 47.390176 
L 108.632614 47.497118 
L 114.415682 47.632229 
L 120.19875 47.806946 
L 125.981818 48.013518 
L 131.764886 48.259078 
L 137.547955 48.547222 
L 143.331023 48.87679 
L 149.114091 49.246731 
L 154.897159 49.648907 
L 160.680227 50.090729 
L 166.463295 50.569967 
L 172.246364 51.053852 
L 178.029432 51.539967 
L 183.8125 52.022412 
L 189.595568 52.577026 
L 195.378636 53.102088 
L 201.161705 53.607261 
L 206.944773 54.137433 
L 212.727841 54.646922 
L 218.510909 55.17612 
L 224.293977 55.658044 
L 230.077045 56.199495 
L 235.860114 56.706573 
L 241.643182 57.196716 
L 247.42625 57.643621 
L 253.209318 58.193199 
L 258.992386 58.68128 
L 264.775455 59.095628 
L 270.558523 59.541935 
L 276.341591 59.996335 
L 282.124659 60.460954 
L 287.907727 60.922109 
L 293.690795 61.380839 
L 299.473864 61.810498 
L 299.473864 52.843265 
L 299.473864 52.843265 
L 293.690795 52.642891 
L 287.907727 52.466524 
L 282.124659 52.276833 
L 276.341591 52.082596 
L 270.558523 51.882705 
L 264.775455 51.713599 
L 258.992386 51.518008 
L 253.209318 51.308083 
L 247.42625 51.108146 
L 241.643182 50.907354 
L 235.860114 50.691335 
L 230.077045 50.487733 
L 224.293977 50.285476 
L 218.510909 50.091381 
L 212.727841 49.901084 
L 206.944773 49.708168 
L 201.161705 49.496098 
L 195.378636 49.302526 
L 189.595568 49.117101 
L 183.8125 48.927959 
L 178.029432 48.748023 
L 172.246364 48.572781 
L 166.463295 48.396926 
L 160.680227 48.232259 
L 154.897159 48.077702 
L 149.114091 47.934175 
L 143.331023 47.800535 
L 137.547955 47.687071 
L 131.764886 47.581749 
L 125.981818 47.493274 
L 120.19875 47.418524 
L 114.415682 47.357817 
L 108.632614 47.309459 
L 102.849545 47.272366 
L 97.066477 47.244825 
L 91.283409 47.224796 
L 85.500341 47.215454 
L 79.717273 47.2075 
L 73.934205 47.2075 
L 68.151136 47.2075 
z
" style="fill:#d62728;fill-opacity:0.2;"/>
   </g>
   <g id="PolyCollection_7">
    <path clip-path="url(#pb5b8cb6e89)" d="M 68.151136 47.2075 
L 68.151136 47.2075 
L 73.934205 47.2075 
L 79.717273 47.211925 
L 85.500341 47.225746 
L 91.283409 47.254785 
L 97.066477 47.300721 
L 102.849545 47.369389 
L 108.632614 47.461697 
L 114.415682 47.583402 
L 120.19875 47.735581 
L 125.981818 47.919308 
L 131.764886 48.139652 
L 137.547955 48.394427 
L 143.331023 48.689851 
L 149.114091 49.016718 
L 154.897159 49.373134 
L 160.680227 49.758152 
L 166.463295 50.164454 
L 172.246364 50.583177 
L 178.029432 51.037018 
L 183.8125 51.497752 
L 189.595568 51.95948 
L 195.378636 52.440014 
L 201.161705 52.922074 
L 206.944773 53.391228 
L 212.727841 53.835485 
L 218.510909 54.295882 
L 224.293977 54.770579 
L 230.077045 55.188691 
L 235.860114 55.640504 
L 241.643182 56.078455 
L 247.42625 56.528955 
L 253.209318 56.982261 
L 258.992386 57.4252 
L 264.775455 57.854579 
L 270.558523 58.284609 
L 276.341591 58.66074 
L 282.124659 59.083781 
L 287.907727 59.506839 
L 293.690795 59.929013 
L 299.473864 60.299183 
L 299.473864 53.442497 
L 299.473864 53.442497 
L 293.690795 53.24835 
L 287.907727 53.049722 
L 282.124659 52.855111 
L 276.341591 52.646747 
L 270.558523 52.418684 
L 264.775455 52.206627 
L 258.992386 51.993865 
L 253.209318 51.762738 
L 247.42625 51.52962 
L 241.643182 51.313486 
L 235.860114 51.093237 
L 230.077045 50.878408 
L 224.293977 50.655015 
L 218.510909 50.432816 
L 212.727841 50.208524 
L 206.944773 49.98378 
L 201.161705 49.762926 
L 195.378636 49.540648 
L 189.595568 49.329379 
L 183.8125 49.119424 
L 178.029432 48.916305 
L 172.246364 48.714269 
L 166.463295 48.525562 
L 160.680227 48.343398 
L 154.897159 48.171661 
L 149.114091 48.010377 
L 143.331023 47.865163 
L 137.547955 47.735617 
L 131.764886 47.620838 
L 125.981818 47.523865 
L 120.19875 47.441306 
L 114.415682 47.373485 
L 108.632614 47.320555 
L 102.849545 47.27895 
L 97.066477 47.248753 
L 91.283409 47.228318 
L 85.500341 47.215698 
L 79.717273 47.2075 
L 73.934205 47.2075 
L 68.151136 47.2075 
z
" style="fill:#9467bd;fill-opacity:0.2;"/>
   </g>
   <g id="PolyCollection_8">
    <path clip-path="url(#pb5b8cb6e89)" d="M 68.151136 47.2075 
L 68.151136 47.2075 
L 73.934205 47.2075 
L 79.717273 47.211789 
L 85.500341 47.224388 
L 91.283409 47.246712 
L 97.066477 47.285218 
L 102.849545 47.341867 
L 108.632614 47.418761 
L 114.415682 47.519398 
L 120.19875 47.644478 
L 125.981818 47.796319 
L 131.764886 47.97751 
L 137.547955 48.186929 
L 143.331023 48.425675 
L 149.114091 48.696019 
L 154.897159 48.990329 
L 160.680227 49.305924 
L 166.463295 49.637584 
L 172.246364 49.991109 
L 178.029432 50.348204 
L 183.8125 50.729023 
L 189.595568 51.113112 
L 195.378636 51.502037 
L 201.161705 51.889934 
L 206.944773 52.286739 
L 212.727841 52.669691 
L 218.510909 53.058687 
L 224.293977 53.460011 
L 230.077045 53.857064 
L 235.860114 54.226231 
L 241.643182 54.613137 
L 247.42625 54.984305 
L 253.209318 55.364431 
L 258.992386 55.727949 
L 264.775455 56.077421 
L 270.558523 56.429029 
L 276.341591 56.768957 
L 282.124659 57.108577 
L 287.907727 57.453557 
L 293.690795 57.796612 
L 299.473864 58.149865 
L 299.473864 54.470605 
L 299.473864 54.470605 
L 293.690795 54.224221 
L 287.907727 53.985123 
L 282.124659 53.743668 
L 276.341591 53.495554 
L 270.558523 53.248008 
L 264.775455 53.008286 
L 258.992386 52.771745 
L 253.209318 52.537447 
L 247.42625 52.286797 
L 241.643182 52.0343 
L 235.860114 51.770726 
L 230.077045 51.501165 
L 224.293977 51.241934 
L 218.510909 50.981957 
L 212.727841 50.722586 
L 206.944773 50.45848 
L 201.161705 50.19747 
L 195.378636 49.937731 
L 189.595568 49.687867 
L 183.8125 49.437779 
L 178.029432 49.196768 
L 172.246364 48.965735 
L 166.463295 48.742408 
L 160.680227 48.530269 
L 154.897159 48.330085 
L 149.114091 48.143983 
L 143.331023 47.973526 
L 137.547955 47.821583 
L 131.764886 47.688974 
L 125.981818 47.575726 
L 120.19875 47.480397 
L 114.415682 47.401651 
L 108.632614 47.338731 
L 102.849545 47.291193 
L 97.066477 47.255548 
L 91.283409 47.232366 
L 85.500341 47.216108 
L 79.717273 47.211452 
L 73.934205 47.2075 
L 68.151136 47.2075 
z
" style="fill:#8c564b;fill-opacity:0.2;"/>
   </g>
   <g id="matplotlib.axis_1">
    <g id="xtick_1">
     <g id="line2d_1">
      <defs>
       <path d="M 0 0 
L 0 3.5 
" id="m67ae238ece" style="stroke:#000000;stroke-width:0.8;"/>
      </defs>
      <g>
       <use style="stroke:#000000;stroke-width:0.8;" x="68.151136" xlink:href="#m67ae238ece" y="251.94"/>
      </g>
     </g>
     <g id="text_1">
      <!-- 2021 -->
      <g transform="translate(71.462386 289.48)rotate(-90)scale(0.12 -0.12)">
       <defs>
        <path d="M 1228 531 
L 3431 531 
L 3431 0 
L 469 0 
L 469 531 
Q 828 903 1448 1529 
Q 2069 2156 2228 2338 
Q 2531 2678 2651 2914 
Q 2772 3150 2772 3378 
Q 2772 3750 2511 3984 
Q 2250 4219 1831 4219 
Q 1534 4219 1204 4116 
Q 875 4013 500 3803 
L 500 4441 
Q 881 4594 1212 4672 
Q 1544 4750 1819 4750 
Q 2544 4750 2975 4387 
Q 3406 4025 3406 3419 
Q 3406 3131 3298 2873 
Q 3191 2616 2906 2266 
Q 2828 2175 2409 1742 
Q 1991 1309 1228 531 
z
" id="DejaVuSans-32" transform="scale(0.015625)"/>
        <path d="M 2034 4250 
Q 1547 4250 1301 3770 
Q 1056 3291 1056 2328 
Q 1056 1369 1301 889 
Q 1547 409 2034 409 
Q 2525 409 2770 889 
Q 3016 1369 3016 2328 
Q 3016 3291 2770 3770 
Q 2525 4250 2034 4250 
z
M 2034 4750 
Q 2819 4750 3233 4129 
Q 3647 3509 3647 2328 
Q 3647 1150 3233 529 
Q 2819 -91 2034 -91 
Q 1250 -91 836 529 
Q 422 1150 422 2328 
Q 422 3509 836 4129 
Q 1250 4750 2034 4750 
z
" id="DejaVuSans-30" transform="scale(0.015625)"/>
        <path d="M 794 531 
L 1825 531 
L 1825 4091 
L 703 3866 
L 703 4441 
L 1819 4666 
L 2450 4666 
L 2450 531 
L 3481 531 
L 3481 0 
L 794 0 
L 794 531 
z
" id="DejaVuSans-31" transform="scale(0.015625)"/>
       </defs>
       <use xlink:href="#DejaVuSans-32"/>
       <use x="63.623047" xlink:href="#DejaVuSans-30"/>
       <use x="127.246094" xlink:href="#DejaVuSans-32"/>
       <use x="190.869141" xlink:href="#DejaVuSans-31"/>
      </g>
     </g>
    </g>
    <g id="xtick_2">
     <g id="line2d_2">
      <g>
       <use style="stroke:#000000;stroke-width:0.8;" x="91.283409" xlink:href="#m67ae238ece" y="251.94"/>
      </g>
     </g>
     <g id="text_2">
      <!-- 2022 -->
      <g transform="translate(94.594659 289.48)rotate(-90)scale(0.12 -0.12)">
       <use xlink:href="#DejaVuSans-32"/>
       <use x="63.623047" xlink:href="#DejaVuSans-30"/>
       <use x="127.246094" xlink:href="#DejaVuSans-32"/>
       <use x="190.869141" xlink:href="#DejaVuSans-32"/>
      </g>
     </g>
    </g>
    <g id="xtick_3">
     <g id="line2d_3">
      <g>
       <use style="stroke:#000000;stroke-width:0.8;" x="114.415682" xlink:href="#m67ae238ece" y="251.94"/>
      </g>
     </g>
     <g id="text_3">
      <!-- 2023 -->
      <g transform="translate(117.726932 289.48)rotate(-90)scale(0.12 -0.12)">
       <defs>
        <path d="M 2597 2516 
Q 3050 2419 3304 2112 
Q 3559 1806 3559 1356 
Q 3559 666 3084 287 
Q 2609 -91 1734 -91 
Q 1441 -91 1130 -33 
Q 819 25 488 141 
L 488 750 
Q 750 597 1062 519 
Q 1375 441 1716 441 
Q 2309 441 2620 675 
Q 2931 909 2931 1356 
Q 2931 1769 2642 2001 
Q 2353 2234 1838 2234 
L 1294 2234 
L 1294 2753 
L 1863 2753 
Q 2328 2753 2575 2939 
Q 2822 3125 2822 3475 
Q 2822 3834 2567 4026 
Q 2313 4219 1838 4219 
Q 1578 4219 1281 4162 
Q 984 4106 628 3988 
L 628 4550 
Q 988 4650 1302 4700 
Q 1616 4750 1894 4750 
Q 2613 4750 3031 4423 
Q 3450 4097 3450 3541 
Q 3450 3153 3228 2886 
Q 3006 2619 2597 2516 
z
" id="DejaVuSans-33" transform="scale(0.015625)"/>
       </defs>
       <use xlink:href="#DejaVuSans-32"/>
       <use x="63.623047" xlink:href="#DejaVuSans-30"/>
       <use x="127.246094" xlink:href="#DejaVuSans-32"/>
       <use x="190.869141" xlink:href="#DejaVuSans-33"/>
      </g>
     </g>
    </g>
    <g id="xtick_4">
     <g id="line2d_4">
      <g>
       <use style="stroke:#000000;stroke-width:0.8;" x="137.547955" xlink:href="#m67ae238ece" y="251.94"/>
      </g>
     </g>
     <g id="text_4">
      <!-- 2024 -->
      <g transform="translate(140.859205 289.48)rotate(-90)scale(0.12 -0.12)">
       <defs>
        <path d="M 2419 4116 
L 825 1625 
L 2419 1625 
L 2419 4116 
z
M 2253 4666 
L 3047 4666 
L 3047 1625 
L 3713 1625 
L 3713 1100 
L 3047 1100 
L 3047 0 
L 2419 0 
L 2419 1100 
L 313 1100 
L 313 1709 
L 2253 4666 
z
" id="DejaVuSans-34" transform="scale(0.015625)"/>
       </defs>
       <use xlink:href="#DejaVuSans-32"/>
       <use x="63.623047" xlink:href="#DejaVuSans-30"/>
       <use x="127.246094" xlink:href="#DejaVuSans-32"/>
       <use x="190.869141" xlink:href="#DejaVuSans-34"/>
      </g>
     </g>
    </g>
    <g id="xtick_5">
     <g id="line2d_5">
      <g>
       <use style="stroke:#000000;stroke-width:0.8;" x="160.680227" xlink:href="#m67ae238ece" y="251.94"/>
      </g>
     </g>
     <g id="text_5">
      <!-- 2025 -->
      <g transform="translate(163.991477 289.48)rotate(-90)scale(0.12 -0.12)">
       <defs>
        <path d="M 691 4666 
L 3169 4666 
L 3169 4134 
L 1269 4134 
L 1269 2991 
Q 1406 3038 1543 3061 
Q 1681 3084 1819 3084 
Q 2600 3084 3056 2656 
Q 3513 2228 3513 1497 
Q 3513 744 3044 326 
Q 2575 -91 1722 -91 
Q 1428 -91 1123 -41 
Q 819 9 494 109 
L 494 744 
Q 775 591 1075 516 
Q 1375 441 1709 441 
Q 2250 441 2565 725 
Q 2881 1009 2881 1497 
Q 2881 1984 2565 2268 
Q 2250 2553 1709 2553 
Q 1456 2553 1204 2497 
Q 953 2441 691 2322 
L 691 4666 
z
" id="DejaVuSans-35" transform="scale(0.015625)"/>
       </defs>
       <use xlink:href="#DejaVuSans-32"/>
       <use x="63.623047" xlink:href="#DejaVuSans-30"/>
       <use x="127.246094" xlink:href="#DejaVuSans-32"/>
       <use x="190.869141" xlink:href="#DejaVuSans-35"/>
      </g>
     </g>
    </g>
    <g id="xtick_6">
     <g id="line2d_6">
      <g>
       <use style="stroke:#000000;stroke-width:0.8;" x="183.8125" xlink:href="#m67ae238ece" y="251.94"/>
      </g>
     </g>
     <g id="text_6">
      <!-- 2026 -->
      <g transform="translate(187.12375 289.48)rotate(-90)scale(0.12 -0.12)">
       <defs>
        <path d="M 2113 2584 
Q 1688 2584 1439 2293 
Q 1191 2003 1191 1497 
Q 1191 994 1439 701 
Q 1688 409 2113 409 
Q 2538 409 2786 701 
Q 3034 994 3034 1497 
Q 3034 2003 2786 2293 
Q 2538 2584 2113 2584 
z
M 3366 4563 
L 3366 3988 
Q 3128 4100 2886 4159 
Q 2644 4219 2406 4219 
Q 1781 4219 1451 3797 
Q 1122 3375 1075 2522 
Q 1259 2794 1537 2939 
Q 1816 3084 2150 3084 
Q 2853 3084 3261 2657 
Q 3669 2231 3669 1497 
Q 3669 778 3244 343 
Q 2819 -91 2113 -91 
Q 1303 -91 875 529 
Q 447 1150 447 2328 
Q 447 3434 972 4092 
Q 1497 4750 2381 4750 
Q 2619 4750 2861 4703 
Q 3103 4656 3366 4563 
z
" id="DejaVuSans-36" transform="scale(0.015625)"/>
       </defs>
       <use xlink:href="#DejaVuSans-32"/>
       <use x="63.623047" xlink:href="#DejaVuSans-30"/>
       <use x="127.246094" xlink:href="#DejaVuSans-32"/>
       <use x="190.869141" xlink:href="#DejaVuSans-36"/>
      </g>
     </g>
    </g>
    <g id="xtick_7">
     <g id="line2d_7">
      <g>
       <use style="stroke:#000000;stroke-width:0.8;" x="206.944773" xlink:href="#m67ae238ece" y="251.94"/>
      </g>
     </g>
     <g id="text_7">
      <!-- 2027 -->
      <g transform="translate(210.256023 289.48)rotate(-90)scale(0.12 -0.12)">
       <defs>
        <path d="M 525 4666 
L 3525 4666 
L 3525 4397 
L 1831 0 
L 1172 0 
L 2766 4134 
L 525 4134 
L 525 4666 
z
" id="DejaVuSans-37" transform="scale(0.015625)"/>
       </defs>
       <use xlink:href="#DejaVuSans-32"/>
       <use x="63.623047" xlink:href="#DejaVuSans-30"/>
       <use x="127.246094" xlink:href="#DejaVuSans-32"/>
       <use x="190.869141" xlink:href="#DejaVuSans-37"/>
      </g>
     </g>
    </g>
    <g id="xtick_8">
     <g id="line2d_8">
      <g>
       <use style="stroke:#000000;stroke-width:0.8;" x="230.077045" xlink:href="#m67ae238ece" y="251.94"/>
      </g>
     </g>
     <g id="text_8">
      <!-- 2028 -->
      <g transform="translate(233.388295 289.48)rotate(-90)scale(0.12 -0.12)">
       <defs>
        <path d="M 2034 2216 
Q 1584 2216 1326 1975 
Q 1069 1734 1069 1313 
Q 1069 891 1326 650 
Q 1584 409 2034 409 
Q 2484 409 2743 651 
Q 3003 894 3003 1313 
Q 3003 1734 2745 1975 
Q 2488 2216 2034 2216 
z
M 1403 2484 
Q 997 2584 770 2862 
Q 544 3141 544 3541 
Q 544 4100 942 4425 
Q 1341 4750 2034 4750 
Q 2731 4750 3128 4425 
Q 3525 4100 3525 3541 
Q 3525 3141 3298 2862 
Q 3072 2584 2669 2484 
Q 3125 2378 3379 2068 
Q 3634 1759 3634 1313 
Q 3634 634 3220 271 
Q 2806 -91 2034 -91 
Q 1263 -91 848 271 
Q 434 634 434 1313 
Q 434 1759 690 2068 
Q 947 2378 1403 2484 
z
M 1172 3481 
Q 1172 3119 1398 2916 
Q 1625 2713 2034 2713 
Q 2441 2713 2670 2916 
Q 2900 3119 2900 3481 
Q 2900 3844 2670 4047 
Q 2441 4250 2034 4250 
Q 1625 4250 1398 4047 
Q 1172 3844 1172 3481 
z
" id="DejaVuSans-38" transform="scale(0.015625)"/>
       </defs>
       <use xlink:href="#DejaVuSans-32"/>
       <use x="63.623047" xlink:href="#DejaVuSans-30"/>
       <use x="127.246094" xlink:href="#DejaVuSans-32"/>
       <use x="190.869141" xlink:href="#DejaVuSans-38"/>
      </g>
     </g>
    </g>
    <g id="xtick_9">
     <g id="line2d_9">
      <g>
       <use style="stroke:#000000;stroke-width:0.8;" x="253.209318" xlink:href="#m67ae238ece" y="251.94"/>
      </g>
     </g>
     <g id="text_9">
      <!-- 2029 -->
      <g transform="translate(256.520568 289.48)rotate(-90)scale(0.12 -0.12)">
       <defs>
        <path d="M 703 97 
L 703 672 
Q 941 559 1184 500 
Q 1428 441 1663 441 
Q 2288 441 2617 861 
Q 2947 1281 2994 2138 
Q 2813 1869 2534 1725 
Q 2256 1581 1919 1581 
Q 1219 1581 811 2004 
Q 403 2428 403 3163 
Q 403 3881 828 4315 
Q 1253 4750 1959 4750 
Q 2769 4750 3195 4129 
Q 3622 3509 3622 2328 
Q 3622 1225 3098 567 
Q 2575 -91 1691 -91 
Q 1453 -91 1209 -44 
Q 966 3 703 97 
z
M 1959 2075 
Q 2384 2075 2632 2365 
Q 2881 2656 2881 3163 
Q 2881 3666 2632 3958 
Q 2384 4250 1959 4250 
Q 1534 4250 1286 3958 
Q 1038 3666 1038 3163 
Q 1038 2656 1286 2365 
Q 1534 2075 1959 2075 
z
" id="DejaVuSans-39" transform="scale(0.015625)"/>
       </defs>
       <use xlink:href="#DejaVuSans-32"/>
       <use x="63.623047" xlink:href="#DejaVuSans-30"/>
       <use x="127.246094" xlink:href="#DejaVuSans-32"/>
       <use x="190.869141" xlink:href="#DejaVuSans-39"/>
      </g>
     </g>
    </g>
    <g id="xtick_10">
     <g id="line2d_10">
      <g>
       <use style="stroke:#000000;stroke-width:0.8;" x="276.341591" xlink:href="#m67ae238ece" y="251.94"/>
      </g>
     </g>
     <g id="text_10">
      <!-- 2030 -->
      <g transform="translate(279.652841 289.48)rotate(-90)scale(0.12 -0.12)">
       <use xlink:href="#DejaVuSans-32"/>
       <use x="63.623047" xlink:href="#DejaVuSans-30"/>
       <use x="127.246094" xlink:href="#DejaVuSans-33"/>
       <use x="190.869141" xlink:href="#DejaVuSans-30"/>
      </g>
     </g>
    </g>
    <g id="xtick_11">
     <g id="line2d_11">
      <g>
       <use style="stroke:#000000;stroke-width:0.8;" x="299.473864" xlink:href="#m67ae238ece" y="251.94"/>
      </g>
     </g>
     <g id="text_11">
      <!-- 2031 -->
      <g transform="translate(302.785114 289.48)rotate(-90)scale(0.12 -0.12)">
       <use xlink:href="#DejaVuSans-32"/>
       <use x="63.623047" xlink:href="#DejaVuSans-30"/>
       <use x="127.246094" xlink:href="#DejaVuSans-33"/>
       <use x="190.869141" xlink:href="#DejaVuSans-31"/>
      </g>
     </g>
    </g>
   </g>
   <g id="matplotlib.axis_2">
    <g id="ytick_1">
     <g id="line2d_12">
      <defs>
       <path d="M 0 0 
L -3.5 0 
" id="m62d42ecbe9" style="stroke:#000000;stroke-width:0.8;"/>
      </defs>
      <g>
       <use style="stroke:#000000;stroke-width:0.8;" x="56.585" xlink:href="#m62d42ecbe9" y="251.94"/>
      </g>
     </g>
     <g id="text_12">
      <!-- −14% -->
      <g transform="translate(12.8575 256.499063)scale(0.12 -0.12)">
       <defs>
        <path d="M 678 2272 
L 4684 2272 
L 4684 1741 
L 678 1741 
L 678 2272 
z
" id="DejaVuSans-2212" transform="scale(0.015625)"/>
        <path d="M 4653 2053 
Q 4381 2053 4226 1822 
Q 4072 1591 4072 1178 
Q 4072 772 4226 539 
Q 4381 306 4653 306 
Q 4919 306 5073 539 
Q 5228 772 5228 1178 
Q 5228 1588 5073 1820 
Q 4919 2053 4653 2053 
z
M 4653 2450 
Q 5147 2450 5437 2106 
Q 5728 1763 5728 1178 
Q 5728 594 5436 251 
Q 5144 -91 4653 -91 
Q 4153 -91 3862 251 
Q 3572 594 3572 1178 
Q 3572 1766 3864 2108 
Q 4156 2450 4653 2450 
z
M 1428 4353 
Q 1159 4353 1004 4120 
Q 850 3888 850 3481 
Q 850 3069 1003 2837 
Q 1156 2606 1428 2606 
Q 1700 2606 1854 2837 
Q 2009 3069 2009 3481 
Q 2009 3884 1853 4118 
Q 1697 4353 1428 4353 
z
M 4250 4750 
L 4750 4750 
L 1831 -91 
L 1331 -91 
L 4250 4750 
z
M 1428 4750 
Q 1922 4750 2215 4408 
Q 2509 4066 2509 3481 
Q 2509 2891 2217 2550 
Q 1925 2209 1428 2209 
Q 931 2209 642 2551 
Q 353 2894 353 3481 
Q 353 4063 643 4406 
Q 934 4750 1428 4750 
z
" id="DejaVuSans-25" transform="scale(0.015625)"/>
       </defs>
       <use xlink:href="#DejaVuSans-2212"/>
       <use x="83.789062" xlink:href="#DejaVuSans-31"/>
       <use x="147.412109" xlink:href="#DejaVuSans-34"/>
       <use x="211.035156" xlink:href="#DejaVuSans-25"/>
      </g>
     </g>
    </g>
    <g id="ytick_2">
     <g id="line2d_13">
      <g>
       <use style="stroke:#000000;stroke-width:0.8;" x="56.585" xlink:href="#m62d42ecbe9" y="222.6925"/>
      </g>
     </g>
     <g id="text_13">
      <!-- −12% -->
      <g transform="translate(12.8575 227.251563)scale(0.12 -0.12)">
       <use xlink:href="#DejaVuSans-2212"/>
       <use x="83.789062" xlink:href="#DejaVuSans-31"/>
       <use x="147.412109" xlink:href="#DejaVuSans-32"/>
       <use x="211.035156" xlink:href="#DejaVuSans-25"/>
      </g>
     </g>
    </g>
    <g id="ytick_3">
     <g id="line2d_14">
      <g>
       <use style="stroke:#000000;stroke-width:0.8;" x="56.585" xlink:href="#m62d42ecbe9" y="193.445"/>
      </g>
     </g>
     <g id="text_14">
      <!-- −10% -->
      <g transform="translate(12.8575 198.004063)scale(0.12 -0.12)">
       <use xlink:href="#DejaVuSans-2212"/>
       <use x="83.789062" xlink:href="#DejaVuSans-31"/>
       <use x="147.412109" xlink:href="#DejaVuSans-30"/>
       <use x="211.035156" xlink:href="#DejaVuSans-25"/>
      </g>
     </g>
    </g>
    <g id="ytick_4">
     <g id="line2d_15">
      <g>
       <use style="stroke:#000000;stroke-width:0.8;" x="56.585" xlink:href="#m62d42ecbe9" y="164.1975"/>
      </g>
     </g>
     <g id="text_15">
      <!-- −8% -->
      <g transform="translate(20.4925 168.756563)scale(0.12 -0.12)">
       <use xlink:href="#DejaVuSans-2212"/>
       <use x="83.789062" xlink:href="#DejaVuSans-38"/>
       <use x="147.412109" xlink:href="#DejaVuSans-25"/>
      </g>
     </g>
    </g>
    <g id="ytick_5">
     <g id="line2d_16">
      <g>
       <use style="stroke:#000000;stroke-width:0.8;" x="56.585" xlink:href="#m62d42ecbe9" y="134.95"/>
      </g>
     </g>
     <g id="text_16">
      <!-- −6% -->
      <g transform="translate(20.4925 139.509063)scale(0.12 -0.12)">
       <use xlink:href="#DejaVuSans-2212"/>
       <use x="83.789062" xlink:href="#DejaVuSans-36"/>
       <use x="147.412109" xlink:href="#DejaVuSans-25"/>
      </g>
     </g>
    </g>
    <g id="ytick_6">
     <g id="line2d_17">
      <g>
       <use style="stroke:#000000;stroke-width:0.8;" x="56.585" xlink:href="#m62d42ecbe9" y="105.7025"/>
      </g>
     </g>
     <g id="text_17">
      <!-- −4% -->
      <g transform="translate(20.4925 110.261562)scale(0.12 -0.12)">
       <use xlink:href="#DejaVuSans-2212"/>
       <use x="83.789062" xlink:href="#DejaVuSans-34"/>
       <use x="147.412109" xlink:href="#DejaVuSans-25"/>
      </g>
     </g>
    </g>
    <g id="ytick_7">
     <g id="line2d_18">
      <g>
       <use style="stroke:#000000;stroke-width:0.8;" x="56.585" xlink:href="#m62d42ecbe9" y="76.455"/>
      </g>
     </g>
     <g id="text_18">
      <!-- −2% -->
      <g transform="translate(20.4925 81.014062)scale(0.12 -0.12)">
       <use xlink:href="#DejaVuSans-2212"/>
       <use x="83.789062" xlink:href="#DejaVuSans-32"/>
       <use x="147.412109" xlink:href="#DejaVuSans-25"/>
      </g>
     </g>
    </g>
    <g id="ytick_8">
     <g id="line2d_19">
      <g>
       <use style="stroke:#000000;stroke-width:0.8;" x="56.585" xlink:href="#m62d42ecbe9" y="47.2075"/>
      </g>
     </g>
     <g id="text_19">
      <!-- 0% -->
      <g transform="translate(30.548125 51.766562)scale(0.12 -0.12)">
       <use xlink:href="#DejaVuSans-30"/>
       <use x="63.623047" xlink:href="#DejaVuSans-25"/>
      </g>
     </g>
    </g>
    <g id="ytick_9">
     <g id="line2d_20">
      <g>
       <use style="stroke:#000000;stroke-width:0.8;" x="56.585" xlink:href="#m62d42ecbe9" y="17.96"/>
      </g>
     </g>
     <g id="text_20">
      <!-- 2% -->
      <g transform="translate(30.548125 22.519062)scale(0.12 -0.12)">
       <use xlink:href="#DejaVuSans-32"/>
       <use x="63.623047" xlink:href="#DejaVuSans-25"/>
      </g>
     </g>
    </g>
   </g>
   <g id="line2d_21">
    <path clip-path="url(#pb5b8cb6e89)" d="M 68.151136 47.2075 
L 73.934205 47.246325 
L 79.717273 47.392631 
L 85.500341 47.64663 
L 91.283409 48.014497 
L 97.066477 48.497493 
L 102.849545 49.095282 
L 108.632614 49.82163 
L 114.415682 50.66925 
L 120.19875 51.59 
L 125.981818 52.585213 
L 131.764886 53.702962 
L 137.547955 54.93457 
L 143.331023 56.238011 
L 149.114091 57.533152 
L 154.897159 58.829504 
L 160.680227 60.118376 
L 166.463295 61.399656 
L 172.246364 62.672999 
L 178.029432 63.940978 
L 183.8125 65.203029 
L 189.595568 66.455114 
L 195.378636 67.706061 
L 201.161705 68.945172 
L 206.944773 70.184629 
L 212.727841 71.4169 
L 218.510909 72.647685 
L 224.293977 73.872616 
L 230.077045 75.101157 
L 235.860114 76.321798 
L 241.643182 77.54061 
L 247.42625 78.763948 
L 253.209318 79.98739 
L 258.992386 81.206255 
L 264.775455 81.488517 
L 270.558523 81.55726 
L 276.341591 82.020564 
L 282.124659 82.675753 
L 287.907727 83.429261 
L 293.690795 84.233906 
L 299.473864 85.076045 
" style="fill:none;stroke:#dc143c;stroke-linecap:square;stroke-width:1.5;"/>
   </g>
   <g id="line2d_22">
    <path clip-path="url(#pb5b8cb6e89)" d="M 68.151136 47.2075 
L 299.473864 47.2075 
" style="fill:none;stroke:#000000;stroke-dasharray:1,1.65;stroke-dashoffset:0;"/>
   </g>
   <g id="line2d_23">
    <path clip-path="url(#pb5b8cb6e89)" d="M 68.151136 47.2075 
L 73.934205 47.2075 
L 79.717273 47.211857 
L 85.500341 47.220768 
L 91.283409 47.243421 
L 97.066477 47.275896 
L 102.849545 47.32329 
L 108.632614 47.391017 
L 114.415682 47.475274 
L 120.19875 47.581693 
L 125.981818 47.706232 
L 131.764886 47.849616 
L 137.547955 48.027894 
L 143.331023 48.227031 
L 149.114091 48.447816 
L 154.897159 48.696381 
L 160.680227 48.962935 
L 166.463295 49.248041 
L 172.246364 49.541101 
L 178.029432 49.864829 
L 183.8125 50.185814 
L 189.595568 50.521096 
L 195.378636 50.870969 
L 201.161705 51.229731 
L 206.944773 51.603496 
L 212.727841 51.96788 
L 218.510909 52.353379 
L 224.293977 52.735164 
L 230.077045 53.125572 
L 235.860114 53.524581 
L 241.643182 53.918975 
L 247.42625 54.321547 
L 253.209318 54.725493 
L 258.992386 55.130489 
L 264.775455 55.397156 
L 270.558523 55.60342 
L 276.341591 55.874766 
L 282.124659 56.15614 
L 287.907727 56.4623 
L 293.690795 56.771912 
L 299.473864 57.092388 
" style="fill:none;stroke:#1e90ff;stroke-dasharray:5.55,2.4;stroke-dashoffset:0;stroke-width:1.5;"/>
   </g>
   <g id="line2d_24">
    <path clip-path="url(#pb5b8cb6e89)" d="M 68.151136 47.2075 
L 299.473864 47.2075 
" style="fill:none;stroke:#000000;stroke-dasharray:1,1.65;stroke-dashoffset:0;"/>
   </g>
   <g id="patch_3">
    <path d="M 56.585 251.94 
L 56.585 17.96 
" style="fill:none;stroke:#000000;stroke-linecap:square;stroke-linejoin:miter;stroke-width:0.8;"/>
   </g>
   <g id="patch_4">
    <path d="M 311.04 251.94 
L 311.04 17.96 
" style="fill:none;stroke:#000000;stroke-linecap:square;stroke-linejoin:miter;stroke-width:0.8;"/>
   </g>
   <g id="patch_5">
    <path d="M 56.585 251.94 
L 311.04 251.94 
" style="fill:none;stroke:#000000;stroke-linecap:square;stroke-linejoin:miter;stroke-width:0.8;"/>
   </g>
   <g id="patch_6">
    <path d="M 56.585 17.96 
L 311.04 17.96 
" style="fill:none;stroke:#000000;stroke-linecap:square;stroke-linejoin:miter;stroke-width:0.8;"/>
   </g>
  </g>
 </g>
 <defs>
  <clipPath id="pb5b8cb6e89">
   <rect height="233.98" width="254.455" x="56.585" y="17.96"/>
  </clipPath>
 </defs>
</svg>
