<?xml version="1.0" encoding="utf-8" standalone="no"?>
<!DOCTYPE svg PUBLIC "-//W3C//DTD SVG 1.1//EN"
  "http://www.w3.org/Graphics/SVG/1.1/DTD/svg11.dtd">
<svg height="302.4pt" version="1.1" viewBox="0 0 324 302.4" width="324pt" xmlns="http://www.w3.org/2000/svg" xmlns:xlink="http://www.w3.org/1999/xlink">
 <metadata>
  <rdf:RDF xmlns:cc="http://creativecommons.org/ns#" xmlns:dc="http://purl.org/dc/elements/1.1/" xmlns:rdf="http://www.w3.org/1999/02/22-rdf-syntax-ns#">
   <cc:Work>
    <dc:type rdf:resource="http://purl.org/dc/dcmitype/StillImage"/>
    <dc:date>2021-08-09T09:52:01.383071</dc:date>
    <dc:format>image/svg+xml</dc:format>
    <dc:creator>
     <cc:Agent>
      <dc:title>Matplotlib v3.4.0rc1, https://matplotlib.org/</dc:title>
     </cc:Agent>
    </dc:creator>
   </cc:Work>
  </rdf:RDF>
 </metadata>
 <defs>
  <style type="text/css">*{stroke-linecap:butt;stroke-linejoin:round;}</style>
 </defs>
 <g id="figure_1">
  <g id="patch_1">
   <path d="M 0 302.4 
L 324 302.4 
L 324 0 
L 0 0 
z
" style="fill:none;"/>
  </g>
  <g id="axes_1">
   <g id="patch_2">
    <path d="M 56.585 251.94 
L 311.04 251.94 
L 311.04 17.96 
L 56.585 17.96 
z
" style="fill:#ffffff;"/>
   </g>
   <g id="PolyCollection_1">
    <path clip-path="url(#pe67676fc23)" d="M 68.151136 47.2075 
L 68.151136 47.2075 
L 73.934205 49.978274 
L 79.717273 54.057441 
L 85.500341 58.394396 
L 91.283409 63.003517 
L 97.066477 67.938651 
L 102.849545 73.175407 
L 108.632614 78.694156 
L 114.415682 84.670901 
L 120.19875 90.952782 
L 125.981818 97.671461 
L 131.764886 104.389914 
L 137.547955 111.839861 
L 143.331023 115.578907 
L 149.114091 117.537131 
L 154.897159 120.111219 
L 160.680227 122.303271 
L 166.463295 124.575224 
L 172.246364 126.64949 
L 178.029432 128.748571 
L 183.8125 130.403741 
L 189.595568 131.832592 
L 195.378636 133.361937 
L 201.161705 134.274383 
L 206.944773 134.641794 
L 212.727841 134.713272 
L 218.510909 135.445164 
L 224.293977 135.591149 
L 230.077045 135.233415 
L 235.860114 134.943664 
L 241.643182 134.779512 
L 247.42625 133.497675 
L 253.209318 133.364284 
L 258.992386 132.524734 
L 264.775455 131.447458 
L 270.558523 129.133232 
L 276.341591 127.180651 
L 282.124659 125.314222 
L 287.907727 122.47068 
L 293.690795 117.666804 
L 299.473864 110.942285 
L 299.473864 45.293833 
L 299.473864 45.293833 
L 293.690795 45.534833 
L 287.907727 45.757702 
L 282.124659 45.982861 
L 276.341591 46.206253 
L 270.558523 46.459666 
L 264.775455 46.671278 
L 258.992386 46.949982 
L 253.209318 47.204571 
L 247.42625 47.513685 
L 241.643182 47.821047 
L 235.860114 48.192124 
L 230.077045 48.558823 
L 224.293977 49.0525 
L 218.510909 49.690109 
L 212.727841 50.475403 
L 206.944773 51.535171 
L 201.161705 52.540781 
L 195.378636 53.925547 
L 189.595568 55.886629 
L 183.8125 59.00675 
L 178.029432 62.876477 
L 172.246364 66.1389 
L 166.463295 69.739829 
L 160.680227 73.088277 
L 154.897159 75.8482 
L 149.114091 78.211774 
L 143.331023 79.740304 
L 137.547955 80.816871 
L 131.764886 79.927385 
L 125.981818 77.019187 
L 120.19875 73.728699 
L 114.415682 70.452615 
L 108.632614 67.220592 
L 102.849545 64.100205 
L 97.066477 61.042382 
L 91.283409 58.070108 
L 85.500341 55.162613 
L 79.717273 52.268557 
L 73.934205 49.34103 
L 68.151136 47.2075 
z
" style="fill:#dc143c;fill-opacity:0.2;"/>
   </g>
   <g id="PolyCollection_2">
    <path clip-path="url(#pe67676fc23)" d="M 68.151136 47.2075 
L 68.151136 47.2075 
L 73.934205 47.78776 
L 79.717273 48.662125 
L 85.500341 49.663765 
L 91.283409 50.739423 
L 97.066477 51.726437 
L 102.849545 52.784058 
L 108.632614 54.355395 
L 114.415682 55.61242 
L 120.19875 56.478462 
L 125.981818 58.114835 
L 131.764886 59.624791 
L 137.547955 61.374574 
L 143.331023 62.78704 
L 149.114091 63.985872 
L 154.897159 65.009548 
L 160.680227 65.651344 
L 166.463295 66.547985 
L 172.246364 67.370681 
L 178.029432 68.329174 
L 183.8125 69.067051 
L 189.595568 69.272784 
L 195.378636 69.591375 
L 201.161705 69.976219 
L 206.944773 70.423793 
L 212.727841 70.644861 
L 218.510909 70.698134 
L 224.293977 71.032335 
L 230.077045 71.254246 
L 235.860114 71.294108 
L 241.643182 71.227242 
L 247.42625 71.13235 
L 253.209318 70.970452 
L 258.992386 70.414038 
L 264.775455 70.098942 
L 270.558523 69.634212 
L 276.341591 69.293428 
L 282.124659 69.038304 
L 287.907727 68.610832 
L 293.690795 67.685376 
L 299.473864 67.101944 
L 299.473864 41.50718 
L 299.473864 41.50718 
L 293.690795 43.258886 
L 287.907727 43.578121 
L 282.124659 42.841016 
L 276.341591 44.857273 
L 270.558523 45.802114 
L 264.775455 46.1239 
L 258.992386 46.371718 
L 253.209318 46.505241 
L 247.42625 46.670117 
L 241.643182 46.941679 
L 235.860114 47.123978 
L 230.077045 47.310905 
L 224.293977 47.569428 
L 218.510909 47.754301 
L 212.727841 47.957701 
L 206.944773 48.186798 
L 201.161705 48.420389 
L 195.378636 48.821593 
L 189.595568 49.184575 
L 183.8125 49.574384 
L 178.029432 50.029227 
L 172.246364 50.536799 
L 166.463295 51.197974 
L 160.680227 51.87029 
L 154.897159 52.483043 
L 149.114091 52.998597 
L 143.331023 53.166936 
L 137.547955 53.353427 
L 131.764886 53.06522 
L 125.981818 52.797089 
L 120.19875 52.316846 
L 114.415682 51.388624 
L 108.632614 50.706748 
L 102.849545 50.105563 
L 97.066477 49.355654 
L 91.283409 48.662854 
L 85.500341 48.129421 
L 79.717273 47.789705 
L 73.934205 47.397713 
L 68.151136 47.2075 
z
" style="fill:#1e90ff;fill-opacity:0.2;"/>
   </g>
   <g id="matplotlib.axis_1">
    <g id="xtick_1">
     <g id="line2d_1">
      <defs>
       <path d="M 0 0 
L 0 3.5 
" id="mb3c7000553" style="stroke:#000000;stroke-width:0.8;"/>
      </defs>
      <g>
       <use style="stroke:#000000;stroke-width:0.8;" x="68.151136" xlink:href="#mb3c7000553" y="251.94"/>
      </g>
     </g>
     <g id="text_1">
      <!-- 2021 -->
      <g transform="translate(71.462386 289.48)rotate(-90)scale(0.12 -0.12)">
       <defs>
        <path d="M 1228 531 
L 3431 531 
L 3431 0 
L 469 0 
L 469 531 
Q 828 903 1448 1529 
Q 2069 2156 2228 2338 
Q 2531 2678 2651 2914 
Q 2772 3150 2772 3378 
Q 2772 3750 2511 3984 
Q 2250 4219 1831 4219 
Q 1534 4219 1204 4116 
Q 875 4013 500 3803 
L 500 4441 
Q 881 4594 1212 4672 
Q 1544 4750 1819 4750 
Q 2544 4750 2975 4387 
Q 3406 4025 3406 3419 
Q 3406 3131 3298 2873 
Q 3191 2616 2906 2266 
Q 2828 2175 2409 1742 
Q 1991 1309 1228 531 
z
" id="DejaVuSans-32" transform="scale(0.015625)"/>
        <path d="M 2034 4250 
Q 1547 4250 1301 3770 
Q 1056 3291 1056 2328 
Q 1056 1369 1301 889 
Q 1547 409 2034 409 
Q 2525 409 2770 889 
Q 3016 1369 3016 2328 
Q 3016 3291 2770 3770 
Q 2525 4250 2034 4250 
z
M 2034 4750 
Q 2819 4750 3233 4129 
Q 3647 3509 3647 2328 
Q 3647 1150 3233 529 
Q 2819 -91 2034 -91 
Q 1250 -91 836 529 
Q 422 1150 422 2328 
Q 422 3509 836 4129 
Q 1250 4750 2034 4750 
z
" id="DejaVuSans-30" transform="scale(0.015625)"/>
        <path d="M 794 531 
L 1825 531 
L 1825 4091 
L 703 3866 
L 703 4441 
L 1819 4666 
L 2450 4666 
L 2450 531 
L 3481 531 
L 3481 0 
L 794 0 
L 794 531 
z
" id="DejaVuSans-31" transform="scale(0.015625)"/>
       </defs>
       <use xlink:href="#DejaVuSans-32"/>
       <use x="63.623047" xlink:href="#DejaVuSans-30"/>
       <use x="127.246094" xlink:href="#DejaVuSans-32"/>
       <use x="190.869141" xlink:href="#DejaVuSans-31"/>
      </g>
     </g>
    </g>
    <g id="xtick_2">
     <g id="line2d_2">
      <g>
       <use style="stroke:#000000;stroke-width:0.8;" x="91.283409" xlink:href="#mb3c7000553" y="251.94"/>
      </g>
     </g>
     <g id="text_2">
      <!-- 2022 -->
      <g transform="translate(94.594659 289.48)rotate(-90)scale(0.12 -0.12)">
       <use xlink:href="#DejaVuSans-32"/>
       <use x="63.623047" xlink:href="#DejaVuSans-30"/>
       <use x="127.246094" xlink:href="#DejaVuSans-32"/>
       <use x="190.869141" xlink:href="#DejaVuSans-32"/>
      </g>
     </g>
    </g>
    <g id="xtick_3">
     <g id="line2d_3">
      <g>
       <use style="stroke:#000000;stroke-width:0.8;" x="114.415682" xlink:href="#mb3c7000553" y="251.94"/>
      </g>
     </g>
     <g id="text_3">
      <!-- 2023 -->
      <g transform="translate(117.726932 289.48)rotate(-90)scale(0.12 -0.12)">
       <defs>
        <path d="M 2597 2516 
Q 3050 2419 3304 2112 
Q 3559 1806 3559 1356 
Q 3559 666 3084 287 
Q 2609 -91 1734 -91 
Q 1441 -91 1130 -33 
Q 819 25 488 141 
L 488 750 
Q 750 597 1062 519 
Q 1375 441 1716 441 
Q 2309 441 2620 675 
Q 2931 909 2931 1356 
Q 2931 1769 2642 2001 
Q 2353 2234 1838 2234 
L 1294 2234 
L 1294 2753 
L 1863 2753 
Q 2328 2753 2575 2939 
Q 2822 3125 2822 3475 
Q 2822 3834 2567 4026 
Q 2313 4219 1838 4219 
Q 1578 4219 1281 4162 
Q 984 4106 628 3988 
L 628 4550 
Q 988 4650 1302 4700 
Q 1616 4750 1894 4750 
Q 2613 4750 3031 4423 
Q 3450 4097 3450 3541 
Q 3450 3153 3228 2886 
Q 3006 2619 2597 2516 
z
" id="DejaVuSans-33" transform="scale(0.015625)"/>
       </defs>
       <use xlink:href="#DejaVuSans-32"/>
       <use x="63.623047" xlink:href="#DejaVuSans-30"/>
       <use x="127.246094" xlink:href="#DejaVuSans-32"/>
       <use x="190.869141" xlink:href="#DejaVuSans-33"/>
      </g>
     </g>
    </g>
    <g id="xtick_4">
     <g id="line2d_4">
      <g>
       <use style="stroke:#000000;stroke-width:0.8;" x="137.547955" xlink:href="#mb3c7000553" y="251.94"/>
      </g>
     </g>
     <g id="text_4">
      <!-- 2024 -->
      <g transform="translate(140.859205 289.48)rotate(-90)scale(0.12 -0.12)">
       <defs>
        <path d="M 2419 4116 
L 825 1625 
L 2419 1625 
L 2419 4116 
z
M 2253 4666 
L 3047 4666 
L 3047 1625 
L 3713 1625 
L 3713 1100 
L 3047 1100 
L 3047 0 
L 2419 0 
L 2419 1100 
L 313 1100 
L 313 1709 
L 2253 4666 
z
" id="DejaVuSans-34" transform="scale(0.015625)"/>
       </defs>
       <use xlink:href="#DejaVuSans-32"/>
       <use x="63.623047" xlink:href="#DejaVuSans-30"/>
       <use x="127.246094" xlink:href="#DejaVuSans-32"/>
       <use x="190.869141" xlink:href="#DejaVuSans-34"/>
      </g>
     </g>
    </g>
    <g id="xtick_5">
     <g id="line2d_5">
      <g>
       <use style="stroke:#000000;stroke-width:0.8;" x="160.680227" xlink:href="#mb3c7000553" y="251.94"/>
      </g>
     </g>
     <g id="text_5">
      <!-- 2025 -->
      <g transform="translate(163.991477 289.48)rotate(-90)scale(0.12 -0.12)">
       <defs>
        <path d="M 691 4666 
L 3169 4666 
L 3169 4134 
L 1269 4134 
L 1269 2991 
Q 1406 3038 1543 3061 
Q 1681 3084 1819 3084 
Q 2600 3084 3056 2656 
Q 3513 2228 3513 1497 
Q 3513 744 3044 326 
Q 2575 -91 1722 -91 
Q 1428 -91 1123 -41 
Q 819 9 494 109 
L 494 744 
Q 775 591 1075 516 
Q 1375 441 1709 441 
Q 2250 441 2565 725 
Q 2881 1009 2881 1497 
Q 2881 1984 2565 2268 
Q 2250 2553 1709 2553 
Q 1456 2553 1204 2497 
Q 953 2441 691 2322 
L 691 4666 
z
" id="DejaVuSans-35" transform="scale(0.015625)"/>
       </defs>
       <use xlink:href="#DejaVuSans-32"/>
       <use x="63.623047" xlink:href="#DejaVuSans-30"/>
       <use x="127.246094" xlink:href="#DejaVuSans-32"/>
       <use x="190.869141" xlink:href="#DejaVuSans-35"/>
      </g>
     </g>
    </g>
    <g id="xtick_6">
     <g id="line2d_6">
      <g>
       <use style="stroke:#000000;stroke-width:0.8;" x="183.8125" xlink:href="#mb3c7000553" y="251.94"/>
      </g>
     </g>
     <g id="text_6">
      <!-- 2026 -->
      <g transform="translate(187.12375 289.48)rotate(-90)scale(0.12 -0.12)">
       <defs>
        <path d="M 2113 2584 
Q 1688 2584 1439 2293 
Q 1191 2003 1191 1497 
Q 1191 994 1439 701 
Q 1688 409 2113 409 
Q 2538 409 2786 701 
Q 3034 994 3034 1497 
Q 3034 2003 2786 2293 
Q 2538 2584 2113 2584 
z
M 3366 4563 
L 3366 3988 
Q 3128 4100 2886 4159 
Q 2644 4219 2406 4219 
Q 1781 4219 1451 3797 
Q 1122 3375 1075 2522 
Q 1259 2794 1537 2939 
Q 1816 3084 2150 3084 
Q 2853 3084 3261 2657 
Q 3669 2231 3669 1497 
Q 3669 778 3244 343 
Q 2819 -91 2113 -91 
Q 1303 -91 875 529 
Q 447 1150 447 2328 
Q 447 3434 972 4092 
Q 1497 4750 2381 4750 
Q 2619 4750 2861 4703 
Q 3103 4656 3366 4563 
z
" id="DejaVuSans-36" transform="scale(0.015625)"/>
       </defs>
       <use xlink:href="#DejaVuSans-32"/>
       <use x="63.623047" xlink:href="#DejaVuSans-30"/>
       <use x="127.246094" xlink:href="#DejaVuSans-32"/>
       <use x="190.869141" xlink:href="#DejaVuSans-36"/>
      </g>
     </g>
    </g>
    <g id="xtick_7">
     <g id="line2d_7">
      <g>
       <use style="stroke:#000000;stroke-width:0.8;" x="206.944773" xlink:href="#mb3c7000553" y="251.94"/>
      </g>
     </g>
     <g id="text_7">
      <!-- 2027 -->
      <g transform="translate(210.256023 289.48)rotate(-90)scale(0.12 -0.12)">
       <defs>
        <path d="M 525 4666 
L 3525 4666 
L 3525 4397 
L 1831 0 
L 1172 0 
L 2766 4134 
L 525 4134 
L 525 4666 
z
" id="DejaVuSans-37" transform="scale(0.015625)"/>
       </defs>
       <use xlink:href="#DejaVuSans-32"/>
       <use x="63.623047" xlink:href="#DejaVuSans-30"/>
       <use x="127.246094" xlink:href="#DejaVuSans-32"/>
       <use x="190.869141" xlink:href="#DejaVuSans-37"/>
      </g>
     </g>
    </g>
    <g id="xtick_8">
     <g id="line2d_8">
      <g>
       <use style="stroke:#000000;stroke-width:0.8;" x="230.077045" xlink:href="#mb3c7000553" y="251.94"/>
      </g>
     </g>
     <g id="text_8">
      <!-- 2028 -->
      <g transform="translate(233.388295 289.48)rotate(-90)scale(0.12 -0.12)">
       <defs>
        <path d="M 2034 2216 
Q 1584 2216 1326 1975 
Q 1069 1734 1069 1313 
Q 1069 891 1326 650 
Q 1584 409 2034 409 
Q 2484 409 2743 651 
Q 3003 894 3003 1313 
Q 3003 1734 2745 1975 
Q 2488 2216 2034 2216 
z
M 1403 2484 
Q 997 2584 770 2862 
Q 544 3141 544 3541 
Q 544 4100 942 4425 
Q 1341 4750 2034 4750 
Q 2731 4750 3128 4425 
Q 3525 4100 3525 3541 
Q 3525 3141 3298 2862 
Q 3072 2584 2669 2484 
Q 3125 2378 3379 2068 
Q 3634 1759 3634 1313 
Q 3634 634 3220 271 
Q 2806 -91 2034 -91 
Q 1263 -91 848 271 
Q 434 634 434 1313 
Q 434 1759 690 2068 
Q 947 2378 1403 2484 
z
M 1172 3481 
Q 1172 3119 1398 2916 
Q 1625 2713 2034 2713 
Q 2441 2713 2670 2916 
Q 2900 3119 2900 3481 
Q 2900 3844 2670 4047 
Q 2441 4250 2034 4250 
Q 1625 4250 1398 4047 
Q 1172 3844 1172 3481 
z
" id="DejaVuSans-38" transform="scale(0.015625)"/>
       </defs>
       <use xlink:href="#DejaVuSans-32"/>
       <use x="63.623047" xlink:href="#DejaVuSans-30"/>
       <use x="127.246094" xlink:href="#DejaVuSans-32"/>
       <use x="190.869141" xlink:href="#DejaVuSans-38"/>
      </g>
     </g>
    </g>
    <g id="xtick_9">
     <g id="line2d_9">
      <g>
       <use style="stroke:#000000;stroke-width:0.8;" x="253.209318" xlink:href="#mb3c7000553" y="251.94"/>
      </g>
     </g>
     <g id="text_9">
      <!-- 2029 -->
      <g transform="translate(256.520568 289.48)rotate(-90)scale(0.12 -0.12)">
       <defs>
        <path d="M 703 97 
L 703 672 
Q 941 559 1184 500 
Q 1428 441 1663 441 
Q 2288 441 2617 861 
Q 2947 1281 2994 2138 
Q 2813 1869 2534 1725 
Q 2256 1581 1919 1581 
Q 1219 1581 811 2004 
Q 403 2428 403 3163 
Q 403 3881 828 4315 
Q 1253 4750 1959 4750 
Q 2769 4750 3195 4129 
Q 3622 3509 3622 2328 
Q 3622 1225 3098 567 
Q 2575 -91 1691 -91 
Q 1453 -91 1209 -44 
Q 966 3 703 97 
z
M 1959 2075 
Q 2384 2075 2632 2365 
Q 2881 2656 2881 3163 
Q 2881 3666 2632 3958 
Q 2384 4250 1959 4250 
Q 1534 4250 1286 3958 
Q 1038 3666 1038 3163 
Q 1038 2656 1286 2365 
Q 1534 2075 1959 2075 
z
" id="DejaVuSans-39" transform="scale(0.015625)"/>
       </defs>
       <use xlink:href="#DejaVuSans-32"/>
       <use x="63.623047" xlink:href="#DejaVuSans-30"/>
       <use x="127.246094" xlink:href="#DejaVuSans-32"/>
       <use x="190.869141" xlink:href="#DejaVuSans-39"/>
      </g>
     </g>
    </g>
    <g id="xtick_10">
     <g id="line2d_10">
      <g>
       <use style="stroke:#000000;stroke-width:0.8;" x="276.341591" xlink:href="#mb3c7000553" y="251.94"/>
      </g>
     </g>
     <g id="text_10">
      <!-- 2030 -->
      <g transform="translate(279.652841 289.48)rotate(-90)scale(0.12 -0.12)">
       <use xlink:href="#DejaVuSans-32"/>
       <use x="63.623047" xlink:href="#DejaVuSans-30"/>
       <use x="127.246094" xlink:href="#DejaVuSans-33"/>
       <use x="190.869141" xlink:href="#DejaVuSans-30"/>
      </g>
     </g>
    </g>
    <g id="xtick_11">
     <g id="line2d_11">
      <g>
       <use style="stroke:#000000;stroke-width:0.8;" x="299.473864" xlink:href="#mb3c7000553" y="251.94"/>
      </g>
     </g>
     <g id="text_11">
      <!-- 2031 -->
      <g transform="translate(302.785114 289.48)rotate(-90)scale(0.12 -0.12)">
       <use xlink:href="#DejaVuSans-32"/>
       <use x="63.623047" xlink:href="#DejaVuSans-30"/>
       <use x="127.246094" xlink:href="#DejaVuSans-33"/>
       <use x="190.869141" xlink:href="#DejaVuSans-31"/>
      </g>
     </g>
    </g>
   </g>
   <g id="matplotlib.axis_2">
    <g id="ytick_1">
     <g id="line2d_12">
      <defs>
       <path d="M 0 0 
L -3.5 0 
" id="m96328be65f" style="stroke:#000000;stroke-width:0.8;"/>
      </defs>
      <g>
       <use style="stroke:#000000;stroke-width:0.8;" x="56.585" xlink:href="#m96328be65f" y="251.94"/>
      </g>
     </g>
     <g id="text_12">
      <!-- −14% -->
      <g transform="translate(12.8575 256.499063)scale(0.12 -0.12)">
       <defs>
        <path d="M 678 2272 
L 4684 2272 
L 4684 1741 
L 678 1741 
L 678 2272 
z
" id="DejaVuSans-2212" transform="scale(0.015625)"/>
        <path d="M 4653 2053 
Q 4381 2053 4226 1822 
Q 4072 1591 4072 1178 
Q 4072 772 4226 539 
Q 4381 306 4653 306 
Q 4919 306 5073 539 
Q 5228 772 5228 1178 
Q 5228 1588 5073 1820 
Q 4919 2053 4653 2053 
z
M 4653 2450 
Q 5147 2450 5437 2106 
Q 5728 1763 5728 1178 
Q 5728 594 5436 251 
Q 5144 -91 4653 -91 
Q 4153 -91 3862 251 
Q 3572 594 3572 1178 
Q 3572 1766 3864 2108 
Q 4156 2450 4653 2450 
z
M 1428 4353 
Q 1159 4353 1004 4120 
Q 850 3888 850 3481 
Q 850 3069 1003 2837 
Q 1156 2606 1428 2606 
Q 1700 2606 1854 2837 
Q 2009 3069 2009 3481 
Q 2009 3884 1853 4118 
Q 1697 4353 1428 4353 
z
M 4250 4750 
L 4750 4750 
L 1831 -91 
L 1331 -91 
L 4250 4750 
z
M 1428 4750 
Q 1922 4750 2215 4408 
Q 2509 4066 2509 3481 
Q 2509 2891 2217 2550 
Q 1925 2209 1428 2209 
Q 931 2209 642 2551 
Q 353 2894 353 3481 
Q 353 4063 643 4406 
Q 934 4750 1428 4750 
z
" id="DejaVuSans-25" transform="scale(0.015625)"/>
       </defs>
       <use xlink:href="#DejaVuSans-2212"/>
       <use x="83.789062" xlink:href="#DejaVuSans-31"/>
       <use x="147.412109" xlink:href="#DejaVuSans-34"/>
       <use x="211.035156" xlink:href="#DejaVuSans-25"/>
      </g>
     </g>
    </g>
    <g id="ytick_2">
     <g id="line2d_13">
      <g>
       <use style="stroke:#000000;stroke-width:0.8;" x="56.585" xlink:href="#m96328be65f" y="222.6925"/>
      </g>
     </g>
     <g id="text_13">
      <!-- −12% -->
      <g transform="translate(12.8575 227.251563)scale(0.12 -0.12)">
       <use xlink:href="#DejaVuSans-2212"/>
       <use x="83.789062" xlink:href="#DejaVuSans-31"/>
       <use x="147.412109" xlink:href="#DejaVuSans-32"/>
       <use x="211.035156" xlink:href="#DejaVuSans-25"/>
      </g>
     </g>
    </g>
    <g id="ytick_3">
     <g id="line2d_14">
      <g>
       <use style="stroke:#000000;stroke-width:0.8;" x="56.585" xlink:href="#m96328be65f" y="193.445"/>
      </g>
     </g>
     <g id="text_14">
      <!-- −10% -->
      <g transform="translate(12.8575 198.004063)scale(0.12 -0.12)">
       <use xlink:href="#DejaVuSans-2212"/>
       <use x="83.789062" xlink:href="#DejaVuSans-31"/>
       <use x="147.412109" xlink:href="#DejaVuSans-30"/>
       <use x="211.035156" xlink:href="#DejaVuSans-25"/>
      </g>
     </g>
    </g>
    <g id="ytick_4">
     <g id="line2d_15">
      <g>
       <use style="stroke:#000000;stroke-width:0.8;" x="56.585" xlink:href="#m96328be65f" y="164.1975"/>
      </g>
     </g>
     <g id="text_15">
      <!-- −8% -->
      <g transform="translate(20.4925 168.756563)scale(0.12 -0.12)">
       <use xlink:href="#DejaVuSans-2212"/>
       <use x="83.789062" xlink:href="#DejaVuSans-38"/>
       <use x="147.412109" xlink:href="#DejaVuSans-25"/>
      </g>
     </g>
    </g>
    <g id="ytick_5">
     <g id="line2d_16">
      <g>
       <use style="stroke:#000000;stroke-width:0.8;" x="56.585" xlink:href="#m96328be65f" y="134.95"/>
      </g>
     </g>
     <g id="text_16">
      <!-- −6% -->
      <g transform="translate(20.4925 139.509063)scale(0.12 -0.12)">
       <use xlink:href="#DejaVuSans-2212"/>
       <use x="83.789062" xlink:href="#DejaVuSans-36"/>
       <use x="147.412109" xlink:href="#DejaVuSans-25"/>
      </g>
     </g>
    </g>
    <g id="ytick_6">
     <g id="line2d_17">
      <g>
       <use style="stroke:#000000;stroke-width:0.8;" x="56.585" xlink:href="#m96328be65f" y="105.7025"/>
      </g>
     </g>
     <g id="text_17">
      <!-- −4% -->
      <g transform="translate(20.4925 110.261562)scale(0.12 -0.12)">
       <use xlink:href="#DejaVuSans-2212"/>
       <use x="83.789062" xlink:href="#DejaVuSans-34"/>
       <use x="147.412109" xlink:href="#DejaVuSans-25"/>
      </g>
     </g>
    </g>
    <g id="ytick_7">
     <g id="line2d_18">
      <g>
       <use style="stroke:#000000;stroke-width:0.8;" x="56.585" xlink:href="#m96328be65f" y="76.455"/>
      </g>
     </g>
     <g id="text_18">
      <!-- −2% -->
      <g transform="translate(20.4925 81.014062)scale(0.12 -0.12)">
       <use xlink:href="#DejaVuSans-2212"/>
       <use x="83.789062" xlink:href="#DejaVuSans-32"/>
       <use x="147.412109" xlink:href="#DejaVuSans-25"/>
      </g>
     </g>
    </g>
    <g id="ytick_8">
     <g id="line2d_19">
      <g>
       <use style="stroke:#000000;stroke-width:0.8;" x="56.585" xlink:href="#m96328be65f" y="47.2075"/>
      </g>
     </g>
     <g id="text_19">
      <!-- 0% -->
      <g transform="translate(30.548125 51.766562)scale(0.12 -0.12)">
       <use xlink:href="#DejaVuSans-30"/>
       <use x="63.623047" xlink:href="#DejaVuSans-25"/>
      </g>
     </g>
    </g>
    <g id="ytick_9">
     <g id="line2d_20">
      <g>
       <use style="stroke:#000000;stroke-width:0.8;" x="56.585" xlink:href="#m96328be65f" y="17.96"/>
      </g>
     </g>
     <g id="text_20">
      <!-- 2% -->
      <g transform="translate(30.548125 22.519062)scale(0.12 -0.12)">
       <use xlink:href="#DejaVuSans-32"/>
       <use x="63.623047" xlink:href="#DejaVuSans-25"/>
      </g>
     </g>
    </g>
   </g>
   <g id="line2d_21">
    <path clip-path="url(#pe67676fc23)" d="M 68.151136 47.2075 
L 73.934205 49.73632 
L 79.717273 53.475864 
L 85.500341 57.470528 
L 91.283409 61.725491 
L 97.066477 66.259708 
L 102.849545 71.076013 
L 108.632614 76.190841 
L 114.415682 80.611715 
L 120.19875 81.547899 
L 125.981818 83.448484 
L 131.764886 86.446217 
L 137.547955 90.082066 
L 143.331023 90.854968 
L 149.114091 91.016742 
L 154.897159 91.589029 
L 160.680227 92.366468 
L 166.463295 93.24441 
L 172.246364 94.165979 
L 178.029432 95.109188 
L 183.8125 96.057567 
L 189.595568 97.003361 
L 195.378636 97.806092 
L 201.161705 97.065836 
L 206.944773 95.177475 
L 212.727841 92.589809 
L 218.510909 89.549725 
L 224.293977 86.184483 
L 230.077045 82.578361 
L 235.860114 78.777614 
L 241.643182 74.809123 
L 247.42625 70.71277 
L 253.209318 66.493342 
L 258.992386 62.171391 
L 264.775455 57.768628 
L 270.558523 54.500593 
L 276.341591 52.38499 
L 282.124659 50.908465 
L 287.907727 49.824034 
L 293.690795 48.994473 
L 299.473864 48.341859 
" style="fill:none;stroke:#dc143c;stroke-linecap:square;stroke-width:1.5;"/>
   </g>
   <g id="line2d_22">
    <path clip-path="url(#pe67676fc23)" d="M 68.151136 47.2075 
L 299.473864 47.2075 
" style="fill:none;stroke:#000000;stroke-dasharray:1,1.65;stroke-dashoffset:0;"/>
   </g>
   <g id="line2d_23">
    <path clip-path="url(#pe67676fc23)" d="M 68.151136 47.2075 
L 73.934205 47.611173 
L 79.717273 48.261988 
L 85.500341 49.00309 
L 91.283409 49.834206 
L 97.066477 50.754995 
L 102.849545 51.764989 
L 108.632614 52.858895 
L 114.415682 53.906627 
L 120.19875 54.467814 
L 125.981818 55.078572 
L 131.764886 55.80584 
L 137.547955 56.614004 
L 143.331023 56.988788 
L 149.114091 57.198353 
L 154.897159 57.426883 
L 160.680227 57.658841 
L 166.463295 57.888715 
L 172.246364 58.110664 
L 178.029432 58.329752 
L 183.8125 58.540041 
L 189.595568 58.73508 
L 195.378636 58.914028 
L 201.161705 58.847956 
L 206.944773 58.562809 
L 212.727841 58.117475 
L 218.510909 57.5556 
L 224.293977 56.892019 
L 230.077045 56.148936 
L 235.860114 55.336912 
L 241.643182 54.46065 
L 247.42625 53.538533 
L 253.209318 52.576526 
L 258.992386 51.574069 
L 264.775455 50.544541 
L 270.558523 49.656603 
L 276.341591 48.973714 
L 282.124659 48.396329 
L 287.907727 47.928937 
L 293.690795 47.531717 
L 299.473864 47.185153 
" style="fill:none;stroke:#1e90ff;stroke-dasharray:5.55,2.4;stroke-dashoffset:0;stroke-width:1.5;"/>
   </g>
   <g id="line2d_24">
    <path clip-path="url(#pe67676fc23)" d="M 68.151136 47.2075 
L 299.473864 47.2075 
" style="fill:none;stroke:#000000;stroke-dasharray:1,1.65;stroke-dashoffset:0;"/>
   </g>
   <g id="patch_3">
    <path d="M 56.585 251.94 
L 56.585 17.96 
" style="fill:none;stroke:#000000;stroke-linecap:square;stroke-linejoin:miter;stroke-width:0.8;"/>
   </g>
   <g id="patch_4">
    <path d="M 311.04 251.94 
L 311.04 17.96 
" style="fill:none;stroke:#000000;stroke-linecap:square;stroke-linejoin:miter;stroke-width:0.8;"/>
   </g>
   <g id="patch_5">
    <path d="M 56.585 251.94 
L 311.04 251.94 
" style="fill:none;stroke:#000000;stroke-linecap:square;stroke-linejoin:miter;stroke-width:0.8;"/>
   </g>
   <g id="patch_6">
    <path d="M 56.585 17.96 
L 311.04 17.96 
" style="fill:none;stroke:#000000;stroke-linecap:square;stroke-linejoin:miter;stroke-width:0.8;"/>
   </g>
  </g>
 </g>
 <defs>
  <clipPath id="pe67676fc23">
   <rect height="233.98" width="254.455" x="56.585" y="17.96"/>
  </clipPath>
 </defs>
</svg>
