<?xml version="1.0" encoding="utf-8" standalone="no"?>
<!DOCTYPE svg PUBLIC "-//W3C//DTD SVG 1.1//EN"
  "http://www.w3.org/Graphics/SVG/1.1/DTD/svg11.dtd">
<svg height="302.4pt" version="1.1" viewBox="0 0 324 302.4" width="324pt" xmlns="http://www.w3.org/2000/svg" xmlns:xlink="http://www.w3.org/1999/xlink">
 <metadata>
  <rdf:RDF xmlns:cc="http://creativecommons.org/ns#" xmlns:dc="http://purl.org/dc/elements/1.1/" xmlns:rdf="http://www.w3.org/1999/02/22-rdf-syntax-ns#">
   <cc:Work>
    <dc:type rdf:resource="http://purl.org/dc/dcmitype/StillImage"/>
    <dc:date>2021-08-08T11:02:06.194983</dc:date>
    <dc:format>image/svg+xml</dc:format>
    <dc:creator>
     <cc:Agent>
      <dc:title>Matplotlib v3.4.0rc1, https://matplotlib.org/</dc:title>
     </cc:Agent>
    </dc:creator>
   </cc:Work>
  </rdf:RDF>
 </metadata>
 <defs>
  <style type="text/css">*{stroke-linecap:butt;stroke-linejoin:round;}</style>
 </defs>
 <g id="figure_1">
  <g id="patch_1">
   <path d="M 0 302.4 
L 324 302.4 
L 324 0 
L 0 0 
z
" style="fill:none;"/>
  </g>
  <g id="axes_1">
   <g id="patch_2">
    <path d="M 56.585 251.94 
L 311.04 251.94 
L 311.04 17.96 
L 56.585 17.96 
z
" style="fill:#ffffff;"/>
   </g>
   <g id="PolyCollection_1">
    <path clip-path="url(#p41d3cea5d0)" d="M 68.151136 47.2075 
L 68.151136 47.2075 
L 73.934205 47.210191 
L 79.717273 47.217648 
L 85.500341 47.229576 
L 91.283409 47.248907 
L 97.066477 47.273274 
L 102.849545 47.30447 
L 108.632614 47.341845 
L 114.415682 47.387639 
L 120.19875 47.442235 
L 125.981818 47.500661 
L 131.764886 47.569756 
L 137.547955 47.646277 
L 143.331023 47.738381 
L 149.114091 47.833257 
L 154.897159 47.936294 
L 160.680227 48.043077 
L 166.463295 48.153782 
L 172.246364 48.275785 
L 178.029432 48.399643 
L 183.8125 48.528607 
L 189.595568 48.673405 
L 195.378636 48.797581 
L 201.161705 48.944948 
L 206.944773 49.038646 
L 212.727841 49.155869 
L 218.510909 49.29112 
L 224.293977 49.398792 
L 230.077045 49.510738 
L 235.860114 49.655732 
L 241.643182 49.789602 
L 247.42625 49.891311 
L 253.209318 49.965602 
L 258.992386 50.054504 
L 264.775455 50.166907 
L 270.558523 50.288727 
L 276.341591 50.426789 
L 282.124659 50.579549 
L 287.907727 50.717022 
L 293.690795 50.805904 
L 299.473864 50.934784 
L 299.473864 48.313738 
L 299.473864 48.313738 
L 293.690795 48.276439 
L 287.907727 48.2471 
L 282.124659 48.215614 
L 276.341591 48.182943 
L 270.558523 48.161032 
L 264.775455 48.123379 
L 258.992386 48.094043 
L 253.209318 48.06649 
L 247.42625 48.03307 
L 241.643182 47.994783 
L 235.860114 47.960889 
L 230.077045 47.924127 
L 224.293977 47.887131 
L 218.510909 47.849636 
L 212.727841 47.813771 
L 206.944773 47.777594 
L 201.161705 47.742324 
L 195.378636 47.705763 
L 189.595568 47.667849 
L 183.8125 47.631927 
L 178.029432 47.596368 
L 172.246364 47.560424 
L 166.463295 47.524706 
L 160.680227 47.491372 
L 154.897159 47.454839 
L 149.114091 47.42119 
L 143.331023 47.387792 
L 137.547955 47.3585 
L 131.764886 47.329111 
L 125.981818 47.304148 
L 120.19875 47.281962 
L 114.415682 47.262366 
L 108.632614 47.246369 
L 102.849545 47.233805 
L 97.066477 47.222885 
L 91.283409 47.215176 
L 85.500341 47.209976 
L 79.717273 47.2075 
L 73.934205 47.2075 
L 68.151136 47.2075 
z
" style="fill:#dc143c;fill-opacity:0.2;"/>
   </g>
   <g id="PolyCollection_2">
    <path clip-path="url(#p41d3cea5d0)" d="M 68.151136 47.2075 
L 68.151136 47.2075 
L 73.934205 47.210129 
L 79.717273 47.215332 
L 85.500341 47.22575 
L 91.283409 47.241172 
L 97.066477 47.26222 
L 102.849545 47.288862 
L 108.632614 47.321441 
L 114.415682 47.36169 
L 120.19875 47.407967 
L 125.981818 47.461444 
L 131.764886 47.524427 
L 137.547955 47.595942 
L 143.331023 47.67377 
L 149.114091 47.754978 
L 154.897159 47.841449 
L 160.680227 47.932927 
L 166.463295 48.032898 
L 172.246364 48.131798 
L 178.029432 48.244554 
L 183.8125 48.345238 
L 189.595568 48.45833 
L 195.378636 48.574713 
L 201.161705 48.683774 
L 206.944773 48.793405 
L 212.727841 48.907309 
L 218.510909 49.017594 
L 224.293977 49.126569 
L 230.077045 49.237468 
L 235.860114 49.310217 
L 241.643182 49.414473 
L 247.42625 49.467515 
L 253.209318 49.574374 
L 258.992386 49.669013 
L 264.775455 49.770201 
L 270.558523 49.859636 
L 276.341591 49.969846 
L 282.124659 50.094813 
L 287.907727 50.209445 
L 293.690795 50.330118 
L 299.473864 50.437277 
L 299.473864 48.52031 
L 299.473864 48.52031 
L 293.690795 48.483461 
L 287.907727 48.443835 
L 282.124659 48.399053 
L 276.341591 48.355779 
L 270.558523 48.315085 
L 264.775455 48.27432 
L 258.992386 48.230099 
L 253.209318 48.189898 
L 247.42625 48.150054 
L 241.643182 48.110252 
L 235.860114 48.069921 
L 230.077045 48.0304 
L 224.293977 47.987645 
L 218.510909 47.944878 
L 212.727841 47.905359 
L 206.944773 47.86401 
L 201.161705 47.8208 
L 195.378636 47.77847 
L 189.595568 47.736209 
L 183.8125 47.691951 
L 178.029432 47.649759 
L 172.246364 47.609104 
L 166.463295 47.564079 
L 160.680227 47.524926 
L 154.897159 47.486483 
L 149.114091 47.447362 
L 143.331023 47.411824 
L 137.547955 47.377383 
L 131.764886 47.345818 
L 125.981818 47.317205 
L 120.19875 47.292653 
L 114.415682 47.270788 
L 108.632614 47.25244 
L 102.849545 47.237761 
L 97.066477 47.225764 
L 91.283409 47.217487 
L 85.500341 47.212349 
L 79.717273 47.2075 
L 73.934205 47.2075 
L 68.151136 47.2075 
z
" style="fill:#1f77b4;fill-opacity:0.2;"/>
   </g>
   <g id="PolyCollection_3">
    <path clip-path="url(#p41d3cea5d0)" d="M 68.151136 47.2075 
L 68.151136 47.2075 
L 73.934205 47.210075 
L 79.717273 47.212944 
L 85.500341 47.22304 
L 91.283409 47.236455 
L 97.066477 47.255404 
L 102.849545 47.278943 
L 108.632614 47.308316 
L 114.415682 47.343722 
L 120.19875 47.385024 
L 125.981818 47.433674 
L 131.764886 47.490046 
L 137.547955 47.553364 
L 143.331023 47.62283 
L 149.114091 47.697778 
L 154.897159 47.777067 
L 160.680227 47.862088 
L 166.463295 47.949184 
L 172.246364 48.041906 
L 178.029432 48.136106 
L 183.8125 48.229695 
L 189.595568 48.324418 
L 195.378636 48.425255 
L 201.161705 48.530002 
L 206.944773 48.6244 
L 212.727841 48.730637 
L 218.510909 48.819178 
L 224.293977 48.909401 
L 230.077045 48.996059 
L 235.860114 49.087779 
L 241.643182 49.168718 
L 247.42625 49.255762 
L 253.209318 49.33743 
L 258.992386 49.429105 
L 264.775455 49.527055 
L 270.558523 49.614565 
L 276.341591 49.717254 
L 282.124659 49.791104 
L 287.907727 49.894783 
L 293.690795 49.988041 
L 299.473864 50.095842 
L 299.473864 48.672645 
L 299.473864 48.672645 
L 293.690795 48.622992 
L 287.907727 48.575735 
L 282.124659 48.529247 
L 276.341591 48.485585 
L 270.558523 48.441195 
L 264.775455 48.397877 
L 258.992386 48.351762 
L 253.209318 48.306559 
L 247.42625 48.260478 
L 241.643182 48.212341 
L 235.860114 48.16656 
L 230.077045 48.121859 
L 224.293977 48.074387 
L 218.510909 48.029173 
L 212.727841 47.983177 
L 206.944773 47.933866 
L 201.161705 47.883626 
L 195.378636 47.838127 
L 189.595568 47.791663 
L 183.8125 47.745091 
L 178.029432 47.699992 
L 172.246364 47.652954 
L 166.463295 47.608197 
L 160.680227 47.562555 
L 154.897159 47.518655 
L 149.114091 47.475672 
L 143.331023 47.434414 
L 137.547955 47.39579 
L 131.764886 47.359999 
L 125.981818 47.328976 
L 120.19875 47.301062 
L 114.415682 47.277442 
L 108.632614 47.257498 
L 102.849545 47.241112 
L 97.066477 47.22819 
L 91.283409 47.219257 
L 85.500341 47.212497 
L 79.717273 47.209874 
L 73.934205 47.2075 
L 68.151136 47.2075 
z
" style="fill:#ff7f0e;fill-opacity:0.2;"/>
   </g>
   <g id="PolyCollection_4">
    <path clip-path="url(#p41d3cea5d0)" d="M 68.151136 47.2075 
L 68.151136 47.2075 
L 73.934205 47.20991 
L 79.717273 47.212611 
L 85.500341 47.219871 
L 91.283409 47.230764 
L 97.066477 47.246174 
L 102.849545 47.266557 
L 108.632614 47.291698 
L 114.415682 47.322847 
L 120.19875 47.35882 
L 125.981818 47.40094 
L 131.764886 47.449218 
L 137.547955 47.50409 
L 143.331023 47.565902 
L 149.114091 47.629958 
L 154.897159 47.698169 
L 160.680227 47.769689 
L 166.463295 47.845256 
L 172.246364 47.919394 
L 178.029432 47.997566 
L 183.8125 48.077805 
L 189.595568 48.159725 
L 195.378636 48.240858 
L 201.161705 48.32374 
L 206.944773 48.406249 
L 212.727841 48.486956 
L 218.510909 48.565247 
L 224.293977 48.640523 
L 230.077045 48.715536 
L 235.860114 48.793848 
L 241.643182 48.867377 
L 247.42625 48.945843 
L 253.209318 49.018032 
L 258.992386 49.093578 
L 264.775455 49.162491 
L 270.558523 49.236265 
L 276.341591 49.315378 
L 282.124659 49.391835 
L 287.907727 49.468209 
L 293.690795 49.552724 
L 299.473864 49.634766 
L 299.473864 48.957649 
L 299.473864 48.957649 
L 293.690795 48.902779 
L 287.907727 48.84469 
L 282.124659 48.78632 
L 276.341591 48.727048 
L 270.558523 48.674432 
L 264.775455 48.616529 
L 258.992386 48.561638 
L 253.209318 48.506736 
L 247.42625 48.452025 
L 241.643182 48.396648 
L 235.860114 48.342091 
L 230.077045 48.286724 
L 224.293977 48.228515 
L 218.510909 48.172909 
L 212.727841 48.115866 
L 206.944773 48.058763 
L 201.161705 48.003472 
L 195.378636 47.947564 
L 189.595568 47.891912 
L 183.8125 47.837678 
L 178.029432 47.781646 
L 172.246364 47.727198 
L 166.463295 47.673476 
L 160.680227 47.620092 
L 154.897159 47.5683 
L 149.114091 47.51945 
L 143.331023 47.470894 
L 137.547955 47.425561 
L 131.764886 47.384454 
L 125.981818 47.348117 
L 120.19875 47.316196 
L 114.415682 47.288957 
L 108.632614 47.26576 
L 102.849545 47.246952 
L 97.066477 47.232247 
L 91.283409 47.220957 
L 85.500341 47.214813 
L 79.717273 47.209992 
L 73.934205 47.2075 
L 68.151136 47.2075 
z
" style="fill:#2ca02c;fill-opacity:0.2;"/>
   </g>
   <g id="PolyCollection_5">
    <path clip-path="url(#p41d3cea5d0)" d="M 68.151136 47.2075 
L 68.151136 47.2075 
L 73.934205 47.638944 
L 79.717273 48.094372 
L 85.500341 48.557433 
L 91.283409 48.931419 
L 97.066477 49.514905 
L 102.849545 50.112945 
L 108.632614 50.913774 
L 114.415682 51.458422 
L 120.19875 51.947157 
L 125.981818 52.846204 
L 131.764886 53.045331 
L 137.547955 53.533766 
L 143.331023 54.320563 
L 149.114091 55.205719 
L 154.897159 56.023854 
L 160.680227 57.201039 
L 166.463295 57.78245 
L 172.246364 58.545963 
L 178.029432 59.212072 
L 183.8125 59.847233 
L 189.595568 60.452435 
L 195.378636 60.474027 
L 201.161705 61.056493 
L 206.944773 61.612367 
L 212.727841 62.601636 
L 218.510909 63.409081 
L 224.293977 63.894072 
L 230.077045 64.533872 
L 235.860114 63.426121 
L 241.643182 64.348758 
L 247.42625 63.679552 
L 253.209318 64.205785 
L 258.992386 63.67678 
L 264.775455 64.335206 
L 270.558523 64.719067 
L 276.341591 64.582539 
L 282.124659 65.371415 
L 287.907727 65.709221 
L 293.690795 66.701128 
L 299.473864 67.682414 
L 299.473864 31.698254 
L 299.473864 31.698254 
L 293.690795 31.894766 
L 287.907727 31.896625 
L 282.124659 32.677999 
L 276.341591 32.705709 
L 270.558523 33.299944 
L 264.775455 33.73972 
L 258.992386 34.005178 
L 253.209318 33.656242 
L 247.42625 34.432035 
L 241.643182 34.628139 
L 235.860114 33.728566 
L 230.077045 33.677069 
L 224.293977 33.3674 
L 218.510909 33.401245 
L 212.727841 34.078732 
L 206.944773 34.639282 
L 201.161705 35.370812 
L 195.378636 35.385669 
L 189.595568 36.394874 
L 183.8125 37.378872 
L 178.029432 37.814437 
L 172.246364 37.841566 
L 166.463295 37.783062 
L 160.680227 38.3812 
L 154.897159 39.131527 
L 149.114091 39.965328 
L 143.331023 40.691193 
L 137.547955 41.76827 
L 131.764886 42.198508 
L 125.981818 42.563627 
L 120.19875 42.890662 
L 114.415682 43.591333 
L 108.632614 44.033841 
L 102.849545 44.520415 
L 97.066477 45.137519 
L 91.283409 45.630264 
L 85.500341 46.053053 
L 79.717273 46.436801 
L 73.934205 46.830538 
L 68.151136 47.2075 
z
" style="fill:#1e90ff;fill-opacity:0.2;"/>
   </g>
   <g id="PolyCollection_6">
    <path clip-path="url(#p41d3cea5d0)" d="M 68.151136 47.2075 
L 68.151136 47.2075 
L 73.934205 47.2075 
L 79.717273 47.211904 
L 85.500341 47.212147 
L 91.283409 47.221082 
L 97.066477 47.233666 
L 102.849545 47.250504 
L 108.632614 47.275131 
L 114.415682 47.306443 
L 120.19875 47.34473 
L 125.981818 47.391316 
L 131.764886 47.44688 
L 137.547955 47.510309 
L 143.331023 47.584485 
L 149.114091 47.667982 
L 154.897159 47.759738 
L 160.680227 47.859003 
L 166.463295 47.963431 
L 172.246364 48.075234 
L 178.029432 48.193022 
L 183.8125 48.31998 
L 189.595568 48.453002 
L 195.378636 48.588449 
L 201.161705 48.728794 
L 206.944773 48.869495 
L 212.727841 49.012639 
L 218.510909 49.176645 
L 224.293977 49.334615 
L 230.077045 49.49495 
L 235.860114 49.663311 
L 241.643182 49.834213 
L 247.42625 50.020078 
L 253.209318 50.217177 
L 258.992386 50.409012 
L 264.775455 50.605203 
L 270.558523 50.816679 
L 276.341591 51.052002 
L 282.124659 51.270313 
L 287.907727 51.491533 
L 293.690795 51.718879 
L 299.473864 51.961881 
L 299.473864 48.500344 
L 299.473864 48.500344 
L 293.690795 48.441915 
L 287.907727 48.387681 
L 282.124659 48.329774 
L 276.341591 48.273724 
L 270.558523 48.218645 
L 264.775455 48.165725 
L 258.992386 48.114157 
L 253.209318 48.065044 
L 247.42625 48.012152 
L 241.643182 47.960994 
L 235.860114 47.909768 
L 230.077045 47.863506 
L 224.293977 47.818503 
L 218.510909 47.77376 
L 212.727841 47.733494 
L 206.944773 47.688057 
L 201.161705 47.652007 
L 195.378636 47.613107 
L 189.595568 47.574205 
L 183.8125 47.53729 
L 178.029432 47.501916 
L 172.246364 47.467558 
L 166.463295 47.436301 
L 160.680227 47.406155 
L 154.897159 47.376174 
L 149.114091 47.350174 
L 143.331023 47.325267 
L 137.547955 47.302648 
L 131.764886 47.282949 
L 125.981818 47.265394 
L 120.19875 47.25114 
L 114.415682 47.2382 
L 108.632614 47.228921 
L 102.849545 47.220247 
L 97.066477 47.215731 
L 91.283409 47.21156 
L 85.500341 47.2075 
L 79.717273 47.2075 
L 73.934205 47.2075 
L 68.151136 47.2075 
z
" style="fill:#d62728;fill-opacity:0.2;"/>
   </g>
   <g id="PolyCollection_7">
    <path clip-path="url(#p41d3cea5d0)" d="M 68.151136 47.2075 
L 68.151136 47.2075 
L 73.934205 47.2075 
L 79.717273 47.211764 
L 85.500341 47.211977 
L 91.283409 47.22044 
L 97.066477 47.229873 
L 102.849545 47.244755 
L 108.632614 47.265774 
L 114.415682 47.291962 
L 120.19875 47.324402 
L 125.981818 47.363931 
L 131.764886 47.410811 
L 137.547955 47.465401 
L 143.331023 47.527061 
L 149.114091 47.597635 
L 154.897159 47.673325 
L 160.680227 47.756574 
L 166.463295 47.84707 
L 172.246364 47.938931 
L 178.029432 48.038805 
L 183.8125 48.14296 
L 189.595568 48.252215 
L 195.378636 48.365344 
L 201.161705 48.479921 
L 206.944773 48.604488 
L 212.727841 48.731183 
L 218.510909 48.86298 
L 224.293977 48.996702 
L 230.077045 49.136528 
L 235.860114 49.279245 
L 241.643182 49.425721 
L 247.42625 49.577812 
L 253.209318 49.733049 
L 258.992386 49.895755 
L 264.775455 50.067134 
L 270.558523 50.241573 
L 276.341591 50.414437 
L 282.124659 50.60332 
L 287.907727 50.785137 
L 293.690795 50.974276 
L 299.473864 51.169695 
L 299.473864 48.738265 
L 299.473864 48.738265 
L 293.690795 48.671817 
L 287.907727 48.60299 
L 282.124659 48.533462 
L 276.341591 48.466539 
L 270.558523 48.4004 
L 264.775455 48.333638 
L 258.992386 48.270306 
L 253.209318 48.209594 
L 247.42625 48.151268 
L 241.643182 48.094841 
L 235.860114 48.036891 
L 230.077045 47.983074 
L 224.293977 47.929529 
L 218.510909 47.876392 
L 212.727841 47.827505 
L 206.944773 47.776489 
L 201.161705 47.726756 
L 195.378636 47.680574 
L 189.595568 47.635297 
L 183.8125 47.591347 
L 178.029432 47.550579 
L 172.246364 47.510043 
L 166.463295 47.472732 
L 160.680227 47.436208 
L 154.897159 47.401943 
L 149.114091 47.370632 
L 143.331023 47.341556 
L 137.547955 47.315878 
L 131.764886 47.293309 
L 125.981818 47.273584 
L 120.19875 47.257138 
L 114.415682 47.243052 
L 108.632614 47.232913 
L 102.849545 47.224295 
L 97.066477 47.216013 
L 91.283409 47.211662 
L 85.500341 47.2075 
L 79.717273 47.2075 
L 73.934205 47.2075 
L 68.151136 47.2075 
z
" style="fill:#9467bd;fill-opacity:0.2;"/>
   </g>
   <g id="PolyCollection_8">
    <path clip-path="url(#p41d3cea5d0)" d="M 68.151136 47.2075 
L 68.151136 47.2075 
L 73.934205 47.2075 
L 79.717273 47.2075 
L 85.500341 47.211842 
L 91.283409 47.216407 
L 97.066477 47.225486 
L 102.849545 47.238895 
L 108.632614 47.2558 
L 114.415682 47.277833 
L 120.19875 47.305057 
L 125.981818 47.337845 
L 131.764886 47.376871 
L 137.547955 47.421328 
L 143.331023 47.473035 
L 149.114091 47.530521 
L 154.897159 47.592983 
L 160.680227 47.66071 
L 166.463295 47.733197 
L 172.246364 47.811049 
L 178.029432 47.891899 
L 183.8125 47.976218 
L 189.595568 48.065274 
L 195.378636 48.15705 
L 201.161705 48.251928 
L 206.944773 48.347606 
L 212.727841 48.447798 
L 218.510909 48.550956 
L 224.293977 48.65811 
L 230.077045 48.764615 
L 235.860114 48.873963 
L 241.643182 48.98863 
L 247.42625 49.104731 
L 253.209318 49.220961 
L 258.992386 49.345795 
L 264.775455 49.473077 
L 270.558523 49.599516 
L 276.341591 49.728664 
L 282.124659 49.868247 
L 287.907727 50.013082 
L 293.690795 50.153762 
L 299.473864 50.301256 
L 299.473864 49.121409 
L 299.473864 49.121409 
L 293.690795 49.032504 
L 287.907727 48.946977 
L 282.124659 48.860772 
L 276.341591 48.777127 
L 270.558523 48.696371 
L 264.775455 48.617333 
L 258.992386 48.537907 
L 253.209318 48.463248 
L 247.42625 48.386541 
L 241.643182 48.314239 
L 235.860114 48.244136 
L 230.077045 48.173653 
L 224.293977 48.106487 
L 218.510909 48.041642 
L 212.727841 47.976702 
L 206.944773 47.915671 
L 201.161705 47.853794 
L 195.378636 47.796149 
L 189.595568 47.739968 
L 183.8125 47.685796 
L 178.029432 47.634087 
L 172.246364 47.584454 
L 166.463295 47.536624 
L 160.680227 47.491706 
L 154.897159 47.449076 
L 149.114091 47.410349 
L 143.331023 47.374215 
L 137.547955 47.34242 
L 131.764886 47.31367 
L 125.981818 47.289595 
L 120.19875 47.269086 
L 114.415682 47.252057 
L 108.632614 47.238381 
L 102.849545 47.226148 
L 97.066477 47.220106 
L 91.283409 47.211854 
L 85.500341 47.2075 
L 79.717273 47.2075 
L 73.934205 47.2075 
L 68.151136 47.2075 
z
" style="fill:#8c564b;fill-opacity:0.2;"/>
   </g>
   <g id="matplotlib.axis_1">
    <g id="xtick_1">
     <g id="line2d_1">
      <defs>
       <path d="M 0 0 
L 0 3.5 
" id="m7c7be5736b" style="stroke:#000000;stroke-width:0.8;"/>
      </defs>
      <g>
       <use style="stroke:#000000;stroke-width:0.8;" x="68.151136" xlink:href="#m7c7be5736b" y="251.94"/>
      </g>
     </g>
     <g id="text_1">
      <!-- 2021 -->
      <g transform="translate(71.462386 289.48)rotate(-90)scale(0.12 -0.12)">
       <defs>
        <path d="M 1228 531 
L 3431 531 
L 3431 0 
L 469 0 
L 469 531 
Q 828 903 1448 1529 
Q 2069 2156 2228 2338 
Q 2531 2678 2651 2914 
Q 2772 3150 2772 3378 
Q 2772 3750 2511 3984 
Q 2250 4219 1831 4219 
Q 1534 4219 1204 4116 
Q 875 4013 500 3803 
L 500 4441 
Q 881 4594 1212 4672 
Q 1544 4750 1819 4750 
Q 2544 4750 2975 4387 
Q 3406 4025 3406 3419 
Q 3406 3131 3298 2873 
Q 3191 2616 2906 2266 
Q 2828 2175 2409 1742 
Q 1991 1309 1228 531 
z
" id="DejaVuSans-32" transform="scale(0.015625)"/>
        <path d="M 2034 4250 
Q 1547 4250 1301 3770 
Q 1056 3291 1056 2328 
Q 1056 1369 1301 889 
Q 1547 409 2034 409 
Q 2525 409 2770 889 
Q 3016 1369 3016 2328 
Q 3016 3291 2770 3770 
Q 2525 4250 2034 4250 
z
M 2034 4750 
Q 2819 4750 3233 4129 
Q 3647 3509 3647 2328 
Q 3647 1150 3233 529 
Q 2819 -91 2034 -91 
Q 1250 -91 836 529 
Q 422 1150 422 2328 
Q 422 3509 836 4129 
Q 1250 4750 2034 4750 
z
" id="DejaVuSans-30" transform="scale(0.015625)"/>
        <path d="M 794 531 
L 1825 531 
L 1825 4091 
L 703 3866 
L 703 4441 
L 1819 4666 
L 2450 4666 
L 2450 531 
L 3481 531 
L 3481 0 
L 794 0 
L 794 531 
z
" id="DejaVuSans-31" transform="scale(0.015625)"/>
       </defs>
       <use xlink:href="#DejaVuSans-32"/>
       <use x="63.623047" xlink:href="#DejaVuSans-30"/>
       <use x="127.246094" xlink:href="#DejaVuSans-32"/>
       <use x="190.869141" xlink:href="#DejaVuSans-31"/>
      </g>
     </g>
    </g>
    <g id="xtick_2">
     <g id="line2d_2">
      <g>
       <use style="stroke:#000000;stroke-width:0.8;" x="91.283409" xlink:href="#m7c7be5736b" y="251.94"/>
      </g>
     </g>
     <g id="text_2">
      <!-- 2022 -->
      <g transform="translate(94.594659 289.48)rotate(-90)scale(0.12 -0.12)">
       <use xlink:href="#DejaVuSans-32"/>
       <use x="63.623047" xlink:href="#DejaVuSans-30"/>
       <use x="127.246094" xlink:href="#DejaVuSans-32"/>
       <use x="190.869141" xlink:href="#DejaVuSans-32"/>
      </g>
     </g>
    </g>
    <g id="xtick_3">
     <g id="line2d_3">
      <g>
       <use style="stroke:#000000;stroke-width:0.8;" x="114.415682" xlink:href="#m7c7be5736b" y="251.94"/>
      </g>
     </g>
     <g id="text_3">
      <!-- 2023 -->
      <g transform="translate(117.726932 289.48)rotate(-90)scale(0.12 -0.12)">
       <defs>
        <path d="M 2597 2516 
Q 3050 2419 3304 2112 
Q 3559 1806 3559 1356 
Q 3559 666 3084 287 
Q 2609 -91 1734 -91 
Q 1441 -91 1130 -33 
Q 819 25 488 141 
L 488 750 
Q 750 597 1062 519 
Q 1375 441 1716 441 
Q 2309 441 2620 675 
Q 2931 909 2931 1356 
Q 2931 1769 2642 2001 
Q 2353 2234 1838 2234 
L 1294 2234 
L 1294 2753 
L 1863 2753 
Q 2328 2753 2575 2939 
Q 2822 3125 2822 3475 
Q 2822 3834 2567 4026 
Q 2313 4219 1838 4219 
Q 1578 4219 1281 4162 
Q 984 4106 628 3988 
L 628 4550 
Q 988 4650 1302 4700 
Q 1616 4750 1894 4750 
Q 2613 4750 3031 4423 
Q 3450 4097 3450 3541 
Q 3450 3153 3228 2886 
Q 3006 2619 2597 2516 
z
" id="DejaVuSans-33" transform="scale(0.015625)"/>
       </defs>
       <use xlink:href="#DejaVuSans-32"/>
       <use x="63.623047" xlink:href="#DejaVuSans-30"/>
       <use x="127.246094" xlink:href="#DejaVuSans-32"/>
       <use x="190.869141" xlink:href="#DejaVuSans-33"/>
      </g>
     </g>
    </g>
    <g id="xtick_4">
     <g id="line2d_4">
      <g>
       <use style="stroke:#000000;stroke-width:0.8;" x="137.547955" xlink:href="#m7c7be5736b" y="251.94"/>
      </g>
     </g>
     <g id="text_4">
      <!-- 2024 -->
      <g transform="translate(140.859205 289.48)rotate(-90)scale(0.12 -0.12)">
       <defs>
        <path d="M 2419 4116 
L 825 1625 
L 2419 1625 
L 2419 4116 
z
M 2253 4666 
L 3047 4666 
L 3047 1625 
L 3713 1625 
L 3713 1100 
L 3047 1100 
L 3047 0 
L 2419 0 
L 2419 1100 
L 313 1100 
L 313 1709 
L 2253 4666 
z
" id="DejaVuSans-34" transform="scale(0.015625)"/>
       </defs>
       <use xlink:href="#DejaVuSans-32"/>
       <use x="63.623047" xlink:href="#DejaVuSans-30"/>
       <use x="127.246094" xlink:href="#DejaVuSans-32"/>
       <use x="190.869141" xlink:href="#DejaVuSans-34"/>
      </g>
     </g>
    </g>
    <g id="xtick_5">
     <g id="line2d_5">
      <g>
       <use style="stroke:#000000;stroke-width:0.8;" x="160.680227" xlink:href="#m7c7be5736b" y="251.94"/>
      </g>
     </g>
     <g id="text_5">
      <!-- 2025 -->
      <g transform="translate(163.991477 289.48)rotate(-90)scale(0.12 -0.12)">
       <defs>
        <path d="M 691 4666 
L 3169 4666 
L 3169 4134 
L 1269 4134 
L 1269 2991 
Q 1406 3038 1543 3061 
Q 1681 3084 1819 3084 
Q 2600 3084 3056 2656 
Q 3513 2228 3513 1497 
Q 3513 744 3044 326 
Q 2575 -91 1722 -91 
Q 1428 -91 1123 -41 
Q 819 9 494 109 
L 494 744 
Q 775 591 1075 516 
Q 1375 441 1709 441 
Q 2250 441 2565 725 
Q 2881 1009 2881 1497 
Q 2881 1984 2565 2268 
Q 2250 2553 1709 2553 
Q 1456 2553 1204 2497 
Q 953 2441 691 2322 
L 691 4666 
z
" id="DejaVuSans-35" transform="scale(0.015625)"/>
       </defs>
       <use xlink:href="#DejaVuSans-32"/>
       <use x="63.623047" xlink:href="#DejaVuSans-30"/>
       <use x="127.246094" xlink:href="#DejaVuSans-32"/>
       <use x="190.869141" xlink:href="#DejaVuSans-35"/>
      </g>
     </g>
    </g>
    <g id="xtick_6">
     <g id="line2d_6">
      <g>
       <use style="stroke:#000000;stroke-width:0.8;" x="183.8125" xlink:href="#m7c7be5736b" y="251.94"/>
      </g>
     </g>
     <g id="text_6">
      <!-- 2026 -->
      <g transform="translate(187.12375 289.48)rotate(-90)scale(0.12 -0.12)">
       <defs>
        <path d="M 2113 2584 
Q 1688 2584 1439 2293 
Q 1191 2003 1191 1497 
Q 1191 994 1439 701 
Q 1688 409 2113 409 
Q 2538 409 2786 701 
Q 3034 994 3034 1497 
Q 3034 2003 2786 2293 
Q 2538 2584 2113 2584 
z
M 3366 4563 
L 3366 3988 
Q 3128 4100 2886 4159 
Q 2644 4219 2406 4219 
Q 1781 4219 1451 3797 
Q 1122 3375 1075 2522 
Q 1259 2794 1537 2939 
Q 1816 3084 2150 3084 
Q 2853 3084 3261 2657 
Q 3669 2231 3669 1497 
Q 3669 778 3244 343 
Q 2819 -91 2113 -91 
Q 1303 -91 875 529 
Q 447 1150 447 2328 
Q 447 3434 972 4092 
Q 1497 4750 2381 4750 
Q 2619 4750 2861 4703 
Q 3103 4656 3366 4563 
z
" id="DejaVuSans-36" transform="scale(0.015625)"/>
       </defs>
       <use xlink:href="#DejaVuSans-32"/>
       <use x="63.623047" xlink:href="#DejaVuSans-30"/>
       <use x="127.246094" xlink:href="#DejaVuSans-32"/>
       <use x="190.869141" xlink:href="#DejaVuSans-36"/>
      </g>
     </g>
    </g>
    <g id="xtick_7">
     <g id="line2d_7">
      <g>
       <use style="stroke:#000000;stroke-width:0.8;" x="206.944773" xlink:href="#m7c7be5736b" y="251.94"/>
      </g>
     </g>
     <g id="text_7">
      <!-- 2027 -->
      <g transform="translate(210.256023 289.48)rotate(-90)scale(0.12 -0.12)">
       <defs>
        <path d="M 525 4666 
L 3525 4666 
L 3525 4397 
L 1831 0 
L 1172 0 
L 2766 4134 
L 525 4134 
L 525 4666 
z
" id="DejaVuSans-37" transform="scale(0.015625)"/>
       </defs>
       <use xlink:href="#DejaVuSans-32"/>
       <use x="63.623047" xlink:href="#DejaVuSans-30"/>
       <use x="127.246094" xlink:href="#DejaVuSans-32"/>
       <use x="190.869141" xlink:href="#DejaVuSans-37"/>
      </g>
     </g>
    </g>
    <g id="xtick_8">
     <g id="line2d_8">
      <g>
       <use style="stroke:#000000;stroke-width:0.8;" x="230.077045" xlink:href="#m7c7be5736b" y="251.94"/>
      </g>
     </g>
     <g id="text_8">
      <!-- 2028 -->
      <g transform="translate(233.388295 289.48)rotate(-90)scale(0.12 -0.12)">
       <defs>
        <path d="M 2034 2216 
Q 1584 2216 1326 1975 
Q 1069 1734 1069 1313 
Q 1069 891 1326 650 
Q 1584 409 2034 409 
Q 2484 409 2743 651 
Q 3003 894 3003 1313 
Q 3003 1734 2745 1975 
Q 2488 2216 2034 2216 
z
M 1403 2484 
Q 997 2584 770 2862 
Q 544 3141 544 3541 
Q 544 4100 942 4425 
Q 1341 4750 2034 4750 
Q 2731 4750 3128 4425 
Q 3525 4100 3525 3541 
Q 3525 3141 3298 2862 
Q 3072 2584 2669 2484 
Q 3125 2378 3379 2068 
Q 3634 1759 3634 1313 
Q 3634 634 3220 271 
Q 2806 -91 2034 -91 
Q 1263 -91 848 271 
Q 434 634 434 1313 
Q 434 1759 690 2068 
Q 947 2378 1403 2484 
z
M 1172 3481 
Q 1172 3119 1398 2916 
Q 1625 2713 2034 2713 
Q 2441 2713 2670 2916 
Q 2900 3119 2900 3481 
Q 2900 3844 2670 4047 
Q 2441 4250 2034 4250 
Q 1625 4250 1398 4047 
Q 1172 3844 1172 3481 
z
" id="DejaVuSans-38" transform="scale(0.015625)"/>
       </defs>
       <use xlink:href="#DejaVuSans-32"/>
       <use x="63.623047" xlink:href="#DejaVuSans-30"/>
       <use x="127.246094" xlink:href="#DejaVuSans-32"/>
       <use x="190.869141" xlink:href="#DejaVuSans-38"/>
      </g>
     </g>
    </g>
    <g id="xtick_9">
     <g id="line2d_9">
      <g>
       <use style="stroke:#000000;stroke-width:0.8;" x="253.209318" xlink:href="#m7c7be5736b" y="251.94"/>
      </g>
     </g>
     <g id="text_9">
      <!-- 2029 -->
      <g transform="translate(256.520568 289.48)rotate(-90)scale(0.12 -0.12)">
       <defs>
        <path d="M 703 97 
L 703 672 
Q 941 559 1184 500 
Q 1428 441 1663 441 
Q 2288 441 2617 861 
Q 2947 1281 2994 2138 
Q 2813 1869 2534 1725 
Q 2256 1581 1919 1581 
Q 1219 1581 811 2004 
Q 403 2428 403 3163 
Q 403 3881 828 4315 
Q 1253 4750 1959 4750 
Q 2769 4750 3195 4129 
Q 3622 3509 3622 2328 
Q 3622 1225 3098 567 
Q 2575 -91 1691 -91 
Q 1453 -91 1209 -44 
Q 966 3 703 97 
z
M 1959 2075 
Q 2384 2075 2632 2365 
Q 2881 2656 2881 3163 
Q 2881 3666 2632 3958 
Q 2384 4250 1959 4250 
Q 1534 4250 1286 3958 
Q 1038 3666 1038 3163 
Q 1038 2656 1286 2365 
Q 1534 2075 1959 2075 
z
" id="DejaVuSans-39" transform="scale(0.015625)"/>
       </defs>
       <use xlink:href="#DejaVuSans-32"/>
       <use x="63.623047" xlink:href="#DejaVuSans-30"/>
       <use x="127.246094" xlink:href="#DejaVuSans-32"/>
       <use x="190.869141" xlink:href="#DejaVuSans-39"/>
      </g>
     </g>
    </g>
    <g id="xtick_10">
     <g id="line2d_10">
      <g>
       <use style="stroke:#000000;stroke-width:0.8;" x="276.341591" xlink:href="#m7c7be5736b" y="251.94"/>
      </g>
     </g>
     <g id="text_10">
      <!-- 2030 -->
      <g transform="translate(279.652841 289.48)rotate(-90)scale(0.12 -0.12)">
       <use xlink:href="#DejaVuSans-32"/>
       <use x="63.623047" xlink:href="#DejaVuSans-30"/>
       <use x="127.246094" xlink:href="#DejaVuSans-33"/>
       <use x="190.869141" xlink:href="#DejaVuSans-30"/>
      </g>
     </g>
    </g>
    <g id="xtick_11">
     <g id="line2d_11">
      <g>
       <use style="stroke:#000000;stroke-width:0.8;" x="299.473864" xlink:href="#m7c7be5736b" y="251.94"/>
      </g>
     </g>
     <g id="text_11">
      <!-- 2031 -->
      <g transform="translate(302.785114 289.48)rotate(-90)scale(0.12 -0.12)">
       <use xlink:href="#DejaVuSans-32"/>
       <use x="63.623047" xlink:href="#DejaVuSans-30"/>
       <use x="127.246094" xlink:href="#DejaVuSans-33"/>
       <use x="190.869141" xlink:href="#DejaVuSans-31"/>
      </g>
     </g>
    </g>
   </g>
   <g id="matplotlib.axis_2">
    <g id="ytick_1">
     <g id="line2d_12">
      <defs>
       <path d="M 0 0 
L -3.5 0 
" id="m5626e0d536" style="stroke:#000000;stroke-width:0.8;"/>
      </defs>
      <g>
       <use style="stroke:#000000;stroke-width:0.8;" x="56.585" xlink:href="#m5626e0d536" y="251.94"/>
      </g>
     </g>
     <g id="text_12">
      <!-- −14% -->
      <g transform="translate(12.8575 256.499063)scale(0.12 -0.12)">
       <defs>
        <path d="M 678 2272 
L 4684 2272 
L 4684 1741 
L 678 1741 
L 678 2272 
z
" id="DejaVuSans-2212" transform="scale(0.015625)"/>
        <path d="M 4653 2053 
Q 4381 2053 4226 1822 
Q 4072 1591 4072 1178 
Q 4072 772 4226 539 
Q 4381 306 4653 306 
Q 4919 306 5073 539 
Q 5228 772 5228 1178 
Q 5228 1588 5073 1820 
Q 4919 2053 4653 2053 
z
M 4653 2450 
Q 5147 2450 5437 2106 
Q 5728 1763 5728 1178 
Q 5728 594 5436 251 
Q 5144 -91 4653 -91 
Q 4153 -91 3862 251 
Q 3572 594 3572 1178 
Q 3572 1766 3864 2108 
Q 4156 2450 4653 2450 
z
M 1428 4353 
Q 1159 4353 1004 4120 
Q 850 3888 850 3481 
Q 850 3069 1003 2837 
Q 1156 2606 1428 2606 
Q 1700 2606 1854 2837 
Q 2009 3069 2009 3481 
Q 2009 3884 1853 4118 
Q 1697 4353 1428 4353 
z
M 4250 4750 
L 4750 4750 
L 1831 -91 
L 1331 -91 
L 4250 4750 
z
M 1428 4750 
Q 1922 4750 2215 4408 
Q 2509 4066 2509 3481 
Q 2509 2891 2217 2550 
Q 1925 2209 1428 2209 
Q 931 2209 642 2551 
Q 353 2894 353 3481 
Q 353 4063 643 4406 
Q 934 4750 1428 4750 
z
" id="DejaVuSans-25" transform="scale(0.015625)"/>
       </defs>
       <use xlink:href="#DejaVuSans-2212"/>
       <use x="83.789062" xlink:href="#DejaVuSans-31"/>
       <use x="147.412109" xlink:href="#DejaVuSans-34"/>
       <use x="211.035156" xlink:href="#DejaVuSans-25"/>
      </g>
     </g>
    </g>
    <g id="ytick_2">
     <g id="line2d_13">
      <g>
       <use style="stroke:#000000;stroke-width:0.8;" x="56.585" xlink:href="#m5626e0d536" y="222.6925"/>
      </g>
     </g>
     <g id="text_13">
      <!-- −12% -->
      <g transform="translate(12.8575 227.251563)scale(0.12 -0.12)">
       <use xlink:href="#DejaVuSans-2212"/>
       <use x="83.789062" xlink:href="#DejaVuSans-31"/>
       <use x="147.412109" xlink:href="#DejaVuSans-32"/>
       <use x="211.035156" xlink:href="#DejaVuSans-25"/>
      </g>
     </g>
    </g>
    <g id="ytick_3">
     <g id="line2d_14">
      <g>
       <use style="stroke:#000000;stroke-width:0.8;" x="56.585" xlink:href="#m5626e0d536" y="193.445"/>
      </g>
     </g>
     <g id="text_14">
      <!-- −10% -->
      <g transform="translate(12.8575 198.004063)scale(0.12 -0.12)">
       <use xlink:href="#DejaVuSans-2212"/>
       <use x="83.789062" xlink:href="#DejaVuSans-31"/>
       <use x="147.412109" xlink:href="#DejaVuSans-30"/>
       <use x="211.035156" xlink:href="#DejaVuSans-25"/>
      </g>
     </g>
    </g>
    <g id="ytick_4">
     <g id="line2d_15">
      <g>
       <use style="stroke:#000000;stroke-width:0.8;" x="56.585" xlink:href="#m5626e0d536" y="164.1975"/>
      </g>
     </g>
     <g id="text_15">
      <!-- −8% -->
      <g transform="translate(20.4925 168.756563)scale(0.12 -0.12)">
       <use xlink:href="#DejaVuSans-2212"/>
       <use x="83.789062" xlink:href="#DejaVuSans-38"/>
       <use x="147.412109" xlink:href="#DejaVuSans-25"/>
      </g>
     </g>
    </g>
    <g id="ytick_5">
     <g id="line2d_16">
      <g>
       <use style="stroke:#000000;stroke-width:0.8;" x="56.585" xlink:href="#m5626e0d536" y="134.95"/>
      </g>
     </g>
     <g id="text_16">
      <!-- −6% -->
      <g transform="translate(20.4925 139.509063)scale(0.12 -0.12)">
       <use xlink:href="#DejaVuSans-2212"/>
       <use x="83.789062" xlink:href="#DejaVuSans-36"/>
       <use x="147.412109" xlink:href="#DejaVuSans-25"/>
      </g>
     </g>
    </g>
    <g id="ytick_6">
     <g id="line2d_17">
      <g>
       <use style="stroke:#000000;stroke-width:0.8;" x="56.585" xlink:href="#m5626e0d536" y="105.7025"/>
      </g>
     </g>
     <g id="text_17">
      <!-- −4% -->
      <g transform="translate(20.4925 110.261562)scale(0.12 -0.12)">
       <use xlink:href="#DejaVuSans-2212"/>
       <use x="83.789062" xlink:href="#DejaVuSans-34"/>
       <use x="147.412109" xlink:href="#DejaVuSans-25"/>
      </g>
     </g>
    </g>
    <g id="ytick_7">
     <g id="line2d_18">
      <g>
       <use style="stroke:#000000;stroke-width:0.8;" x="56.585" xlink:href="#m5626e0d536" y="76.455"/>
      </g>
     </g>
     <g id="text_18">
      <!-- −2% -->
      <g transform="translate(20.4925 81.014062)scale(0.12 -0.12)">
       <use xlink:href="#DejaVuSans-2212"/>
       <use x="83.789062" xlink:href="#DejaVuSans-32"/>
       <use x="147.412109" xlink:href="#DejaVuSans-25"/>
      </g>
     </g>
    </g>
    <g id="ytick_8">
     <g id="line2d_19">
      <g>
       <use style="stroke:#000000;stroke-width:0.8;" x="56.585" xlink:href="#m5626e0d536" y="47.2075"/>
      </g>
     </g>
     <g id="text_19">
      <!-- 0% -->
      <g transform="translate(30.548125 51.766562)scale(0.12 -0.12)">
       <use xlink:href="#DejaVuSans-30"/>
       <use x="63.623047" xlink:href="#DejaVuSans-25"/>
      </g>
     </g>
    </g>
    <g id="ytick_9">
     <g id="line2d_20">
      <g>
       <use style="stroke:#000000;stroke-width:0.8;" x="56.585" xlink:href="#m5626e0d536" y="17.96"/>
      </g>
     </g>
     <g id="text_20">
      <!-- 2% -->
      <g transform="translate(30.548125 22.519062)scale(0.12 -0.12)">
       <use xlink:href="#DejaVuSans-32"/>
       <use x="63.623047" xlink:href="#DejaVuSans-25"/>
      </g>
     </g>
    </g>
   </g>
   <g id="line2d_21">
    <path clip-path="url(#p41d3cea5d0)" d="M 68.151136 47.2075 
L 73.934205 47.2075 
L 79.717273 47.2075 
L 85.500341 47.212759 
L 91.283409 47.220773 
L 97.066477 47.231637 
L 102.849545 47.24276 
L 108.632614 47.265165 
L 114.415682 47.2882 
L 120.19875 47.311912 
L 125.981818 47.3418 
L 131.764886 47.375162 
L 137.547955 47.412152 
L 143.331023 47.45884 
L 149.114091 47.506621 
L 154.897159 47.558581 
L 160.680227 47.614889 
L 166.463295 47.672613 
L 172.246364 47.731807 
L 178.029432 47.798879 
L 183.8125 47.861239 
L 189.595568 47.92847 
L 195.378636 47.997432 
L 201.161705 48.064817 
L 206.944773 48.140702 
L 212.727841 48.21164 
L 218.510909 48.291322 
L 224.293977 48.365932 
L 230.077045 48.449525 
L 235.860114 48.531537 
L 241.643182 48.611845 
L 247.42625 48.701495 
L 253.209318 48.789483 
L 258.992386 48.875681 
L 264.775455 48.95218 
L 270.558523 48.985633 
L 276.341591 49.041856 
L 282.124659 49.110165 
L 287.907727 49.183085 
L 293.690795 49.264978 
L 299.473864 49.347878 
" style="fill:none;stroke:#dc143c;stroke-linecap:square;stroke-width:1.5;"/>
   </g>
   <g id="line2d_22">
    <path clip-path="url(#p41d3cea5d0)" d="M 68.151136 47.2075 
L 299.473864 47.2075 
" style="fill:none;stroke:#000000;stroke-dasharray:1,1.65;stroke-dashoffset:0;"/>
   </g>
   <g id="line2d_23">
    <path clip-path="url(#p41d3cea5d0)" d="M 68.151136 47.2075 
L 73.934205 47.2075 
L 79.717273 47.2075 
L 85.500341 47.211923 
L 91.283409 47.21648 
L 97.066477 47.225739 
L 102.849545 47.244553 
L 108.632614 47.259261 
L 114.415682 47.284007 
L 120.19875 47.314412 
L 125.981818 47.3507 
L 131.764886 47.393112 
L 137.547955 47.446994 
L 143.331023 47.502491 
L 149.114091 47.564879 
L 154.897159 47.634419 
L 160.680227 47.711375 
L 166.463295 47.790512 
L 172.246364 47.877433 
L 178.029432 47.972403 
L 183.8125 48.064196 
L 189.595568 48.164242 
L 195.378636 48.272806 
L 201.161705 48.378149 
L 206.944773 48.498291 
L 212.727841 48.609064 
L 218.510909 48.734987 
L 224.293977 48.857549 
L 230.077045 48.989354 
L 235.860114 49.124138 
L 241.643182 49.261898 
L 247.42625 49.409308 
L 253.209318 49.559839 
L 258.992386 49.713471 
L 264.775455 49.863229 
L 270.558523 50.015523 
L 276.341591 50.177303 
L 282.124659 50.334481 
L 287.907727 50.501334 
L 293.690795 50.678099 
L 299.473864 50.850085 
" style="fill:none;stroke:#1e90ff;stroke-dasharray:5.55,2.4;stroke-dashoffset:0;stroke-width:1.5;"/>
   </g>
   <g id="line2d_24">
    <path clip-path="url(#p41d3cea5d0)" d="M 68.151136 47.2075 
L 299.473864 47.2075 
" style="fill:none;stroke:#000000;stroke-dasharray:1,1.65;stroke-dashoffset:0;"/>
   </g>
   <g id="patch_3">
    <path d="M 56.585 251.94 
L 56.585 17.96 
" style="fill:none;stroke:#000000;stroke-linecap:square;stroke-linejoin:miter;stroke-width:0.8;"/>
   </g>
   <g id="patch_4">
    <path d="M 311.04 251.94 
L 311.04 17.96 
" style="fill:none;stroke:#000000;stroke-linecap:square;stroke-linejoin:miter;stroke-width:0.8;"/>
   </g>
   <g id="patch_5">
    <path d="M 56.585 251.94 
L 311.04 251.94 
" style="fill:none;stroke:#000000;stroke-linecap:square;stroke-linejoin:miter;stroke-width:0.8;"/>
   </g>
   <g id="patch_6">
    <path d="M 56.585 17.96 
L 311.04 17.96 
" style="fill:none;stroke:#000000;stroke-linecap:square;stroke-linejoin:miter;stroke-width:0.8;"/>
   </g>
  </g>
 </g>
 <defs>
  <clipPath id="p41d3cea5d0">
   <rect height="233.98" width="254.455" x="56.585" y="17.96"/>
  </clipPath>
 </defs>
</svg>
