<?xml version="1.0" encoding="utf-8" standalone="no"?>
<!DOCTYPE svg PUBLIC "-//W3C//DTD SVG 1.1//EN"
  "http://www.w3.org/Graphics/SVG/1.1/DTD/svg11.dtd">
<svg height="302.4pt" version="1.1" viewBox="0 0 324 302.4" width="324pt" xmlns="http://www.w3.org/2000/svg" xmlns:xlink="http://www.w3.org/1999/xlink">
 <metadata>
  <rdf:RDF xmlns:cc="http://creativecommons.org/ns#" xmlns:dc="http://purl.org/dc/elements/1.1/" xmlns:rdf="http://www.w3.org/1999/02/22-rdf-syntax-ns#">
   <cc:Work>
    <dc:type rdf:resource="http://purl.org/dc/dcmitype/StillImage"/>
    <dc:date>2021-08-08T11:02:06.709176</dc:date>
    <dc:format>image/svg+xml</dc:format>
    <dc:creator>
     <cc:Agent>
      <dc:title>Matplotlib v3.4.0rc1, https://matplotlib.org/</dc:title>
     </cc:Agent>
    </dc:creator>
   </cc:Work>
  </rdf:RDF>
 </metadata>
 <defs>
  <style type="text/css">*{stroke-linecap:butt;stroke-linejoin:round;}</style>
 </defs>
 <g id="figure_1">
  <g id="patch_1">
   <path d="M 0 302.4 
L 324 302.4 
L 324 0 
L 0 0 
z
" style="fill:none;"/>
  </g>
  <g id="axes_1">
   <g id="patch_2">
    <path d="M 56.585 251.94 
L 311.04 251.94 
L 311.04 17.96 
L 56.585 17.96 
z
" style="fill:#ffffff;"/>
   </g>
   <g id="PolyCollection_1">
    <path clip-path="url(#pe8b1ebb53f)" d="M 68.151136 47.2075 
L 68.151136 47.2075 
L 73.934205 47.753088 
L 79.717273 48.269269 
L 85.500341 48.812651 
L 91.283409 49.428488 
L 97.066477 50.117496 
L 102.849545 50.897588 
L 108.632614 51.816804 
L 114.415682 52.837723 
L 120.19875 53.978822 
L 125.981818 55.276565 
L 131.764886 56.675824 
L 137.547955 58.302723 
L 143.331023 59.449529 
L 149.114091 60.781814 
L 154.897159 62.246985 
L 160.680227 63.920765 
L 166.463295 65.580967 
L 172.246364 67.040835 
L 178.029432 68.425417 
L 183.8125 69.853524 
L 189.595568 71.472522 
L 195.378636 72.854059 
L 201.161705 74.162146 
L 206.944773 75.625372 
L 212.727841 76.619533 
L 218.510909 77.398011 
L 224.293977 78.700372 
L 230.077045 79.974291 
L 235.860114 80.773754 
L 241.643182 81.343588 
L 247.42625 81.876511 
L 253.209318 82.945724 
L 258.992386 83.756002 
L 264.775455 84.928112 
L 270.558523 86.076396 
L 276.341591 87.264054 
L 282.124659 87.888297 
L 287.907727 88.873468 
L 293.690795 90.143403 
L 299.473864 91.250676 
L 299.473864 62.629935 
L 299.473864 62.629935 
L 293.690795 62.192455 
L 287.907727 61.803378 
L 282.124659 61.456458 
L 276.341591 61.104346 
L 270.558523 60.763535 
L 264.775455 60.434464 
L 258.992386 60.118718 
L 253.209318 59.787102 
L 247.42625 59.406426 
L 241.643182 59.083108 
L 235.860114 58.663904 
L 230.077045 58.307362 
L 224.293977 57.988041 
L 218.510909 57.671696 
L 212.727841 57.26803 
L 206.944773 56.884584 
L 201.161705 56.489258 
L 195.378636 56.178332 
L 189.595568 55.773411 
L 183.8125 55.400316 
L 178.029432 54.973386 
L 172.246364 54.558127 
L 166.463295 54.131457 
L 160.680227 53.741309 
L 154.897159 53.373559 
L 149.114091 52.971325 
L 143.331023 52.605471 
L 137.547955 52.315145 
L 131.764886 51.725205 
L 125.981818 51.114953 
L 120.19875 50.559689 
L 114.415682 50.064464 
L 108.632614 49.61181 
L 102.849545 49.194887 
L 97.066477 48.826024 
L 91.283409 48.49981 
L 85.500341 48.210507 
L 79.717273 47.943193 
L 73.934205 47.641446 
L 68.151136 47.2075 
z
" style="fill:#dc143c;fill-opacity:0.2;"/>
   </g>
   <g id="PolyCollection_2">
    <path clip-path="url(#pe8b1ebb53f)" d="M 68.151136 47.2075 
L 68.151136 47.2075 
L 73.934205 47.738744 
L 79.717273 48.233113 
L 85.500341 48.741098 
L 91.283409 49.311458 
L 97.066477 49.952916 
L 102.849545 50.672503 
L 108.632614 51.512477 
L 114.415682 52.445616 
L 120.19875 53.468747 
L 125.981818 54.62204 
L 131.764886 55.912447 
L 137.547955 57.303191 
L 143.331023 58.354744 
L 149.114091 59.438811 
L 154.897159 60.719202 
L 160.680227 61.974948 
L 166.463295 63.292477 
L 172.246364 64.638431 
L 178.029432 65.987071 
L 183.8125 67.38451 
L 189.595568 68.768017 
L 195.378636 70.106812 
L 201.161705 71.307354 
L 206.944773 72.618587 
L 212.727841 73.795785 
L 218.510909 74.576496 
L 224.293977 75.674524 
L 230.077045 76.317008 
L 235.860114 77.091155 
L 241.643182 77.808049 
L 247.42625 78.50109 
L 253.209318 79.281518 
L 258.992386 80.146982 
L 264.775455 80.744551 
L 270.558523 81.837458 
L 276.341591 82.753104 
L 282.124659 83.734733 
L 287.907727 84.649254 
L 293.690795 85.706226 
L 299.473864 86.8177 
L 299.473864 64.738699 
L 299.473864 64.738699 
L 293.690795 64.323747 
L 287.907727 63.876017 
L 282.124659 63.483837 
L 276.341591 63.084522 
L 270.558523 62.690719 
L 264.775455 62.248713 
L 258.992386 61.829056 
L 253.209318 61.45013 
L 247.42625 61.044766 
L 241.643182 60.649371 
L 235.860114 60.243157 
L 230.077045 59.81137 
L 224.293977 59.40209 
L 218.510909 59.01131 
L 212.727841 58.618602 
L 206.944773 58.194028 
L 201.161705 57.763152 
L 195.378636 57.332596 
L 189.595568 56.881725 
L 183.8125 56.451023 
L 178.029432 55.971157 
L 172.246364 55.482322 
L 166.463295 54.975192 
L 160.680227 54.519269 
L 154.897159 54.053333 
L 149.114091 53.60256 
L 143.331023 53.174759 
L 137.547955 52.861101 
L 131.764886 52.170969 
L 125.981818 51.510057 
L 120.19875 50.898438 
L 114.415682 50.338915 
L 108.632614 49.828351 
L 102.849545 49.372386 
L 97.066477 48.963826 
L 91.283409 48.604506 
L 85.500341 48.283445 
L 79.717273 47.978994 
L 73.934205 47.654506 
L 68.151136 47.2075 
z
" style="fill:#1f77b4;fill-opacity:0.2;"/>
   </g>
   <g id="PolyCollection_3">
    <path clip-path="url(#pe8b1ebb53f)" d="M 68.151136 47.2075 
L 68.151136 47.2075 
L 73.934205 47.728113 
L 79.717273 48.196386 
L 85.500341 48.67621 
L 91.283409 49.199728 
L 97.066477 49.786274 
L 102.849545 50.45653 
L 108.632614 51.220221 
L 114.415682 52.090648 
L 120.19875 53.045019 
L 125.981818 54.11922 
L 131.764886 55.305771 
L 137.547955 56.586358 
L 143.331023 57.457191 
L 149.114091 58.53208 
L 154.897159 59.610136 
L 160.680227 60.691919 
L 166.463295 61.892099 
L 172.246364 63.100424 
L 178.029432 64.356179 
L 183.8125 65.567421 
L 189.595568 66.701056 
L 195.378636 67.845558 
L 201.161705 68.963866 
L 206.944773 69.980957 
L 212.727841 70.95039 
L 218.510909 71.896 
L 224.293977 72.806876 
L 230.077045 73.578544 
L 235.860114 74.364474 
L 241.643182 75.028604 
L 247.42625 75.778454 
L 253.209318 76.549139 
L 258.992386 77.279139 
L 264.775455 78.034296 
L 270.558523 78.867521 
L 276.341591 79.688547 
L 282.124659 80.621823 
L 287.907727 81.425842 
L 293.690795 82.288443 
L 299.473864 83.16287 
L 299.473864 66.736016 
L 299.473864 66.736016 
L 293.690795 66.292146 
L 287.907727 65.81254 
L 282.124659 65.36165 
L 276.341591 64.899979 
L 270.558523 64.437577 
L 264.775455 63.990598 
L 258.992386 63.539442 
L 253.209318 63.064781 
L 247.42625 62.609818 
L 241.643182 62.166165 
L 235.860114 61.663548 
L 230.077045 61.229937 
L 224.293977 60.773174 
L 218.510909 60.265677 
L 212.727841 59.747853 
L 206.944773 59.232228 
L 201.161705 58.734183 
L 195.378636 58.251834 
L 189.595568 57.74165 
L 183.8125 57.23093 
L 178.029432 56.725984 
L 172.246364 56.214217 
L 166.463295 55.683698 
L 160.680227 55.163494 
L 154.897159 54.630038 
L 149.114091 54.106265 
L 143.331023 53.636695 
L 137.547955 53.258862 
L 131.764886 52.511465 
L 125.981818 51.80058 
L 120.19875 51.153459 
L 114.415682 50.542359 
L 108.632614 49.992159 
L 102.849545 49.500422 
L 97.066477 49.06243 
L 91.283409 48.674272 
L 85.500341 48.328835 
L 79.717273 48.00782 
L 73.934205 47.664652 
L 68.151136 47.2075 
z
" style="fill:#ff7f0e;fill-opacity:0.2;"/>
   </g>
   <g id="PolyCollection_4">
    <path clip-path="url(#pe8b1ebb53f)" d="M 68.151136 47.2075 
L 68.151136 47.2075 
L 73.934205 47.711996 
L 79.717273 48.145999 
L 85.500341 48.575604 
L 91.283409 49.043288 
L 97.066477 49.576725 
L 102.849545 50.181986 
L 108.632614 50.875832 
L 114.415682 51.641932 
L 120.19875 52.513208 
L 125.981818 53.469846 
L 131.764886 54.497756 
L 137.547955 55.61158 
L 143.331023 56.326644 
L 149.114091 57.186236 
L 154.897159 58.107145 
L 160.680227 59.075405 
L 166.463295 60.058881 
L 172.246364 61.014046 
L 178.029432 61.966442 
L 183.8125 62.911729 
L 189.595568 63.859045 
L 195.378636 64.800361 
L 201.161705 65.696527 
L 206.944773 66.59195 
L 212.727841 67.450331 
L 218.510909 68.235981 
L 224.293977 69.043819 
L 230.077045 69.832934 
L 235.860114 70.525969 
L 241.643182 71.243058 
L 247.42625 71.999992 
L 253.209318 72.662197 
L 258.992386 73.352859 
L 264.775455 74.062402 
L 270.558523 74.796956 
L 276.341591 75.511721 
L 282.124659 76.267831 
L 287.907727 76.969388 
L 293.690795 77.724313 
L 299.473864 78.505679 
L 299.473864 70.182459 
L 299.473864 70.182459 
L 293.690795 69.593339 
L 287.907727 69.011169 
L 282.124659 68.427066 
L 276.341591 67.826892 
L 270.558523 67.26026 
L 264.775455 66.690123 
L 258.992386 66.1337 
L 253.209318 65.594576 
L 247.42625 65.075494 
L 241.643182 64.503213 
L 235.860114 63.928113 
L 230.077045 63.399683 
L 224.293977 62.843041 
L 218.510909 62.26341 
L 212.727841 61.718452 
L 206.944773 61.138874 
L 201.161705 60.53624 
L 195.378636 59.958708 
L 189.595568 59.358984 
L 183.8125 58.744178 
L 178.029432 58.111405 
L 172.246364 57.49392 
L 166.463295 56.870826 
L 160.680227 56.229419 
L 154.897159 55.588631 
L 149.114091 54.969918 
L 143.331023 54.391126 
L 137.547955 53.926577 
L 131.764886 53.076178 
L 125.981818 52.27959 
L 120.19875 51.539097 
L 114.415682 50.859282 
L 108.632614 50.253028 
L 102.849545 49.696766 
L 97.066477 49.21102 
L 91.283409 48.780315 
L 85.500341 48.399126 
L 79.717273 48.047035 
L 73.934205 47.679119 
L 68.151136 47.2075 
z
" style="fill:#2ca02c;fill-opacity:0.2;"/>
   </g>
   <g id="PolyCollection_5">
    <path clip-path="url(#pe8b1ebb53f)" d="M 68.151136 47.2075 
L 68.151136 47.2075 
L 73.934205 47.577982 
L 79.717273 48.08938 
L 85.500341 48.739145 
L 91.283409 49.536771 
L 97.066477 50.538505 
L 102.849545 51.639635 
L 108.632614 52.454616 
L 114.415682 53.690634 
L 120.19875 55.072843 
L 125.981818 56.332163 
L 131.764886 57.617858 
L 137.547955 59.319185 
L 143.331023 61.307258 
L 149.114091 63.294612 
L 154.897159 65.269325 
L 160.680227 67.459769 
L 166.463295 69.402309 
L 172.246364 71.320059 
L 178.029432 73.190382 
L 183.8125 75.379605 
L 189.595568 77.0524 
L 195.378636 78.976587 
L 201.161705 81.075703 
L 206.944773 83.320661 
L 212.727841 85.292523 
L 218.510909 87.406467 
L 224.293977 89.67857 
L 230.077045 91.882625 
L 235.860114 93.52514 
L 241.643182 95.340932 
L 247.42625 97.751204 
L 253.209318 99.560479 
L 258.992386 102.250497 
L 264.775455 104.451634 
L 270.558523 106.80234 
L 276.341591 109.315121 
L 282.124659 111.835123 
L 287.907727 113.90571 
L 293.690795 116.827202 
L 299.473864 119.274478 
L 299.473864 64.607005 
L 299.473864 64.607005 
L 293.690795 63.998285 
L 287.907727 63.410685 
L 282.124659 62.721101 
L 276.341591 62.13276 
L 270.558523 61.570903 
L 264.775455 61.023742 
L 258.992386 60.490367 
L 253.209318 59.707132 
L 247.42625 59.222281 
L 241.643182 58.748903 
L 235.860114 58.267327 
L 230.077045 57.803674 
L 224.293977 57.365392 
L 218.510909 56.975009 
L 212.727841 56.517641 
L 206.944773 55.969667 
L 201.161705 55.547844 
L 195.378636 54.802764 
L 189.595568 54.615235 
L 183.8125 53.619525 
L 178.029432 53.057441 
L 172.246364 52.750829 
L 166.463295 52.267978 
L 160.680227 52.03046 
L 154.897159 50.65054 
L 149.114091 50.362765 
L 143.331023 50.074241 
L 137.547955 49.57987 
L 131.764886 48.703876 
L 125.981818 47.92006 
L 120.19875 47.527417 
L 114.415682 47.457739 
L 108.632614 47.009609 
L 102.849545 46.617959 
L 97.066477 46.597918 
L 91.283409 46.491791 
L 85.500341 46.646553 
L 79.717273 46.757131 
L 73.934205 46.924755 
L 68.151136 47.2075 
z
" style="fill:#1e90ff;fill-opacity:0.2;"/>
   </g>
   <g id="PolyCollection_6">
    <path clip-path="url(#pe8b1ebb53f)" d="M 68.151136 47.2075 
L 68.151136 47.2075 
L 73.934205 47.266566 
L 79.717273 47.478846 
L 85.500341 47.840107 
L 91.283409 48.346999 
L 97.066477 48.990726 
L 102.849545 49.77791 
L 108.632614 50.702288 
L 114.415682 51.742591 
L 120.19875 52.915357 
L 125.981818 54.169293 
L 131.764886 55.533564 
L 137.547955 57.034444 
L 143.331023 58.590176 
L 149.114091 60.208871 
L 154.897159 61.882171 
L 160.680227 63.509275 
L 166.463295 65.20931 
L 172.246364 66.889006 
L 178.029432 68.640681 
L 183.8125 70.383607 
L 189.595568 72.193536 
L 195.378636 73.845966 
L 201.161705 75.599785 
L 206.944773 77.314511 
L 212.727841 79.006281 
L 218.510909 80.639674 
L 224.293977 82.368204 
L 230.077045 84.18526 
L 235.860114 85.948711 
L 241.643182 87.824678 
L 247.42625 89.674061 
L 253.209318 91.634175 
L 258.992386 93.521648 
L 264.775455 95.655679 
L 270.558523 97.582376 
L 276.341591 99.541067 
L 282.124659 101.62025 
L 287.907727 103.683055 
L 293.690795 105.785526 
L 299.473864 107.971482 
L 299.473864 69.211169 
L 299.473864 69.211169 
L 293.690795 68.440887 
L 287.907727 67.722077 
L 282.124659 66.986602 
L 276.341591 66.2329 
L 270.558523 65.58835 
L 264.775455 64.937259 
L 258.992386 64.295503 
L 253.209318 63.669014 
L 247.42625 63.052189 
L 241.643182 62.407995 
L 235.860114 61.807852 
L 230.077045 61.173238 
L 224.293977 60.589831 
L 218.510909 59.964508 
L 212.727841 59.408964 
L 206.944773 58.843276 
L 201.161705 58.257751 
L 195.378636 57.663972 
L 189.595568 57.117708 
L 183.8125 56.489245 
L 178.029432 55.951234 
L 172.246364 55.396341 
L 166.463295 54.806864 
L 160.680227 54.219762 
L 154.897159 53.641468 
L 149.114091 53.044963 
L 143.331023 52.436839 
L 137.547955 51.831161 
L 131.764886 51.232637 
L 125.981818 50.650185 
L 120.19875 50.078456 
L 114.415682 49.533932 
L 108.632614 49.027338 
L 102.849545 48.570735 
L 97.066477 48.167246 
L 91.283409 47.821362 
L 85.500341 47.545123 
L 79.717273 47.3468 
L 73.934205 47.235875 
L 68.151136 47.2075 
z
" style="fill:#d62728;fill-opacity:0.2;"/>
   </g>
   <g id="PolyCollection_7">
    <path clip-path="url(#pe8b1ebb53f)" d="M 68.151136 47.2075 
L 68.151136 47.2075 
L 73.934205 47.262646 
L 79.717273 47.458719 
L 85.500341 47.790527 
L 91.283409 48.251287 
L 97.066477 48.841179 
L 102.849545 49.551489 
L 108.632614 50.378836 
L 114.415682 51.318652 
L 120.19875 52.371292 
L 125.981818 53.520434 
L 131.764886 54.776072 
L 137.547955 56.125118 
L 143.331023 57.53393 
L 149.114091 58.992917 
L 154.897159 60.4534 
L 160.680227 61.96322 
L 166.463295 63.453973 
L 172.246364 65.009243 
L 178.029432 66.493901 
L 183.8125 67.987291 
L 189.595568 69.530115 
L 195.378636 71.05275 
L 201.161705 72.535902 
L 206.944773 74.008345 
L 212.727841 75.577438 
L 218.510909 77.137891 
L 224.293977 78.705459 
L 230.077045 80.259098 
L 235.860114 81.828169 
L 241.643182 83.487223 
L 247.42625 85.139049 
L 253.209318 86.815817 
L 258.992386 88.423539 
L 264.775455 90.181313 
L 270.558523 91.923376 
L 276.341591 93.796987 
L 282.124659 95.699762 
L 287.907727 97.553103 
L 293.690795 99.504119 
L 299.473864 101.461767 
L 299.473864 72.745976 
L 299.473864 72.745976 
L 293.690795 71.830858 
L 287.907727 70.948746 
L 282.124659 70.096657 
L 276.341591 69.245064 
L 270.558523 68.449807 
L 264.775455 67.609651 
L 258.992386 66.83997 
L 253.209318 66.062484 
L 247.42625 65.353468 
L 241.643182 64.668121 
L 235.860114 63.911681 
L 230.077045 63.178143 
L 224.293977 62.469698 
L 218.510909 61.779511 
L 212.727841 61.099931 
L 206.944773 60.44606 
L 201.161705 59.804157 
L 195.378636 59.156621 
L 189.595568 58.471225 
L 183.8125 57.818578 
L 178.029432 57.143592 
L 172.246364 56.487673 
L 166.463295 55.805716 
L 160.680227 55.141746 
L 154.897159 54.447019 
L 149.114091 53.762599 
L 143.331023 53.061292 
L 137.547955 52.355505 
L 131.764886 51.664695 
L 125.981818 50.99698 
L 120.19875 50.35952 
L 114.415682 49.76319 
L 108.632614 49.219327 
L 102.849545 48.716974 
L 97.066477 48.271255 
L 91.283409 47.88618 
L 85.500341 47.585086 
L 79.717273 47.368751 
L 73.934205 47.241128 
L 68.151136 47.2075 
z
" style="fill:#9467bd;fill-opacity:0.2;"/>
   </g>
   <g id="PolyCollection_8">
    <path clip-path="url(#pe8b1ebb53f)" d="M 68.151136 47.2075 
L 68.151136 47.2075 
L 73.934205 47.257322 
L 79.717273 47.435527 
L 85.500341 47.737221 
L 91.283409 48.158223 
L 97.066477 48.689011 
L 102.849545 49.332903 
L 108.632614 50.073833 
L 114.415682 50.913028 
L 120.19875 51.841425 
L 125.981818 52.860711 
L 131.764886 53.966527 
L 137.547955 55.142628 
L 143.331023 56.36431 
L 149.114091 57.605664 
L 154.897159 58.865227 
L 160.680227 60.141756 
L 166.463295 61.424295 
L 172.246364 62.677488 
L 178.029432 63.958583 
L 183.8125 65.233648 
L 189.595568 66.528054 
L 195.378636 67.791266 
L 201.161705 69.102501 
L 206.944773 70.400919 
L 212.727841 71.687542 
L 218.510909 72.985073 
L 224.293977 74.285798 
L 230.077045 75.615831 
L 235.860114 76.947497 
L 241.643182 78.291776 
L 247.42625 79.673558 
L 253.209318 81.064494 
L 258.992386 82.472137 
L 264.775455 83.95544 
L 270.558523 85.428996 
L 276.341591 86.900495 
L 282.124659 88.472818 
L 287.907727 90.083715 
L 293.690795 91.697266 
L 299.473864 93.351266 
L 299.473864 78.377598 
L 299.473864 78.377598 
L 293.690795 77.2469 
L 287.907727 76.134349 
L 282.124659 75.090517 
L 276.341591 74.095467 
L 270.558523 73.065208 
L 264.775455 72.068165 
L 258.992386 71.123475 
L 253.209318 70.196476 
L 247.42625 69.287241 
L 241.643182 68.374585 
L 235.860114 67.504504 
L 230.077045 66.63603 
L 224.293977 65.765391 
L 218.510909 64.897784 
L 212.727841 64.056137 
L 206.944773 63.216794 
L 201.161705 62.376413 
L 195.378636 61.557829 
L 189.595568 60.723827 
L 183.8125 59.908764 
L 178.029432 59.07103 
L 172.246364 58.232658 
L 166.463295 57.387914 
L 160.680227 56.552007 
L 154.897159 55.715828 
L 149.114091 54.853753 
L 143.331023 54.00084 
L 137.547955 53.136646 
L 131.764886 52.316625 
L 125.981818 51.527493 
L 120.19875 50.781999 
L 114.415682 50.089279 
L 108.632614 49.45544 
L 102.849545 48.887169 
L 97.066477 48.387227 
L 91.283409 47.968748 
L 85.500341 47.634711 
L 79.717273 47.391725 
L 73.934205 47.247536 
L 68.151136 47.2075 
z
" style="fill:#8c564b;fill-opacity:0.2;"/>
   </g>
   <g id="matplotlib.axis_1">
    <g id="xtick_1">
     <g id="line2d_1">
      <defs>
       <path d="M 0 0 
L 0 3.5 
" id="mf5919151e8" style="stroke:#000000;stroke-width:0.8;"/>
      </defs>
      <g>
       <use style="stroke:#000000;stroke-width:0.8;" x="68.151136" xlink:href="#mf5919151e8" y="251.94"/>
      </g>
     </g>
     <g id="text_1">
      <!-- 2021 -->
      <g transform="translate(71.462386 289.48)rotate(-90)scale(0.12 -0.12)">
       <defs>
        <path d="M 1228 531 
L 3431 531 
L 3431 0 
L 469 0 
L 469 531 
Q 828 903 1448 1529 
Q 2069 2156 2228 2338 
Q 2531 2678 2651 2914 
Q 2772 3150 2772 3378 
Q 2772 3750 2511 3984 
Q 2250 4219 1831 4219 
Q 1534 4219 1204 4116 
Q 875 4013 500 3803 
L 500 4441 
Q 881 4594 1212 4672 
Q 1544 4750 1819 4750 
Q 2544 4750 2975 4387 
Q 3406 4025 3406 3419 
Q 3406 3131 3298 2873 
Q 3191 2616 2906 2266 
Q 2828 2175 2409 1742 
Q 1991 1309 1228 531 
z
" id="DejaVuSans-32" transform="scale(0.015625)"/>
        <path d="M 2034 4250 
Q 1547 4250 1301 3770 
Q 1056 3291 1056 2328 
Q 1056 1369 1301 889 
Q 1547 409 2034 409 
Q 2525 409 2770 889 
Q 3016 1369 3016 2328 
Q 3016 3291 2770 3770 
Q 2525 4250 2034 4250 
z
M 2034 4750 
Q 2819 4750 3233 4129 
Q 3647 3509 3647 2328 
Q 3647 1150 3233 529 
Q 2819 -91 2034 -91 
Q 1250 -91 836 529 
Q 422 1150 422 2328 
Q 422 3509 836 4129 
Q 1250 4750 2034 4750 
z
" id="DejaVuSans-30" transform="scale(0.015625)"/>
        <path d="M 794 531 
L 1825 531 
L 1825 4091 
L 703 3866 
L 703 4441 
L 1819 4666 
L 2450 4666 
L 2450 531 
L 3481 531 
L 3481 0 
L 794 0 
L 794 531 
z
" id="DejaVuSans-31" transform="scale(0.015625)"/>
       </defs>
       <use xlink:href="#DejaVuSans-32"/>
       <use x="63.623047" xlink:href="#DejaVuSans-30"/>
       <use x="127.246094" xlink:href="#DejaVuSans-32"/>
       <use x="190.869141" xlink:href="#DejaVuSans-31"/>
      </g>
     </g>
    </g>
    <g id="xtick_2">
     <g id="line2d_2">
      <g>
       <use style="stroke:#000000;stroke-width:0.8;" x="91.283409" xlink:href="#mf5919151e8" y="251.94"/>
      </g>
     </g>
     <g id="text_2">
      <!-- 2022 -->
      <g transform="translate(94.594659 289.48)rotate(-90)scale(0.12 -0.12)">
       <use xlink:href="#DejaVuSans-32"/>
       <use x="63.623047" xlink:href="#DejaVuSans-30"/>
       <use x="127.246094" xlink:href="#DejaVuSans-32"/>
       <use x="190.869141" xlink:href="#DejaVuSans-32"/>
      </g>
     </g>
    </g>
    <g id="xtick_3">
     <g id="line2d_3">
      <g>
       <use style="stroke:#000000;stroke-width:0.8;" x="114.415682" xlink:href="#mf5919151e8" y="251.94"/>
      </g>
     </g>
     <g id="text_3">
      <!-- 2023 -->
      <g transform="translate(117.726932 289.48)rotate(-90)scale(0.12 -0.12)">
       <defs>
        <path d="M 2597 2516 
Q 3050 2419 3304 2112 
Q 3559 1806 3559 1356 
Q 3559 666 3084 287 
Q 2609 -91 1734 -91 
Q 1441 -91 1130 -33 
Q 819 25 488 141 
L 488 750 
Q 750 597 1062 519 
Q 1375 441 1716 441 
Q 2309 441 2620 675 
Q 2931 909 2931 1356 
Q 2931 1769 2642 2001 
Q 2353 2234 1838 2234 
L 1294 2234 
L 1294 2753 
L 1863 2753 
Q 2328 2753 2575 2939 
Q 2822 3125 2822 3475 
Q 2822 3834 2567 4026 
Q 2313 4219 1838 4219 
Q 1578 4219 1281 4162 
Q 984 4106 628 3988 
L 628 4550 
Q 988 4650 1302 4700 
Q 1616 4750 1894 4750 
Q 2613 4750 3031 4423 
Q 3450 4097 3450 3541 
Q 3450 3153 3228 2886 
Q 3006 2619 2597 2516 
z
" id="DejaVuSans-33" transform="scale(0.015625)"/>
       </defs>
       <use xlink:href="#DejaVuSans-32"/>
       <use x="63.623047" xlink:href="#DejaVuSans-30"/>
       <use x="127.246094" xlink:href="#DejaVuSans-32"/>
       <use x="190.869141" xlink:href="#DejaVuSans-33"/>
      </g>
     </g>
    </g>
    <g id="xtick_4">
     <g id="line2d_4">
      <g>
       <use style="stroke:#000000;stroke-width:0.8;" x="137.547955" xlink:href="#mf5919151e8" y="251.94"/>
      </g>
     </g>
     <g id="text_4">
      <!-- 2024 -->
      <g transform="translate(140.859205 289.48)rotate(-90)scale(0.12 -0.12)">
       <defs>
        <path d="M 2419 4116 
L 825 1625 
L 2419 1625 
L 2419 4116 
z
M 2253 4666 
L 3047 4666 
L 3047 1625 
L 3713 1625 
L 3713 1100 
L 3047 1100 
L 3047 0 
L 2419 0 
L 2419 1100 
L 313 1100 
L 313 1709 
L 2253 4666 
z
" id="DejaVuSans-34" transform="scale(0.015625)"/>
       </defs>
       <use xlink:href="#DejaVuSans-32"/>
       <use x="63.623047" xlink:href="#DejaVuSans-30"/>
       <use x="127.246094" xlink:href="#DejaVuSans-32"/>
       <use x="190.869141" xlink:href="#DejaVuSans-34"/>
      </g>
     </g>
    </g>
    <g id="xtick_5">
     <g id="line2d_5">
      <g>
       <use style="stroke:#000000;stroke-width:0.8;" x="160.680227" xlink:href="#mf5919151e8" y="251.94"/>
      </g>
     </g>
     <g id="text_5">
      <!-- 2025 -->
      <g transform="translate(163.991477 289.48)rotate(-90)scale(0.12 -0.12)">
       <defs>
        <path d="M 691 4666 
L 3169 4666 
L 3169 4134 
L 1269 4134 
L 1269 2991 
Q 1406 3038 1543 3061 
Q 1681 3084 1819 3084 
Q 2600 3084 3056 2656 
Q 3513 2228 3513 1497 
Q 3513 744 3044 326 
Q 2575 -91 1722 -91 
Q 1428 -91 1123 -41 
Q 819 9 494 109 
L 494 744 
Q 775 591 1075 516 
Q 1375 441 1709 441 
Q 2250 441 2565 725 
Q 2881 1009 2881 1497 
Q 2881 1984 2565 2268 
Q 2250 2553 1709 2553 
Q 1456 2553 1204 2497 
Q 953 2441 691 2322 
L 691 4666 
z
" id="DejaVuSans-35" transform="scale(0.015625)"/>
       </defs>
       <use xlink:href="#DejaVuSans-32"/>
       <use x="63.623047" xlink:href="#DejaVuSans-30"/>
       <use x="127.246094" xlink:href="#DejaVuSans-32"/>
       <use x="190.869141" xlink:href="#DejaVuSans-35"/>
      </g>
     </g>
    </g>
    <g id="xtick_6">
     <g id="line2d_6">
      <g>
       <use style="stroke:#000000;stroke-width:0.8;" x="183.8125" xlink:href="#mf5919151e8" y="251.94"/>
      </g>
     </g>
     <g id="text_6">
      <!-- 2026 -->
      <g transform="translate(187.12375 289.48)rotate(-90)scale(0.12 -0.12)">
       <defs>
        <path d="M 2113 2584 
Q 1688 2584 1439 2293 
Q 1191 2003 1191 1497 
Q 1191 994 1439 701 
Q 1688 409 2113 409 
Q 2538 409 2786 701 
Q 3034 994 3034 1497 
Q 3034 2003 2786 2293 
Q 2538 2584 2113 2584 
z
M 3366 4563 
L 3366 3988 
Q 3128 4100 2886 4159 
Q 2644 4219 2406 4219 
Q 1781 4219 1451 3797 
Q 1122 3375 1075 2522 
Q 1259 2794 1537 2939 
Q 1816 3084 2150 3084 
Q 2853 3084 3261 2657 
Q 3669 2231 3669 1497 
Q 3669 778 3244 343 
Q 2819 -91 2113 -91 
Q 1303 -91 875 529 
Q 447 1150 447 2328 
Q 447 3434 972 4092 
Q 1497 4750 2381 4750 
Q 2619 4750 2861 4703 
Q 3103 4656 3366 4563 
z
" id="DejaVuSans-36" transform="scale(0.015625)"/>
       </defs>
       <use xlink:href="#DejaVuSans-32"/>
       <use x="63.623047" xlink:href="#DejaVuSans-30"/>
       <use x="127.246094" xlink:href="#DejaVuSans-32"/>
       <use x="190.869141" xlink:href="#DejaVuSans-36"/>
      </g>
     </g>
    </g>
    <g id="xtick_7">
     <g id="line2d_7">
      <g>
       <use style="stroke:#000000;stroke-width:0.8;" x="206.944773" xlink:href="#mf5919151e8" y="251.94"/>
      </g>
     </g>
     <g id="text_7">
      <!-- 2027 -->
      <g transform="translate(210.256023 289.48)rotate(-90)scale(0.12 -0.12)">
       <defs>
        <path d="M 525 4666 
L 3525 4666 
L 3525 4397 
L 1831 0 
L 1172 0 
L 2766 4134 
L 525 4134 
L 525 4666 
z
" id="DejaVuSans-37" transform="scale(0.015625)"/>
       </defs>
       <use xlink:href="#DejaVuSans-32"/>
       <use x="63.623047" xlink:href="#DejaVuSans-30"/>
       <use x="127.246094" xlink:href="#DejaVuSans-32"/>
       <use x="190.869141" xlink:href="#DejaVuSans-37"/>
      </g>
     </g>
    </g>
    <g id="xtick_8">
     <g id="line2d_8">
      <g>
       <use style="stroke:#000000;stroke-width:0.8;" x="230.077045" xlink:href="#mf5919151e8" y="251.94"/>
      </g>
     </g>
     <g id="text_8">
      <!-- 2028 -->
      <g transform="translate(233.388295 289.48)rotate(-90)scale(0.12 -0.12)">
       <defs>
        <path d="M 2034 2216 
Q 1584 2216 1326 1975 
Q 1069 1734 1069 1313 
Q 1069 891 1326 650 
Q 1584 409 2034 409 
Q 2484 409 2743 651 
Q 3003 894 3003 1313 
Q 3003 1734 2745 1975 
Q 2488 2216 2034 2216 
z
M 1403 2484 
Q 997 2584 770 2862 
Q 544 3141 544 3541 
Q 544 4100 942 4425 
Q 1341 4750 2034 4750 
Q 2731 4750 3128 4425 
Q 3525 4100 3525 3541 
Q 3525 3141 3298 2862 
Q 3072 2584 2669 2484 
Q 3125 2378 3379 2068 
Q 3634 1759 3634 1313 
Q 3634 634 3220 271 
Q 2806 -91 2034 -91 
Q 1263 -91 848 271 
Q 434 634 434 1313 
Q 434 1759 690 2068 
Q 947 2378 1403 2484 
z
M 1172 3481 
Q 1172 3119 1398 2916 
Q 1625 2713 2034 2713 
Q 2441 2713 2670 2916 
Q 2900 3119 2900 3481 
Q 2900 3844 2670 4047 
Q 2441 4250 2034 4250 
Q 1625 4250 1398 4047 
Q 1172 3844 1172 3481 
z
" id="DejaVuSans-38" transform="scale(0.015625)"/>
       </defs>
       <use xlink:href="#DejaVuSans-32"/>
       <use x="63.623047" xlink:href="#DejaVuSans-30"/>
       <use x="127.246094" xlink:href="#DejaVuSans-32"/>
       <use x="190.869141" xlink:href="#DejaVuSans-38"/>
      </g>
     </g>
    </g>
    <g id="xtick_9">
     <g id="line2d_9">
      <g>
       <use style="stroke:#000000;stroke-width:0.8;" x="253.209318" xlink:href="#mf5919151e8" y="251.94"/>
      </g>
     </g>
     <g id="text_9">
      <!-- 2029 -->
      <g transform="translate(256.520568 289.48)rotate(-90)scale(0.12 -0.12)">
       <defs>
        <path d="M 703 97 
L 703 672 
Q 941 559 1184 500 
Q 1428 441 1663 441 
Q 2288 441 2617 861 
Q 2947 1281 2994 2138 
Q 2813 1869 2534 1725 
Q 2256 1581 1919 1581 
Q 1219 1581 811 2004 
Q 403 2428 403 3163 
Q 403 3881 828 4315 
Q 1253 4750 1959 4750 
Q 2769 4750 3195 4129 
Q 3622 3509 3622 2328 
Q 3622 1225 3098 567 
Q 2575 -91 1691 -91 
Q 1453 -91 1209 -44 
Q 966 3 703 97 
z
M 1959 2075 
Q 2384 2075 2632 2365 
Q 2881 2656 2881 3163 
Q 2881 3666 2632 3958 
Q 2384 4250 1959 4250 
Q 1534 4250 1286 3958 
Q 1038 3666 1038 3163 
Q 1038 2656 1286 2365 
Q 1534 2075 1959 2075 
z
" id="DejaVuSans-39" transform="scale(0.015625)"/>
       </defs>
       <use xlink:href="#DejaVuSans-32"/>
       <use x="63.623047" xlink:href="#DejaVuSans-30"/>
       <use x="127.246094" xlink:href="#DejaVuSans-32"/>
       <use x="190.869141" xlink:href="#DejaVuSans-39"/>
      </g>
     </g>
    </g>
    <g id="xtick_10">
     <g id="line2d_10">
      <g>
       <use style="stroke:#000000;stroke-width:0.8;" x="276.341591" xlink:href="#mf5919151e8" y="251.94"/>
      </g>
     </g>
     <g id="text_10">
      <!-- 2030 -->
      <g transform="translate(279.652841 289.48)rotate(-90)scale(0.12 -0.12)">
       <use xlink:href="#DejaVuSans-32"/>
       <use x="63.623047" xlink:href="#DejaVuSans-30"/>
       <use x="127.246094" xlink:href="#DejaVuSans-33"/>
       <use x="190.869141" xlink:href="#DejaVuSans-30"/>
      </g>
     </g>
    </g>
    <g id="xtick_11">
     <g id="line2d_11">
      <g>
       <use style="stroke:#000000;stroke-width:0.8;" x="299.473864" xlink:href="#mf5919151e8" y="251.94"/>
      </g>
     </g>
     <g id="text_11">
      <!-- 2031 -->
      <g transform="translate(302.785114 289.48)rotate(-90)scale(0.12 -0.12)">
       <use xlink:href="#DejaVuSans-32"/>
       <use x="63.623047" xlink:href="#DejaVuSans-30"/>
       <use x="127.246094" xlink:href="#DejaVuSans-33"/>
       <use x="190.869141" xlink:href="#DejaVuSans-31"/>
      </g>
     </g>
    </g>
   </g>
   <g id="matplotlib.axis_2">
    <g id="ytick_1">
     <g id="line2d_12">
      <defs>
       <path d="M 0 0 
L -3.5 0 
" id="me458e45da9" style="stroke:#000000;stroke-width:0.8;"/>
      </defs>
      <g>
       <use style="stroke:#000000;stroke-width:0.8;" x="56.585" xlink:href="#me458e45da9" y="251.94"/>
      </g>
     </g>
     <g id="text_12">
      <!-- −14% -->
      <g transform="translate(12.8575 256.499063)scale(0.12 -0.12)">
       <defs>
        <path d="M 678 2272 
L 4684 2272 
L 4684 1741 
L 678 1741 
L 678 2272 
z
" id="DejaVuSans-2212" transform="scale(0.015625)"/>
        <path d="M 4653 2053 
Q 4381 2053 4226 1822 
Q 4072 1591 4072 1178 
Q 4072 772 4226 539 
Q 4381 306 4653 306 
Q 4919 306 5073 539 
Q 5228 772 5228 1178 
Q 5228 1588 5073 1820 
Q 4919 2053 4653 2053 
z
M 4653 2450 
Q 5147 2450 5437 2106 
Q 5728 1763 5728 1178 
Q 5728 594 5436 251 
Q 5144 -91 4653 -91 
Q 4153 -91 3862 251 
Q 3572 594 3572 1178 
Q 3572 1766 3864 2108 
Q 4156 2450 4653 2450 
z
M 1428 4353 
Q 1159 4353 1004 4120 
Q 850 3888 850 3481 
Q 850 3069 1003 2837 
Q 1156 2606 1428 2606 
Q 1700 2606 1854 2837 
Q 2009 3069 2009 3481 
Q 2009 3884 1853 4118 
Q 1697 4353 1428 4353 
z
M 4250 4750 
L 4750 4750 
L 1831 -91 
L 1331 -91 
L 4250 4750 
z
M 1428 4750 
Q 1922 4750 2215 4408 
Q 2509 4066 2509 3481 
Q 2509 2891 2217 2550 
Q 1925 2209 1428 2209 
Q 931 2209 642 2551 
Q 353 2894 353 3481 
Q 353 4063 643 4406 
Q 934 4750 1428 4750 
z
" id="DejaVuSans-25" transform="scale(0.015625)"/>
       </defs>
       <use xlink:href="#DejaVuSans-2212"/>
       <use x="83.789062" xlink:href="#DejaVuSans-31"/>
       <use x="147.412109" xlink:href="#DejaVuSans-34"/>
       <use x="211.035156" xlink:href="#DejaVuSans-25"/>
      </g>
     </g>
    </g>
    <g id="ytick_2">
     <g id="line2d_13">
      <g>
       <use style="stroke:#000000;stroke-width:0.8;" x="56.585" xlink:href="#me458e45da9" y="222.6925"/>
      </g>
     </g>
     <g id="text_13">
      <!-- −12% -->
      <g transform="translate(12.8575 227.251563)scale(0.12 -0.12)">
       <use xlink:href="#DejaVuSans-2212"/>
       <use x="83.789062" xlink:href="#DejaVuSans-31"/>
       <use x="147.412109" xlink:href="#DejaVuSans-32"/>
       <use x="211.035156" xlink:href="#DejaVuSans-25"/>
      </g>
     </g>
    </g>
    <g id="ytick_3">
     <g id="line2d_14">
      <g>
       <use style="stroke:#000000;stroke-width:0.8;" x="56.585" xlink:href="#me458e45da9" y="193.445"/>
      </g>
     </g>
     <g id="text_14">
      <!-- −10% -->
      <g transform="translate(12.8575 198.004063)scale(0.12 -0.12)">
       <use xlink:href="#DejaVuSans-2212"/>
       <use x="83.789062" xlink:href="#DejaVuSans-31"/>
       <use x="147.412109" xlink:href="#DejaVuSans-30"/>
       <use x="211.035156" xlink:href="#DejaVuSans-25"/>
      </g>
     </g>
    </g>
    <g id="ytick_4">
     <g id="line2d_15">
      <g>
       <use style="stroke:#000000;stroke-width:0.8;" x="56.585" xlink:href="#me458e45da9" y="164.1975"/>
      </g>
     </g>
     <g id="text_15">
      <!-- −8% -->
      <g transform="translate(20.4925 168.756563)scale(0.12 -0.12)">
       <use xlink:href="#DejaVuSans-2212"/>
       <use x="83.789062" xlink:href="#DejaVuSans-38"/>
       <use x="147.412109" xlink:href="#DejaVuSans-25"/>
      </g>
     </g>
    </g>
    <g id="ytick_5">
     <g id="line2d_16">
      <g>
       <use style="stroke:#000000;stroke-width:0.8;" x="56.585" xlink:href="#me458e45da9" y="134.95"/>
      </g>
     </g>
     <g id="text_16">
      <!-- −6% -->
      <g transform="translate(20.4925 139.509063)scale(0.12 -0.12)">
       <use xlink:href="#DejaVuSans-2212"/>
       <use x="83.789062" xlink:href="#DejaVuSans-36"/>
       <use x="147.412109" xlink:href="#DejaVuSans-25"/>
      </g>
     </g>
    </g>
    <g id="ytick_6">
     <g id="line2d_17">
      <g>
       <use style="stroke:#000000;stroke-width:0.8;" x="56.585" xlink:href="#me458e45da9" y="105.7025"/>
      </g>
     </g>
     <g id="text_17">
      <!-- −4% -->
      <g transform="translate(20.4925 110.261562)scale(0.12 -0.12)">
       <use xlink:href="#DejaVuSans-2212"/>
       <use x="83.789062" xlink:href="#DejaVuSans-34"/>
       <use x="147.412109" xlink:href="#DejaVuSans-25"/>
      </g>
     </g>
    </g>
    <g id="ytick_7">
     <g id="line2d_18">
      <g>
       <use style="stroke:#000000;stroke-width:0.8;" x="56.585" xlink:href="#me458e45da9" y="76.455"/>
      </g>
     </g>
     <g id="text_18">
      <!-- −2% -->
      <g transform="translate(20.4925 81.014062)scale(0.12 -0.12)">
       <use xlink:href="#DejaVuSans-2212"/>
       <use x="83.789062" xlink:href="#DejaVuSans-32"/>
       <use x="147.412109" xlink:href="#DejaVuSans-25"/>
      </g>
     </g>
    </g>
    <g id="ytick_8">
     <g id="line2d_19">
      <g>
       <use style="stroke:#000000;stroke-width:0.8;" x="56.585" xlink:href="#me458e45da9" y="47.2075"/>
      </g>
     </g>
     <g id="text_19">
      <!-- 0% -->
      <g transform="translate(30.548125 51.766562)scale(0.12 -0.12)">
       <use xlink:href="#DejaVuSans-30"/>
       <use x="63.623047" xlink:href="#DejaVuSans-25"/>
      </g>
     </g>
    </g>
    <g id="ytick_9">
     <g id="line2d_20">
      <g>
       <use style="stroke:#000000;stroke-width:0.8;" x="56.585" xlink:href="#me458e45da9" y="17.96"/>
      </g>
     </g>
     <g id="text_20">
      <!-- 2% -->
      <g transform="translate(30.548125 22.519062)scale(0.12 -0.12)">
       <use xlink:href="#DejaVuSans-32"/>
       <use x="63.623047" xlink:href="#DejaVuSans-25"/>
      </g>
     </g>
    </g>
   </g>
   <g id="line2d_21">
    <path clip-path="url(#pe8b1ebb53f)" d="M 68.151136 47.2075 
L 73.934205 47.701875 
L 79.717273 48.104471 
L 85.500341 48.503855 
L 91.283409 48.956879 
L 97.066477 49.489796 
L 102.849545 50.123256 
L 108.632614 50.870577 
L 114.415682 51.735046 
L 120.19875 52.608726 
L 125.981818 53.491023 
L 131.764886 54.471895 
L 137.547955 55.536831 
L 143.331023 56.202527 
L 149.114091 56.991744 
L 154.897159 57.830738 
L 160.680227 58.694045 
L 166.463295 59.57021 
L 172.246364 60.450187 
L 178.029432 61.340183 
L 183.8125 62.22739 
L 189.595568 63.117774 
L 195.378636 64.014205 
L 201.161705 64.906406 
L 206.944773 65.810457 
L 212.727841 66.712573 
L 218.510909 67.625862 
L 224.293977 68.546656 
L 230.077045 69.478042 
L 235.860114 70.419859 
L 241.643182 71.371787 
L 247.42625 72.340889 
L 253.209318 73.327205 
L 258.992386 74.326921 
L 264.775455 75.052588 
L 270.558523 75.469216 
L 276.341591 76.104566 
L 282.124659 76.847334 
L 287.907727 77.660715 
L 293.690795 78.512314 
L 299.473864 79.395971 
" style="fill:none;stroke:#dc143c;stroke-linecap:square;stroke-width:1.5;"/>
   </g>
   <g id="line2d_22">
    <path clip-path="url(#pe8b1ebb53f)" d="M 68.151136 47.2075 
L 299.473864 47.2075 
" style="fill:none;stroke:#000000;stroke-dasharray:1,1.65;stroke-dashoffset:0;"/>
   </g>
   <g id="line2d_23">
    <path clip-path="url(#pe8b1ebb53f)" d="M 68.151136 47.2075 
L 73.934205 47.259033 
L 79.717273 47.447156 
L 85.500341 47.773597 
L 91.283409 48.244712 
L 97.066477 48.844455 
L 102.849545 49.578876 
L 108.632614 50.44023 
L 114.415682 51.420156 
L 120.19875 52.509376 
L 125.981818 53.686073 
L 131.764886 54.958046 
L 137.547955 56.328649 
L 143.331023 57.759905 
L 149.114091 59.216495 
L 154.897159 60.68748 
L 160.680227 62.166625 
L 166.463295 63.647332 
L 172.246364 65.133798 
L 178.029432 66.624697 
L 183.8125 68.118942 
L 189.595568 69.615108 
L 195.378636 71.129536 
L 201.161705 72.64961 
L 206.944773 74.186252 
L 212.727841 75.738906 
L 218.510909 77.312772 
L 224.293977 78.913827 
L 230.077045 80.535254 
L 235.860114 82.189397 
L 241.643182 83.876201 
L 247.42625 85.595245 
L 253.209318 87.359954 
L 258.992386 89.156773 
L 264.775455 90.957504 
L 270.558523 92.741114 
L 276.341591 94.59615 
L 282.124659 96.489867 
L 287.907727 98.444113 
L 293.690795 100.452832 
L 299.473864 102.501793 
" style="fill:none;stroke:#1e90ff;stroke-dasharray:5.55,2.4;stroke-dashoffset:0;stroke-width:1.5;"/>
   </g>
   <g id="line2d_24">
    <path clip-path="url(#pe8b1ebb53f)" d="M 68.151136 47.2075 
L 299.473864 47.2075 
" style="fill:none;stroke:#000000;stroke-dasharray:1,1.65;stroke-dashoffset:0;"/>
   </g>
   <g id="patch_3">
    <path d="M 56.585 251.94 
L 56.585 17.96 
" style="fill:none;stroke:#000000;stroke-linecap:square;stroke-linejoin:miter;stroke-width:0.8;"/>
   </g>
   <g id="patch_4">
    <path d="M 311.04 251.94 
L 311.04 17.96 
" style="fill:none;stroke:#000000;stroke-linecap:square;stroke-linejoin:miter;stroke-width:0.8;"/>
   </g>
   <g id="patch_5">
    <path d="M 56.585 251.94 
L 311.04 251.94 
" style="fill:none;stroke:#000000;stroke-linecap:square;stroke-linejoin:miter;stroke-width:0.8;"/>
   </g>
   <g id="patch_6">
    <path d="M 56.585 17.96 
L 311.04 17.96 
" style="fill:none;stroke:#000000;stroke-linecap:square;stroke-linejoin:miter;stroke-width:0.8;"/>
   </g>
  </g>
 </g>
 <defs>
  <clipPath id="pe8b1ebb53f">
   <rect height="233.98" width="254.455" x="56.585" y="17.96"/>
  </clipPath>
 </defs>
</svg>
