<?xml version="1.0" encoding="utf-8" standalone="no"?>
<!DOCTYPE svg PUBLIC "-//W3C//DTD SVG 1.1//EN"
  "http://www.w3.org/Graphics/SVG/1.1/DTD/svg11.dtd">
<svg height="302.4pt" version="1.1" viewBox="0 0 324 302.4" width="324pt" xmlns="http://www.w3.org/2000/svg" xmlns:xlink="http://www.w3.org/1999/xlink">
 <metadata>
  <rdf:RDF xmlns:cc="http://creativecommons.org/ns#" xmlns:dc="http://purl.org/dc/elements/1.1/" xmlns:rdf="http://www.w3.org/1999/02/22-rdf-syntax-ns#">
   <cc:Work>
    <dc:type rdf:resource="http://purl.org/dc/dcmitype/StillImage"/>
    <dc:date>2021-08-08T11:02:06.540036</dc:date>
    <dc:format>image/svg+xml</dc:format>
    <dc:creator>
     <cc:Agent>
      <dc:title>Matplotlib v3.4.0rc1, https://matplotlib.org/</dc:title>
     </cc:Agent>
    </dc:creator>
   </cc:Work>
  </rdf:RDF>
 </metadata>
 <defs>
  <style type="text/css">*{stroke-linecap:butt;stroke-linejoin:round;}</style>
 </defs>
 <g id="figure_1">
  <g id="patch_1">
   <path d="M 0 302.4 
L 324 302.4 
L 324 0 
L 0 0 
z
" style="fill:none;"/>
  </g>
  <g id="axes_1">
   <g id="patch_2">
    <path d="M 56.585 251.94 
L 311.04 251.94 
L 311.04 17.96 
L 56.585 17.96 
z
" style="fill:#ffffff;"/>
   </g>
   <g id="PolyCollection_1">
    <path clip-path="url(#p5b00b2cf35)" d="M 68.151136 47.2075 
L 68.151136 47.2075 
L 73.934205 47.532818 
L 79.717273 48.69299 
L 85.500341 50.64806 
L 91.283409 53.387505 
L 97.066477 56.930479 
L 102.849545 61.253315 
L 108.632614 66.315593 
L 114.415682 72.165219 
L 120.19875 78.811216 
L 125.981818 86.258309 
L 131.764886 94.531881 
L 137.547955 103.511736 
L 143.331023 112.94162 
L 149.114091 122.020659 
L 154.897159 130.887243 
L 160.680227 139.605275 
L 166.463295 148.066794 
L 172.246364 156.365315 
L 178.029432 164.574309 
L 183.8125 172.15944 
L 189.595568 179.796873 
L 195.378636 187.326056 
L 201.161705 193.304708 
L 206.944773 199.208124 
L 212.727841 204.978848 
L 218.510909 210.245091 
L 224.293977 214.487495 
L 230.077045 218.184446 
L 235.860114 220.631733 
L 241.643182 223.462575 
L 247.42625 224.897047 
L 253.209318 224.79624 
L 258.992386 224.320941 
L 264.775455 223.154553 
L 270.558523 222.049069 
L 276.341591 220.968216 
L 282.124659 219.563592 
L 287.907727 216.177644 
L 293.690795 211.202335 
L 299.473864 207.271297 
L 299.473864 138.045221 
L 299.473864 138.045221 
L 293.690795 137.315441 
L 287.907727 136.564684 
L 282.124659 135.687711 
L 276.341591 134.986464 
L 270.558523 134.761013 
L 264.775455 134.061199 
L 258.992386 133.313778 
L 253.209318 133.053977 
L 247.42625 132.007765 
L 241.643182 131.80757 
L 235.860114 131.160925 
L 230.077045 130.007677 
L 224.293977 129.21012 
L 218.510909 127.91405 
L 212.727841 126.501684 
L 206.944773 124.259073 
L 201.161705 122.556685 
L 195.378636 120.240919 
L 189.595568 117.833025 
L 183.8125 115.018999 
L 178.029432 112.318598 
L 172.246364 109.121966 
L 166.463295 105.713646 
L 160.680227 101.886522 
L 154.897159 97.685847 
L 149.114091 93.134531 
L 143.331023 88.134104 
L 137.547955 82.844045 
L 131.764886 77.361894 
L 125.981818 72.344455 
L 120.19875 67.838468 
L 114.415682 63.614001 
L 108.632614 59.825608 
L 102.849545 56.543006 
L 97.066477 53.719604 
L 91.283409 51.362784 
L 85.500341 49.505342 
L 79.717273 48.184082 
L 73.934205 47.419893 
L 68.151136 47.2075 
z
" style="fill:#dc143c;fill-opacity:0.2;"/>
   </g>
   <g id="PolyCollection_2">
    <path clip-path="url(#p5b00b2cf35)" d="M 68.151136 47.2075 
L 68.151136 47.2075 
L 73.934205 47.523898 
L 79.717273 48.656717 
L 85.500341 50.57958 
L 91.283409 53.264691 
L 97.066477 56.708443 
L 102.849545 60.917938 
L 108.632614 65.868051 
L 114.415682 71.59475 
L 120.19875 78.109004 
L 125.981818 85.395884 
L 131.764886 93.452297 
L 137.547955 102.213498 
L 143.331023 111.49739 
L 149.114091 120.495861 
L 154.897159 129.1306 
L 160.680227 137.498832 
L 166.463295 145.724092 
L 172.246364 153.581203 
L 178.029432 161.205738 
L 183.8125 168.814246 
L 189.595568 176.139807 
L 195.378636 182.887415 
L 201.161705 189.319764 
L 206.944773 194.605434 
L 212.727841 200.012895 
L 218.510909 204.259503 
L 224.293977 207.838809 
L 230.077045 210.351476 
L 235.860114 211.838301 
L 241.643182 212.641301 
L 247.42625 211.441311 
L 253.209318 209.529722 
L 258.992386 206.090733 
L 264.775455 204.503095 
L 270.558523 198.887902 
L 276.341591 195.760795 
L 282.124659 195.239681 
L 287.907727 195.884594 
L 293.690795 196.757396 
L 299.473864 197.583987 
L 299.473864 146.076465 
L 299.473864 146.076465 
L 293.690795 145.577437 
L 287.907727 144.923331 
L 282.124659 144.154021 
L 276.341591 143.315494 
L 270.558523 142.519402 
L 264.775455 142.05579 
L 258.992386 140.95576 
L 253.209318 140.111386 
L 247.42625 139.139731 
L 241.643182 138.10112 
L 235.860114 136.927096 
L 230.077045 135.470216 
L 224.293977 133.838138 
L 218.510909 132.05595 
L 212.727841 130.210579 
L 206.944773 128.11276 
L 201.161705 125.894769 
L 195.378636 123.726541 
L 189.595568 121.085582 
L 183.8125 118.362831 
L 178.029432 115.433165 
L 172.246364 112.020761 
L 166.463295 108.527713 
L 160.680227 104.722191 
L 154.897159 100.290417 
L 149.114091 95.375475 
L 143.331023 90.136731 
L 137.547955 84.411906 
L 131.764886 78.733155 
L 125.981818 73.539844 
L 120.19875 68.720969 
L 114.415682 64.430997 
L 108.632614 60.567102 
L 102.849545 57.135034 
L 97.066477 54.157131 
L 91.283409 51.674921 
L 85.500341 49.713653 
L 79.717273 48.28456 
L 73.934205 47.440815 
L 68.151136 47.2075 
z
" style="fill:#1f77b4;fill-opacity:0.2;"/>
   </g>
   <g id="PolyCollection_3">
    <path clip-path="url(#p5b00b2cf35)" d="M 68.151136 47.2075 
L 68.151136 47.2075 
L 73.934205 47.516458 
L 79.717273 48.626975 
L 85.500341 50.51002 
L 91.283409 53.151483 
L 97.066477 56.542648 
L 102.849545 60.654273 
L 108.632614 65.504061 
L 114.415682 71.119636 
L 120.19875 77.479389 
L 125.981818 84.583305 
L 131.764886 92.484257 
L 137.547955 101.093559 
L 143.331023 110.088533 
L 149.114091 118.782073 
L 154.897159 127.14237 
L 160.680227 135.268838 
L 166.463295 143.280665 
L 172.246364 150.963901 
L 178.029432 158.523119 
L 183.8125 165.741656 
L 189.595568 172.492823 
L 195.378636 179.054566 
L 201.161705 184.906147 
L 206.944773 189.969246 
L 212.727841 193.296783 
L 218.510909 196.555725 
L 224.293977 198.219499 
L 230.077045 197.868145 
L 235.860114 196.463059 
L 241.643182 193.435028 
L 247.42625 190.448129 
L 253.209318 186.355471 
L 258.992386 186.250437 
L 264.775455 186.934737 
L 270.558523 187.941644 
L 276.341591 189.218848 
L 282.124659 190.246517 
L 287.907727 191.264605 
L 293.690795 192.088068 
L 299.473864 192.728589 
L 299.473864 152.757102 
L 299.473864 152.757102 
L 293.690795 151.971121 
L 287.907727 151.254321 
L 282.124659 150.500447 
L 276.341591 149.790687 
L 270.558523 148.802046 
L 264.775455 147.923004 
L 258.992386 146.73764 
L 253.209318 145.477846 
L 247.42625 144.117988 
L 241.643182 142.682708 
L 235.860114 141.077382 
L 230.077045 139.406868 
L 224.293977 137.786385 
L 218.510909 136.074249 
L 212.727841 134.533146 
L 206.944773 132.643982 
L 201.161705 130.703396 
L 195.378636 128.390334 
L 189.595568 125.771151 
L 183.8125 122.819691 
L 178.029432 119.360241 
L 172.246364 115.613343 
L 166.463295 111.442673 
L 160.680227 106.970112 
L 154.897159 102.228442 
L 149.114091 97.034253 
L 143.331023 91.593946 
L 137.547955 85.726125 
L 131.764886 80.021298 
L 125.981818 74.675788 
L 120.19875 69.732989 
L 114.415682 65.238358 
L 108.632614 61.21684 
L 102.849545 57.651881 
L 97.066477 54.560032 
L 91.283409 51.939793 
L 85.500341 49.860978 
L 79.717273 48.351456 
L 73.934205 47.454477 
L 68.151136 47.2075 
z
" style="fill:#ff7f0e;fill-opacity:0.2;"/>
   </g>
   <g id="PolyCollection_4">
    <path clip-path="url(#p5b00b2cf35)" d="M 68.151136 47.2075 
L 68.151136 47.2075 
L 73.934205 47.505455 
L 79.717273 48.577383 
L 85.500341 50.398112 
L 91.283409 52.952797 
L 97.066477 56.226617 
L 102.849545 60.209677 
L 108.632614 64.929592 
L 114.415682 70.360659 
L 120.19875 76.47739 
L 125.981818 83.330726 
L 131.764886 90.895831 
L 137.547955 99.191968 
L 143.331023 107.799272 
L 149.114091 116.11456 
L 154.897159 124.1968 
L 160.680227 131.88548 
L 166.463295 139.228457 
L 172.246364 146.255092 
L 178.029432 152.891515 
L 183.8125 158.769592 
L 189.595568 163.666314 
L 195.378636 167.252444 
L 201.161705 169.009574 
L 206.944773 169.323205 
L 212.727841 169.598172 
L 218.510909 167.797784 
L 224.293977 166.955424 
L 230.077045 168.209833 
L 235.860114 170.042788 
L 241.643182 172.217226 
L 247.42625 174.189595 
L 253.209318 175.954499 
L 258.992386 177.867297 
L 264.775455 179.475721 
L 270.558523 180.91021 
L 276.341591 182.270786 
L 282.124659 183.226909 
L 287.907727 184.025877 
L 293.690795 184.513098 
L 299.473864 184.935742 
L 299.473864 160.572086 
L 299.473864 160.572086 
L 293.690795 159.841424 
L 287.907727 159.099995 
L 282.124659 158.342313 
L 276.341591 157.365357 
L 270.558523 156.427621 
L 264.775455 155.528346 
L 258.992386 154.66842 
L 253.209318 153.706495 
L 247.42625 152.960566 
L 241.643182 152.189965 
L 235.860114 151.392978 
L 230.077045 150.194074 
L 224.293977 148.743164 
L 218.510909 146.887785 
L 212.727841 144.642613 
L 206.944773 142.026164 
L 201.161705 139.069588 
L 195.378636 135.793761 
L 189.595568 132.152259 
L 183.8125 128.242543 
L 178.029432 124.233335 
L 172.246364 119.943936 
L 166.463295 115.450798 
L 160.680227 110.694111 
L 154.897159 105.670244 
L 149.114091 100.37231 
L 143.331023 94.714381 
L 137.547955 88.51052 
L 131.764886 82.436629 
L 125.981818 76.853342 
L 120.19875 71.679711 
L 114.415682 66.93448 
L 108.632614 62.575717 
L 102.849545 58.635751 
L 97.066477 55.192128 
L 91.283409 52.326068 
L 85.500341 50.061287 
L 79.717273 48.429707 
L 73.934205 47.472638 
L 68.151136 47.2075 
z
" style="fill:#2ca02c;fill-opacity:0.2;"/>
   </g>
   <g id="PolyCollection_5">
    <path clip-path="url(#p5b00b2cf35)" d="M 68.151136 47.2075 
L 68.151136 47.2075 
L 73.934205 47.748521 
L 79.717273 48.831471 
L 85.500341 50.438775 
L 91.283409 52.588896 
L 97.066477 55.504807 
L 102.849545 58.819667 
L 108.632614 62.585852 
L 114.415682 66.965113 
L 120.19875 71.918489 
L 125.981818 77.019607 
L 131.764886 82.675246 
L 137.547955 88.85061 
L 143.331023 95.05391 
L 149.114091 101.314159 
L 154.897159 107.187944 
L 160.680227 112.868091 
L 166.463295 118.164816 
L 172.246364 122.95343 
L 178.029432 127.927516 
L 183.8125 132.663796 
L 189.595568 136.495943 
L 195.378636 140.578503 
L 201.161705 144.733458 
L 206.944773 148.912669 
L 212.727841 152.156279 
L 218.510909 155.338206 
L 224.293977 158.532668 
L 230.077045 161.453256 
L 235.860114 163.959182 
L 241.643182 166.026535 
L 247.42625 168.102271 
L 253.209318 169.98975 
L 258.992386 171.472533 
L 264.775455 172.670351 
L 270.558523 173.411597 
L 276.341591 173.876053 
L 282.124659 175.267619 
L 287.907727 176.091057 
L 293.690795 176.859918 
L 299.473864 177.591236 
L 299.473864 132.174082 
L 299.473864 132.174082 
L 293.690795 131.351851 
L 287.907727 130.243827 
L 282.124659 129.526413 
L 276.341591 128.406207 
L 270.558523 127.353369 
L 264.775455 126.219322 
L 258.992386 125.05534 
L 253.209318 123.83937 
L 247.42625 122.582784 
L 241.643182 121.046748 
L 235.860114 119.7657 
L 230.077045 118.44438 
L 224.293977 116.918076 
L 218.510909 115.312725 
L 212.727841 113.575958 
L 206.944773 111.209883 
L 201.161705 109.231921 
L 195.378636 106.85871 
L 189.595568 103.96386 
L 183.8125 101.340617 
L 178.029432 98.673581 
L 172.246364 95.335601 
L 166.463295 92.249417 
L 160.680227 88.772491 
L 154.897159 84.879357 
L 149.114091 81.048089 
L 143.331023 76.9252 
L 137.547955 72.793542 
L 131.764886 68.553174 
L 125.981818 64.773301 
L 120.19875 61.030247 
L 114.415682 57.992397 
L 108.632614 55.373871 
L 102.849545 52.914899 
L 97.066477 51.042594 
L 91.283409 49.508804 
L 85.500341 48.275394 
L 79.717273 47.420631 
L 73.934205 47.047667 
L 68.151136 47.2075 
z
" style="fill:#1e90ff;fill-opacity:0.2;"/>
   </g>
   <g id="PolyCollection_6">
    <path clip-path="url(#p5b00b2cf35)" d="M 68.151136 47.2075 
L 68.151136 47.2075 
L 73.934205 47.460879 
L 79.717273 48.361159 
L 85.500341 49.870801 
L 91.283409 51.939539 
L 97.066477 54.558102 
L 102.849545 57.682978 
L 108.632614 61.334512 
L 114.415682 65.423491 
L 120.19875 70.015473 
L 125.981818 75.134133 
L 131.764886 80.636708 
L 137.547955 86.694129 
L 143.331023 92.961288 
L 149.114091 98.721934 
L 154.897159 104.290701 
L 160.680227 109.571047 
L 166.463295 114.683438 
L 172.246364 119.572116 
L 178.029432 124.307821 
L 183.8125 128.836836 
L 189.595568 132.987312 
L 195.378636 137.128244 
L 201.161705 141.165552 
L 206.944773 144.625642 
L 212.727841 148.034706 
L 218.510909 151.100356 
L 224.293977 154.083632 
L 230.077045 156.631768 
L 235.860114 158.920401 
L 241.643182 160.966965 
L 247.42625 162.829379 
L 253.209318 164.341932 
L 258.992386 165.603857 
L 264.775455 166.755315 
L 270.558523 167.773657 
L 276.341591 168.748103 
L 282.124659 169.723102 
L 287.907727 170.395625 
L 293.690795 171.174246 
L 299.473864 171.994821 
L 299.473864 138.331931 
L 299.473864 138.331931 
L 293.690795 137.691572 
L 287.907727 136.831102 
L 282.124659 135.899753 
L 276.341591 134.908042 
L 270.558523 133.873529 
L 264.775455 132.69858 
L 258.992386 131.43908 
L 253.209318 130.015276 
L 247.42625 128.624576 
L 241.643182 127.182036 
L 235.860114 125.56962 
L 230.077045 123.796955 
L 224.293977 121.896772 
L 218.510909 119.798525 
L 212.727841 117.90649 
L 206.944773 115.797366 
L 201.161705 113.271692 
L 195.378636 110.863326 
L 189.595568 108.185457 
L 183.8125 105.550051 
L 178.029432 102.427161 
L 172.246364 99.368269 
L 166.463295 96.118302 
L 160.680227 92.495304 
L 154.897159 88.704547 
L 149.114091 84.556947 
L 143.331023 80.231615 
L 137.547955 75.676475 
L 131.764886 71.185373 
L 125.981818 67.133636 
L 120.19875 63.372012 
L 114.415682 60.008814 
L 108.632614 57.008868 
L 102.849545 54.375403 
L 97.066477 52.16822 
L 91.283409 50.345371 
L 85.500341 48.93499 
L 79.717273 47.942696 
L 73.934205 47.366114 
L 68.151136 47.2075 
z
" style="fill:#d62728;fill-opacity:0.2;"/>
   </g>
   <g id="PolyCollection_7">
    <path clip-path="url(#p5b00b2cf35)" d="M 68.151136 47.2075 
L 68.151136 47.2075 
L 73.934205 47.446482 
L 79.717273 48.298656 
L 85.500341 49.726647 
L 91.283409 51.708119 
L 97.066477 54.219487 
L 102.849545 57.231973 
L 108.632614 60.724317 
L 114.415682 64.685885 
L 120.19875 69.127658 
L 125.981818 74.051705 
L 131.764886 79.368333 
L 137.547955 85.164839 
L 143.331023 91.089384 
L 149.114091 96.787665 
L 154.897159 102.212941 
L 160.680227 107.354392 
L 166.463295 112.248551 
L 172.246364 117.068235 
L 178.029432 121.534768 
L 183.8125 125.926872 
L 189.595568 130.132628 
L 195.378636 134.08743 
L 201.161705 137.968418 
L 206.944773 141.460011 
L 212.727841 144.862305 
L 218.510909 147.8636 
L 224.293977 150.422504 
L 230.077045 152.637143 
L 235.860114 154.749812 
L 241.643182 156.526542 
L 247.42625 158.018061 
L 253.209318 159.422771 
L 258.992386 160.788535 
L 264.775455 162.048582 
L 270.558523 163.159281 
L 276.341591 164.214908 
L 282.124659 165.311703 
L 287.907727 166.320149 
L 293.690795 167.244962 
L 299.473864 168.034591 
L 299.473864 143.172535 
L 299.473864 143.172535 
L 293.690795 142.456358 
L 287.907727 141.556419 
L 282.124659 140.513469 
L 276.341591 139.481489 
L 270.558523 138.379621 
L 264.775455 137.128906 
L 258.992386 135.812931 
L 253.209318 134.50753 
L 247.42625 133.024999 
L 241.643182 131.521179 
L 235.860114 129.880067 
L 230.077045 128.086939 
L 224.293977 126.269741 
L 218.510909 124.174766 
L 212.727841 122.044033 
L 206.944773 119.724427 
L 201.161705 117.360607 
L 195.378636 114.697886 
L 189.595568 111.871522 
L 183.8125 108.765853 
L 178.029432 105.632631 
L 172.246364 102.243008 
L 166.463295 98.657107 
L 160.680227 94.845778 
L 154.897159 90.838644 
L 149.114091 86.611512 
L 143.331023 82.118971 
L 137.547955 77.287978 
L 131.764886 72.619387 
L 125.981818 68.322516 
L 120.19875 64.400909 
L 114.415682 60.841539 
L 108.632614 57.662302 
L 102.849545 54.894356 
L 97.066477 52.528834 
L 91.283409 50.58914 
L 85.500341 49.078796 
L 79.717273 48.006164 
L 73.934205 47.379677 
L 68.151136 47.2075 
z
" style="fill:#9467bd;fill-opacity:0.2;"/>
   </g>
   <g id="PolyCollection_8">
    <path clip-path="url(#p5b00b2cf35)" d="M 68.151136 47.2075 
L 68.151136 47.2075 
L 73.934205 47.42867 
L 79.717273 48.220926 
L 85.500341 49.556574 
L 91.283409 51.412559 
L 97.066477 53.765028 
L 102.849545 56.605582 
L 108.632614 59.902785 
L 114.415682 63.666065 
L 120.19875 67.881326 
L 125.981818 72.570856 
L 131.764886 77.684009 
L 137.547955 83.208222 
L 143.331023 88.912083 
L 149.114091 94.36603 
L 154.897159 99.595176 
L 160.680227 104.583072 
L 166.463295 109.245062 
L 172.246364 113.745125 
L 178.029432 118.082033 
L 183.8125 122.173643 
L 189.595568 126.012291 
L 195.378636 129.596318 
L 201.161705 132.925198 
L 206.944773 135.886753 
L 212.727841 138.586368 
L 218.510909 141.205204 
L 224.293977 143.553215 
L 230.077045 145.752581 
L 235.860114 147.727862 
L 241.643182 149.632693 
L 247.42625 151.430525 
L 253.209318 153.155381 
L 258.992386 154.777492 
L 264.775455 156.237811 
L 270.558523 157.649173 
L 276.341591 158.952663 
L 282.124659 160.113085 
L 287.907727 161.112575 
L 293.690795 162.029702 
L 299.473864 162.841648 
L 299.473864 149.396583 
L 299.473864 149.396583 
L 293.690795 148.544011 
L 287.907727 147.65022 
L 282.124659 146.692894 
L 276.341591 145.68455 
L 270.558523 144.540374 
L 264.775455 143.342143 
L 258.992386 142.089004 
L 253.209318 140.617343 
L 247.42625 139.129683 
L 241.643182 137.610475 
L 235.860114 135.891336 
L 230.077045 134.001946 
L 224.293977 131.840955 
L 218.510909 129.593642 
L 212.727841 127.133352 
L 206.944773 124.620428 
L 201.161705 121.902958 
L 195.378636 119.019364 
L 189.595568 115.965141 
L 183.8125 112.769567 
L 178.029432 109.36531 
L 172.246364 105.758274 
L 166.463295 101.995716 
L 160.680227 97.937284 
L 154.897159 93.697295 
L 149.114091 89.18479 
L 143.331023 84.393157 
L 137.547955 79.297554 
L 131.764886 74.359856 
L 125.981818 69.789644 
L 120.19875 65.605725 
L 114.415682 61.819299 
L 108.632614 58.448827 
L 102.849545 55.484846 
L 97.066477 52.961339 
L 91.283409 50.875663 
L 85.500341 49.245697 
L 79.717273 48.08133 
L 73.934205 47.396225 
L 68.151136 47.2075 
z
" style="fill:#8c564b;fill-opacity:0.2;"/>
   </g>
   <g id="matplotlib.axis_1">
    <g id="xtick_1">
     <g id="line2d_1">
      <defs>
       <path d="M 0 0 
L 0 3.5 
" id="mf771303806" style="stroke:#000000;stroke-width:0.8;"/>
      </defs>
      <g>
       <use style="stroke:#000000;stroke-width:0.8;" x="68.151136" xlink:href="#mf771303806" y="251.94"/>
      </g>
     </g>
     <g id="text_1">
      <!-- 2021 -->
      <g transform="translate(71.462386 289.48)rotate(-90)scale(0.12 -0.12)">
       <defs>
        <path d="M 1228 531 
L 3431 531 
L 3431 0 
L 469 0 
L 469 531 
Q 828 903 1448 1529 
Q 2069 2156 2228 2338 
Q 2531 2678 2651 2914 
Q 2772 3150 2772 3378 
Q 2772 3750 2511 3984 
Q 2250 4219 1831 4219 
Q 1534 4219 1204 4116 
Q 875 4013 500 3803 
L 500 4441 
Q 881 4594 1212 4672 
Q 1544 4750 1819 4750 
Q 2544 4750 2975 4387 
Q 3406 4025 3406 3419 
Q 3406 3131 3298 2873 
Q 3191 2616 2906 2266 
Q 2828 2175 2409 1742 
Q 1991 1309 1228 531 
z
" id="DejaVuSans-32" transform="scale(0.015625)"/>
        <path d="M 2034 4250 
Q 1547 4250 1301 3770 
Q 1056 3291 1056 2328 
Q 1056 1369 1301 889 
Q 1547 409 2034 409 
Q 2525 409 2770 889 
Q 3016 1369 3016 2328 
Q 3016 3291 2770 3770 
Q 2525 4250 2034 4250 
z
M 2034 4750 
Q 2819 4750 3233 4129 
Q 3647 3509 3647 2328 
Q 3647 1150 3233 529 
Q 2819 -91 2034 -91 
Q 1250 -91 836 529 
Q 422 1150 422 2328 
Q 422 3509 836 4129 
Q 1250 4750 2034 4750 
z
" id="DejaVuSans-30" transform="scale(0.015625)"/>
        <path d="M 794 531 
L 1825 531 
L 1825 4091 
L 703 3866 
L 703 4441 
L 1819 4666 
L 2450 4666 
L 2450 531 
L 3481 531 
L 3481 0 
L 794 0 
L 794 531 
z
" id="DejaVuSans-31" transform="scale(0.015625)"/>
       </defs>
       <use xlink:href="#DejaVuSans-32"/>
       <use x="63.623047" xlink:href="#DejaVuSans-30"/>
       <use x="127.246094" xlink:href="#DejaVuSans-32"/>
       <use x="190.869141" xlink:href="#DejaVuSans-31"/>
      </g>
     </g>
    </g>
    <g id="xtick_2">
     <g id="line2d_2">
      <g>
       <use style="stroke:#000000;stroke-width:0.8;" x="91.283409" xlink:href="#mf771303806" y="251.94"/>
      </g>
     </g>
     <g id="text_2">
      <!-- 2022 -->
      <g transform="translate(94.594659 289.48)rotate(-90)scale(0.12 -0.12)">
       <use xlink:href="#DejaVuSans-32"/>
       <use x="63.623047" xlink:href="#DejaVuSans-30"/>
       <use x="127.246094" xlink:href="#DejaVuSans-32"/>
       <use x="190.869141" xlink:href="#DejaVuSans-32"/>
      </g>
     </g>
    </g>
    <g id="xtick_3">
     <g id="line2d_3">
      <g>
       <use style="stroke:#000000;stroke-width:0.8;" x="114.415682" xlink:href="#mf771303806" y="251.94"/>
      </g>
     </g>
     <g id="text_3">
      <!-- 2023 -->
      <g transform="translate(117.726932 289.48)rotate(-90)scale(0.12 -0.12)">
       <defs>
        <path d="M 2597 2516 
Q 3050 2419 3304 2112 
Q 3559 1806 3559 1356 
Q 3559 666 3084 287 
Q 2609 -91 1734 -91 
Q 1441 -91 1130 -33 
Q 819 25 488 141 
L 488 750 
Q 750 597 1062 519 
Q 1375 441 1716 441 
Q 2309 441 2620 675 
Q 2931 909 2931 1356 
Q 2931 1769 2642 2001 
Q 2353 2234 1838 2234 
L 1294 2234 
L 1294 2753 
L 1863 2753 
Q 2328 2753 2575 2939 
Q 2822 3125 2822 3475 
Q 2822 3834 2567 4026 
Q 2313 4219 1838 4219 
Q 1578 4219 1281 4162 
Q 984 4106 628 3988 
L 628 4550 
Q 988 4650 1302 4700 
Q 1616 4750 1894 4750 
Q 2613 4750 3031 4423 
Q 3450 4097 3450 3541 
Q 3450 3153 3228 2886 
Q 3006 2619 2597 2516 
z
" id="DejaVuSans-33" transform="scale(0.015625)"/>
       </defs>
       <use xlink:href="#DejaVuSans-32"/>
       <use x="63.623047" xlink:href="#DejaVuSans-30"/>
       <use x="127.246094" xlink:href="#DejaVuSans-32"/>
       <use x="190.869141" xlink:href="#DejaVuSans-33"/>
      </g>
     </g>
    </g>
    <g id="xtick_4">
     <g id="line2d_4">
      <g>
       <use style="stroke:#000000;stroke-width:0.8;" x="137.547955" xlink:href="#mf771303806" y="251.94"/>
      </g>
     </g>
     <g id="text_4">
      <!-- 2024 -->
      <g transform="translate(140.859205 289.48)rotate(-90)scale(0.12 -0.12)">
       <defs>
        <path d="M 2419 4116 
L 825 1625 
L 2419 1625 
L 2419 4116 
z
M 2253 4666 
L 3047 4666 
L 3047 1625 
L 3713 1625 
L 3713 1100 
L 3047 1100 
L 3047 0 
L 2419 0 
L 2419 1100 
L 313 1100 
L 313 1709 
L 2253 4666 
z
" id="DejaVuSans-34" transform="scale(0.015625)"/>
       </defs>
       <use xlink:href="#DejaVuSans-32"/>
       <use x="63.623047" xlink:href="#DejaVuSans-30"/>
       <use x="127.246094" xlink:href="#DejaVuSans-32"/>
       <use x="190.869141" xlink:href="#DejaVuSans-34"/>
      </g>
     </g>
    </g>
    <g id="xtick_5">
     <g id="line2d_5">
      <g>
       <use style="stroke:#000000;stroke-width:0.8;" x="160.680227" xlink:href="#mf771303806" y="251.94"/>
      </g>
     </g>
     <g id="text_5">
      <!-- 2025 -->
      <g transform="translate(163.991477 289.48)rotate(-90)scale(0.12 -0.12)">
       <defs>
        <path d="M 691 4666 
L 3169 4666 
L 3169 4134 
L 1269 4134 
L 1269 2991 
Q 1406 3038 1543 3061 
Q 1681 3084 1819 3084 
Q 2600 3084 3056 2656 
Q 3513 2228 3513 1497 
Q 3513 744 3044 326 
Q 2575 -91 1722 -91 
Q 1428 -91 1123 -41 
Q 819 9 494 109 
L 494 744 
Q 775 591 1075 516 
Q 1375 441 1709 441 
Q 2250 441 2565 725 
Q 2881 1009 2881 1497 
Q 2881 1984 2565 2268 
Q 2250 2553 1709 2553 
Q 1456 2553 1204 2497 
Q 953 2441 691 2322 
L 691 4666 
z
" id="DejaVuSans-35" transform="scale(0.015625)"/>
       </defs>
       <use xlink:href="#DejaVuSans-32"/>
       <use x="63.623047" xlink:href="#DejaVuSans-30"/>
       <use x="127.246094" xlink:href="#DejaVuSans-32"/>
       <use x="190.869141" xlink:href="#DejaVuSans-35"/>
      </g>
     </g>
    </g>
    <g id="xtick_6">
     <g id="line2d_6">
      <g>
       <use style="stroke:#000000;stroke-width:0.8;" x="183.8125" xlink:href="#mf771303806" y="251.94"/>
      </g>
     </g>
     <g id="text_6">
      <!-- 2026 -->
      <g transform="translate(187.12375 289.48)rotate(-90)scale(0.12 -0.12)">
       <defs>
        <path d="M 2113 2584 
Q 1688 2584 1439 2293 
Q 1191 2003 1191 1497 
Q 1191 994 1439 701 
Q 1688 409 2113 409 
Q 2538 409 2786 701 
Q 3034 994 3034 1497 
Q 3034 2003 2786 2293 
Q 2538 2584 2113 2584 
z
M 3366 4563 
L 3366 3988 
Q 3128 4100 2886 4159 
Q 2644 4219 2406 4219 
Q 1781 4219 1451 3797 
Q 1122 3375 1075 2522 
Q 1259 2794 1537 2939 
Q 1816 3084 2150 3084 
Q 2853 3084 3261 2657 
Q 3669 2231 3669 1497 
Q 3669 778 3244 343 
Q 2819 -91 2113 -91 
Q 1303 -91 875 529 
Q 447 1150 447 2328 
Q 447 3434 972 4092 
Q 1497 4750 2381 4750 
Q 2619 4750 2861 4703 
Q 3103 4656 3366 4563 
z
" id="DejaVuSans-36" transform="scale(0.015625)"/>
       </defs>
       <use xlink:href="#DejaVuSans-32"/>
       <use x="63.623047" xlink:href="#DejaVuSans-30"/>
       <use x="127.246094" xlink:href="#DejaVuSans-32"/>
       <use x="190.869141" xlink:href="#DejaVuSans-36"/>
      </g>
     </g>
    </g>
    <g id="xtick_7">
     <g id="line2d_7">
      <g>
       <use style="stroke:#000000;stroke-width:0.8;" x="206.944773" xlink:href="#mf771303806" y="251.94"/>
      </g>
     </g>
     <g id="text_7">
      <!-- 2027 -->
      <g transform="translate(210.256023 289.48)rotate(-90)scale(0.12 -0.12)">
       <defs>
        <path d="M 525 4666 
L 3525 4666 
L 3525 4397 
L 1831 0 
L 1172 0 
L 2766 4134 
L 525 4134 
L 525 4666 
z
" id="DejaVuSans-37" transform="scale(0.015625)"/>
       </defs>
       <use xlink:href="#DejaVuSans-32"/>
       <use x="63.623047" xlink:href="#DejaVuSans-30"/>
       <use x="127.246094" xlink:href="#DejaVuSans-32"/>
       <use x="190.869141" xlink:href="#DejaVuSans-37"/>
      </g>
     </g>
    </g>
    <g id="xtick_8">
     <g id="line2d_8">
      <g>
       <use style="stroke:#000000;stroke-width:0.8;" x="230.077045" xlink:href="#mf771303806" y="251.94"/>
      </g>
     </g>
     <g id="text_8">
      <!-- 2028 -->
      <g transform="translate(233.388295 289.48)rotate(-90)scale(0.12 -0.12)">
       <defs>
        <path d="M 2034 2216 
Q 1584 2216 1326 1975 
Q 1069 1734 1069 1313 
Q 1069 891 1326 650 
Q 1584 409 2034 409 
Q 2484 409 2743 651 
Q 3003 894 3003 1313 
Q 3003 1734 2745 1975 
Q 2488 2216 2034 2216 
z
M 1403 2484 
Q 997 2584 770 2862 
Q 544 3141 544 3541 
Q 544 4100 942 4425 
Q 1341 4750 2034 4750 
Q 2731 4750 3128 4425 
Q 3525 4100 3525 3541 
Q 3525 3141 3298 2862 
Q 3072 2584 2669 2484 
Q 3125 2378 3379 2068 
Q 3634 1759 3634 1313 
Q 3634 634 3220 271 
Q 2806 -91 2034 -91 
Q 1263 -91 848 271 
Q 434 634 434 1313 
Q 434 1759 690 2068 
Q 947 2378 1403 2484 
z
M 1172 3481 
Q 1172 3119 1398 2916 
Q 1625 2713 2034 2713 
Q 2441 2713 2670 2916 
Q 2900 3119 2900 3481 
Q 2900 3844 2670 4047 
Q 2441 4250 2034 4250 
Q 1625 4250 1398 4047 
Q 1172 3844 1172 3481 
z
" id="DejaVuSans-38" transform="scale(0.015625)"/>
       </defs>
       <use xlink:href="#DejaVuSans-32"/>
       <use x="63.623047" xlink:href="#DejaVuSans-30"/>
       <use x="127.246094" xlink:href="#DejaVuSans-32"/>
       <use x="190.869141" xlink:href="#DejaVuSans-38"/>
      </g>
     </g>
    </g>
    <g id="xtick_9">
     <g id="line2d_9">
      <g>
       <use style="stroke:#000000;stroke-width:0.8;" x="253.209318" xlink:href="#mf771303806" y="251.94"/>
      </g>
     </g>
     <g id="text_9">
      <!-- 2029 -->
      <g transform="translate(256.520568 289.48)rotate(-90)scale(0.12 -0.12)">
       <defs>
        <path d="M 703 97 
L 703 672 
Q 941 559 1184 500 
Q 1428 441 1663 441 
Q 2288 441 2617 861 
Q 2947 1281 2994 2138 
Q 2813 1869 2534 1725 
Q 2256 1581 1919 1581 
Q 1219 1581 811 2004 
Q 403 2428 403 3163 
Q 403 3881 828 4315 
Q 1253 4750 1959 4750 
Q 2769 4750 3195 4129 
Q 3622 3509 3622 2328 
Q 3622 1225 3098 567 
Q 2575 -91 1691 -91 
Q 1453 -91 1209 -44 
Q 966 3 703 97 
z
M 1959 2075 
Q 2384 2075 2632 2365 
Q 2881 2656 2881 3163 
Q 2881 3666 2632 3958 
Q 2384 4250 1959 4250 
Q 1534 4250 1286 3958 
Q 1038 3666 1038 3163 
Q 1038 2656 1286 2365 
Q 1534 2075 1959 2075 
z
" id="DejaVuSans-39" transform="scale(0.015625)"/>
       </defs>
       <use xlink:href="#DejaVuSans-32"/>
       <use x="63.623047" xlink:href="#DejaVuSans-30"/>
       <use x="127.246094" xlink:href="#DejaVuSans-32"/>
       <use x="190.869141" xlink:href="#DejaVuSans-39"/>
      </g>
     </g>
    </g>
    <g id="xtick_10">
     <g id="line2d_10">
      <g>
       <use style="stroke:#000000;stroke-width:0.8;" x="276.341591" xlink:href="#mf771303806" y="251.94"/>
      </g>
     </g>
     <g id="text_10">
      <!-- 2030 -->
      <g transform="translate(279.652841 289.48)rotate(-90)scale(0.12 -0.12)">
       <use xlink:href="#DejaVuSans-32"/>
       <use x="63.623047" xlink:href="#DejaVuSans-30"/>
       <use x="127.246094" xlink:href="#DejaVuSans-33"/>
       <use x="190.869141" xlink:href="#DejaVuSans-30"/>
      </g>
     </g>
    </g>
    <g id="xtick_11">
     <g id="line2d_11">
      <g>
       <use style="stroke:#000000;stroke-width:0.8;" x="299.473864" xlink:href="#mf771303806" y="251.94"/>
      </g>
     </g>
     <g id="text_11">
      <!-- 2031 -->
      <g transform="translate(302.785114 289.48)rotate(-90)scale(0.12 -0.12)">
       <use xlink:href="#DejaVuSans-32"/>
       <use x="63.623047" xlink:href="#DejaVuSans-30"/>
       <use x="127.246094" xlink:href="#DejaVuSans-33"/>
       <use x="190.869141" xlink:href="#DejaVuSans-31"/>
      </g>
     </g>
    </g>
   </g>
   <g id="matplotlib.axis_2">
    <g id="ytick_1">
     <g id="line2d_12">
      <defs>
       <path d="M 0 0 
L -3.5 0 
" id="m9e793a152f" style="stroke:#000000;stroke-width:0.8;"/>
      </defs>
      <g>
       <use style="stroke:#000000;stroke-width:0.8;" x="56.585" xlink:href="#m9e793a152f" y="251.94"/>
      </g>
     </g>
     <g id="text_12">
      <!-- −14% -->
      <g transform="translate(12.8575 256.499063)scale(0.12 -0.12)">
       <defs>
        <path d="M 678 2272 
L 4684 2272 
L 4684 1741 
L 678 1741 
L 678 2272 
z
" id="DejaVuSans-2212" transform="scale(0.015625)"/>
        <path d="M 4653 2053 
Q 4381 2053 4226 1822 
Q 4072 1591 4072 1178 
Q 4072 772 4226 539 
Q 4381 306 4653 306 
Q 4919 306 5073 539 
Q 5228 772 5228 1178 
Q 5228 1588 5073 1820 
Q 4919 2053 4653 2053 
z
M 4653 2450 
Q 5147 2450 5437 2106 
Q 5728 1763 5728 1178 
Q 5728 594 5436 251 
Q 5144 -91 4653 -91 
Q 4153 -91 3862 251 
Q 3572 594 3572 1178 
Q 3572 1766 3864 2108 
Q 4156 2450 4653 2450 
z
M 1428 4353 
Q 1159 4353 1004 4120 
Q 850 3888 850 3481 
Q 850 3069 1003 2837 
Q 1156 2606 1428 2606 
Q 1700 2606 1854 2837 
Q 2009 3069 2009 3481 
Q 2009 3884 1853 4118 
Q 1697 4353 1428 4353 
z
M 4250 4750 
L 4750 4750 
L 1831 -91 
L 1331 -91 
L 4250 4750 
z
M 1428 4750 
Q 1922 4750 2215 4408 
Q 2509 4066 2509 3481 
Q 2509 2891 2217 2550 
Q 1925 2209 1428 2209 
Q 931 2209 642 2551 
Q 353 2894 353 3481 
Q 353 4063 643 4406 
Q 934 4750 1428 4750 
z
" id="DejaVuSans-25" transform="scale(0.015625)"/>
       </defs>
       <use xlink:href="#DejaVuSans-2212"/>
       <use x="83.789062" xlink:href="#DejaVuSans-31"/>
       <use x="147.412109" xlink:href="#DejaVuSans-34"/>
       <use x="211.035156" xlink:href="#DejaVuSans-25"/>
      </g>
     </g>
    </g>
    <g id="ytick_2">
     <g id="line2d_13">
      <g>
       <use style="stroke:#000000;stroke-width:0.8;" x="56.585" xlink:href="#m9e793a152f" y="222.6925"/>
      </g>
     </g>
     <g id="text_13">
      <!-- −12% -->
      <g transform="translate(12.8575 227.251563)scale(0.12 -0.12)">
       <use xlink:href="#DejaVuSans-2212"/>
       <use x="83.789062" xlink:href="#DejaVuSans-31"/>
       <use x="147.412109" xlink:href="#DejaVuSans-32"/>
       <use x="211.035156" xlink:href="#DejaVuSans-25"/>
      </g>
     </g>
    </g>
    <g id="ytick_3">
     <g id="line2d_14">
      <g>
       <use style="stroke:#000000;stroke-width:0.8;" x="56.585" xlink:href="#m9e793a152f" y="193.445"/>
      </g>
     </g>
     <g id="text_14">
      <!-- −10% -->
      <g transform="translate(12.8575 198.004063)scale(0.12 -0.12)">
       <use xlink:href="#DejaVuSans-2212"/>
       <use x="83.789062" xlink:href="#DejaVuSans-31"/>
       <use x="147.412109" xlink:href="#DejaVuSans-30"/>
       <use x="211.035156" xlink:href="#DejaVuSans-25"/>
      </g>
     </g>
    </g>
    <g id="ytick_4">
     <g id="line2d_15">
      <g>
       <use style="stroke:#000000;stroke-width:0.8;" x="56.585" xlink:href="#m9e793a152f" y="164.1975"/>
      </g>
     </g>
     <g id="text_15">
      <!-- −8% -->
      <g transform="translate(20.4925 168.756563)scale(0.12 -0.12)">
       <use xlink:href="#DejaVuSans-2212"/>
       <use x="83.789062" xlink:href="#DejaVuSans-38"/>
       <use x="147.412109" xlink:href="#DejaVuSans-25"/>
      </g>
     </g>
    </g>
    <g id="ytick_5">
     <g id="line2d_16">
      <g>
       <use style="stroke:#000000;stroke-width:0.8;" x="56.585" xlink:href="#m9e793a152f" y="134.95"/>
      </g>
     </g>
     <g id="text_16">
      <!-- −6% -->
      <g transform="translate(20.4925 139.509063)scale(0.12 -0.12)">
       <use xlink:href="#DejaVuSans-2212"/>
       <use x="83.789062" xlink:href="#DejaVuSans-36"/>
       <use x="147.412109" xlink:href="#DejaVuSans-25"/>
      </g>
     </g>
    </g>
    <g id="ytick_6">
     <g id="line2d_17">
      <g>
       <use style="stroke:#000000;stroke-width:0.8;" x="56.585" xlink:href="#m9e793a152f" y="105.7025"/>
      </g>
     </g>
     <g id="text_17">
      <!-- −4% -->
      <g transform="translate(20.4925 110.261562)scale(0.12 -0.12)">
       <use xlink:href="#DejaVuSans-2212"/>
       <use x="83.789062" xlink:href="#DejaVuSans-34"/>
       <use x="147.412109" xlink:href="#DejaVuSans-25"/>
      </g>
     </g>
    </g>
    <g id="ytick_7">
     <g id="line2d_18">
      <g>
       <use style="stroke:#000000;stroke-width:0.8;" x="56.585" xlink:href="#m9e793a152f" y="76.455"/>
      </g>
     </g>
     <g id="text_18">
      <!-- −2% -->
      <g transform="translate(20.4925 81.014062)scale(0.12 -0.12)">
       <use xlink:href="#DejaVuSans-2212"/>
       <use x="83.789062" xlink:href="#DejaVuSans-32"/>
       <use x="147.412109" xlink:href="#DejaVuSans-25"/>
      </g>
     </g>
    </g>
    <g id="ytick_8">
     <g id="line2d_19">
      <g>
       <use style="stroke:#000000;stroke-width:0.8;" x="56.585" xlink:href="#m9e793a152f" y="47.2075"/>
      </g>
     </g>
     <g id="text_19">
      <!-- 0% -->
      <g transform="translate(30.548125 51.766562)scale(0.12 -0.12)">
       <use xlink:href="#DejaVuSans-30"/>
       <use x="63.623047" xlink:href="#DejaVuSans-25"/>
      </g>
     </g>
    </g>
    <g id="ytick_9">
     <g id="line2d_20">
      <g>
       <use style="stroke:#000000;stroke-width:0.8;" x="56.585" xlink:href="#m9e793a152f" y="17.96"/>
      </g>
     </g>
     <g id="text_20">
      <!-- 2% -->
      <g transform="translate(30.548125 22.519062)scale(0.12 -0.12)">
       <use xlink:href="#DejaVuSans-32"/>
       <use x="63.623047" xlink:href="#DejaVuSans-25"/>
      </g>
     </g>
    </g>
   </g>
   <g id="line2d_21">
    <path clip-path="url(#p5b00b2cf35)" d="M 68.151136 47.2075 
L 73.934205 47.471512 
L 79.717273 48.430405 
L 85.500341 50.081569 
L 91.283409 52.429092 
L 97.066477 55.47043 
L 102.849545 59.212277 
L 108.632614 63.669379 
L 114.415682 68.843436 
L 120.19875 72.300345 
L 125.981818 76.222004 
L 131.764886 81.144625 
L 137.547955 86.801789 
L 143.331023 92.706016 
L 149.114091 98.279397 
L 154.897159 103.5833 
L 160.680227 108.649794 
L 166.463295 113.498542 
L 172.246364 118.142839 
L 178.029432 122.601946 
L 183.8125 126.879901 
L 189.595568 130.983556 
L 195.378636 134.929574 
L 201.161705 138.719381 
L 206.944773 142.36356 
L 212.727841 145.867683 
L 218.510909 149.23658 
L 224.293977 152.476433 
L 230.077045 155.596532 
L 235.860114 158.466489 
L 241.643182 159.705803 
L 247.42625 159.67811 
L 253.209318 158.86754 
L 258.992386 157.525541 
L 264.775455 155.80024 
L 270.558523 154.900338 
L 276.341591 154.878653 
L 282.124659 155.290136 
L 287.907727 155.929576 
L 293.690795 156.675984 
L 299.473864 157.480439 
" style="fill:none;stroke:#dc143c;stroke-linecap:square;stroke-width:1.5;"/>
   </g>
   <g id="line2d_22">
    <path clip-path="url(#p5b00b2cf35)" d="M 68.151136 47.2075 
L 299.473864 47.2075 
" style="fill:none;stroke:#000000;stroke-dasharray:1,1.65;stroke-dashoffset:0;"/>
   </g>
   <g id="line2d_23">
    <path clip-path="url(#p5b00b2cf35)" d="M 68.151136 47.2075 
L 73.934205 47.379276 
L 79.717273 48.000545 
L 85.500341 49.060584 
L 91.283409 50.557112 
L 97.066477 52.483145 
L 102.849545 54.844999 
L 108.632614 57.630348 
L 114.415682 60.844838 
L 120.19875 64.143373 
L 125.981818 67.764132 
L 131.764886 71.788519 
L 137.547955 76.196449 
L 143.331023 80.753695 
L 149.114091 85.105471 
L 154.897159 89.269732 
L 160.680227 93.244328 
L 166.463295 97.049505 
L 172.246364 100.690506 
L 178.029432 104.178587 
L 183.8125 107.503977 
L 189.595568 110.690862 
L 195.378636 113.735853 
L 201.161705 116.64801 
L 206.944773 119.424827 
L 212.727841 122.076971 
L 218.510909 124.608536 
L 224.293977 127.019103 
L 230.077045 129.314323 
L 235.860114 131.474367 
L 241.643182 133.287457 
L 247.42625 134.784563 
L 253.209318 136.026924 
L 258.992386 137.044855 
L 264.775455 137.88465 
L 270.558523 138.711062 
L 276.341591 139.584744 
L 282.124659 140.447722 
L 287.907727 141.278534 
L 293.690795 142.063181 
L 299.473864 142.786251 
" style="fill:none;stroke:#1e90ff;stroke-dasharray:5.55,2.4;stroke-dashoffset:0;stroke-width:1.5;"/>
   </g>
   <g id="line2d_24">
    <path clip-path="url(#p5b00b2cf35)" d="M 68.151136 47.2075 
L 299.473864 47.2075 
" style="fill:none;stroke:#000000;stroke-dasharray:1,1.65;stroke-dashoffset:0;"/>
   </g>
   <g id="patch_3">
    <path d="M 56.585 251.94 
L 56.585 17.96 
" style="fill:none;stroke:#000000;stroke-linecap:square;stroke-linejoin:miter;stroke-width:0.8;"/>
   </g>
   <g id="patch_4">
    <path d="M 311.04 251.94 
L 311.04 17.96 
" style="fill:none;stroke:#000000;stroke-linecap:square;stroke-linejoin:miter;stroke-width:0.8;"/>
   </g>
   <g id="patch_5">
    <path d="M 56.585 251.94 
L 311.04 251.94 
" style="fill:none;stroke:#000000;stroke-linecap:square;stroke-linejoin:miter;stroke-width:0.8;"/>
   </g>
   <g id="patch_6">
    <path d="M 56.585 17.96 
L 311.04 17.96 
" style="fill:none;stroke:#000000;stroke-linecap:square;stroke-linejoin:miter;stroke-width:0.8;"/>
   </g>
  </g>
 </g>
 <defs>
  <clipPath id="p5b00b2cf35">
   <rect height="233.98" width="254.455" x="56.585" y="17.96"/>
  </clipPath>
 </defs>
</svg>
